<?xml version="1.0" encoding="utf-8"?>
<!-- Generator: Adobe Illustrator 23.0.5, SVG Export Plug-In . SVG Version: 6.00 Build 0)  -->
<svg version="1.1" id="Layer_1" xmlns:v="https://vecta.io/nano"
	 xmlns="http://www.w3.org/2000/svg" xmlns:xlink="http://www.w3.org/1999/xlink" x="0px" y="0px" viewBox="0 0 240 240"
	 style="enable-background:new 0 0 240 240;" xml:space="preserve">
<style type="text/css">
	.st0{fill:#B9BFC9;}
	.st1{fill:url(#SVGID_1_);}
	.st2{fill:url(#SVGID_2_);}
	.st3{fill:#222226;}
	.st4{fill:#EAAE28;}
	.st5{fill:#F3BA2F;}
	.st6{fill:#F0B90B;}
	.st7{fill-rule:evenodd;clip-rule:evenodd;fill:#FFFDFA;}
</style>
<g>
	<path class="st0" d="M120,0L0,120l60,60c33,33,60,60,60,60s27.1-27,60-60l60-60L120,0z M151.4,151.3
		c-17.2,17.2-31.3,31.3-31.4,31.3s-14.2-14.1-31.4-31.3L57.3,120l31.3-31.4L120,57.3l31.3,31.3l31.3,31.4L151.4,151.3z"/>
	<g>
		
			<linearGradient id="SVGID_1_" gradientUnits="userSpaceOnUse" x1="119.9" y1="77" x2="119.9" y2="145.1736" gradientTransform="matrix(1 0 0 1 0 91)">
			<stop  offset="0" style="stop-color:#9CB84C"/>
			<stop  offset="1" style="stop-color:#2AB572"/>
		</linearGradient>
		<path class="st1" d="M98.2,214.4c-11.9-11.9-21.7-21.8-21.7-21.8c0-0.2,24.5-24.6,24.6-24.6s4.3,4.2,9.5,9.3l9.3,9.3l9.3-9.3
			c5.1-5.1,9.4-9.3,9.5-9.3c0.2,0,24.6,24.5,24.6,24.6s-43.3,43.5-43.4,43.5C120,236.1,110.2,226.4,98.2,214.4z"/>
		
			<linearGradient id="SVGID_2_" gradientUnits="userSpaceOnUse" x1="120.1" y1="-18.7" x2="120.1" y2="-87.1" gradientTransform="matrix(1 0 0 1 0 91)">
			<stop  offset="0" style="stop-color:#9CB84C"/>
			<stop  offset="1" style="stop-color:#2AB572"/>
		</linearGradient>
		<path class="st2" d="M88.9,59.9c-6.8-6.8-12.3-12.4-12.3-12.5s9.8-9.9,21.7-21.9L120,3.9l21.8,21.8l21.8,21.8l-12.4,12.4
			l-12.4,12.4l-9.4-9.4l-9.4-9.4l-9.4,9.4l-9.4,9.4L88.9,59.9L88.9,59.9z"/>
	</g>
	<path class="st0" d="M103.2,136.8L86.5,120l16.8-16.8L120,86.5l16.7,16.8l16.8,16.8l-16.7,16.7c-9.2,9.2-16.7,16.7-16.8,16.7
		S112.4,146,103.2,136.8z"/>
</g>
<g>
	<path class="st3" d="M43.2,165c-9.8-0.4-19.1-3.9-26.8-10.2c-2.1-1.7-4.5-4.1-6.2-6.2c-4.8-5.9-8.1-12.8-9.4-20.2
		c-1-5.5-1-11.3,0-16.7c1.4-7.4,4.6-14.3,9.4-20.2c1.7-2.1,4.1-4.5,6.2-6.2c5.9-4.8,12.8-8.1,20.2-9.4c5.5-1,11.3-1,16.7,0
		c7.4,1.4,14.3,4.6,20.2,9.4c2.1,1.7,4.5,4.1,6.2,6.2c4.8,5.9,8.1,12.8,9.4,20.2c1,5.5,1,11.3,0,16.7c-1.4,7.4-4.6,14.3-9.4,20.2
		c-1.7,2.1-4.1,4.5-6.2,6.2C65,161.8,54.2,165.4,43.2,165z"/>
</g>
<g>
	<path class="st4" d="M43.2,165c-9.8-0.4-19.1-3.9-26.8-10.2c-2.1-1.7-4.5-4.1-6.2-6.2c-4.8-5.9-8.1-12.8-9.4-20.2
		c-1-5.5-1-11.3,0-16.7c1.4-7.4,4.6-14.3,9.4-20.2c1.7-2.1,4.1-4.5,6.2-6.2c5.9-4.8,12.8-8.1,20.2-9.4c5.5-1,11.3-1,16.7,0
		c7.4,1.4,14.3,4.6,20.2,9.4c2.1,1.7,4.5,4.1,6.2,6.2c4.8,5.9,8.1,12.8,9.4,20.2c1,5.5,1,11.3,0,16.7c-1.4,7.4-4.6,14.3-9.4,20.2
		c-1.7,2.1-4.1,4.5-6.2,6.2C65,161.8,54.2,165.4,43.2,165z M47.9,160.4c3.7-0.3,6.7-0.9,9.9-2c3.4-1.1,6.7-2.7,9.7-4.7
		c8.4-5.6,14.4-14.1,16.8-23.9c0.4-1.8,0.8-3.9,1-5.6c0.2-1.6,0.2-2.1,0.2-4.2c0-2.5-0.1-3.6-0.4-5.8c-0.8-5.3-2.6-10.3-5.3-15
		c-4.6-7.7-11.8-13.8-20.2-17c-4-1.5-8.1-2.4-12.5-2.7c-1.1-0.1-4,0-4.9,0c-6.6,0.5-12.4,2.4-17.9,5.6c-7.7,4.6-13.8,11.8-17,20.2
		C5.9,109,5,112.7,4.7,117c-0.1,0.9-0.1,4.7,0,5.7c0.3,3.7,0.9,6.8,2,10c1.1,3.4,2.7,6.7,4.7,9.7c4.3,6.4,10.3,11.5,17.3,14.6
		c4.2,1.9,9,3.1,13.6,3.4c0.4,0,0.8,0.1,0.9,0.1C43.6,160.5,47.3,160.5,47.9,160.4z"/>
	<path class="st4" d="M27.8,137.2L10.6,120l17.2-17.2L45,85.6l17.2,17.2L79.4,120l-17.2,17.2c-9.5,9.5-17.2,17.2-17.2,17.2
		S37.2,146.7,27.8,137.2z M53.9,128.9l8.9-8.9l-8.9-8.9l-8.9-8.9l-8.9,8.9l-8.9,8.9l8.9,8.9c4.9,4.9,8.9,8.9,8.9,8.9
		S49,133.8,53.9,128.9z"/>
</g>
<g>
	<path class="st5" d="M27.8,137.2L10.6,120l17.2-17.2L45,85.6l17.2,17.2L79.4,120l-17.2,17.2c-9.5,9.5-17.2,17.2-17.2,17.2
		S37.2,146.7,27.8,137.2z M51.1,146.9l6.2-6.2l-3.5-3.5c-1.9-1.9-3.5-3.5-3.5-3.5s-1.2,1.2-2.7,2.6S45,139,45,139s-1.3-1.2-2.7-2.6
		c-1.4-1.4-2.7-2.6-2.7-2.6s-1.6,1.6-3.5,3.5l-3.5,3.5l6.2,6.2c3.4,3.4,6.2,6.2,6.2,6.2S47.8,150.3,51.1,146.9z M53.9,128.9l8.9-8.9
		l-8.9-8.9l-8.9-8.9l-8.9,8.9l-8.9,8.9l6.2,6.2c3.4,3.4,6.2,6.2,6.2,6.3l0,0c0,0,1.3,1.2,2.7,2.7c1.5,1.5,2.7,2.7,2.7,2.7
		S49,133.8,53.9,128.9z M42.2,103.5c1.5-1.5,2.7-2.7,2.7-2.7s1.3,1.2,2.7,2.7l2.7,2.7l3.5-3.5c1.9-1.9,3.5-3.5,3.5-3.5
		s-2.8-2.8-6.2-6.2L45,86.8L38.8,93l-6.2,6.2l3.5,3.5c1.9,1.9,3.5,3.5,3.5,3.5S40.8,105,42.2,103.5z"/>
	<path class="st5" d="M40.2,124.8l-4.8-4.8l4.8-4.8l4.8-4.8l4.8,4.8l4.8,4.8l-4.8,4.8c-2.6,2.6-4.8,4.8-4.8,4.8
		S42.8,127.4,40.2,124.8z"/>
</g>
<circle class="st6" cx="195" cy="120" r="45"/>
<path class="st7" d="M175.8,108.6L195,89.4l7.6,7.6l-19.2,19.2C183.5,116.2,175.8,108.6,175.8,108.6z M175.9,131.5l30.6-30.6
	l7.6,7.6l-30.6,30.6L175.9,131.5z M218,112.3L187.3,143l7.6,7.6l30.6-30.6L218,112.3L218,112.3z M164.4,120l7.6-7.6l7.6,7.6
	l-7.6,7.6L164.4,120z"/>
</svg>
