<?xml version="1.0" encoding="utf-8"?>
<!-- Generator: Adobe Illustrator 23.0.5, SVG Export Plug-In . SVG Version: 6.00 Build 0)  -->
<svg version="1.1" id="Layer_1" xmlns:v="https://vecta.io/nano"
	 xmlns="http://www.w3.org/2000/svg" xmlns:xlink="http://www.w3.org/1999/xlink" x="0px" y="0px" viewBox="0 0 240 240"
	 style="enable-background:new 0 0 240 240;" xml:space="preserve">
<style type="text/css">
	.st0{fill:#B9BFC9;}
	.st1{fill:url(#SVGID_1_);}
	.st2{fill:url(#SVGID_2_);}
	.st3{fill:#FFF5D8;}
	.st4{fill:#DC8101;}
	.st5{fill:#E5AF16;}
	.st6{fill:#FEE459;}
</style>
<g>
	<path class="st0" d="M120,0L0,120l60,60c33,33,60,60,60,60s27.1-27,60-60l60-60L120,0z M151.4,151.3
		c-17.2,17.2-31.3,31.3-31.4,31.3s-14.2-14.1-31.4-31.3L57.3,120l31.3-31.4L120,57.3l31.3,31.3l31.3,31.4L151.4,151.3z"/>
	<g>
		
			<linearGradient id="SVGID_1_" gradientUnits="userSpaceOnUse" x1="119.9" y1="-147" x2="119.9" y2="-78.8264" gradientTransform="matrix(1 0 0 1 0 315)">
			<stop  offset="0" style="stop-color:#9CB84C"/>
			<stop  offset="1" style="stop-color:#2AB572"/>
		</linearGradient>
		<path class="st1" d="M98.2,214.4c-11.9-11.9-21.7-21.8-21.7-21.8c0-0.2,24.5-24.6,24.6-24.6s4.3,4.2,9.5,9.3l9.3,9.3l9.3-9.3
			c5.1-5.1,9.4-9.3,9.5-9.3c0.2,0,24.6,24.5,24.6,24.6s-43.3,43.5-43.4,43.5C120,236.1,110.2,226.4,98.2,214.4z"/>
		
			<linearGradient id="SVGID_2_" gradientUnits="userSpaceOnUse" x1="120.1" y1="-242.7" x2="120.1" y2="-311.1" gradientTransform="matrix(1 0 0 1 0 315)">
			<stop  offset="0" style="stop-color:#9CB84C"/>
			<stop  offset="1" style="stop-color:#2AB572"/>
		</linearGradient>
		<path class="st2" d="M88.9,59.9c-6.8-6.8-12.3-12.4-12.3-12.5s9.8-9.9,21.7-21.9L120,3.9l21.8,21.8l21.8,21.8l-12.4,12.4
			l-12.4,12.4l-9.4-9.4l-9.4-9.4l-9.4,9.4l-9.4,9.4L88.9,59.9L88.9,59.9z"/>
	</g>
	<path class="st0" d="M103.2,136.8L86.5,120l16.8-16.8L120,86.5l16.7,16.8l16.8,16.8l-16.7,16.7c-9.2,9.2-16.7,16.7-16.8,16.7
		S112.4,146,103.2,136.8z"/>
</g>
<circle class="st3" cx="120" cy="120" r="60"/>
<g id="layer101">
	<path class="st4" d="M120.7,151.5c-1-0.1-2.5-0.6-3.9-1.2c-1.1-0.5-1.6-0.8-3.4-2.1c-2.1-1.4-4.2-2.4-6-2.7
		c-3-0.5-7.1,0.8-10.8,3.6c-2.9,2.2-3.5,2.4-5.5,2.3c-0.6-0.1-1.4-0.2-1.7-0.3c-1.2-0.5-2.2-1.5-2.6-2.9c-0.2-0.6-0.2-0.8-0.2-2.5
		c0-1.5,0-1.9,0.2-2.5c0.3-1.1,0.9-1.7,2.2-2.2c1.2-0.5,1.9-1.1,2.4-2c0.2-0.4,0.4-0.8,0.4-1c0-0.1-0.2-0.6-0.4-1
		c-0.7-1.3-1.7-1.8-3.6-2c-1.2-0.1-1.6-0.3-2.2-0.7c-0.6-0.5-1-1-1.3-1.8c-0.2-0.7-0.2-0.9-0.2-2.4c0-2.1,0.1-2.9,0.4-4
		c0.9-2.8,3.2-4.9,5.9-5.7c0.6-0.2,1.3-0.2,2.2-0.2l1.4,0l0-0.3c-0.2-1.8-0.3-6.1-0.1-8.8c0.4-5.9,1.1-7.6,4.2-11.9
		c1.9-2.6,4.4-5.4,6.7-7.7c1.8-1.8,3-2.6,4.6-2.9c0.7-0.2,1.3-0.2,3.7-0.1c7.5,0.2,13.4,0.9,19.1,2.2c2.2,0.5,5.5,1.4,6.2,1.7
		c0.7,0.3,1.7,1.2,2.2,2.1c0.8,1.3,1,1.8,1.2,5.2c0.1,1.6,0.2,4.1,0.3,5.6c0,2.8,0.1,2.8,0.2,2.7c0.1,0,0.5-0.2,1-0.5
		c1.3-0.7,2.3-0.8,3.8-0.8c1.7,0.1,3,0.7,4.5,2c0.8,0.7,1.2,1.3,1.4,2.3c0.2,0.7,0.2,0.8,0.2,2.6c0,2.2,0,2.7-0.4,3.4
		c-0.4,0.6-0.7,0.9-1.7,1.2c-1.2,0.4-1.9,0.7-2.7,1.4c-1.2,1-2,2.1-2.5,3.6l-0.2,0.6l0.2,0.4c0.5,1.4,1.4,2,3.3,2.1
		c3.9,0.3,6,1.5,6.6,3.7c0.2,0.6,0.2,0.9,0.2,2.6c0,1.3,0,2.1-0.1,2.6c-0.3,1.6-1.1,2.7-2.3,3.3c-0.6,0.3-0.9,0.3-2.3,0.3
		c-1.9,0-3.2-0.2-6.3-1.2c-1-0.3-1.3-0.3-2.4-0.3c-2.9,0.2-4.9,1.5-9.9,6.7c-4.6,4.7-6.8,6.4-9.3,7.1
		C122.3,151.6,121.8,151.6,120.7,151.5z"/>
</g>
<g id="layer102">
	<path class="st5" d="M120.6,149.3c-0.7-0.1-2.2-0.6-3.1-1c-1.2-0.5-2.4-1.2-4.1-2.3c-4.8-3.3-8.3-3.7-13.1-1.4
		c-1.6,0.7-2.5,1.3-4.3,2.7c-1.1,0.8-1.9,1.3-2.4,1.6c-0.8,0.3-0.9,0.3-2.3,0.3c-1.2-0.1-1.6-0.1-2.1-0.4c-2.1-1-3.1-3.3-2.5-5.6
		c0.3-1.1,0.8-1.7,2.2-2.2c1.1-0.5,1.8-1,2.3-1.8c0.7-1.1,0.9-2.2,0.5-3.5c-0.2-0.8-0.7-1.5-1.4-2c-0.6-0.5-1.3-0.7-2.4-0.8
		c-2.4-0.2-3.6-1.3-3.9-3.5c-0.3-2.6,1-5.6,3.3-7.4c1.6-1.2,3.1-1.8,5.2-1.8l1.4,0l0-0.3c-0.2-1.8-0.3-6.1-0.1-8.8
		c0.4-5.9,1.1-7.6,4.2-11.9c1.9-2.6,4.4-5.4,6.7-7.7c1.8-1.8,3-2.5,4.6-2.9c0.7-0.2,1.3-0.2,3.7-0.1c7.5,0.2,13.4,0.9,19.1,2.2
		c2.2,0.5,5.5,1.4,6.2,1.7c0.7,0.3,1.7,1.2,2.2,2.1c0.8,1.3,1,1.8,1.2,5.2c0.1,1.6,0.2,4.1,0.3,5.6c0,2.8,0.1,2.8,0.2,2.7
		c0.1,0,0.5-0.2,1-0.5c1.3-0.7,2.3-0.8,3.8-0.8c1.3,0.1,2,0.3,3.2,1c0.8,0.5,1.9,1.4,2.2,2.1c0.8,1.4,1,3.7,0.4,4.9
		c-0.4,0.7-0.7,1-1.8,1.3c-1.1,0.4-1.8,0.7-2.6,1.3c-1.3,1-2.1,2.2-2.6,3.7c-0.3,1.1-0.4,2.4-0.1,3.2c0.6,1.4,1.4,2,3.3,2.1
		c2.4,0.2,4.2,0.7,5.2,1.6c0.7,0.6,1.1,1.2,1.4,2.1c0.2,0.7,0.2,0.8,0.2,1.9c-0.1,1.4-0.2,2.1-0.7,2.9c-0.4,0.7-1,1.2-1.7,1.5
		c-0.4,0.2-0.9,0.2-2.4,0.2c-2,0-3.1-0.2-5.6-1c-2.8-0.9-4.7-0.6-7.2,1.1c-1.5,1-2.9,2.3-6.1,5.5c-4.2,4.3-6.3,5.9-8.8,6.7
		C122.6,149.3,121.3,149.5,120.6,149.3z"/>
</g>
<g id="layer103">
	<path class="st6" d="M119.7,149.1c-1.8-0.4-3.8-1.4-5.5-2.6c-3.7-2.6-6.1-3.5-8.8-3.3c-2.9,0.2-5.9,1.4-9,3.8
		c-0.9,0.6-1.8,1.3-2.1,1.5c-1.9,1.2-5,0.8-6.4-0.7c-1.1-1.2-1.6-3-1.1-4.6c0.3-1.1,0.8-1.7,2.2-2.2c1.1-0.5,1.8-1,2.3-1.7
		c0.5-0.8,0.7-1.5,0.7-2.3c0-1.3-0.6-2.5-1.6-3.2c-0.8-0.6-1.2-0.7-2.5-0.9c-0.6-0.1-1.3-0.2-1.6-0.3c-1.6-0.7-2.5-2.4-2.2-4.7
		c0.4-3.4,3-6.5,6.3-7.4c0.6-0.2,1.3-0.2,2.2-0.2l1.4,0l0-0.3c-0.2-1.8-0.3-6.1-0.1-8.8c0.4-5.9,1.1-7.6,4.2-11.9
		c1.9-2.6,4.4-5.4,6.7-7.7c1.8-1.8,3-2.6,4.6-2.9c0.7-0.2,1.3-0.2,3.7-0.1c7.5,0.2,13.4,0.9,19.1,2.2c2.2,0.5,5.5,1.4,6.2,1.7
		c0.7,0.3,1.7,1.2,2.2,2.1c0.8,1.3,1,1.8,1.2,5.2c0.1,1.6,0.2,4.1,0.3,5.6c0,2.8,0.1,2.8,0.2,2.7c0.1,0,0.5-0.2,1-0.5
		c1.3-0.7,2.3-0.8,3.8-0.8c1.3,0.1,2,0.3,3.2,1c0.8,0.5,1.9,1.4,2.2,2.1c0.6,1,0.9,2.7,0.7,4c-0.1,0.6-0.6,1.5-0.9,1.8
		c-0.1,0.1-0.6,0.3-1.1,0.5c-2.6,0.8-4.5,2.7-5.2,5.1c-0.4,1.4-0.3,2.7,0.2,3.7c0.6,1.1,1.4,1.5,3.1,1.6c3.9,0.3,6,1.5,6.6,3.7
		c0.2,0.6,0.2,0.8,0.2,1.8c-0.2,4.8-3.2,5.9-10.7,3.6c-2.8-0.9-5-0.4-7.8,1.8c-1.4,1.1-2.5,2.1-4.9,4.6c-2.6,2.6-3.8,3.8-5.2,4.8
		c-1.3,1-3.1,2-4.2,2.3C122.2,149.3,120.8,149.3,119.7,149.1z M124,131.2c1.8-0.5,3.6-1.8,6-4.3c1.4-1.4,2.8-3.4,5.3-7.1
		c2.4-3.6,6.2-9.8,6.5-10.7c0.4-1.1,0.3-5.7-0.1-10.3c-0.2-1.8-0.2-2.1-0.5-2.6c-0.4-0.6-0.7-0.5-1.3,0.6c-1.4,2.4-5.5,8.8-6.1,9.5
		c-0.9,1.1-1.8,1.8-3.3,2.9c-3.1,2.1-3.9,3-4.1,4.8c-0.1,0.5,0.1,1.6,0.5,4.3c0.3,1.6,0.3,2,0.3,3.1c0,1-0.1,1.4-0.2,1.8
		c-0.3,1-0.6,1.4-1,1.8c-0.4,0.3-0.5,0.3-0.9,0.3c-1.4-0.3-2.2-3.1-1.6-6.1c0.5-3.1,0.4-3.8-0.9-4.6c-1.1-0.6-3.8-1.2-6.7-1.5
		c-3-0.3-4.6-0.6-8.3-1.4c-3.2-0.7-5-1.3-7.1-2.3c-2.5-1.2-4.9-2.3-5.2-2.2c-0.3,0.1-0.7,0.6-0.8,1.2c-0.5,2.7-0.4,12,0.3,14.1
		c0.5,1.8,1.2,2.5,3.1,3.2c5.2,1.8,17.3,4.9,22.9,5.8C121.7,131.5,122.9,131.5,124,131.2z"/>
</g>
</svg>
