<?xml version="1.0" encoding="utf-8"?>
<!-- Generator: Adobe Illustrator 23.0.5, SVG Export Plug-In . SVG Version: 6.00 Build 0)  -->
<svg version="1.1" id="Layer_1" xmlns:v="https://vecta.io/nano"
	 xmlns="http://www.w3.org/2000/svg" xmlns:xlink="http://www.w3.org/1999/xlink" x="0px" y="0px" viewBox="0 0 240 240"
	 style="enable-background:new 0 0 240 240;" xml:space="preserve">
<style type="text/css">
	.st0{fill:#B9BFC9;}
	.st1{fill:url(#SVGID_1_);}
	.st2{fill:url(#SVGID_2_);}
	.st3{fill:#FFF5D8;}
	.st4{fill:#FFC31A;}
	.st5{fill:#FFD538;}
	.st6{fill:#FCCD35;}
</style>
<g>
	<path class="st0" d="M120,0L0,120l60,60c33,33,60,60,60,60s27.1-27,60-60l60-60L120,0z M151.4,151.3
		c-17.2,17.2-31.3,31.3-31.4,31.3s-14.2-14.1-31.4-31.3L57.3,120l31.3-31.4L120,57.3l31.3,31.3l31.3,31.4L151.4,151.3z"/>
	<g>
		
			<linearGradient id="SVGID_1_" gradientUnits="userSpaceOnUse" x1="119.9" y1="275" x2="119.9" y2="206.8264" gradientTransform="matrix(1 0 0 -1 0 443)">
			<stop  offset="0" style="stop-color:#9CB84C"/>
			<stop  offset="1" style="stop-color:#2AB572"/>
		</linearGradient>
		<path class="st1" d="M98.2,214.4c-11.9-11.9-21.7-21.8-21.7-21.8c0-0.2,24.5-24.6,24.6-24.6s4.3,4.2,9.5,9.3l9.3,9.3l9.3-9.3
			c5.1-5.1,9.4-9.3,9.5-9.3c0.2,0,24.6,24.5,24.6,24.6s-43.3,43.5-43.4,43.5C120,236.1,110.2,226.4,98.2,214.4z"/>
		
			<linearGradient id="SVGID_2_" gradientUnits="userSpaceOnUse" x1="120.1" y1="370.7" x2="120.1" y2="439.1" gradientTransform="matrix(1 0 0 -1 0 443)">
			<stop  offset="0" style="stop-color:#9CB84C"/>
			<stop  offset="1" style="stop-color:#2AB572"/>
		</linearGradient>
		<path class="st2" d="M88.9,59.9c-6.8-6.8-12.3-12.4-12.3-12.5s9.8-9.9,21.7-21.9L120,3.9l21.8,21.8l21.8,21.8l-12.4,12.4
			l-12.4,12.4l-9.4-9.4l-9.4-9.4l-9.4,9.4l-9.4,9.4L88.9,59.9L88.9,59.9z"/>
	</g>
	<path class="st0" d="M103.2,136.8L86.5,120l16.8-16.8L120,86.5l16.7,16.8l16.8,16.8l-16.7,16.7c-9.2,9.2-16.7,16.7-16.8,16.7
		S112.4,146,103.2,136.8z"/>
</g>
<circle class="st3" cx="120" cy="120" r="75"/>
<g id="layer102">
	<path class="st4" d="M124.5,121c-5.7,0.3-11.8,0-17.8-0.8c-18.3-2-31.8-8.5-35.2-16.5c-0.2-0.5-0.3-1-0.3-0.5
		c-0.3,0.3-1.2,9.3-1.5,12.8c-0.3,3.3-0.3,10.8,0,13.3c1,7,3.2,11.8,7.3,16.2c7.3,7.3,19.7,11.7,37,12.8c5.3,0.3,18.3,0.3,20.3-0.3
		h0.3v-21.3c0.8-5.7,1.5-11,2-16.5C134.7,120.2,128.5,120.5,124.5,121z"/>
	<path class="st5" d="M170.5,110.5c-0.3-2-0.7-5.8-1-6c0,0-9.7,0-21.3,0h-21.3l5,7.5c2.8,4.2,5,7.7,5,7.7c-0.7,5.7-1.5,11-2,16.5
		h16.8c13.7,0,17.2,0,17.2-0.3c0.3-0.3,1-6,1.2-9.5C170.7,122.7,170.8,114,170.5,110.5z M148,131.5c-0.3,0.3-1.2,0.3-1.7,0.3
		c-4,0-5.3-5.3-2-7.5c1.5-0.8,3.2-0.8,4.3,0.3c0.7,0.3,1.5,2,1.5,2.8C150.2,129.3,149,131,148,131.5z M157.5,120
		c-0.3,0.3-1.2,0.3-2,0.3c-4.5,0-6.7-5.8-3.3-9.2c2.5-2,6.3-1.5,7.7,1.7c0.3,0.8,0.3,1.2,0.3,2.5C160.5,117.5,159.7,119,157.5,120z
		 M163.5,129.5c-1.2,0.8-3.2,0.3-3.5-0.7c-0.3-0.8-0.3-2,0-2.8c1-1.5,3.3-1.5,4.3,0C164.8,127.2,164.7,129,163.5,129.5z"/>
	<path class="st6" d="M112.8,117.5c-19-1.2-34.7-7.3-38.2-14.8c-0.3-1.2-0.3-1.5-0.3-2.8c0-1.2,0-1.7,0.7-2.8
		c3.2-6.5,15.3-12,31.3-14.3c7-1,16.8-1.2,22.8-0.3c13.7,1.5,25.8,5.2,33.3,10.5c2,1.5,5,4.3,5.8,6c0.3,0.7,0.7,1.5,0.7,1.7v0.3
		h-23.8h-24l5.3,8c2.8,4.3,5.3,8,5.3,8C131.3,117.5,117.2,118.2,112.8,117.5z M119.7,112.7c1.5-0.7,1.5-1.7-0.3-2
		c-2-0.8-5.7-0.3-5.7,1c0,0.3,0.3,1.2,1.2,1.5C116.5,113.3,118.8,113.3,119.7,112.7z M95,107.7c0.8-0.3,1.5-0.8,2-1.2
		c1-1,1-1.7,0-2.7c-2-2-8-2-10.5-0.3c-1.7,1.7-0.3,3.5,3.2,4.3C91.2,108.3,94,108.3,95,107.7z M123.5,95.7c1-0.3,1-1.2,0-1.7
		c-1-0.7-4.3-0.7-5.2-0.3c-0.8,0.3-1.2,1-0.8,1.5C118.5,96,122,96.3,123.5,95.7z M139.8,95.7c1.5-0.3,2.5-1.5,2.5-2.5
		c0-1-0.3-1.7-2-2c-1.2-0.3-4.3-0.8-6-0.3c-1.5,0.3-2.7,1.7-2.7,2.5c0,0.8,1.2,1.8,2.5,2.5C135.7,95.8,138.5,95.8,139.8,95.7z
		 M106,92.5c1.2-0.3,2.5-1.5,2.5-2c0-0.3-0.3-0.7-0.8-1.2c-2-1.7-7-1.8-9.2-0.3c-0.7,0.3-0.7,0.7-0.7,1.2c0,1.2,1.7,2,4.2,2.7
		C102.8,92.8,105,92.8,106,92.5z"/>
</g>
</svg>
