<?xml version="1.0" encoding="utf-8"?>
<!-- Generator: Adobe Illustrator 23.0.5, SVG Export Plug-In . SVG Version: 6.00 Build 0)  -->
<svg version="1.1" id="Layer_1" xmlns:v="https://vecta.io/nano"
	 xmlns="http://www.w3.org/2000/svg" xmlns:xlink="http://www.w3.org/1999/xlink" x="0px" y="0px" viewBox="0 0 240 240"
	 style="enable-background:new 0 0 240 240;" xml:space="preserve">
<style type="text/css">
	.st0{fill:#B9BFC9;}
	.st1{fill:url(#SVGID_1_);}
	.st2{fill:url(#SVGID_2_);}
	.st3{fill:#FFF5D8;}
	.st4{fill:#FFC31A;}
	.st5{fill:#FFD538;}
	.st6{fill:#FCCD35;}
</style>
<g>
	<path class="st0" d="M120,0L0,120l60,60c33,33,60,60,60,60s27.1-27,60-60l60-60L120,0z M151.4,151.3
		c-17.2,17.2-31.3,31.3-31.4,31.3s-14.2-14.1-31.4-31.3L57.3,120l31.3-31.4L120,57.3l31.3,31.3l31.3,31.4L151.4,151.3z"/>
	<g>
		
			<linearGradient id="SVGID_1_" gradientUnits="userSpaceOnUse" x1="119.9" y1="-147" x2="119.9" y2="-78.8264" gradientTransform="matrix(1 0 0 1 0 315)">
			<stop  offset="0" style="stop-color:#9CB84C"/>
			<stop  offset="1" style="stop-color:#2AB572"/>
		</linearGradient>
		<path class="st1" d="M98.2,214.4c-11.9-11.9-21.7-21.8-21.7-21.8c0-0.2,24.5-24.6,24.6-24.6s4.3,4.2,9.5,9.3l9.3,9.3l9.3-9.3
			c5.1-5.1,9.4-9.3,9.5-9.3c0.2,0,24.6,24.5,24.6,24.6s-43.3,43.5-43.4,43.5C120,236.1,110.2,226.4,98.2,214.4z"/>
		
			<linearGradient id="SVGID_2_" gradientUnits="userSpaceOnUse" x1="120.1" y1="-242.7" x2="120.1" y2="-311.1" gradientTransform="matrix(1 0 0 1 0 315)">
			<stop  offset="0" style="stop-color:#9CB84C"/>
			<stop  offset="1" style="stop-color:#2AB572"/>
		</linearGradient>
		<path class="st2" d="M88.9,59.9c-6.8-6.8-12.3-12.4-12.3-12.5s9.8-9.9,21.7-21.9L120,3.9l21.8,21.8l21.8,21.8l-12.4,12.4
			l-12.4,12.4l-9.4-9.4l-9.4-9.4l-9.4,9.4l-9.4,9.4L88.9,59.9L88.9,59.9z"/>
	</g>
	<path class="st0" d="M103.2,136.8L86.5,120l16.8-16.8L120,86.5l16.7,16.8l16.8,16.8l-16.7,16.7c-9.2,9.2-16.7,16.7-16.8,16.7
		S112.4,146,103.2,136.8z"/>
</g>
<circle class="st3" cx="120" cy="120" r="60"/>
<g id="layer102">
	<path class="st4" d="M123.6,120.8c-4.6,0.2-9.4,0-14.2-0.6c-14.6-1.6-25.4-6.8-28.2-13.2c-0.2-0.4-0.2-0.8-0.2-0.4
		c-0.2,0.2-1,7.4-1.2,10.2c-0.2,2.6-0.2,8.6,0,10.6c0.8,5.6,2.6,9.4,5.8,13c5.8,5.8,15.8,9.4,29.6,10.2c4.2,0.2,14.6,0.2,16.2-0.2
		h0.2v-17c0.6-4.6,1.2-8.8,1.6-13.2C131.8,120.2,126.8,120.4,123.6,120.8z"/>
	<path class="st5" d="M160.4,112.4c-0.2-1.6-0.6-4.6-0.8-4.8c0,0-7.8,0-17,0h-17l4,6c2.2,3.4,4,6.2,4,6.2c-0.6,4.6-1.2,8.8-1.6,13.2
		h13.4c11,0,13.8,0,13.8-0.2c0.2-0.2,0.8-4.8,1-7.6C160.6,122.2,160.6,115.2,160.4,112.4z M142.4,129.2c-0.2,0.2-1,0.2-1.4,0.2
		c-3.2,0-4.2-4.2-1.6-6c1.2-0.6,2.6-0.6,3.4,0.2c0.6,0.2,1.2,1.6,1.2,2.2C144.2,127.4,143.2,128.8,142.4,129.2z M150,120
		c-0.2,0.2-1,0.2-1.6,0.2c-3.6,0-5.4-4.6-2.6-7.4c2-1.6,5-1.2,6.2,1.4c0.2,0.6,0.2,1,0.2,2C152.4,118,151.8,119.2,150,120z
		 M154.8,127.6c-1,0.6-2.6,0.2-2.8-0.6c-0.2-0.6-0.2-1.6,0-2.2c0.8-1.2,2.6-1.2,3.4,0C155.8,125.8,155.8,127.2,154.8,127.6z"/>
	<path class="st6" d="M114.2,118c-15.2-1-27.8-5.8-30.6-11.8c-0.2-1-0.2-1.2-0.2-2.2c0-1,0-1.4,0.6-2.2c2.6-5.2,12.2-9.6,25-11.4
		c5.6-0.8,13.4-1,18.2-0.2c11,1.2,20.6,4.2,26.6,8.4c1.6,1.2,4,3.4,4.6,4.8c0.2,0.6,0.6,1.2,0.6,1.4v0.2h-19h-19.2l4.2,6.4
		c2.2,3.4,4.2,6.4,4.2,6.4C129,118,117.8,118.6,114.2,118z M119.8,114.2c1.2-0.6,1.2-1.4-0.2-1.6c-1.6-0.6-4.6-0.2-4.6,0.8
		c0,0.2,0.2,1,1,1.2C117.2,114.6,119,114.6,119.8,114.2z M100,110.2c0.6-0.2,1.2-0.6,1.6-1c0.8-0.8,0.8-1.4,0-2.2
		c-1.6-1.6-6.4-1.6-8.4-0.2c-1.4,1.4-0.2,2.8,2.6,3.4C97,110.6,99.2,110.6,100,110.2z M122.8,100.6c0.8-0.2,0.8-1,0-1.4
		c-0.8-0.6-3.4-0.6-4.2-0.2c-0.6,0.2-1,0.8-0.6,1.2C118.8,100.8,121.6,101,122.8,100.6z M135.8,100.6c1.2-0.2,2-1.2,2-2
		s-0.2-1.4-1.6-1.6c-1-0.2-3.4-0.6-4.8-0.2c-1.2,0.2-2.2,1.4-2.2,2c0,0.6,1,1.4,2,2C132.6,100.6,134.8,100.6,135.8,100.6z M108.8,98
		c1-0.2,2-1.2,2-1.6c0-0.2-0.2-0.6-0.6-1c-1.6-1.4-5.6-1.4-7.4-0.2c-0.6,0.2-0.6,0.6-0.6,1c0,1,1.4,1.6,3.4,2.2
		C106.2,98.2,108,98.2,108.8,98z"/>
</g>
</svg>
