<?xml version="1.0" encoding="utf-8"?>
<!-- Generator: Adobe Illustrator 23.0.5, SVG Export Plug-In . SVG Version: 6.00 Build 0)  -->
<svg version="1.1" id="Layer_1" xmlns:v="https://vecta.io/nano"
	 xmlns="http://www.w3.org/2000/svg" xmlns:xlink="http://www.w3.org/1999/xlink" x="0px" y="0px" viewBox="0 0 240 240"
	 style="enable-background:new 0 0 240 240;" xml:space="preserve">
<style type="text/css">
	.st0{fill:#B9BFC9;}
	.st1{fill:url(#SVGID_1_);}
	.st2{fill:url(#SVGID_2_);}
	.st3{fill:#F0B90B;}
	.st4{fill:#FFFDFA;}
	.st5{fill:#D7D9E2;}
	.st6{fill:#F3BA2F;}
	.st7{fill:url(#SVGID_3_);}
	.st8{fill:url(#SVGID_4_);}
	.st9{fill:#FFC31A;}
	.st10{fill:#FFD538;}
	.st11{fill:#FCCD35;}
</style>
<g>
	<path class="st0" d="M120,0L0,120l60,60c33,33,60,60,60,60s27.1-27,60-60l60-60L120,0z M151.4,151.3
		c-17.2,17.2-31.3,31.3-31.4,31.3s-14.2-14.1-31.4-31.3L57.3,120l31.3-31.4L120,57.3l31.3,31.3l31.3,31.4L151.4,151.3z"/>
	<g>
		
			<linearGradient id="SVGID_1_" gradientUnits="userSpaceOnUse" x1="119.9" y1="163" x2="119.9" y2="94.8264" gradientTransform="matrix(1 0 0 -1 0 331)">
			<stop  offset="0" style="stop-color:#9CB84C"/>
			<stop  offset="1" style="stop-color:#2AB572"/>
		</linearGradient>
		<path class="st1" d="M98.2,214.4c-11.9-11.9-21.7-21.8-21.7-21.8c0-0.2,24.5-24.6,24.6-24.6s4.3,4.2,9.5,9.3l9.3,9.3l9.3-9.3
			c5.1-5.1,9.4-9.3,9.5-9.3c0.2,0,24.6,24.5,24.6,24.6s-43.3,43.5-43.4,43.5C120,236.1,110.2,226.4,98.2,214.4z"/>
		
			<linearGradient id="SVGID_2_" gradientUnits="userSpaceOnUse" x1="120.1" y1="258.7" x2="120.1" y2="327.1" gradientTransform="matrix(1 0 0 -1 0 331)">
			<stop  offset="0" style="stop-color:#9CB84C"/>
			<stop  offset="1" style="stop-color:#2AB572"/>
		</linearGradient>
		<path class="st2" d="M88.9,59.9c-6.8-6.8-12.3-12.4-12.3-12.5s9.8-9.9,21.7-21.9L120,3.9l21.8,21.8l21.8,21.8l-12.4,12.4
			l-12.4,12.4l-9.4-9.4l-9.4-9.4l-9.4,9.4l-9.4,9.4L88.9,59.9L88.9,59.9z"/>
	</g>
	<path class="st0" d="M103.2,136.8L86.5,120l16.8-16.8L120,86.5l16.7,16.8l16.8,16.8l-16.7,16.7c-9.2,9.2-16.7,16.7-16.8,16.7
		S112.4,146,103.2,136.8z"/>
</g>
<circle class="st3" cx="195" cy="120" r="45"/>
<path class="st4" d="M178.2,120l-6.9,6.9l-6.9-6.9l6.9-6.9L178.2,120z M195,103.2l11.9,11.9l6.9-6.9l-11.9-11.8l-6.9-6.9l-18.7,18.7
	l6.9,6.9L195,103.2z M218.7,113.1l-6.9,6.9l6.9,6.9l6.9-6.9L218.7,113.1z M195,136.8l-11.9-11.9l-6.9,6.9l18.7,18.7l18.8-18.8
	l-6.9-6.9L195,136.8z M195,126.9l6.9-6.9l-6.9-6.9l-6.9,6.9L195,126.9z"/>
<g>
	<path class="st0" d="M43.2,165c-9.8-0.4-19.1-3.9-26.8-10.2c-2.1-1.7-4.5-4.1-6.2-6.2c-4.8-5.9-8.1-12.8-9.4-20.2
		c-1-5.5-1-11.3,0-16.7c1.4-7.4,4.6-14.3,9.4-20.2c1.7-2.1,4.1-4.5,6.2-6.2c5.9-4.8,12.8-8.1,20.2-9.4c5.5-1,11.3-1,16.7,0
		c7.4,1.4,14.3,4.6,20.2,9.4c2.1,1.7,4.5,4.1,6.2,6.2c4.8,5.9,8.1,12.8,9.4,20.2c1,5.5,1,11.3,0,16.7c-1.4,7.4-4.6,14.3-9.4,20.2
		c-1.7,2.1-4.1,4.5-6.2,6.2C65,161.8,54.2,165.4,43.2,165z"/>
</g>
<g>
	<path class="st5" d="M43.2,165c-9.8-0.4-19.1-3.9-26.8-10.2c-2.1-1.7-4.5-4.1-6.2-6.2c-4.8-5.9-8.1-12.8-9.4-20.2
		c-1-5.5-1-11.3,0-16.7c1.4-7.4,4.6-14.3,9.4-20.2c1.7-2.1,4.1-4.5,6.2-6.2c5.9-4.8,12.8-8.1,20.2-9.4c5.5-1,11.3-1,16.7,0
		c7.4,1.4,14.3,4.6,20.2,9.4c2.1,1.7,4.5,4.1,6.2,6.2c4.8,5.9,8.1,12.8,9.4,20.2c1,5.5,1,11.3,0,16.7c-1.4,7.4-4.6,14.3-9.4,20.2
		c-1.7,2.1-4.1,4.5-6.2,6.2C65,161.8,54.2,165.4,43.2,165z M64.5,139.4L83.9,120l-19.5-19.5L45,81.1l-19.5,19.5L6.1,120l19.4,19.4
		C36.2,150.1,45,158.9,45,158.9S53.8,150.1,64.5,139.4z"/>
	<path class="st5" d="M34.8,130.1L24.7,120l10.2-10.2L45,99.7l10.2,10.2L65.3,120l-10.2,10.2c-5.6,5.6-10.2,10.2-10.2,10.2
		S40.4,135.7,34.8,130.1z"/>
</g>
<g>
	<path class="st6" d="M43.2,165c-9.8-0.4-19.1-3.9-26.8-10.2c-2.1-1.7-4.5-4.1-6.2-6.2c-4.8-5.9-8.1-12.8-9.4-20.2
		c-1-5.5-1-11.3,0-16.7c1.4-7.4,4.6-14.3,9.4-20.2c1.7-2.1,4.1-4.5,6.2-6.2c5.9-4.8,12.8-8.1,20.2-9.4c5.5-1,11.3-1,16.7,0
		c7.4,1.4,14.3,4.6,20.2,9.4c2.1,1.7,4.5,4.1,6.2,6.2c4.8,5.9,8.1,12.8,9.4,20.2c1,5.5,1,11.3,0,16.7c-1.4,7.4-4.6,14.3-9.4,20.2
		c-1.7,2.1-4.1,4.5-6.2,6.2C65,161.8,54.2,165.4,43.2,165z M48,160.4c1.9-0.1,3.5-0.4,5.2-0.7c9.6-2,18.3-7.5,24.2-15.4
		c4.4-5.9,7.1-12.8,7.9-20.2c0.1-1.5,0.2-2.2,0.2-4.1c0-2.6-0.1-4.4-0.5-6.8c-1.7-10.2-7.3-19.4-15.6-25.6
		c-5.9-4.4-12.8-7.1-20.2-7.9c-1.5-0.1-2.2-0.2-4.1-0.2c-2.6,0-4.4,0.1-6.8,0.5C28,81.8,18.8,87.4,12.6,95.7
		c-4.4,5.9-7.1,12.8-7.9,20.2c-0.1,1.5-0.2,2.2-0.2,4.1c0,2.6,0.1,4.4,0.5,6.8c1.7,10.2,7.3,19.4,15.6,25.6
		c5.9,4.4,12.8,7.1,20.2,7.9c0.5,0.1,1.2,0.1,2.5,0.2C44,160.5,47.2,160.5,48,160.4z"/>
</g>
<g>
	
		<linearGradient id="SVGID_3_" gradientUnits="userSpaceOnUse" x1="45" y1="104.4721" x2="45" y2="82.3703" gradientTransform="matrix(1 0 0 -1 0 240)">
		<stop  offset="0" style="stop-color:#9CB84C"/>
		<stop  offset="1" style="stop-color:#2AB572"/>
	</linearGradient>
	<path class="st7" d="M37.9,150.6c-3.9-3.9-7-7.1-7-7.1c0-0.1,7.9-8,8-8c0,0,1.4,1.4,3.1,3l3,3l3-3c1.7-1.7,3-3,3.1-3
		c0.1,0,8,7.9,8,8c0,0-14,14.1-14.1,14.1C45,157.6,41.8,154.5,37.9,150.6z"/>
	
		<linearGradient id="SVGID_4_" gradientUnits="userSpaceOnUse" x1="45.0225" y1="135.4866" x2="45.0225" y2="157.656" gradientTransform="matrix(1 0 0 -1 0 240)">
		<stop  offset="0" style="stop-color:#9CB84C"/>
		<stop  offset="1" style="stop-color:#2AB572"/>
	</linearGradient>
	<path class="st8" d="M34.9,100.5c-2.2-2.2-4-4-4-4c0,0,3.2-3.2,7-7.1l7-7l7.1,7.1l7.1,7.1l-4,4l-4,4l-3-3L45,98.4l-3.1,3.1l-3,3
		L34.9,100.5L34.9,100.5z"/>
</g>
<g>
	<path class="st9" d="M46,120.2c-1.2,0.1-2.6,0-3.9-0.1c-4.1-0.5-7-1.9-7.8-3.7c-0.1-0.2-0.1-0.2-0.1-0.2c0,0.1-0.3,2.1-0.3,2.8
		c-0.1,0.7-0.1,2.4,0,2.9c0.2,1.6,0.7,2.6,1.6,3.6c1.6,1.6,4.4,2.6,8.2,2.8c1.2,0.1,4.1,0,4.5-0.1l0.1,0v-4.6
		c0.2-1.2,0.3-2.5,0.5-3.7C48.3,120,46.9,120.1,46,120.2"/>
	<path class="st10" d="M56.2,117.9c-0.1-0.5-0.2-1.3-0.2-1.3c0,0-2.1,0-4.7,0l-4.7,0l1.1,1.7c0.6,0.9,1.1,1.7,1.1,1.7
		c-0.2,1.2-0.3,2.5-0.5,3.7H52c3,0,3.8,0,3.9-0.1c0-0.1,0.2-1.4,0.3-2.1C56.3,120.5,56.3,118.6,56.2,117.9 M51.2,122.5
		c-0.1,0-0.3,0.1-0.4,0.1c-0.9,0-1.2-1.2-0.4-1.6c0.3-0.2,0.7-0.2,1,0.1c0.1,0.1,0.3,0.5,0.3,0.7C51.7,122.1,51.5,122.4,51.2,122.5
		 M53.4,120c-0.1,0.1-0.3,0.1-0.5,0.1c-1,0-1.5-1.3-0.7-2c0.5-0.5,1.4-0.3,1.7,0.4c0.1,0.1,0.1,0.3,0.1,0.5
		C54,119.4,53.8,119.7,53.4,120 M54.6,122.1c-0.3,0.2-0.7,0.1-0.8-0.2c-0.1-0.2-0.1-0.5,0-0.6c0.2-0.3,0.7-0.3,1,0
		C55,121.6,54.9,121.9,54.6,122.1"/>
	<path class="st11" d="M43.5,119.4c-4.2-0.2-7.7-1.6-8.5-3.3c-0.1-0.3-0.1-0.4-0.1-0.6s0-0.4,0.1-0.6c0.7-1.5,3.4-2.7,7-3.1
		c1.6-0.2,3.8-0.2,5.1-0.1c3,0.3,5.7,1.2,7.4,2.3c0.5,0.3,1.1,1,1.3,1.4c0.1,0.2,0.1,0.3,0.2,0.4l0,0.1l-5.3,0l-5.3,0l1.2,1.7
		c0.7,1,1.2,1.8,1.2,1.8C47.5,119.4,44.4,119.5,43.5,119.4 M45,118.3c0.3-0.1,0.3-0.4,0-0.5c-0.5-0.2-1.2,0-1.2,0.2
		c0,0.1,0.1,0.3,0.3,0.3C44.2,118.4,44.8,118.4,45,118.3 M39.5,117.2c0.1-0.1,0.3-0.2,0.4-0.3c0.2-0.2,0.2-0.4,0-0.6
		c-0.5-0.5-1.8-0.5-2.3,0c-0.4,0.4,0,0.8,0.7,1C38.6,117.4,39.2,117.3,39.5,117.2 M45.8,114.5c0.2-0.1,0.2-0.3,0-0.4
		c-0.2-0.1-1-0.2-1.2,0c-0.2,0.1-0.3,0.2-0.2,0.3C44.7,114.6,45.5,114.7,45.8,114.5 M49.4,114.5c0.3-0.1,0.5-0.3,0.5-0.5
		c0-0.2-0.1-0.4-0.4-0.5c-0.3-0.1-1-0.2-1.3-0.1c-0.3,0.1-0.6,0.4-0.6,0.5c0,0.2,0.3,0.4,0.6,0.5C48.5,114.6,49.1,114.6,49.4,114.5
		 M41.9,113.8c0.3-0.1,0.5-0.3,0.5-0.5c0-0.1-0.1-0.2-0.2-0.3c-0.4-0.4-1.5-0.4-2-0.1c-0.1,0.1-0.2,0.2-0.2,0.3
		c0,0.3,0.4,0.5,0.9,0.6C41.2,114,41.7,113.9,41.9,113.8"/>
</g>
</svg>
