<?xml version="1.0" encoding="utf-8"?>
<!-- Generator: Adobe Illustrator 23.0.5, SVG Export Plug-In . SVG Version: 6.00 Build 0)  -->
<svg version="1.1" id="Layer_1" xmlns:v="https://vecta.io/nano"
	 xmlns="http://www.w3.org/2000/svg" xmlns:xlink="http://www.w3.org/1999/xlink" x="0px" y="0px" viewBox="0 0 240 240"
	 style="enable-background:new 0 0 240 240;" xml:space="preserve">
<style type="text/css">
	.st0{fill:#B9BFC9;}
	.st1{fill:url(#SVGID_1_);}
	.st2{fill:url(#SVGID_2_);}
	.st3{fill:#E1AA4D;}
	.st4{fill:#FFFFFF;}
	.st5{fill:#FFF5D8;}
	.st6{fill:#FFC31A;}
	.st7{fill:#FFD538;}
	.st8{fill:#FCCD35;}
</style>
<g>
	<path class="st0" d="M120,0L0,120l60,60c33,33,60,60,60,60s27.1-27,60-60l60-60L120,0z M151.4,151.3
		c-17.2,17.2-31.3,31.3-31.4,31.3s-14.2-14.1-31.4-31.3L57.3,120l31.3-31.4L120,57.3l31.3,31.3l31.3,31.4L151.4,151.3z"/>
	<g>
		
			<linearGradient id="SVGID_1_" gradientUnits="userSpaceOnUse" x1="119.9" y1="-35" x2="119.9" y2="33.1736" gradientTransform="matrix(1 0 0 1 0 203)">
			<stop  offset="0" style="stop-color:#9CB84C"/>
			<stop  offset="1" style="stop-color:#2AB572"/>
		</linearGradient>
		<path class="st1" d="M98.2,214.4c-11.9-11.9-21.7-21.8-21.7-21.8c0-0.2,24.5-24.6,24.6-24.6s4.3,4.2,9.5,9.3l9.3,9.3l9.3-9.3
			c5.1-5.1,9.4-9.3,9.5-9.3c0.2,0,24.6,24.5,24.6,24.6s-43.3,43.5-43.4,43.5C120,236.1,110.2,226.4,98.2,214.4z"/>
		
			<linearGradient id="SVGID_2_" gradientUnits="userSpaceOnUse" x1="120.1" y1="-130.7" x2="120.1" y2="-199.1" gradientTransform="matrix(1 0 0 1 0 203)">
			<stop  offset="0" style="stop-color:#9CB84C"/>
			<stop  offset="1" style="stop-color:#2AB572"/>
		</linearGradient>
		<path class="st2" d="M88.9,59.9c-6.8-6.8-12.3-12.4-12.3-12.5s9.8-9.9,21.7-21.9L120,3.9l21.8,21.8l21.8,21.8l-12.4,12.4
			l-12.4,12.4l-9.4-9.4l-9.4-9.4l-9.4,9.4l-9.4,9.4L88.9,59.9L88.9,59.9z"/>
	</g>
	<path class="st0" d="M103.2,136.8L86.5,120l16.8-16.8L120,86.5l16.7,16.8l16.8,16.8l-16.7,16.7c-9.2,9.2-16.7,16.7-16.8,16.7
		S112.4,146,103.2,136.8z"/>
</g>
<circle class="st3" cx="45" cy="120" r="45"/>
<path class="st4" d="M42.6,150.5c-16-8.9-24.9-24-24.9-42.3c0-4,0.4-7.8,0.9-8.3c0.2-0.2,0.5-0.3,0.9-0.2c0.8,0.1-0.2-1.6,8.8,16.1
	l2.8,5.5l14.2-0.1l14.2-0.1l5.1-10.5c2.8-5.8,5.1-10.6,5.2-10.8c0.2-0.3,1.3-0.3,1.6,0c0.3,0.4,0.6,2.1,0.8,5.3
	c0.5,6.2-0.7,14.2-2.8,20.2c-3.5,9.3-9.3,16.8-17.6,22.4c-2.2,1.5-5.8,3.7-6.5,3.9C45,151.8,44,151.3,42.6,150.5L42.6,150.5z
	 M51.7,135.8c3.6-6.8,6.5-12.3,6.5-12.3c0-0.1-5.8-0.2-12.9-0.2c-10.3,0-12.9,0.1-12.8,0.3C32.6,124,44.8,148,45,148
	C45.1,148,48.1,142.5,51.7,135.8L51.7,135.8z M31.2,126.1c-7.4-14.5-11.1-21.5-11.2-21.2c-0.3,0.5-0.2,5.1,0.1,7.8
	c1.2,12.6,7,23.7,16.4,31.3c1.6,1.2,5.6,4,5.7,3.9C42.2,147.7,37.2,137.9,31.2,126.1L31.2,126.1z M50.2,146.2
	c10.7-7.2,17.3-17.8,19.4-30.8c0.4-2.5,0.7-10.6,0.4-10.6c-0.1,0-2,3.8-4.3,8.4c-2.2,4.7-7.1,14.1-10.9,21.3
	c-3.8,7.1-6.9,12.9-6.9,12.9C47.9,147.8,48.3,147.5,50.2,146.2z"/>
<path class="st4" d="M26.3,99.3c-0.7-0.2-0.8-1.2-0.3-1.7c0.3-0.2,4.2-1.6,9.7-3.2l9.3-2.8l9.6,2.9c5.8,1.7,9.7,3,9.8,3.2
	c0.2,0.2,0.2,0.5,0.2,0.7c0,0.4-0.7,1.1-1.1,1.1c-0.2,0-4.4-1.2-9.4-2.8L45,93.9l-8.9,2.7c-4.9,1.5-8.9,2.8-9.1,2.8
	C26.9,99.5,26.6,99.5,26.3,99.3L26.3,99.3z"/>
<circle class="st5" cx="195" cy="120" r="45"/>
<g id="layer102">
	<path class="st6" d="M197.7,120.6c-3.4,0.2-7.1,0-10.7-0.5c-11-1.2-19.1-5.1-21.1-9.9c-0.1-0.3-0.2-0.6-0.2-0.3
		c-0.2,0.2-0.7,5.6-0.9,7.7c-0.2,2-0.2,6.5,0,8c0.6,4.2,1.9,7.1,4.4,9.7c4.4,4.4,11.8,7,22.2,7.7c3.2,0.2,11,0.2,12.2-0.2h0.2V130
		c0.5-3.4,0.9-6.6,1.2-9.9C203.8,120.1,200.1,120.3,197.7,120.6z"/>
	<path class="st7" d="M225.3,114.3c-0.2-1.2-0.4-3.5-0.6-3.6c0,0-5.8,0-12.8,0h-12.8l3,4.5c1.7,2.5,3,4.6,3,4.6
		c-0.4,3.4-0.9,6.6-1.2,9.9H214c8.2,0,10.3,0,10.3-0.2c0.2-0.2,0.6-3.6,0.7-5.7C225.4,121.6,225.5,116.4,225.3,114.3z M211.8,126.9
		c-0.2,0.2-0.7,0.2-1,0.2c-2.4,0-3.2-3.2-1.2-4.5c0.9-0.5,1.9-0.5,2.6,0.2c0.4,0.2,0.9,1.2,0.9,1.7
		C213.1,125.6,212.4,126.6,211.8,126.9z M217.5,120c-0.2,0.2-0.7,0.2-1.2,0.2c-2.7,0-4-3.5-2-5.5c1.5-1.2,3.8-0.9,4.6,1
		c0.2,0.5,0.2,0.7,0.2,1.5C219.3,118.5,218.8,119.4,217.5,120z M221.1,125.7c-0.7,0.5-1.9,0.2-2.1-0.4c-0.2-0.5-0.2-1.2,0-1.7
		c0.6-0.9,2-0.9,2.6,0C221.9,124.3,221.8,125.4,221.1,125.7z"/>
	<path class="st8" d="M190.7,118.5c-11.4-0.7-20.8-4.4-22.9-8.9c-0.2-0.7-0.2-0.9-0.2-1.7c0-0.7,0-1,0.4-1.7
		c1.9-3.9,9.2-7.2,18.8-8.6c4.2-0.6,10.1-0.7,13.7-0.2c8.2,0.9,15.5,3.1,20,6.3c1.2,0.9,3,2.6,3.5,3.6c0.2,0.4,0.4,0.9,0.4,1v0.2
		h-14.3h-14.4l3.2,4.8c1.7,2.6,3.2,4.8,3.2,4.8C201.8,118.5,193.3,118.9,190.7,118.5z M194.8,115.6c0.9-0.4,0.9-1-0.2-1.2
		c-1.2-0.5-3.4-0.2-3.4,0.6c0,0.2,0.2,0.7,0.7,0.9C192.9,116,194.3,116,194.8,115.6z M180,112.6c0.5-0.2,0.9-0.5,1.2-0.7
		c0.6-0.6,0.6-1,0-1.6c-1.2-1.2-4.8-1.2-6.3-0.2c-1,1-0.2,2.1,1.9,2.6C177.7,113,179.4,113,180,112.6z M197.1,105.4
		c0.6-0.2,0.6-0.7,0-1c-0.6-0.4-2.6-0.4-3.1-0.2s-0.7,0.6-0.5,0.9C194.1,105.6,196.2,105.8,197.1,105.4z M206.9,105.4
		c0.9-0.2,1.5-0.9,1.5-1.5s-0.2-1-1.2-1.2c-0.7-0.2-2.6-0.5-3.6-0.2c-0.9,0.2-1.6,1-1.6,1.5s0.7,1.1,1.5,1.5
		C204.4,105.5,206.1,105.5,206.9,105.4z M186.6,103.5c0.7-0.2,1.5-0.9,1.5-1.2c0-0.2-0.2-0.4-0.5-0.7c-1.2-1-4.2-1.1-5.5-0.2
		c-0.4,0.2-0.4,0.4-0.4,0.7c0,0.7,1,1.2,2.5,1.6C184.7,103.7,186,103.7,186.6,103.5z"/>
</g>
</svg>
