<?xml version="1.0" encoding="utf-8"?>
<!-- Generator: Adobe Illustrator 23.0.5, SVG Export Plug-In . SVG Version: 6.00 Build 0)  -->
<svg version="1.1" id="Layer_1" xmlns:v="https://vecta.io/nano"
	 xmlns="http://www.w3.org/2000/svg" xmlns:xlink="http://www.w3.org/1999/xlink" x="0px" y="0px" viewBox="0 0 240 240"
	 style="enable-background:new 0 0 240 240;" xml:space="preserve">
<style type="text/css">
	.st0{fill:#B9BFC9;}
	.st1{fill:url(#SVGID_1_);}
	.st2{fill:url(#SVGID_2_);}
	.st3{clip-path:url(#SVGID_4_);fill:#80CC33;}
	.st4{clip-path:url(#SVGID_6_);fill:#010100;}
	.st5{clip-path:url(#SVGID_8_);fill:#9E6F41;}
	.st6{clip-path:url(#SVGID_10_);fill:#B98E5E;}
	.st7{clip-path:url(#SVGID_12_);fill:#B98E5E;}
	.st8{clip-path:url(#SVGID_14_);fill:#80CC33;}
	.st9{clip-path:url(#SVGID_16_);fill:#DBE6B7;}
	.st10{clip-path:url(#SVGID_18_);fill:#DBE6B7;}
</style>
<g>
	<path class="st0" d="M120,0L0,120l60,60c33,33,60,60,60,60s27.1-27,60-60l60-60L120,0z M151.4,151.3
		c-17.2,17.2-31.3,31.3-31.4,31.3s-14.2-14.1-31.4-31.3L57.3,120l31.3-31.4L120,57.3l31.3,31.3l31.3,31.4L151.4,151.3z"/>
	<g>
		
			<linearGradient id="SVGID_1_" gradientUnits="userSpaceOnUse" x1="119.9" y1="-147" x2="119.9" y2="-78.8264" gradientTransform="matrix(1 0 0 1 0 315)">
			<stop  offset="0" style="stop-color:#9CB84C"/>
			<stop  offset="1" style="stop-color:#2AB572"/>
		</linearGradient>
		<path class="st1" d="M98.2,214.4c-11.9-11.9-21.7-21.8-21.7-21.8c0-0.2,24.5-24.6,24.6-24.6s4.3,4.2,9.5,9.3l9.3,9.3l9.3-9.3
			c5.1-5.1,9.4-9.3,9.5-9.3c0.2,0,24.6,24.5,24.6,24.6s-43.3,43.5-43.4,43.5C120,236.1,110.2,226.4,98.2,214.4z"/>
		
			<linearGradient id="SVGID_2_" gradientUnits="userSpaceOnUse" x1="120.1" y1="-242.7" x2="120.1" y2="-311.1" gradientTransform="matrix(1 0 0 1 0 315)">
			<stop  offset="0" style="stop-color:#9CB84C"/>
			<stop  offset="1" style="stop-color:#2AB572"/>
		</linearGradient>
		<path class="st2" d="M88.9,59.9c-6.8-6.8-12.3-12.4-12.3-12.5s9.8-9.9,21.7-21.9L120,3.9l21.8,21.8l21.8,21.8l-12.4,12.4
			l-12.4,12.4l-9.4-9.4l-9.4-9.4l-9.4,9.4l-9.4,9.4L88.9,59.9L88.9,59.9z"/>
	</g>
	<path class="st0" d="M103.2,136.8L86.5,120l16.8-16.8L120,86.5l16.7,16.8l16.8,16.8l-16.7,16.7c-9.2,9.2-16.7,16.7-16.8,16.7
		S112.4,146,103.2,136.8z"/>
</g>
<g>
	<g>
		<defs>
			<rect id="SVGID_3_" x="60" y="60" width="120" height="120"/>
		</defs>
		<clipPath id="SVGID_4_">
			<use xlink:href="#SVGID_3_"  style="overflow:visible;"/>
		</clipPath>
		<path class="st3" d="M180,120c0,33.2-26.8,60-60,60s-60-26.8-60-60s26.8-60,60-60S180,86.8,180,120"/>
	</g>
	<g>
		<defs>
			<rect id="SVGID_5_" x="60" y="60" width="120" height="120"/>
		</defs>
		<clipPath id="SVGID_6_">
			<use xlink:href="#SVGID_5_"  style="overflow:visible;"/>
		</clipPath>
		<path class="st4" d="M125.4,156c0,0-0.6,0-0.9-0.2c-0.6,0-1.3-0.2-2.1-0.2c-0.6,0-1.7-0.2-2.2-0.2c-0.6,0-1.7-0.2-2.3-0.4
			c-1.5-0.4-2.6-0.6-2.6-0.6s-0.6-0.2-1.3-0.2c-0.6-0.2-1.7-0.4-2.1-0.4c-0.9-0.2-3.9-1.3-5.1-1.7c-0.4-0.2-0.9-0.4-1.7-0.6
			c-2.1-0.8-5.6-2.8-8.8-4.7c-2.4-1.7-3.9-2.8-6.8-5.4c-1.3-1.1-2.4-2.2-2.6-2.4c-0.2-0.2-0.9-0.9-1.7-1.7c-1.1-1.1-1.3-1.7-2.3-3
			c-0.6-0.9-1.5-2.2-2.1-3.2c-1.3-1.9-2.6-4.3-3.2-6.2c-1.3-3.8-1.7-5.1-2.1-6.7c-0.4-1.7-0.6-3.2-0.8-5.1c-0.2-1.1,0-2.1,0.4-4.3
			c0.2-1.3,0.4-1.9,1.1-4.9c0.2-0.6,0.4-1.7,0.6-2.2c0.2-0.9,0.4-1.3,1.1-2.8c0.6-0.9,1.1-2.2,1.5-2.8c0.6-1.1,0.8-1.1,1.7-2.1
			c0.8-0.6,1.1-0.9,1.3-0.9c0.6-0.2,1.9-0.6,1.9-0.6s0,0,0,0.2V93c0,0,0.2,0,0.2-0.2c0,0,0.2-0.2,0.6-0.4s0.4-0.4,0.4-0.6
			c0-0.4,0.2-0.8,2.1-2.2c1.5-1.1,1.9-1.3,2.8-1.7c1.7-0.8,4.1-1.7,5.6-2.1c0.6-0.2,1.3-0.4,1.9-0.4c1.1-0.2,1.5-0.4,3.6-0.6
			c0.8,0,1.9-0.2,2.6-0.4c0.6-0.2,1.9-0.2,2.6-0.2s1.7-0.2,1.9-0.2s2.1,0,4.5,0c4.1,0,4.1,0,5.2,0.2c0.6,0.2,2.4,0.4,3.9,0.8
			c1.9,0.4,3.4,0.6,4.9,0.9c1.1,0.2,2.3,0.6,2.8,0.8c2.4,0.6,5.4,1.7,8.8,3c3,1.1,3.8,1.5,4.1,1.9c0.4,0.2,1.1,0.6,1.9,0.9
			c0.8,0.4,1.5,0.8,1.9,0.9c0.4,0.2,0.9,0.6,1.5,0.8c0.9,0.6,2.8,1.7,4.7,3c3.8,2.6,6,4.7,8.1,7.5c1.1,1.5,1.3,1.7,2.1,3.4
			c0.6,0.9,0.8,1.5,0.9,1.9s0.2,0.8,0.2,0.9c0.4,2.1,0.4,4.1,0.6,6.6c0,0.4,0,1.1,0,2.2c-0.2,1.1-0.4,1.3-0.8,3.4
			c-0.4,1.5-0.2,1.5-0.6,2.8c-0.2,0.6-0.4,1.3-0.8,2.4c-0.4,1.3-0.8,2.1-1.5,3.9c-0.6,1.3-1.1,2.4-1.1,2.4s-0.2,0.2-0.2,0.4
			c-0.2,0.6-1.1,2.1-1.7,3c-1.1,1.9-2.6,4.5-3,4.9c0,0-0.4,0.4-0.6,0.8c-0.8,0.9-2.8,3.2-4.1,4.1c-0.6,0.4-1.1,0.9-1.1,0.9
			s-0.2,0.2-0.4,0.4c-0.2,0.2-0.8,0.4-1.1,0.6c0,0-0.2,0-0.2,0.2c-0.2,0-0.2,0.2-0.2,0.2c-0.2,0.2-2.6,1.7-3.2,2.1
			c-0.9,0.6-2.2,1.1-4.7,2.2c-0.4,0.2-0.6,0.2-0.8,0.4c-0.9,0.4-2.2,0.8-3.2,0.9c-0.6,0-1.3,0.2-1.7,0.2c-0.4,0-0.9,0.2-1.3,0.2
			c-0.4,0-1.3,0.2-3.9,0.2C127.1,156,125.6,156,125.4,156"/>
	</g>
	<g>
		<defs>
			<rect id="SVGID_7_" x="60" y="60" width="120" height="120"/>
		</defs>
		<clipPath id="SVGID_8_">
			<use xlink:href="#SVGID_7_"  style="overflow:visible;"/>
		</clipPath>
		<path class="st5" d="M150.9,143.4c1.3-1.3,2.8-3.4,4.5-5.8c1.1-1.7,2.1-3.6,3.2-5.2c1.1-2.4,1.9-4.7,2.2-6.2
			c1.3-4.9,1.3-7.3,1.1-8.1c0-1.1-0.2-2.1-0.4-2.6v-1.9l-0.4-1.3c-0.2-0.8-0.4-1.5-0.4-1.7c-0.2-0.6-1.7-3-2.8-4.7
			c-1.5-2.1-3-3.8-4.3-4.7c-0.6-0.4-1.7-1.3-2.6-2.1c-1.9-1.5-3.4-2.6-3.9-2.8c-0.2-0.2-0.8-0.4-0.9-0.8c-0.6-0.4-0.8-0.6-1.7-0.8
			c-0.4-0.2-1.9-0.9-3.4-1.7c-0.8-0.4-1.3-0.6-2.1-0.9c-0.6-0.2-2.3-0.8-3.8-1.3c-1.5-0.6-2.8-0.9-3-1.1c-0.2,0-0.9-0.2-1.5-0.4
			c-0.6-0.2-1.5-0.4-2.2-0.6c-0.8-0.2-2.1-0.6-3-0.8c-1.9-0.6-4.1-1.1-5.4-1.3c-0.6,0-1.9-0.2-3.2-0.4c-3.2-0.4-4.3-0.6-8.2-0.6
			c-2.8,0-3.4,0-5.1,0.2c-2.1,0.2-2.6,0.4-5.2,0.9c-2.6,0.6-3.8,0.9-4.7,1.3c-0.4,0.2-1.1,0.4-1.5,0.6c-0.4,0.2-1.3,0.6-1.9,0.8
			c-0.6,0.4-1.5,0.8-1.7,0.8c-0.4,0.2-0.8,0.4-0.9,0.6s-0.4,0.2-0.4,0.2s-0.4,0-0.6,0.2c-0.9,0.4-1.1,0.4-1.1,0.4
			c0-0.2-0.8,0.4-1.5,0.9c-0.6,0.6-2.6,3.6-3.2,4.9c-0.4,1.7-1.9,5.6-2.3,6.8c0,0.4-0.2,0.9-0.4,1.5c-0.2,0.4-0.2,1.3-0.4,1.7
			c0,0.6-0.2,1.3-0.2,1.7c-0.2,1.1-0.2,3.2,0.2,5.4c0.6,4.9,2.4,9.8,6.4,17.4c0.9,1.9,5.4,6.8,8.2,9.2c1.5,1.3,3.8,2.8,5.2,3.9
			c1.3,0.9,2.4,1.5,5.8,3c1.3,0.6,3.8,1.5,5.1,1.9c0.2,0,0.9,0.4,1.7,0.6c1.5,0.6,2.4,0.8,3.6,0.9c0.4,0,1.3,0.2,1.9,0.4
			c1.1,0.2,1.5,0.4,5.6,0.8c1.5,0.2,2.6,0.4,2.6,0.4c0.2,0,2.8,0,3.9-0.2c0.8,0,2.2-0.2,3.6-0.4c1.5-0.2,1.5-0.4,4.3-0.8
			c2.6-0.6,2.8-0.6,3.6-0.8c0.4-0.2,1.1-0.4,3.2-1.7c2.4-1.5,3.8-2.1,5.1-3.2C149.1,145.3,149.8,144.6,150.9,143.4 M102.6,106.1
			c-0.2,0-0.4-0.2-0.4-0.2c-0.2,0-0.9-0.6-0.9-0.8c0,0,0.2-0.2,0.4-0.4c0.4-0.4,0.4-0.4,1.7-0.2c0.8,0.2,0.9,0.2,1.3,0.6
			c0.2,0.2,0.6,0.4,0.8,0.6c0.4,0.2,0.4,0.4,0,0.6c-0.4,0.2-1.3,0.2-1.7,0c-0.2,0-0.4-0.2-0.6-0.2
			C102.9,106.1,102.8,106.1,102.6,106.1 M103.7,108.6c0,0,0-0.2,0-0.4c0-0.2,0.2-0.4,0.4-0.4c0.2-0.2,0.4-0.2,1.1-0.2
			c0.9,0,1.1,0,1.5,0.6c0.2,0.2,0.2,0.2-0.6,0.8c-0.6,0.4-0.8,0.4-1.3,0.4h-0.8v-0.2C103.7,108.8,103.7,108.8,103.7,108.6
			 M106.5,103.5c-0.2-0.2-0.6-0.6-0.8-0.6c-0.2,0-0.4-0.2-0.4-0.4c0-0.2-0.2-0.2-0.2-0.2c-0.2,0-0.6-0.4-0.6-0.8s0-0.4,0.4-0.6
			c0.2-0.2,0.6-0.2,0.8-0.2c0.4,0,0.4,0,0.8,0.6c0.2,0.2,0.6,0.8,0.8,0.9c0.2,0.4,0.6,0.8,0.6,0.9c0.2,0.4,0.2,0.4,0.2,0.8
			c-0.2,0.2-0.2,0.2-0.6,0.2C107.1,104.1,106.9,103.9,106.5,103.5 M105.6,111.4c-0.2,0.2-0.6,0.4-0.8,0.4c-0.4,0.2-0.6,0.2-0.9,0.2
			c-0.2,0-0.2,0-0.2-0.6c0-0.4,0-0.6,0-0.6s0.2-0.2,0.4-0.2c0.4-0.2,0.4-0.2,0.8-0.2c0.2,0,0.6,0,0.8-0.2c0.6-0.2,0.9,0,0.9,0.4
			C106.7,110.8,106.5,111,105.6,111.4 M107.1,113.4c0,0-0.2-0.4-0.2-0.6v-0.6l0.4-0.2c0.4-0.2,1.5-0.2,2.1,0c0.4,0.2,0.4,0,0.2,0.4
			c0,0.2-0.2,0.2-0.8,0.4c-0.4,0.2-0.8,0.4-0.9,0.4C107.4,113.4,107.2,113.6,107.1,113.4 M108.6,101.1c0-0.4,0.4-0.8,0.8-0.8
			c0.2,0,0.8,0.4,0.9,0.9c0,0.2,0.2,0.6,0.4,0.8c0.2,0.2,0.2,0.4,0.2,0.8s0,0.6,0.2,0.8c0.2,0.2,0.2,0.2,0.2,0.4
			c0,0-0.2,0.2-0.4,0.2c-0.4,0-0.4,0-0.6-0.4c-0.2-0.2-0.6-0.8-0.9-1.3C108.6,101.6,108.6,101.4,108.6,101.1 M109.1,116.2
			c0,0-0.2-0.2-0.4-0.4c-0.4-0.2-0.4-0.4-0.4-0.4l0.2-0.2c0,0,0-0.2,0.2-0.2c0.2-0.2,1.9-0.8,2.1-0.8c0,0,0.2,0.2,0.4,0.2
			c0.2,0.2,0.2,0.2,0,0.4c0,0-0.4,0.2-0.6,0.6c-0.2,0.2-0.8,0.6-0.9,0.8C109.3,116.1,109.1,116.2,109.1,116.2 M111.2,118.7
			c-0.6,0.4-0.9,0.4-0.9,0.2c0-0.2-0.2-0.4-0.2-0.4l-0.2-0.2c0-0.2,0.8-0.9,1.5-1.3c0.6-0.4,1.1-0.4,1.3-0.2c0.2,0.2,0.2,0.2,0,0.4
			C112.3,117.6,111.8,118.3,111.2,118.7 M111.4,100.7c0.2-0.2,0.8-0.2,0.9,0l0.2,0.2c0,0,0.2,0.4,0.4,0.9s0.2,1.1,0.4,1.3l0.2,0.4
			h-0.2c-0.6,0-1.1-0.6-1.5-1.3C111.4,101.4,111.2,100.9,111.4,100.7 M114,122.1l-0.2,0.6h-0.4c-0.6,0-0.9-0.4-0.9-0.8
			c0-0.8,0.4-1.7,1.3-2.6c0.2-0.2,0.4-0.4,0.6-0.4s0.4,0,0.4,0.2C114.8,119.4,114.2,121.5,114,122.1 M115.7,102.9
			c-0.2,0-0.2,0.2-0.2,0.2s-1.1-1.1-1.1-1.3c-0.2-0.2-0.2-0.4-0.2-0.6s-0.2-0.4-0.4-0.6c-0.2-0.2-0.2-0.4-0.2-0.6
			c0-0.2,0-0.2,0.6-0.4c0.9-0.4,1.3-0.2,1.5,0.4c0,0.2,0.2,0.8,0.4,1.1c0.2,0.6,0.2,1.1,0.2,1.3
			C115.9,102.8,115.9,102.8,115.7,102.9 M116.1,98.2c0-0.6,0-0.6,0.2-0.8c0,0,0.2-0.2,0.4-0.2c0,0,0.2-0.2,0.4-0.2s0.8,0.4,0.8,0.6
			c0,0.2,0,0.4,0.2,0.6c0.2,0.6,0.2,3.6,0,3.8c-0.2,0.2-0.4,0.2-0.4,0c0,0-0.2-0.2-0.4-0.4c-0.2-0.2-0.4-0.4-0.6-1.1
			C116.2,99.6,116.1,99,116.1,98.2 M118.3,121.5l-0.4,0.2c-0.2,0.2-0.4,0.2-0.6,0.2c-0.4,0-0.4,0-0.4-0.4c0-0.2-0.2-0.4,0-0.6
			c0-0.2,0-0.6,0.2-0.9c0-0.6,0.2-0.9,0.4-1.3c0,0,0.2-0.2,0.2-0.4l0.2-0.2c0,0,0.2,0.2,0.2,0.6s0.2,0.8,0.2,0.9
			c0,0.2,0.2,0.6,0.2,0.9v0.9H118.3z M122.1,121.5C121.9,121.5,121.9,121.5,122.1,121.5c0,0.2-0.2,0.2-0.4,0.2c-0.4,0-0.4,0-0.6-0.4
			c-0.2-0.4-0.2-0.6-0.2-1.5c0-1.1,0-1.3,0.4-1.3c0,0,0.2,0,0.4,0c0.4,0.2,0.6,1.1,0.6,1.7c0,0.2,0,0.6,0.2,0.8
			C122.2,121.1,122.2,121.3,122.1,121.5 M122.4,100.1c-0.2,0.4-0.4,0.9-0.6,1.3c-0.2,0.6-0.4,0.9-0.4,1.1c-0.2,0.2-0.2,0.4-0.2,0.4
			s0,0-0.2,0c-0.2,0-0.2,0-0.4-0.8c-0.2-0.8-0.2-1.1,0.2-2.1c0.2-0.4,0.2-0.8,0.2-0.9c0-0.2,0-0.4,0.2-0.4c0.4-0.2,0.4-0.2,0.9,0.2
			C122.8,99.2,122.8,99.4,122.4,100.1 M126,121.7c0,0.2-0.2,0.2-0.4,0.2c-0.6,0-0.8-0.2-1.1-0.9c-0.4-1.1-0.6-2.4-0.6-2.4
			s0.2-0.2,0.4-0.2h0.4l0.4,0.8c0.6,1.1,0.9,2.1,0.9,2.2C126,121.3,126,121.5,126,121.7 M125.8,102.6c-0.2,0.2-0.4,0.4-0.4,0.6
			c-0.2,0.2-0.4,0.4-0.6,0.6c-0.4,0.4-0.6,0.4-0.6,0.2c0,0,0-0.2-0.2-0.2c-0.2,0-0.2,0,0.2-1.1c0.4-1.3,0.4-1.5,0.8-1.9
			c0.2-0.4,0.4-0.4,0.6-0.4c0.4,0,0.4,0,0.6,0.2c0.2,0.4,0.4,0.6,0.2,0.8c0,0-0.2,0.2-0.2,0.4C126.2,102.2,126,102.4,125.8,102.6
			 M126.4,104.8c0-0.8,0.6-1.9,1.3-2.8c0.4-0.6,0.4-0.6,0.7-0.6c0.2,0,0.4,0,0.6,0.2c0.2,0.2,0.2,0.2,0.2,0.8v0.6l-0.4,0.2
			c-0.2,0.2-0.8,0.6-1.1,0.9c-0.4,0.4-0.8,0.8-0.9,0.8C126.4,105,126.4,105.2,126.4,104.8 M131.2,104.4c-0.2,0-0.6,0.4-0.8,0.6
			c-0.4,0.2-0.8,0.6-0.9,0.6c-0.8,0.4-0.9,0.4-0.9,0c0-0.2,0.4-0.8,0.9-1.5c0.2-0.2,0.6-0.6,0.8-0.9s0.4-0.6,0.6-0.6
			c0,0,0.4,0.2,0.6,0.2c0.4,0.2,0.4,0.4,0.6,0.6C131.8,104.1,131.6,104.2,131.2,104.4 M132.6,105.2c0.4-0.2,0.6-0.4,0.8-0.6
			c0-0.2,0.8,0,0.9,0.2c0.2,0.2,0.2,0.2,0.2,0.4c0,0.8-0.6,0.9-1.9,1.5c-0.4,0.2-0.9,0.4-1.1,0.4c-0.2,0.2-0.4,0.2-0.6,0.2
			c-0.2,0-0.2,0-0.2-0.2c0-0.2,0.2-0.4,0.6-0.9C131.6,105.9,132.2,105.6,132.6,105.2 M129.8,120c-0.2,0.2-0.4,0.2-0.9,0.2
			c-0.4,0-0.6-0.2-1.1-0.8c-0.4-0.4-0.8-0.9-0.9-1.3c-0.4-0.4-0.4-0.6-0.4-0.9v-0.6h0.4c0.4,0,0.4,0,0.4,0.2c0,0.2,0.2,0.4,0.8,0.4
			c0.4,0.2,0.8,0.4,0.9,0.8c0.2,0.2,0.6,0.6,0.8,0.8c0.4,0.2,0.4,0.2,0.4,0.8C129.9,119.8,129.9,119.8,129.8,120 M130.9,116.1
			c-0.2,0.4-0.2,0.4-0.6,0.4c-0.6,0-0.8,0-1.1-0.6c-0.2-0.2-0.6-0.4-0.8-0.6s-0.4-0.4-0.6-0.4c-0.2-0.2-0.2-0.2-0.4-0.2
			c0,0-0.2-0.2-0.2-0.4V114h0.8c0.6,0,0.8,0,1.1,0.2c0.2,0.2,0.6,0.4,0.9,0.4c0.6,0.2,0.6,0.2,0.8,0.4
			C131.1,115.5,131.1,115.7,130.9,116.1 M132.9,113.8c0,0-0.2,0-0.2,0.2l-0.2,0.2c-0.2,0-1.9-0.9-2.4-1.3c-0.2-0.2-0.6-0.6-0.8-0.8
			l-0.2-0.4l0.2-0.2c0.2-0.2,0.4-0.4,0.4,0c0,0.2,0.2,0.2,0.8,0.4c0.4,0.2,0.9,0.4,1.1,0.4c0.2,0.2,0.6,0.2,0.6,0.4
			c0.2,0,0.2,0.2,0.4,0.2C133.1,112.7,133.1,113.8,132.9,113.8 M135.8,109.3h-0.2c-0.2,0-0.2,0-0.4,0.2c-0.2,0.2-2.6,0.2-3.4,0
			c-0.8-0.2-0.9-0.4-0.2-0.8c0.6-0.4,2.1-0.9,2.8-0.9c0.6,0,0.6,0,0.9,0.2l0.4,0.2v0.6C135.8,108.7,135.8,109.3,135.8,109.3z
			 M138.2,94.9c-0.8-0.4-1.7-0.6-2.1-0.8c-0.4-0.2-1.3-0.4-1.7-0.6c-1.1-0.4-2.4-0.8-3.4-0.9c-0.4,0-1.1-0.2-1.5-0.4
			c-0.8-0.2-2.8-0.6-4.7-0.8c-0.4,0-1.1-0.2-1.7-0.4c-1.1-0.4-2.2-0.6-3.4-0.6c-0.6,0-1.5,0-2.1-0.2c-3.8-0.6-3.4-0.6-6-0.6
			c-1.7,0-3,0-3.6,0.2c-0.6,0-2.1,0.2-3.2,0.4c-1.9,0.2-2.2,0.2-3.2,0.6c-0.6,0.2-1.7,0.4-2.2,0.6c-1.3,0.2-1.3,0.2-2.6,0.8
			c-1.3,0.6-2.8,1.3-5.4,2.8c-1.7,0.9-1.9,1.1-2.6,1.9c-1.5,1.5-3,3.8-3.8,5.8c-0.2,0.6-0.4,1.1-0.4,1.3c0,0.2,0,0.4,0,0.4
			c0,0.2,0,0.2-0.4,0.4c-0.2,0.2-0.4,0.2-0.6,0.2c-0.4,0-0.6-0.2-0.9-0.9c-0.2-0.4-0.2-0.4,0-1.1c0.2-0.9,0.6-2.4,1.1-3.9
			c0.9-2.1,2.8-4.1,6-6.2c1.1-0.8,1.3-0.9,3.2-1.7c1.3-0.6,4.1-1.7,5.1-1.9c0.4,0,1.9-0.4,3.2-0.8l2.6-0.6h11.2l2.6,0.4
			c1.5,0.2,3,0.4,3.4,0.4s1.3,0.2,2.2,0.4c2.3,0.6,3.2,0.8,4.3,1.1c1.5,0.4,3.8,1.1,5.2,1.7c0.8,0.4,1.9,0.8,2.6,1.1
			c0.9,0.4,1.5,0.6,2.1,0.9c0.9,0.6,2.3,1.5,2.3,1.5C139.7,95.6,139.5,95.6,138.2,94.9"/>
	</g>
	<g>
		<defs>
			<rect id="SVGID_9_" x="60" y="60" width="120" height="120"/>
		</defs>
		<clipPath id="SVGID_10_">
			<use xlink:href="#SVGID_9_"  style="overflow:visible;"/>
		</clipPath>
		<path class="st6" d="M132.2,134.1c-0.8,0-1.9-0.2-2.6-0.2c-1.1,0-1.7,0-2.6-0.2c-0.8-0.2-1.9-0.2-2.8-0.4c-1.1,0-1.9-0.2-3.2-0.6
			c-0.9-0.2-2.2-0.4-3-0.6c-0.9-0.2-1.7-0.4-2.6-0.6c-0.6-0.2-1.9-0.6-2.8-0.9c-1.5-0.6-3.9-1.3-6.4-2.4c-0.6-0.2-1.7-0.8-2.4-1.3
			c-0.8-0.6-1.9-1.1-2.6-1.5c-2.8-1.5-8.2-5.4-10.7-7.3c-0.8-0.8-2.1-1.7-2.6-2.1c-0.9-0.8-1.1-0.9-1.9-2.1
			c-0.9-1.3-0.9-1.3-1.3-2.4c-0.2-0.8-0.4-1.3-0.4-1.5s-0.2-0.6-0.4-0.9l-0.4-0.6v-1.5c0-1.7,0-2.1,0.4-2.1c0.2,0,0.4-0.2,0.6-0.2
			c0.2-0.2,0.4-0.2,0.4-0.4c0-0.2,0-0.4,0-0.4c0-0.2,0.2-0.8,0.4-1.3c0.8-2.1,2.2-4.3,3.8-5.8c0.8-0.8,0.9-0.8,2.6-1.9
			c2.6-1.5,4.1-2.2,5.4-2.8s1.3-0.6,2.6-0.8c0.6,0,1.5-0.4,2.2-0.6c1.1-0.4,1.5-0.4,3.2-0.6c1.1-0.2,2.4-0.2,3.2-0.4
			c0.8,0,2.1-0.2,3.6-0.2c2.6,0,2.4,0,6,0.6c0.6,0,1.5,0.2,2.1,0.2c1.1,0,2.3,0.2,3.4,0.6c0.4,0.2,1.1,0.2,1.7,0.4
			c1.9,0.2,4.1,0.6,4.7,0.8c0.4,0.2,1.1,0.2,1.5,0.4c1.5,0.2,2.2,0.6,3.9,1.3c0.9,0.4,2.1,1.1,2.6,1.3c0.6,0.4,1.3,0.8,1.9,0.9
			c1.3,0.6,2.4,1.1,3.2,1.7c0.4,0.2,0.9,0.6,1.3,0.8c0.4,0.2,0.8,0.4,1.1,0.6c0.4,0.2,0.6,0.2,0.9,0.2s0.8,0.2,1.9,0.6
			c1.5,0.6,1.5,0.6,2.8,1.5c1.7,1.1,3.2,2.4,4.9,4.5c1.1,1.3,3,4.3,3.8,6.2c0.4,0.8,0.4,0.9,0.4,1.5c0,0.6,0,0.9-0.6,2.6
			c-0.8,2.4-1.7,4.7-3,7.1c-0.8,1.5-1.1,1.9-2.1,3.2c-1.3,1.7-2.6,3-4.5,4.3c-1.1,0.8-1.3,0.9-2.6,1.5s-3.2,1.1-4.1,1.3
			c-0.2,0-1.9,0.2-3.4,0.4C136.1,134.2,134.4,134.2,132.2,134.1 M114,122.1c0.2-0.6,0.8-2.6,0.8-3c0-0.2,0-0.2-0.4-0.2
			s-0.6,0.2-1.1,1.1c-0.6,0.8-0.8,1.3-0.8,1.9c0,0.2,0,0.4,0.2,0.4c0.2,0,0.2,0.2,0.4,0.2c0,0,0.2,0.2,0.4,0.2
			C113.8,122.6,113.8,122.6,114,122.1 M117.9,121.7l0.4-0.2v-0.6c0-0.4,0-0.9-0.2-1.5s-0.2-0.9-0.2-0.9c0-0.2-0.2-0.2-0.4,0
			c0,0-0.2,0.2-0.2,0.4c-0.2,0.4-0.4,0.8-0.4,1.3c0,0.4,0,0.8-0.2,0.9c0,0.2,0,0.4,0,0.6c0.2,0.2,0.2,0.4,0.4,0.4
			C117.6,121.9,117.8,121.9,117.9,121.7 M126,121.5c0.2-0.4,0.2-0.4-0.2-0.9c-0.2-0.4-0.4-0.9-0.8-1.5l-0.4-0.9h-0.4
			c-0.2,0-0.4,0-0.4,0.2c-0.2,0.2,0.2,1.5,0.6,2.6c0.2,0.8,0.4,0.8,0.9,0.8C125.8,121.9,125.8,121.9,126,121.5 M122.1,121.5
			c0.2-0.4,0.4-0.6,0.2-0.8c0-0.2-0.2-0.4-0.2-0.8c0-0.9-0.4-1.7-0.9-1.7c-0.4,0-0.4,0.2-0.4,1.3c0,1.1,0,1.1,0.2,1.5
			c0.2,0.4,0.2,0.4,0.6,0.4C121.7,121.7,121.9,121.7,122.1,121.5 M129.8,120c0.2-0.2,0.2-0.4,0.2-0.8c0-0.4,0-0.4-0.2-0.6
			c-0.2,0-0.6-0.4-0.8-0.8c-0.4-0.4-0.8-0.6-1.1-0.8c-0.4-0.2-0.6-0.2-0.6-0.4s-0.2-0.2-0.4-0.2h-0.4v0.4c0,0.6,0.2,0.8,0.8,1.5
			c0.9,1.1,1.3,1.5,1.7,1.5C129.4,120.4,129.6,120.4,129.8,120 M111.2,118.7c0.6-0.4,1.3-1.1,1.5-1.5c0.2-0.4,0.2-0.4,0-0.4
			c-0.2-0.4-0.8-0.2-1.3,0.2c-0.6,0.4-1.5,1.1-1.5,1.3c0,0,0,0.2,0.2,0.2c0,0,0.2,0.2,0.2,0.4C110.2,119.1,110.6,119.1,111.2,118.7
			 M130.9,116.1c0.2-0.6,0.2-0.8,0-0.9l-0.2-0.2c0,0-0.4-0.2-0.6-0.4c-0.4-0.2-0.8-0.4-0.9-0.4c-0.4-0.2-0.4-0.2-1.1-0.2h-0.6v0.4
			c0,0.2,0,0.4,0,0.4s0.2,0.2,0.4,0.4c0.4,0.4,0.9,0.8,1.5,1.1c0.4,0.2,0.4,0.4,0.9,0.4h0.6V116.1z M109.7,115.9
			c0.2-0.2,0.6-0.4,0.9-0.8c0.2-0.2,0.6-0.4,0.6-0.6c0.2,0,0.2-0.2,0-0.4c-0.2-0.2-0.4-0.2-0.4-0.2c-0.2,0-1.9,0.6-2.1,0.8l-0.2,0.2
			c0,0,0,0.2-0.2,0.2c0,0-0.2,0-0.2,0.2s0.8,0.6,0.9,0.6C109.1,116.2,109.5,116.1,109.7,115.9 M132.8,113.8l0.2-0.2
			c0,0,0.2-0.2,0.2-0.6c0-0.6,0-0.8-0.4-0.8c0,0-0.4-0.2-0.6-0.2c-0.4-0.4-0.6-0.4-1.5-0.6c-0.6-0.2-0.8-0.2-0.8-0.4s-0.2-0.2-0.4,0
			l-0.2,0.2l0.2,0.4c0.2,0.4,0.9,0.9,2.1,1.5C132.4,114,132.6,114,132.8,113.8 M107.8,113.2c0.2-0.2,0.4-0.2,0.6-0.4
			c0.6-0.2,0.9-0.4,1.1-0.6c0.2-0.2,0.2-0.2-0.2-0.4c-0.4-0.2-1.3-0.2-1.9,0l-0.6,0.2v0.6c0,0.6,0,0.8,0.4,0.8
			S107.6,113.4,107.8,113.2 M104.8,111.9c0.2-0.2,0.6-0.4,0.8-0.4c0.8-0.4,1.1-0.8,1.1-0.9s0-0.2-0.4-0.4c-0.4,0-0.4-0.2-0.6,0
			c-0.2,0-0.6,0.2-0.8,0.2c-0.4,0-0.6,0-0.9,0.2c-0.2,0.2-0.4,0.2-0.4,0.2s0,0.2,0,0.6c0,0.6,0,0.6,0.2,0.6c0,0,0.2,0,0.4,0.2
			C104.2,112.1,104.4,112.1,104.8,111.9 M135.2,109.5c0,0,0.2-0.2,0.4-0.2h0.2v-0.6v-0.6l-0.4-0.2c-0.4-0.2-0.4-0.2-1.1-0.2
			c-0.9,0-2.1,0.4-2.8,0.9c-0.8,0.4-0.6,0.6,0.2,0.8C132.4,109.7,135,109.7,135.2,109.5 M105.6,108.9c0.2-0.2,0.6-0.4,0.8-0.4
			l0.4-0.2l-0.2-0.2c-0.4-0.4-0.6-0.6-1.5-0.6c-0.8,0-0.9,0-1.1,0.2c-0.2,0.2-0.2,0.2-0.2,0.6c0,0.2,0,0.4,0,0.4s0,0.2,0,0.4v0.2
			h0.8C105,109.1,105.2,109.1,105.6,108.9 M131.4,107.1c0.2-0.2,0.6-0.4,0.9-0.4c0.8-0.2,1.9-0.8,1.9-0.8s0-0.2,0.2-0.4
			c0-0.2,0.2-0.2,0.2-0.4s-0.6-0.6-0.9-0.6c-0.4,0-1.3,0.8-2.2,1.5c-0.6,0.6-0.8,0.8-0.8,0.9c0,0.2,0,0.2,0.2,0.2
			C131.1,107.4,131.2,107.2,131.4,107.1 M105.4,106.3c0.4-0.2,0.4-0.4,0.2-0.6c-0.2,0-0.6-0.4-0.8-0.6c-0.6-0.4-0.8-0.4-1.5-0.6
			c-1.1-0.4-1.3-0.4-1.7,0.2c-0.2,0.2-0.4,0.4-0.4,0.4s0.2,0.2,0.4,0.4c0.4,0.4,0.4,0.4,1.5,0.6c0.2,0,0.6,0.2,0.6,0.2
			C104.1,106.5,105,106.5,105.4,106.3 M129.6,105.6c0.4-0.2,0.9-0.6,1.3-0.8c0.4-0.2,0.6-0.4,0.6-0.4s0.2-0.2,0.4-0.4
			c0.4-0.4,0.4-0.6,0-0.9s-0.8-0.6-0.9-0.4c0,0-0.2,0.2-0.4,0.6c-0.2,0.2-0.6,0.8-0.8,0.9c-0.6,0.8-0.9,1.3-0.9,1.5
			C128.6,106.1,128.6,105.9,129.6,105.6 M126.8,105c0.2,0,0.6-0.4,0.9-0.8c0.4-0.4,0.8-0.8,1.1-0.9l0.4-0.2v-0.6
			c0-0.6,0-0.6-0.2-0.8s-0.4-0.2-0.6-0.2c-0.4,0-0.4,0-0.8,0.6c-0.8,1.1-1.3,2.2-1.3,2.8C126.4,105.2,126.4,105.2,126.8,105
			 M108,103.9c0-0.2,0-0.4-0.2-0.8c-0.2-0.2-0.6-0.9-0.9-1.5c-0.8-0.9-0.8-0.9-1.1-0.9s-0.4,0-0.8,0.2c-0.4,0.2-0.4,0.2-0.4,0.6
			c0,0.2,0,0.4,0.2,0.6c0.2,0.2,0.4,0.2,0.4,0.2l0.2,0.2c0,0.2,0.2,0.4,0.4,0.4c0.2,0.2,0.6,0.4,0.8,0.6c0.4,0.4,0.8,0.6,1.1,0.6
			C107.8,104.2,107.8,104.1,108,103.9 M124.9,103.7c0.2-0.2,0.6-0.6,0.6-0.8c0.2-0.2,0.4-0.4,0.4-0.6l0.2-0.2c0,0,0.2-0.4,0.2-0.6
			c0.2-0.4,0.2-0.4,0.2-0.8c-0.2-0.4-0.4-0.6-0.8-0.6s-0.4,0-0.8,0.4c-0.2,0.4-0.4,0.9-0.8,2.2c-0.2,0.6-0.2,0.8,0,0.8
			c0,0,0.2,0,0.2,0.2C124.3,104.2,124.5,104.1,124.9,103.7 M111,103.9c0,0,0-0.2-0.2-0.4c-0.2-0.2-0.2-0.2-0.2-0.8
			c0-0.4,0-0.6-0.2-0.8c0-0.2-0.2-0.4-0.4-0.8c-0.6-0.9-0.9-1.3-1.5-0.9c-0.2,0.2-0.2,0.9,0,1.1c0.2,0.2,0.4,0.6,0.8,0.9
			c0.2,0.4,0.6,0.8,0.8,0.9c0.2,0.2,0.4,0.4,0.6,0.4C111,103.9,111,103.9,111,103.9 M113.2,102.9c0-0.2-0.2-0.8-0.4-1.3
			c-0.2-0.6-0.2-0.9-0.4-0.9c0,0-0.2,0-0.2-0.2c-0.2-0.2-0.8-0.2-0.9,0c-0.2,0.2-0.2,0.8,0,1.1c0.6,0.9,1.1,1.5,1.7,1.5h0.2V102.9z
			 M115.7,102.9c0.2,0,0.2-0.2,0.2-0.4c0-0.2-0.2-0.8-0.2-1.1c-0.2-0.4-0.2-0.9-0.2-1.1c0-0.6-0.2-0.6-0.4-0.8
			c-0.2-0.2-0.9,0-1.3,0.2c-0.4,0.2-0.4,0.6,0,0.8c0.2,0.2,0.2,0.4,0.4,0.6c0,0.2,0.2,0.6,0.4,0.6
			C114.8,101.8,115.7,102.9,115.7,102.9C115.5,102.9,115.5,102.9,115.7,102.9 M121.3,102.8c0.4-0.4,0.4-0.4,0.6-1.1
			c0.2-0.6,0.6-1.3,0.9-2.1c0.2-0.4,0.2-0.6-0.4-0.8c-0.6-0.2-0.8-0.4-1.1-0.2c-0.2,0.2-0.2,0.2-0.2,0.4c0,0.2,0,0.6-0.2,1.1
			c-0.4,1.1-0.4,1.3-0.2,2.1C120.8,103.1,120.9,103.1,121.3,102.8 M117.8,102c0.2-0.2,0.2-3.4,0-3.9c-0.2-0.6-0.2-0.6-0.4-0.8
			c-0.4-0.2-0.6-0.2-0.8,0c-0.2,0.2-0.4,0.2-0.4,0.2c-0.2,0-0.2,1.1,0,1.7c0,0.2,0.2,0.8,0.4,1.1c0.2,0.6,0.4,0.8,0.6,1.1
			c0.2,0.2,0.4,0.4,0.4,0.6C117.4,102.2,117.6,102.2,117.8,102"/>
	</g>
	<g>
		<defs>
			<rect id="SVGID_11_" x="60" y="60" width="120" height="120"/>
		</defs>
		<clipPath id="SVGID_12_">
			<use xlink:href="#SVGID_11_"  style="overflow:visible;"/>
		</clipPath>
		<path class="st7" d="M79.7,121.5c-0.6-1.3-1.3-4.7-1.5-5.6c0-0.2,0-0.6,0-0.8c0-0.2,0-0.6-0.2-0.9c-0.2-1.1-0.2-4.7,0-5.6
			c0-0.4,0.2-0.9,0.2-1.1c0-0.2,0.2-0.9,0.2-1.3c0.2-0.6,0.2-1.1,0.4-1.5c0-0.4,0.4-1.1,0.6-1.7c0.2-0.6,0.4-1.1,0.4-1.3
			c0-0.2,0.2-0.4,0.2-0.4s0.4-0.8,0.6-1.7c0.9-2.3,2.8-5.4,3.9-6.6c0.6-0.6,1.5-1.1,1.5-0.9c0,0.2,0,0.2,0.4,0
			c0.2,0,0.6-0.2,0.8-0.4c0.2,0,0.4-0.2,0.4-0.2s0.4-0.2,0.6-0.4c0.2-0.2,0.6-0.4,0.8-0.4s0.9-0.4,1.7-0.8s1.7-0.8,2.1-0.8
			c0.4-0.2,1.1-0.4,1.5-0.6s0.9-0.4,1.3-0.6s0.8-0.2,0.8-0.2c0.2,0,0.6-0.2,0.9-0.2s0.8-0.2,0.9-0.2c0.6-0.2,0.9-0.2,0.9-0.2
			c0.2,0-1.3,0.6-2.2,0.8c-0.6,0.2-1.5,0.4-1.9,0.8c-0.6,0.2-1.3,0.6-1.9,0.8c-0.6,0.2-1.3,0.6-1.9,0.9s-1.3,0.8-1.7,0.9
			c-0.9,0.6-1.9,1.1-3.6,2.6c-1.5,1.3-1.7,1.5-3,3.8c-1.3,2.4-1.9,4.3-2.6,7.9c-0.4,2.1-0.4,2.3-0.6,4.1c0,1.1,0,3.6,0,5.2
			c0,2.6,0,3.6,0.2,4.9C79.7,120.9,79.9,121.7,79.7,121.5C79.7,121.7,79.7,121.7,79.7,121.5"/>
	</g>
	<g>
		<defs>
			<rect id="SVGID_13_" x="60" y="60" width="120" height="120"/>
		</defs>
		<clipPath id="SVGID_14_">
			<use xlink:href="#SVGID_13_"  style="overflow:visible;"/>
		</clipPath>
		<path class="st8" d="M132.2,134.1c-0.8,0-1.9-0.2-2.6-0.2c-1.1,0-1.7,0-2.6-0.2c-0.8-0.2-1.9-0.2-2.8-0.4c-1.1,0-1.9-0.2-3.2-0.6
			c-0.9-0.2-2.2-0.4-3-0.6c-0.9-0.2-1.7-0.4-2.6-0.6c-0.6-0.2-1.9-0.6-2.8-0.9c-1.5-0.6-3.9-1.3-6.4-2.4c-0.6-0.2-1.7-0.8-2.4-1.3
			c-0.8-0.6-1.9-1.1-2.6-1.5c-2.8-1.5-8.2-5.4-10.7-7.3c-0.8-0.8-2.1-1.7-2.6-2.1c-0.9-0.8-1.1-0.9-1.9-2.1
			c-0.9-1.3-0.9-1.3-1.3-2.4c-0.2-0.8-0.4-1.3-0.4-1.5s-0.2-0.6-0.4-0.9l-0.4-0.6v-1.5c0-1.7,0-2.1,0.4-2.1c0.2,0,0.4-0.2,0.6-0.2
			c0.2-0.2,0.4-0.2,0.4-0.4c0-0.2,0-0.4,0-0.4c0-0.2,0.2-0.8,0.4-1.3c0.8-2.1,2.2-4.3,3.8-5.8c0.8-0.8,0.9-0.8,2.6-1.9
			c3.8-2.1,6-3.2,7.1-3.4c1.5-0.2,2.1-0.4,3.4-0.8c0.6-0.2,1.1-0.4,2.8-0.4c1.1-0.2,2.4-0.2,3.2-0.4c0.8,0,2.1-0.2,3.6-0.2
			c2.6,0,2.4,0,6,0.6c0.6,0,1.5,0.2,2.1,0.2c1.1,0,2.2,0.2,3.4,0.6c0.4,0.2,1.3,0.4,1.9,0.4s1.1,0.2,1.3,0.2c0.2,0,0.8,0.2,1.3,0.2
			s1.5,0.2,1.9,0.4c0.4,0.2,1.1,0.2,1.5,0.4c1.3,0.2,2.2,0.6,4.1,1.5c0.9,0.4,2.1,1.1,2.6,1.3c0.6,0.4,1.3,0.8,1.7,0.8
			c1.1,0.6,2.3,1.1,3.2,1.7c0.4,0.4,1.1,0.8,1.5,0.9c0.4,0.2,0.8,0.4,0.9,0.6c0.2,0.2,0.4,0.2,0.8,0.2s0.8,0.2,1.9,0.6
			c1.5,0.6,1.5,0.6,2.8,1.5c2.4,1.7,5.1,4.3,6.6,6.6c1.1,1.7,1.7,2.8,2.1,3.9c0.4,0.8,0.4,0.9,0.4,1.5s0,0.9-0.6,2.6
			c-0.8,2.4-1.7,4.7-3,7.1c-0.8,1.5-1.1,1.9-2.1,3.2c-1.3,1.7-2.6,3-4.5,4.3c-1.1,0.8-1.3,0.9-2.6,1.5c-1.3,0.6-3.2,1.1-4.1,1.3
			c-0.2,0-1.9,0.2-3.4,0.4C136.1,134.2,134.4,134.2,132.2,134.1 M114,122.1c0.2-0.6,0.8-2.6,0.8-3c0-0.2,0-0.2-0.4-0.2
			s-0.6,0.2-1.1,1.1c-0.6,0.8-0.8,1.3-0.8,1.9c0,0.2,0,0.4,0.2,0.4c0.2,0,0.2,0.2,0.4,0.2c0,0,0.2,0.2,0.4,0.2
			C113.8,122.6,113.8,122.6,114,122.1 M117.9,121.7l0.4-0.2v-0.6c0-0.4,0-0.9-0.2-1.5s-0.2-0.9-0.2-0.9c0-0.2-0.2-0.2-0.4,0
			c0,0-0.2,0.2-0.2,0.4c-0.2,0.4-0.4,0.8-0.4,1.3c0,0.4,0,0.8-0.2,0.9c0,0.2,0,0.4,0,0.6c0.2,0.2,0.2,0.4,0.4,0.4
			C117.6,121.9,117.8,121.9,117.9,121.7 M126,121.5c0.2-0.4,0.2-0.4-0.2-0.9c-0.2-0.4-0.4-0.9-0.8-1.5l-0.4-0.9h-0.4
			c-0.2,0-0.4,0-0.4,0.2c-0.2,0.2,0.2,1.5,0.6,2.6c0.2,0.8,0.4,0.8,0.9,0.8C125.8,121.9,125.8,121.9,126,121.5 M122.1,121.5
			c0.2-0.4,0.4-0.6,0.2-0.8c0-0.2-0.2-0.4-0.2-0.8c0-0.9-0.4-1.7-0.9-1.7c-0.4,0-0.4,0.2-0.4,1.3c0,1.1,0,1.1,0.2,1.5
			c0.2,0.4,0.2,0.4,0.6,0.4C121.7,121.7,121.9,121.7,122.1,121.5 M129.8,120c0.2-0.2,0.2-0.4,0.2-0.8c0-0.4,0-0.4-0.2-0.6
			c-0.2,0-0.6-0.4-0.8-0.8c-0.4-0.4-0.8-0.6-1.1-0.8c-0.4-0.2-0.6-0.2-0.6-0.4s-0.2-0.2-0.4-0.2h-0.4v0.4c0,0.6,0.2,0.8,0.8,1.5
			c0.9,1.1,1.3,1.5,1.7,1.5C129.4,120.4,129.6,120.4,129.8,120 M111.2,118.7c0.6-0.4,1.3-1.1,1.5-1.5c0.2-0.4,0.2-0.4,0-0.4
			c-0.2-0.4-0.8-0.2-1.3,0.2c-0.6,0.4-1.5,1.1-1.5,1.3c0,0,0,0.2,0.2,0.2c0,0,0.2,0.2,0.2,0.4C110.2,119.1,110.6,119.1,111.2,118.7
			 M130.9,116.1c0.2-0.6,0.2-0.8,0-0.9l-0.2-0.2c0,0-0.4-0.2-0.6-0.4c-0.4-0.2-0.8-0.4-1.1-0.4c-0.4-0.2-0.6-0.2-1.1-0.2h-0.4v0.4
			c0,0.2,0,0.4,0,0.4s0.2,0.2,0.4,0.4c0.4,0.4,0.9,0.8,1.5,1.1c0.4,0.2,0.4,0.4,0.9,0.4h0.6V116.1z M109.7,115.9
			c0.2-0.2,0.6-0.4,0.9-0.8c0.2-0.2,0.6-0.4,0.6-0.6c0.2,0,0.2-0.2,0-0.4c-0.2-0.2-0.4-0.2-0.4-0.2c-0.2,0-1.9,0.6-2.1,0.8l-0.2,0.2
			c0,0,0,0.2-0.2,0.2c0,0-0.2,0-0.2,0.2s0.8,0.6,0.9,0.6C109.1,116.2,109.5,116.1,109.7,115.9 M132.8,113.8l0.2-0.2
			c0,0,0.2-0.2,0.2-0.6c0-0.6,0-0.8-0.4-0.8c0,0-0.4-0.2-0.6-0.2c-0.4-0.4-0.6-0.4-1.5-0.6c-0.6-0.2-0.8-0.2-0.8-0.4s-0.2-0.2-0.4,0
			l-0.2,0.2l0.2,0.4c0.2,0.4,0.9,0.9,2.1,1.5C132.4,114,132.6,114,132.8,113.8 M107.8,113.2c0.2-0.2,0.4-0.2,0.6-0.4
			c0.6-0.2,0.9-0.4,1.1-0.6c0.2-0.2,0.2-0.2-0.2-0.4c-0.4-0.2-1.3-0.2-1.9,0l-0.6,0.2v0.6c0,0.6,0,0.8,0.4,0.8
			S107.6,113.4,107.8,113.2 M104.8,111.9c0.2-0.2,0.6-0.4,0.8-0.4c0.8-0.4,1.1-0.8,1.1-0.9s0-0.2-0.4-0.4c-0.4,0-0.4-0.2-0.6,0
			c-0.2,0-0.6,0.2-0.8,0.2c-0.4,0-0.6,0-0.9,0.2c-0.2,0.2-0.4,0.2-0.4,0.2s0,0.2,0,0.6c0,0.6,0,0.6,0.2,0.6c0,0,0.2,0,0.4,0.2
			C104.2,112.1,104.4,112.1,104.8,111.9 M135.2,109.5c0,0,0.2-0.2,0.4-0.2h0.2v-0.6v-0.6l-0.4-0.2c-0.4-0.2-0.4-0.2-1.1-0.2
			c-0.9,0-2.1,0.4-2.8,0.9c-0.8,0.4-0.6,0.6,0.2,0.8C132.4,109.7,135,109.7,135.2,109.5 M105.6,108.9c0.2-0.2,0.6-0.4,0.8-0.4
			l0.4-0.2l-0.2-0.2c-0.4-0.4-0.6-0.6-1.5-0.6c-0.8,0-0.9,0-1.1,0.2c-0.2,0.2-0.2,0.2-0.2,0.6c0,0.2,0,0.4,0,0.4s0,0.2,0,0.4v0.2
			h0.8C105,109.1,105.2,109.1,105.6,108.9 M131.4,107.1c0.2-0.2,0.6-0.4,0.9-0.4c0.8-0.2,1.9-0.8,1.9-0.8s0-0.2,0.2-0.4
			c0-0.2,0.2-0.2,0.2-0.4s-0.6-0.6-0.9-0.6c-0.6,0-3,2.1-3,2.4c0,0.2,0,0.2,0.2,0.2C131.1,107.4,131.2,107.2,131.4,107.1
			 M105.4,106.3c0.4-0.2,0.4-0.4,0.2-0.6c-0.2,0-0.6-0.4-0.8-0.6c-0.6-0.4-0.8-0.4-1.5-0.6c-1.1-0.4-1.3-0.4-1.7,0.2
			c-0.2,0.2-0.4,0.4-0.4,0.4s0.2,0.2,0.4,0.4c0.4,0.4,0.4,0.4,1.5,0.6c0.2,0,0.6,0.2,0.6,0.2C104.1,106.5,105,106.5,105.4,106.3
			 M129.6,105.6c0.4-0.2,0.9-0.6,1.3-0.8c0.4-0.2,0.6-0.4,0.6-0.4s0.2-0.2,0.4-0.4c0.4-0.4,0.4-0.6,0-0.9s-0.8-0.6-0.9-0.4
			c0,0-0.2,0.2-0.4,0.6c-0.2,0.2-0.6,0.8-0.8,0.9c-0.6,0.8-0.9,1.3-0.9,1.5C128.6,106.1,128.6,105.9,129.6,105.6 M126.8,105
			c0.2,0,0.6-0.4,0.9-0.8c0.4-0.4,0.8-0.8,1.1-0.9l0.4-0.2v-0.6c0-0.6,0-0.6-0.2-0.8s-0.4-0.2-0.6-0.2c-0.4,0-0.4,0-0.8,0.6
			c-0.8,1.1-1.3,2.2-1.3,2.8C126.4,105.2,126.4,105.2,126.8,105 M108,103.9c0-0.2,0-0.4-0.2-0.8c-0.2-0.2-0.6-0.9-0.9-1.5
			c-0.8-0.9-0.8-0.9-1.1-0.9s-0.4,0-0.8,0.2c-0.4,0.2-0.4,0.2-0.4,0.6c0,0.2,0,0.4,0.2,0.6c0.2,0.2,0.4,0.2,0.4,0.2l0.2,0.2
			c0,0.2,0.2,0.4,0.4,0.4c0.2,0.2,0.6,0.4,0.8,0.6c0.4,0.4,0.8,0.6,1.1,0.6C107.8,104.2,107.8,104.1,108,103.9 M124.9,103.7
			c0.2-0.2,0.6-0.6,0.6-0.8c0.2-0.2,0.4-0.4,0.4-0.6l0.2-0.2c0,0,0.2-0.4,0.2-0.6c0.2-0.4,0.2-0.4,0.2-0.8c-0.2-0.4-0.4-0.6-0.8-0.6
			s-0.4,0-0.8,0.4c-0.2,0.4-0.4,0.9-0.8,2.2c-0.2,0.6-0.2,0.8,0,0.8c0,0,0.2,0,0.2,0.2C124.3,104.2,124.5,104.1,124.9,103.7
			 M111,103.9c0,0,0-0.2-0.2-0.4c-0.2-0.2-0.2-0.2-0.2-0.8c0-0.4,0-0.6-0.2-0.8c0-0.2-0.2-0.4-0.4-0.8c-0.6-0.9-0.9-1.3-1.5-0.9
			c-0.2,0.2-0.2,0.9,0,1.1c0.2,0.2,0.4,0.6,0.8,0.9c0.2,0.4,0.6,0.8,0.8,0.9c0.2,0.2,0.4,0.4,0.6,0.4C111,103.9,111,103.9,111,103.9
			 M113.2,103.1c0-0.2-0.4-1.3-0.6-2.1c0-0.2-0.2-0.2-0.2-0.2s-0.2,0-0.2-0.2c-0.2-0.2-0.8-0.2-0.9,0c-0.2,0.2-0.2,0.8,0,1.1
			c0.6,0.9,1.1,1.5,1.7,1.5C113.4,103.3,113.4,103.3,113.2,103.1 M115.7,102.9c0.2,0,0.2-0.2,0.2-0.4c0-0.2-0.2-0.8-0.2-1.1
			c-0.2-0.4-0.2-0.9-0.2-1.1c0-0.6-0.2-0.6-0.4-0.8c-0.2-0.2-0.9,0-1.3,0.2c-0.4,0.2-0.4,0.6,0,0.8c0.2,0.2,0.2,0.4,0.4,0.6
			c0,0.2,0.2,0.6,0.4,0.6C114.8,101.8,115.7,102.9,115.7,102.9C115.5,102.9,115.5,102.9,115.7,102.9 M121.3,102.8
			c0.4-0.4,0.4-0.4,0.6-1.1c0.2-0.6,0.6-1.3,0.9-2.1c0.2-0.4,0.2-0.6-0.4-0.8c-0.6-0.2-0.8-0.4-1.1-0.2c-0.2,0.2-0.2,0.2-0.2,0.4
			c0,0.2,0,0.6-0.2,1.1c-0.2,0.9-0.4,1.5-0.2,1.9c0,0.2,0.2,0.4,0.2,0.6C120.8,103.1,121.1,103.1,121.3,102.8 M117.8,102
			c0.2-0.2,0.2-3.4,0-3.9c-0.2-0.6-0.2-0.6-0.4-0.8c-0.4-0.2-0.6-0.2-0.8,0c-0.2,0.2-0.4,0.2-0.4,0.2c-0.2,0-0.2,1.1,0,1.7
			c0,0.2,0.2,0.8,0.4,1.1c0.2,0.6,0.4,0.8,0.6,1.1c0.2,0.2,0.4,0.4,0.4,0.6C117.4,102.2,117.6,102.2,117.8,102"/>
	</g>
	<g>
		<defs>
			<rect id="SVGID_15_" x="60" y="60" width="120" height="120"/>
		</defs>
		<clipPath id="SVGID_16_">
			<use xlink:href="#SVGID_15_"  style="overflow:visible;"/>
		</clipPath>
		<path class="st9" d="M126.8,129.6c-1.1-0.2-3.2-0.4-4.5-0.4c-1.9-0.2-3-0.4-3.8-0.6c-0.6-0.2-1.5-0.4-2.1-0.4
			c-1.1-0.2-2.1-0.4-5.2-1.3c-2.1-0.6-2.2-0.6-3.9-1.5c-0.9-0.6-2.2-1.1-2.8-1.5c-1.3-0.8-6.6-3.6-7.3-4.1c-1.5-0.9-5.1-3.4-5.8-3.9
			c-0.4-0.4-1.1-0.8-1.7-1.1s-1.3-0.9-1.9-1.3c-0.9-0.8-1.1-0.9-1.9-2.1c-0.8-0.9-0.8-1.1-1.3-2.4l-0.4-1.3v0.9v0.9l-0.4-0.6
			l-0.4-0.6v-1.5c0-1.7,0-2.1,0.4-2.1c0.2,0,0.4-0.2,0.6-0.2c0.2-0.2,0.4-0.2,0.4-0.4s0-0.4,0-0.4c0-0.2,0.2-0.8,0.4-1.3
			c0.8-2.1,2.2-4.3,3.8-5.8c0.8-0.8,0.9-0.8,2.6-1.9c3.8-2.1,6-3.2,7.1-3.4c1.5-0.2,2.1-0.4,3.4-0.8c0.6-0.2,1.1-0.4,2.8-0.4
			c1.1-0.2,2.4-0.2,3.2-0.4c0.8,0,2.1-0.2,3.6-0.2c2.6,0,2.4,0,6,0.6c0.6,0,1.5,0.2,2.1,0.2c1.1,0,2.2,0.2,3.4,0.6
			c0.4,0.2,1.3,0.4,1.9,0.4c0.6,0,1.1,0.2,1.3,0.2c0.2,0,0.8,0.2,1.3,0.2s1.5,0.2,1.9,0.4s1.1,0.2,1.5,0.4c1.3,0.2,2.2,0.6,4.1,1.5
			c0.9,0.4,2.1,1.1,2.6,1.3c0.6,0.4,1.3,0.8,1.7,0.8c1.1,0.6,2.2,1.1,3.2,1.7c0.4,0.4,1.1,0.8,1.5,0.9c1.1,0.6,1.3,0.8,1.3,0.8
			c-0.2,0.2-0.2,0.6,0,0.6c0,0,0.6,0.4,1.1,0.8s1.7,1.1,2.6,1.9c1.3,0.9,1.9,1.5,3.2,2.8c1.3,1.3,1.5,1.7,2.2,2.6
			c1.1,1.7,1.5,2.8,1.5,3.9c0,0.2,0,0.9-0.2,1.5c-0.2,0.9-0.4,1.9-1.3,4.7c-0.4,1.3-1.5,3.2-2.6,4.7c-0.8,1.1-1.1,1.5-2.1,2.2
			c-0.9,0.8-1.3,1.1-2.4,1.9c-1.9,1.1-2.6,1.5-3.9,1.5c-0.6,0-1.3,0.2-1.9,0.4s-1.7,0.4-3,0.4c-1.9,0.2-2.2,0.2-6,0.2
			C129.2,129.8,128.6,129.8,126.8,129.6 M132.6,128.6c0.8,0,0.9-0.2,1.5-0.4c0.4-0.2,0.6-0.4,0.6-0.4s-0.2-0.6-0.6-1.1
			c-0.4-0.6-0.8-1.3-1.1-1.7c-0.2-0.4-0.9-1.3-1.7-2.2s-1.5-1.9-1.7-2.1l-0.4-0.6h0.2c0.2,0,0.6-0.4,0.6-0.8c0-0.2,0-0.2,0.6,0.4
			c0.4,0.4,0.9,0.8,1.3,1.1c0.8,0.8,3.4,3.8,3.9,4.7c0.2,0.4,0.8,0.9,0.9,1.3l0.4,0.6h1.1c0.6,0,1.7,0,2.1,0.2c0.9,0,1.1,0,1.9-0.2
			c0.9-0.2,0.9-0.2,1.7-0.8c0.4-0.2,0.8-0.6,0.9-0.8l0.4-0.4l-1.7-0.9c-2.1-1.3-3.8-2.2-7.1-4.7c-2.2-1.5-3.4-2.2-5.6-3.9
			c-0.2-0.2-0.2-0.2,0-0.4l0.2-0.2l1.1,0.4c0.8,0.2,1.5,0.6,2.6,1.1c0.9,0.4,2.3,1.1,3.2,1.7c0.9,0.4,2.1,1.1,2.8,1.5
			c0.8,0.4,1.9,1.1,2.6,1.3c0.8,0.4,1.7,0.9,2.1,1.1c0.6,0.4,1.1,0.8,1.5,0.8l0.6,0.2l1.1-0.6c1.1-0.6,1.3-0.8,2.1-1.7
			c0.6-0.8,0.6-0.6,0.8-1.5c0.2-0.8,0.2-1.3,0.2-1.3c-0.4,0-1.5-0.6-2.2-0.8c-0.6-0.2-1.7-0.6-2.4-0.8c-0.9-0.2-2.4-0.8-3.4-1.1
			c-0.9-0.4-2.2-0.8-2.6-0.9c-0.6-0.2-1.7-0.6-2.8-0.9s-2.2-0.8-2.6-0.9c-1.3-0.4-2.2-0.8-2.2-0.8c0-0.2-0.2-0.4-0.4-0.4
			c-0.2,0-0.8-0.4-0.8-0.4s1.7,0.2,2.4,0.4c0.4,0.2,1.1,0.2,1.7,0.4c0.4,0,1.5,0.2,2.2,0.4c3.2,0.8,8.1,2.1,8.6,2.2
			c1.9,0.6,4.1,1.1,5.1,1.1h0.6l0.4-0.8c0.4-0.6,0.6-1.1,0.8-1.5c0.2-0.8,0.2-0.8,0.2-1.5c0-0.6-0.2-1.1-0.4-1.7l-0.4-0.9h-3.6
			c-3,0-3.8,0-4.9-0.2c-0.8-0.2-1.9-0.2-2.2-0.2c-0.6,0-1.5,0-1.9-0.2c-0.6,0-1.7-0.2-2.6-0.2h-1.7v-0.6v-0.6h0.4
			c0.2,0,1.5-0.2,2.8-0.2c4.5-0.4,6.2-0.4,7.1-0.6c0.6,0,1.5,0,2.1,0c0.9,0,1.1,0,1.5-0.2c0.6-0.2,0.6-0.2,0.2-0.9
			c-0.2-0.4-1.3-2.1-1.9-2.6c-0.2-0.2-0.6-0.6-0.8-0.8c-0.2-0.2-0.8-0.4-1.1-0.8l-0.8-0.6l-0.4,0.2c-0.2,0-1.5,0.4-3,0.9
			c-1.5,0.4-3.2,0.9-3.9,1.1c-0.8,0.2-1.7,0.6-2.4,0.8l-1.7,0.8l-0.4-0.2c-0.2-0.2-0.4-0.2-0.4-0.2c-0.2,0-0.2,0,1.7-1.1
			c0.9-0.6,2.1-1.1,2.6-1.5c0.4-0.4,1.3-0.8,1.7-0.9c0.6-0.2,1.3-0.6,1.7-0.9l0.8-0.6l-0.2-0.2c-0.4-0.6-1.5-1.1-2.4-1.7
			c-0.8-0.4-1.1-0.6-2.1-0.8c-0.6-0.2-1.3-0.2-1.5-0.4l-0.6-0.2l-0.4,0.4c-0.2,0.2-0.6,0.8-0.9,1.3s-1.1,1.5-1.7,2.2
			s-1.5,1.7-1.9,2.2s-1.3,1.5-1.9,2.1s-1.1,1.1-1.1,1.3c0,0,0.6,0.4,1.1,0.8c0.6,0.4,1.5,0.9,2.1,1.3c0.8,0.6,0.9,0.6,1.1,0.6
			c0.2,0,0.2,0-0.2,0.2c-0.2,0.2-0.4,0.4-0.4,0.4c0,0.2,0.2,0.2,0.4,0.4h0.2l-0.4,0.8c-0.2,0.4-0.4,0.9-0.6,1.1
			c-0.2,0.4-0.2,0.4-0.4,0.4c-0.4-0.2-0.6-0.2-0.6-0.4c0-0.2-0.2-0.2-0.4,0.2l-0.2,0.2l0.2,0.4c0.2,0.2,0.4,0.4,0.4,0.6
			c0.2,0,0.2,0.2,0.2,0.2s-0.2,0.4-0.6,0.8l-0.6,0.8l-0.2-0.2c-0.2-0.2-0.4-0.2-0.9-0.2h-0.4v0.4c0,0.2,0,0.4,0.2,0.4
			c0,0,0.2,0.2,0.6,0.4l0.4,0.4l-0.2,0.4c-0.2,0.2-0.4,0.6-0.6,0.8c-0.2,0.2-0.4,0.6-0.4,0.6c0,0.2-0.2,0-0.2-0.2
			c0-0.2-0.2-0.2-0.4-0.2h-0.4v0.6c0,0.2,0,0.6,0,0.6c0,0.2-1.1,0.6-1.9,0.6c-0.4,0-0.6,0-0.6,0.2c0,0-0.4,0.2-0.6,0.2
			c-0.2,0-0.4,0.2-0.4,0.2s0.2,0.2,0.4,0.4c0.9,1.1,2.1,3.4,2.8,5.8c0.2,0.6,0.6,1.5,0.8,1.9l0.4,0.8l0.6,0.2
			c0.4,0.2,0.9,0.4,1.3,0.4C129.6,128.8,130.5,128.8,132.6,128.6 M124.3,127.5c0-0.2,0-0.4,0-0.8c0-0.2-0.2-1.5-0.4-2.8
			c-0.6-3.6-1.1-5.1-1.7-5.1c-0.2,0-0.2,0-0.4-0.2c-0.2-0.4-0.6-0.6-0.9-0.4c0,0-0.2,0.2-0.2,0.4c0,0.2,0,0.4,0,0.4s-0.6,0-1.3,0.2
			c-0.8,0-1.3,0.2-1.3,0c0,0-0.2-0.2-0.2-0.6c-0.2-0.6-0.2-0.6-0.4-0.4c0,0-0.2,0.2-0.2,0.4c-0.2,0.4-0.4,0.8-0.4,1.3
			c0,0.4,0,0.8-0.2,0.9c0,0.2,0,0.4,0,0.6c0.2,0.2,0.2,0.4,0.6,0.4c0.2,0,0.4,0,0.6-0.2l0.2-0.2c0,0,0,0.9-0.2,2.2
			c-0.2,1.1-0.2,2.2-0.2,2.2c0,0.2,0.8,0.6,1.5,0.9c0.4,0.2,1.1,0.4,1.3,0.4c0.4,0.2,0.6,0.2,2.1,0.2L124.3,127.5L124.3,127.5z
			 M114.6,125.2c0.2-0.6,0.6-1.7,1.1-2.6c0.4-0.9,0.8-1.9,0.8-2.2l0.2-0.6h-0.9h-0.9v-0.4v-0.4h-0.4c-0.2,0-0.4,0-0.4,0.2
			c0,0-0.2,0-0.6-0.4c-0.2-0.2-0.6-0.6-0.8-0.8l-0.4-0.4l0.2-0.4c0.2-0.4,0.2-0.4,0-0.6c0-0.2-0.2-0.2-0.6-0.2s-1.1,0.4-1.9,1.1
			c-0.6,0.4-0.6,0.6-0.4,0.8c0,0,0.2,0.2,0.2,0.4s0.2,0.2,0.2,0.2c0.2,0-1.1,1.3-1.9,1.9c-0.6,0.4-1.3,1.3-1.7,2.1l-0.2,0.4l0.2,0.2
			c0.6,0.6,1.1,0.9,2.8,1.7c1.1,0.4,1.9,0.8,2.6,0.9c0.6,0.2,0.9,0.2,0.9,0.2s0.2,0,0.6,0h0.6L114.6,125.2z M103.7,121.1
			c0.4-0.4,1.3-0.9,1.9-1.3c0.8-0.4,1.7-1.1,2.1-1.5c0.6-0.4,1.5-0.9,2.1-1.3c0.6-0.4,1.1-0.6,1.3-0.8c0.2,0,0.2-0.2,0.2-0.2
			s-0.2-0.2-0.2-0.6c-0.2-0.2-0.4-0.6-0.4-0.6l0.2-0.2c0.2,0,0.2-0.2,0.2-0.2c0-0.2-0.6-0.4-0.8-0.4s-0.4,0-0.8-0.8
			c-0.4-0.6-0.6-0.8-0.4-0.9c0.2,0,0.4-0.4,0.4-0.6c0,0-0.6-0.2-0.8-0.2c-0.2,0-0.4-0.2-0.9-0.9c-0.4-0.6-0.8-1.1-0.8-1.1l-0.2-0.2
			h-2.8c-1.9,0-3.6,0-5.2-0.2c-3.9-0.2-4.5-0.4-6-0.6c-0.7,0-1.5,0-2.4,0c-1.1,0-2.4,0.2-2.4,0.2s0.2,0.6,0.4,1.1
			c0.6,1.5,1.1,2.4,1.9,3.2c0.4,0.4,0.7,0.8,0.9,1.1c0.2,0.4,0.4,0.4,0.4,0.4c0.8-0.2,2.6-0.6,6.6-1.1c0.6-0.2,1.7-0.4,2.4-0.6
			c0.9-0.2,1.7-0.4,2.8-0.4c0.8,0,1.9-0.2,2.4-0.4c0.6-0.2,1.1-0.2,1.1-0.2s0,0.2,0,0.4c0,0.4,0,0.4-0.2,0.6c-0.2,0.2-3,0.9-3.9,1.3
			c-0.4,0-1.1,0.4-1.7,0.6c-0.6,0.2-1.7,0.6-2.1,0.8c-0.6,0.2-1.5,0.4-2.1,0.6s-1.1,0.4-1.3,0.4h-0.2c0,0,0.8,0.8,2.3,1.9
			c1.5,1.3,2.8,2.1,3.8,2.2c0.2,0,0.6,0.2,0.8,0.4C102.6,121.9,102.8,121.7,103.7,121.1 M105.4,109.1c0.2,0,0.4-0.2,0.6,0
			c0.2,0,0.4,0,0.6,0.2h0.2l-0.2-0.4c-0.2-0.2-0.2-0.4,0-0.4c0.2-0.2,0.2-0.2-0.4-0.6c-0.2-0.2-0.6-0.6-0.8-0.9
			c-0.2-0.6-0.4-0.6-0.2-0.6c0,0,0.2-0.2,0.4-0.2c0.2-0.2,0.2-0.2-0.2-0.4c-0.4-0.6-0.4-0.6-0.4-0.8c0,0-0.2-0.2-0.9-0.4
			c-0.6-0.2-1.1-0.4-1.3-0.4s-1.9-0.6-3.9-1.1c-2.1-0.6-4.7-1.3-6-1.7c-2.4-0.8-3-0.9-3.6-0.9h-0.4l-0.4,0.6
			c-0.4,0.8-1.5,2.8-1.9,3.8c-0.2,0.6-0.4,0.8-0.4,1.1s0,0.4,0.4,0.6c0.2,0,1.1,0.2,1.9,0.2c0.9,0,1.7,0,1.7,0.2
			c0,0,0.8,0.2,1.3,0.2c0.8,0,2.1,0.2,3,0.4c0.9,0.2,2.8,0.4,4.1,0.6c2.4,0.4,4.3,0.6,4.5,0.8c0,0,0,0.2,0,0.4v0.2h0.8
			C104.8,109.1,105.2,109.1,105.4,109.1 M127.3,105.4c0.2-0.6,0.9-1.9,1.1-1.9c0,0,0.4-0.2,0.6-0.4l0.4-0.2v-0.6v-0.6l1.1-1.5
			c2.1-3,2.4-3.6,2.4-4.5v-0.4l-0.6-0.2c-0.4-0.2-0.6-0.2-0.8-0.4c-0.2,0-0.4-0.2-0.6-0.4c-0.2-0.2-0.8-0.4-1.3-0.6
			c-0.4-0.2-0.9-0.2-1.1-0.4c-0.2,0-0.6-0.2-1.1-0.2s-0.8,0-0.8,0.2c-0.4,1.1-0.9,2.6-1.1,3.9c-0.6,2.6-0.9,4.3-1.5,5.2l-0.4,0.8
			l0.4,0.2c1.9,1.1,3,1.7,3,1.7C127.1,105.8,127.3,105.8,127.3,105.4 M106.1,104.6c0.2,0,0.6-0.2,0.8-0.4c0.2-0.2,0.4-0.2,0.6-0.2
			c0.2,0,0.4,0,0.4-0.2c0-0.2,0.2-0.4,0.2-0.4s0.2,0,0.4-0.2c0.2,0,0.4-0.2,0.4-0.2c0.2,0,0-0.2-1.1-0.9c-0.8-0.6-1.3-1.1-1.5-1.1
			c-0.2-0.2-0.4-0.4-0.6-0.4c-0.2,0-1.5-0.8-3.2-1.9c-0.6-0.4-1.7-1.1-2.3-1.5c-0.6-0.4-1.5-0.9-1.9-1.3c-0.6-0.6-0.9-0.8-1.3-0.9
			l-0.6-0.2l-0.9,0.2c-0.6,0.2-1.1,0.4-1.3,0.6S93.6,96,93.4,96c-0.6,0.2-1.5,0.8-2.1,1.3c-0.6,0.6-0.9,1.1-0.9,1.1s0.4,0.2,0.8,0.2
			c1.7,0.6,5.1,1.9,7.3,3c0.6,0.4,1.9,0.8,2.6,1.1c0.9,0.4,2.1,0.9,2.8,1.3c0.8,0.4,1.3,0.8,1.3,0.8
			C105.8,104.8,105.9,104.6,106.1,104.6 M111,103.9c0,0,0-0.2-0.2-0.4c0-0.2-0.2-0.4-0.2-0.4c0-0.2,0-0.2,0.6-0.4l0.6-0.2l0.2,0.4
			c0.4,0.4,0.6,0.6,0.9,0.6c0.2,0,0.2,0,0.2-0.2c-0.2-0.2-0.6-1.9-0.6-1.9s0.2,0,0.2,0.2c0.2,0.2,0.4,0.4,0.4,0.4s0.2,0,0.4,0
			c0.4-0.2,0.4-0.2,0.4,0c0,0,0.4,0.4,0.6,0.8c0.6,0.6,0.6,0.6,0.8,0.4c0.2,0,0.2-0.2,0.2-0.4s0-0.6-0.2-0.8c0-0.2,0-0.4,0-0.4
			s0.2-0.2,0.6-0.2l0.4-0.2l0.4,0.4c0.2,0.2,0.4,0.4,0.4,0.6c0,0,0,0,0.2,0c0.2,0,0.4-0.2,0.4-1.5c0-0.8,0-1.3,0-1.3
			s0.2,0.4,0.4,1.1l0.4,1.1l0.9,0.4c0.9,0.6,1.1,0.6,1.1,0.9c0,0.2,0,0.2,0.2,0.2c0.2,0,0.2,0,0.2-0.2c0-0.2,0.2,0,1.1,0.4l1.1,0.6
			v-0.2c0-0.2,0-0.6,0-1.1c0-0.8,0-1.5,0.2-5.8c0-0.6,0-1.7,0-2.3v-1.3l-0.8-0.2c-1.3-0.4-3.4-0.8-4.9-0.9c-0.8,0-1.5-0.2-1.7-0.2
			c-0.2,0-0.4,0-0.6,0h-0.2l0.6,1.9c0.2,0.9,0.6,2.1,0.8,2.6c0.2,0.4,0.2,0.8,0.2,0.8s0,0-0.2,0s-0.2,0-0.4,0.2
			c0.6,0.2,0.4,0.2,0.4,0.2s0,0,0,0.2c0,0.4-0.2-0.2-0.8-1.7c-0.6-1.9-0.9-3-1.5-3.4c-0.2-0.2-0.4-0.2-0.6-0.2s-0.8-0.2-1.3-0.2
			c-0.4,0-0.9-0.2-1.3-0.2c-0.2,0-0.6,0-0.8-0.2c-0.4-0.2-1.1-0.2-1.3,0c-0.2,0-0.4,0.2-0.6,0.2c-0.2,0-0.4,0-0.8,0.2
			c-0.2,0.2-0.4,0.2-0.4,0.2c0,0.2,0.6,0.9,1.1,1.9c0.4,0.6,0.8,1.3,0.9,1.7c0.2,0.4,0.8,1.1,1.1,1.5c0.4,0.4,0.9,1.1,1.1,1.7
			c0.9,1.3,1.3,2.1,0.8,1.7c-0.2,0-0.4-0.2-0.6-0.2h-0.4l-1.1-1.3c-0.6-0.8-1.3-1.7-1.7-2.1c-1.1-1.7-1.9-2.2-2.6-2.8
			c-0.4-0.2-0.9-0.6-1.1-0.8c-0.4-0.4-0.4-0.4-0.9-0.2c-0.4,0-1.1,0-1.7,0.2c-1.1,0-1.3,0.2-2.3,0.6c-0.6,0.2-1.1,0.4-1.3,0.4
			c0,0,0.2,0.2,0.6,0.6c1.3,0.8,4.1,3.2,5.2,4.1c0.6,0.6,1.9,1.7,2.8,2.4s2.1,1.7,2.2,1.9c0.6,0.6,0.6,0.6,0.9,0.6
			C111,103.9,111,103.9,111,103.9"/>
	</g>
	<g>
		<defs>
			<rect id="SVGID_17_" x="60" y="60" width="120" height="120"/>
		</defs>
		<clipPath id="SVGID_18_">
			<use xlink:href="#SVGID_17_"  style="overflow:visible;"/>
		</clipPath>
		<path class="st10" d="M129.9,106.9c0,0,1.3-0.9,1.9-1.3c0.4-0.2,0.6-0.2,0.4-0.2s-0.4,0.4-0.8,0.6c-0.4,0.4-0.6,0.6-0.9,0.6
			C130.3,106.7,130.1,106.9,129.9,106.9L129.9,106.9"/>
	</g>
</g>
</svg>
