<?xml version="1.0" encoding="utf-8"?>
<!-- Generator: Adobe Illustrator 23.0.5, SVG Export Plug-In . SVG Version: 6.00 Build 0)  -->
<svg version="1.1" id="Layer_1" xmlns:v="https://vecta.io/nano"
	 xmlns="http://www.w3.org/2000/svg" xmlns:xlink="http://www.w3.org/1999/xlink" x="0px" y="0px" viewBox="0 0 240 240"
	 style="enable-background:new 0 0 240 240;" xml:space="preserve">
<style type="text/css">
	.st0{fill:#B9BFC9;}
	.st1{fill:url(#SVGID_1_);}
	.st2{fill:url(#SVGID_2_);}
	.st3{fill:url(#SVGID_3_);}
	.st4{fill:#FFFFFF;}
</style>
<g>
	<path class="st0" d="M120,0L0,120l60,60c33,33,60,60,60,60s27.1-27,60-60l60-60L120,0z M151.4,151.3
		c-17.2,17.2-31.3,31.3-31.4,31.3s-14.2-14.1-31.4-31.3L57.3,120l31.3-31.4L120,57.3l31.3,31.3l31.3,31.4L151.4,151.3z"/>
	<g>
		
			<linearGradient id="SVGID_1_" gradientUnits="userSpaceOnUse" x1="119.9" y1="275" x2="119.9" y2="206.8264" gradientTransform="matrix(1 0 0 -1 0 443)">
			<stop  offset="0" style="stop-color:#9CB84C"/>
			<stop  offset="1" style="stop-color:#2AB572"/>
		</linearGradient>
		<path class="st1" d="M98.2,214.4c-11.9-11.9-21.7-21.8-21.7-21.8c0-0.2,24.5-24.6,24.6-24.6s4.3,4.2,9.5,9.3l9.3,9.3l9.3-9.3
			c5.1-5.1,9.4-9.3,9.5-9.3c0.2,0,24.6,24.5,24.6,24.6s-43.3,43.5-43.4,43.5C120,236.1,110.2,226.4,98.2,214.4z"/>
		
			<linearGradient id="SVGID_2_" gradientUnits="userSpaceOnUse" x1="120.1" y1="370.7" x2="120.1" y2="439.1" gradientTransform="matrix(1 0 0 -1 0 443)">
			<stop  offset="0" style="stop-color:#9CB84C"/>
			<stop  offset="1" style="stop-color:#2AB572"/>
		</linearGradient>
		<path class="st2" d="M88.9,59.9c-6.8-6.8-12.3-12.4-12.3-12.5s9.8-9.9,21.7-21.9L120,3.9l21.8,21.8l21.8,21.8l-12.4,12.4
			l-12.4,12.4l-9.4-9.4l-9.4-9.4l-9.4,9.4l-9.4,9.4L88.9,59.9L88.9,59.9z"/>
	</g>
	<path class="st0" d="M103.2,136.8L86.5,120l16.8-16.8L120,86.5l16.7,16.8l16.8,16.8l-16.7,16.7c-9.2,9.2-16.7,16.7-16.8,16.7
		S112.4,146,103.2,136.8z"/>
</g>
<linearGradient id="SVGID_3_" gradientUnits="userSpaceOnUse" x1="120" y1="45" x2="120" y2="195" gradientTransform="matrix(1 0 0 -1 0 240)">
	<stop  offset="0" style="stop-color:#EAB408"/>
	<stop  offset="0.9991" style="stop-color:#F7C94B"/>
</linearGradient>
<circle class="st3" cx="120" cy="120" r="75"/>
<g id="layer101">
	<path class="st4" d="M92.4,168.7c-1.5-0.2-3.4-1-4.7-2c-0.8-0.6-2-1.9-2.3-2.5c-0.1-0.2-0.3-0.7-0.5-1.1c-0.8-1.7-0.8-0.7-0.7-22.2
		c0-19.3,0-19.5,0.3-20.3c0.5-1.5,1.2-2.6,2.3-3.7c0.6-0.6,1.4-1.3,1.8-1.5c1.5-0.9,3.3-1.4,4.6-1.4h0.7l0-10.4
		c0-10,0.1-10.5,0.3-11.8c1.9-9.9,9.3-17.4,19.6-19.8c2.2-0.5,3.4-0.6,6.4-0.6c3,0,4.1,0.1,6.9,0.8c4.6,1.2,9.2,3.8,12.5,7.3
		c3,3.1,5.2,7.3,6.1,11.4c0.5,2.2,0.5,3.4,0.5,13.4v9.8h0.7c1.5,0,3.7,0.8,5.2,1.8c1.9,1.3,3.4,3.6,3.7,5.7
		c0.1,0.6,0.1,6.7,0.1,20.4l0,19.6l-0.3,0.7c-0.6,1.5-1.2,2.6-2.3,3.6c-1.1,1.1-2,1.7-3.4,2.3c-1.8,0.7-0.4,0.7-29.9,0.7
		C105,168.7,92.6,168.7,92.4,168.7z M147.4,162.5c0.9-0.3,1.3-0.7,1.7-1.4l0.3-0.6l0-19.2v-19.2l-0.3-0.6c-0.3-0.7-1.1-1.3-1.8-1.5
		c-0.3-0.1-9.3-0.1-27.4-0.1h-27l-0.7,0.3c-0.7,0.4-1.3,1-1.5,1.7c-0.1,0.3-0.2,5.4-0.2,19.5c0,18.2,0,19.1,0.2,19.6
		c0.1,0.3,0.5,0.7,0.8,1c1.1,0.9-1.2,0.9,28.5,0.9C146.6,162.8,146.8,162.8,147.4,162.5z M139.7,103.9c0-6.6,0-10.3-0.1-10.9
		c-0.4-2.6-1.4-5.2-2.9-7.5c-0.9-1.3-3.6-4-4.9-4.8c-4.1-2.7-9.1-3.9-13.9-3.4c-4.9,0.6-8.9,2.4-12.1,5.7c-2.5,2.5-4.1,5.3-5,8.8
		c-0.3,1.1-0.3,1.4-0.3,11.6l0,10.5H120h19.7L139.7,103.9L139.7,103.9z"/>
	<path class="st4" d="M126.7,144.3c0,3.7-3,6.7-6.7,6.7s-6.7-3-6.7-6.7c0-2.5,1.4-4.7,3.5-5.9v-2.9c0-4.2,0-4.5,0.9-5.3
		c1.3-1.3,3.3-1.3,4.5,0c0.9,0.9,0.9,1,0.9,5.2v3C125.3,139.5,126.7,141.8,126.7,144.3z"/>
</g>
</svg>
