<?xml version="1.0" encoding="utf-8"?>
<!-- Generator: Adobe Illustrator 23.0.5, SVG Export Plug-In . SVG Version: 6.00 Build 0)  -->
<svg version="1.1" id="Layer_1" xmlns:v="https://vecta.io/nano"
	 xmlns="http://www.w3.org/2000/svg" xmlns:xlink="http://www.w3.org/1999/xlink" x="0px" y="0px" viewBox="0 0 240 240"
	 style="enable-background:new 0 0 240 240;" xml:space="preserve">
<style type="text/css">
	.st0{fill:#B9BFC9;}
	.st1{fill:url(#SVGID_1_);}
	.st2{fill:url(#SVGID_2_);}
	.st3{fill:url(#SVGID_3_);}
	.st4{fill:#FFFFFF;}
</style>
<g>
	<path class="st0" d="M120,0L0,120l60,60c33,33,60,60,60,60s27.1-27,60-60l60-60L120,0z M151.4,151.3
		c-17.2,17.2-31.3,31.3-31.4,31.3s-14.2-14.1-31.4-31.3L57.3,120l31.3-31.4L120,57.3l31.3,31.3l31.3,31.4L151.4,151.3z"/>
	<g>
		
			<linearGradient id="SVGID_1_" gradientUnits="userSpaceOnUse" x1="119.9" y1="-147" x2="119.9" y2="-78.8264" gradientTransform="matrix(1 0 0 1 0 315)">
			<stop  offset="0" style="stop-color:#9CB84C"/>
			<stop  offset="1" style="stop-color:#2AB572"/>
		</linearGradient>
		<path class="st1" d="M98.2,214.4c-11.9-11.9-21.7-21.8-21.7-21.8c0-0.2,24.5-24.6,24.6-24.6s4.3,4.2,9.5,9.3l9.3,9.3l9.3-9.3
			c5.1-5.1,9.4-9.3,9.5-9.3c0.2,0,24.6,24.5,24.6,24.6s-43.3,43.5-43.4,43.5C120,236.1,110.2,226.4,98.2,214.4z"/>
		
			<linearGradient id="SVGID_2_" gradientUnits="userSpaceOnUse" x1="120.1" y1="-242.7" x2="120.1" y2="-311.1" gradientTransform="matrix(1 0 0 1 0 315)">
			<stop  offset="0" style="stop-color:#9CB84C"/>
			<stop  offset="1" style="stop-color:#2AB572"/>
		</linearGradient>
		<path class="st2" d="M88.9,59.9c-6.8-6.8-12.3-12.4-12.3-12.5s9.8-9.9,21.7-21.9L120,3.9l21.8,21.8l21.8,21.8l-12.4,12.4
			l-12.4,12.4l-9.4-9.4l-9.4-9.4l-9.4,9.4l-9.4,9.4L88.9,59.9L88.9,59.9z"/>
	</g>
	<path class="st0" d="M103.2,136.8L86.5,120l16.8-16.8L120,86.5l16.7,16.8l16.8,16.8l-16.7,16.7c-9.2,9.2-16.7,16.7-16.8,16.7
		S112.4,146,103.2,136.8z"/>
</g>
<linearGradient id="SVGID_3_" gradientUnits="userSpaceOnUse" x1="120" y1="68" x2="120" y2="-52" gradientTransform="matrix(1 0 0 1 0 112)">
	<stop  offset="0" style="stop-color:#EAB408"/>
	<stop  offset="0.9991" style="stop-color:#F7C94B"/>
</linearGradient>
<circle class="st3" cx="120" cy="120" r="60"/>
<g id="layer101">
	<path class="st4" d="M97.9,159c-1.2-0.2-2.7-0.8-3.8-1.6c-0.6-0.5-1.6-1.5-1.8-2c-0.1-0.2-0.2-0.6-0.4-0.9
		c-0.6-1.4-0.6-0.6-0.6-17.8c0-15.4,0-15.6,0.2-16.2c0.4-1.2,1-2.1,1.8-3c0.5-0.5,1.1-1,1.4-1.2c1.2-0.7,2.6-1.1,3.7-1.1h0.6v-8.3
		c0-8,0.1-8.4,0.2-9.4c1.5-7.9,7.4-13.9,15.7-15.8c1.8-0.4,2.7-0.5,5.1-0.5s3.3,0.1,5.5,0.6c3.7,1,7.4,3,10,5.8
		c2.4,2.5,4.2,5.8,4.9,9.1c0.4,1.8,0.4,2.7,0.4,10.7v7.8h0.6c1.2,0,3,0.6,4.2,1.4c1.5,1,2.7,2.9,3,4.6c0.1,0.5,0.1,5.4,0.1,16.3
		v15.7l-0.2,0.6c-0.5,1.2-1,2.1-1.8,2.9c-0.9,0.9-1.6,1.4-2.7,1.8c-1.4,0.6-0.3,0.6-23.9,0.6C108,159,98.1,159,97.9,159z M141.9,154
		c0.7-0.2,1-0.6,1.4-1.1l0.2-0.5V137v-15.4l-0.2-0.5c-0.2-0.6-0.9-1-1.4-1.2c-0.2-0.1-7.4-0.1-21.9-0.1H98.3l-0.6,0.2
		c-0.6,0.3-1,0.8-1.2,1.4c-0.1,0.2-0.2,4.3-0.2,15.6c0,14.6,0,15.3,0.2,15.7c0.1,0.2,0.4,0.6,0.6,0.8c0.9,0.7-1,0.7,22.8,0.7
		C141.3,154.2,141.4,154.2,141.9,154z M135.8,107.1c0-5.3,0-8.2-0.1-8.7c-0.3-2.1-1.1-4.2-2.3-6c-0.7-1-2.9-3.2-3.9-3.8
		c-3.3-2.2-7.3-3.1-11.1-2.7c-3.9,0.5-7.1,1.9-9.7,4.6c-2,2-3.3,4.2-4,7c-0.2,0.9-0.2,1.1-0.2,9.3v8.4H120h15.8V107.1L135.8,107.1z"
		/>
	<path class="st4" d="M125.4,139.4c0,3-2.4,5.4-5.4,5.4s-5.4-2.4-5.4-5.4c0-2,1.1-3.8,2.8-4.7v-2.3c0-3.4,0-3.6,0.7-4.2
		c1-1,2.6-1,3.6,0c0.7,0.7,0.7,0.8,0.7,4.2v2.4C124.2,135.6,125.4,137.4,125.4,139.4z"/>
</g>
</svg>
