<?xml version="1.0" encoding="utf-8"?>
<!-- Generator: Adobe Illustrator 23.0.5, SVG Export Plug-In . SVG Version: 6.00 Build 0)  -->
<svg version="1.1" id="Layer_1" xmlns:v="https://vecta.io/nano"
	 xmlns="http://www.w3.org/2000/svg" xmlns:xlink="http://www.w3.org/1999/xlink" x="0px" y="0px" viewBox="0 0 240 240"
	 style="enable-background:new 0 0 240 240;" xml:space="preserve">
<style type="text/css">
	.st0{fill:#B9BFC9;}
	.st1{fill:url(#SVGID_1_);}
	.st2{fill:url(#SVGID_2_);}
	.st3{fill:#FFD283;}
	.st4{fill:#F7AF41;}
	.st5{opacity:0.3;}
	.st6{fill:#6C184E;}
	.st7{fill:#FFCE00;}
	.st8{opacity:0.65;}
	.st9{fill:#FFFFFF;}
	.st10{fill:#EE1822;}
	.st11{fill:#BD1622;}
	.st12{fill:#F6C547;}
	.st13{fill:#48C75A;}
	.st14{fill:#661A47;}
	.st15{fill:#651B47;}
	.st16{fill:none;}
	.st17{fill:#EB984E;}
	.st18{fill:#6D184E;}
</style>
<g>
	<path class="st0" d="M120,0L0,120l60,60c33,33,60,60,60,60s27.1-27,60-60l60-60L120,0z M151.4,151.3
		c-17.2,17.2-31.3,31.3-31.4,31.3s-14.2-14.1-31.4-31.3L57.3,120l31.3-31.4L120,57.3l31.3,31.3l31.3,31.4L151.4,151.3z"/>
	<g>
		
			<linearGradient id="SVGID_1_" gradientUnits="userSpaceOnUse" x1="119.9" y1="-147" x2="119.9" y2="-78.8264" gradientTransform="matrix(1 0 0 1 0 315)">
			<stop  offset="0" style="stop-color:#9CB84C"/>
			<stop  offset="1" style="stop-color:#2AB572"/>
		</linearGradient>
		<path class="st1" d="M98.2,214.4c-11.9-11.9-21.7-21.8-21.7-21.8c0-0.2,24.5-24.6,24.6-24.6s4.3,4.2,9.5,9.3l9.3,9.3l9.3-9.3
			c5.1-5.1,9.4-9.3,9.5-9.3c0.2,0,24.6,24.5,24.6,24.6s-43.3,43.5-43.4,43.5C120,236.1,110.2,226.4,98.2,214.4z"/>
		
			<linearGradient id="SVGID_2_" gradientUnits="userSpaceOnUse" x1="120.1" y1="-242.7" x2="120.1" y2="-311.1" gradientTransform="matrix(1 0 0 1 0 315)">
			<stop  offset="0" style="stop-color:#9CB84C"/>
			<stop  offset="1" style="stop-color:#2AB572"/>
		</linearGradient>
		<path class="st2" d="M88.9,59.9c-6.8-6.8-12.3-12.4-12.3-12.5s9.8-9.9,21.7-21.9L120,3.9l21.8,21.8l21.8,21.8l-12.4,12.4
			l-12.4,12.4l-9.4-9.4l-9.4-9.4l-9.4,9.4l-9.4,9.4L88.9,59.9L88.9,59.9z"/>
	</g>
	<path class="st0" d="M103.2,136.8L86.5,120l16.8-16.8L120,86.5l16.7,16.8l16.8,16.8l-16.7,16.7c-9.2,9.2-16.7,16.7-16.8,16.7
		S112.4,146,103.2,136.8z"/>
</g>
<circle class="st3" cx="120" cy="120" r="60"/>
<g>
	<g>
		<g>
			<path class="st4" d="M84.1,145.1c0,0-1.4,4.9,9.9-2.1c11.4-7,40-12.3,53.7-10.6c13.7,1.8,4-30.6-6.1-35.7
				C131.4,91.7,100.1,113.9,84.1,145.1z"/>
		</g>
		<g class="st5">
			<path class="st6" d="M85,144.1c0,0-2.5,6,9-1c11.4-7,40-12.3,53.7-10.6c13.7,1.7,4-30.6-6.1-35.7C131.4,91.8,101,112.9,85,144.1z
				"/>
		</g>
		<g>
			<path class="st6" d="M86.1,147c-0.6,0-1.1-0.1-1.4-0.3c-1.1-0.9-0.5-2.6-0.5-2.6s0,0,0-0.1c7.4-14.3,16.9-24.9,23.4-31.1
				c8.6-8,17.4-13.9,24.6-16.1c4.1-1.4,7.4-1.4,9.7-0.2c3.7,1.9,7.5,7.2,10.1,14.3c2.6,7,3.5,13.9,2.2,17.9
				c-0.9,2.9-2.9,4.6-5.7,4.6c-0.3,0-0.8,0-1.1-0.1c-13.9-1.8-42.2,3.9-53.2,10.6C90.6,145.9,87.9,147,86.1,147z M85.1,144.2
				c-0.1,0.2-0.2,1.1,0.1,1.4c0.3,0.2,2,0.9,8.6-3.1c5.4-3.4,15-6.5,26.2-8.6c10.9-2.1,21.2-2.9,27.8-2c2.9,0.3,4.8-0.9,5.7-3.7
				c1.2-3.9,0.3-10.5-2.2-17.2c-2.6-6.8-6.2-12-9.7-13.8c-2-1-5.1-1-8.9,0.2c-7,2.2-15.8,8-24,15.9C101.9,119.5,92.5,130,85.1,144.2
				z"/>
		</g>
		<g>
			<g>
				<path class="st7" d="M142.2,102.9c-1.7-0.3,0.1-1-2-3.1c-2.1-2.1-4.3-0.3-4.3-0.3c0.3-0.8,0.5-1.4,0-2c-1.8-2.5-6.6-1-8.3-3
					c-1.8-2-5.9-0.1-5.9-0.1s-24.9,14.9-32,31.9c-7.1,17-6.6,22.3-3.5,21.1c3.1-1.1,5.4-3.9,7.7-1.8c2.2,2.1-0.6,6,2.1,8
					c1.4,1.1,5.1-0.9,3.4-3.8s-4-8.2-0.1-11.2c3.9-3,12.6-4.6,12.1-0.3c-1.2,10.1,9.4,5.8,6.1,1.4c-2.9-3.7-0.2-10,6.1-6.5
					c5.2,3,4.6-1.1,9.9-2.8c3.9-1.2,11.1-1.4,11.1-1.4c5-3,0.5-4.3,0.5-4.3s4.2-3.2,3.1-5.4c-1-2.2-0.5-5.8-0.5-9.4
					C147.9,106.3,143.9,103.2,142.2,102.9z"/>
			</g>
			<g class="st5">
				<path class="st6" d="M142.2,102.9c-1.7-0.3,0.1-1-2-3.1c-2.1-2.1-4.3-0.3-4.3-0.3c0.3-0.8,0.5-1.4,0-2c-1.8-2.5-6.6-1-8.3-3
					c-1.8-2-5.9-0.1-5.9-0.1s-0.6,0.3-1.7,1c7.8,2,23.9,8.6,20.9,31.9c0,0-31,2.2-39.7,7.5c-6.1,3.9-12.2,11-17.1,11.9
					c0.3,0.9,1,1.1,1.9,0.8c3.1-1.1,5.4-3.9,7.7-1.8c2.2,2.1-0.6,6,2.1,8c1.4,1.1,5.1-0.9,3.4-3.8c-1.8-2.9-4-8.2-0.1-11.2
					c3.9-3,12.6-4.6,12.1-0.3c-1.2,10.1,9.5,5.8,6.1,1.4c-2.9-3.7-0.2-10,6.1-6.5c5.2,3,4.6-1.1,9.9-2.8c3.9-1.2,11.1-1.4,11.1-1.4
					c5-3,0.5-4.3,0.5-4.3s4.2-3.2,3.1-5.5c-1-2.2-0.5-5.8-0.5-9.4C147.9,106.3,143.9,103.2,142.2,102.9z"/>
			</g>
			<g class="st8">
				<g>
					<path class="st9" d="M143.7,103.8c0.1,0,0.2,0.1,0.5,0.1c-0.5-0.3-0.9-0.6-1.2-0.8C142.9,103.4,143,103.7,143.7,103.8z"/>
				</g>
				<g>
					<path class="st9" d="M146.3,125.7L146.3,125.7L146.3,125.7L146.3,125.7z"/>
				</g>
				<g>
					<path class="st9" d="M137.2,100.2c0,0,1.4-1,3-0.5c-0.9-0.9-1.9-1-2.6-0.9C137.7,99.2,137.5,99.8,137.2,100.2z"/>
				</g>
				<g>
					<path class="st9" d="M135.7,97c-1.7-1.4-4.6-1.1-6.5-1.8C130.5,96.8,133.5,96.2,135.7,97z"/>
				</g>
				<g>
					<path class="st9" d="M121.8,94.2c0,0-11.1,6.6-20.6,16.1c-0.1,0.1-0.3,0.2-0.6,0.5c-0.1,0.1-0.2,0.2-0.2,0.3
						c-4.3,4.5-8.3,9.7-10.6,15c-6.6,16-6.6,21.7-4,21.2c-0.9-2,0.2-8.2,5.4-20.6c1.9-4.6,5.1-9.1,8.8-13.1c0.1,0.1,0.1,0.2,0.2,0.3
						c0.8,0.8,2.3,0.6,3.4-0.8c1-1.2,1.2-2.8,0.5-3.5c-0.1-0.1-0.1-0.1-0.2-0.1c9.2-8.8,18.6-15.4,18.6-15.4s3.2-0.6,5.1,0
						C125.9,92.3,121.8,94.2,121.8,94.2z"/>
				</g>
			</g>
			<g>
				<path class="st6" d="M97.1,154.3c-0.6,0-1-0.1-1.4-0.3c-1.7-1.1-1.7-3-1.4-4.6c0.1-1.4,0.1-2.6-0.8-3.4
					c-1.2-1.1-2.5-0.6-4.5,0.6c-0.8,0.5-1.7,0.9-2.6,1.2c-1.1,0.3-1.8,0.1-2.1-0.2c-2.3-2.3,1.4-13,5-21.4
					c3.8-8.9,12.2-17.2,18.8-22.6c7-5.8,13.4-9.5,13.4-9.7l0,0c0.1-0.1,4.6-2,6.5,0.2c0.6,0.8,2,1,3.5,1.1c1.8,0.1,3.8,0.3,4.9,1.9
					c0.2,0.3,0.3,0.9,0.3,1.4c1.1-0.3,2.6-0.3,4,1c1.2,1.2,1.2,2.1,1.4,2.6c0,0.1,0,0.1,0,0.2c0,0,0.1,0.1,0.3,0.1l0,0
					c1.9,0.3,5.9,3.8,5.9,7.7c0,0.8-0.1,1.7-0.1,2.3c-0.1,2.6-0.2,5.1,0.5,6.8c1,2-1.4,4.6-2.6,5.7c0.6,0.3,1.4,0.9,1.4,1.8
					c0.1,1.1-0.8,2.1-2.6,3.2c-0.1,0-0.1,0.1-0.2,0.1c-0.1,0-7.1,0-10.9,1.2c-1.9,0.6-2.9,1.4-3.9,2.3c-1.8,1.4-3,2.3-6.3,0.3
					c-2.3-1.2-4.3-1.2-5.4,0.1c-1.2,1.5-1.1,3.9,0.1,5.7c1,1.2,1,2.6,0.1,3.9c-1.1,1.4-3.1,2-4.8,1.4c-1.1-0.5-3-1.9-2.3-6.6
					c0.1-0.6-0.1-1.1-0.6-1.4c-2-1.1-7.7,0.1-10.6,2.2c-3.7,2.8-1,8.2,0.2,10.5c0.9,1.4,0.6,2.9-0.6,4
					C98.9,154.1,98,154.3,97.1,154.3z M92.1,144.2c0.8,0,1.4,0.2,2.1,0.9c1.2,1.1,1.1,2.9,1.1,4.2c-0.1,1.4-0.1,2.9,1,3.7
					c0.6,0.3,1.7,0.2,2.3-0.5c0.6-0.3,1-1.2,0.2-2.6c-1.4-2.5-4.3-8.6,0-11.9c3-2.2,9.1-3.9,11.8-2.3c0.9,0.5,1.4,1.4,1.1,2.5
					c-0.3,2.9,0.2,4.9,1.8,5.4c1.1,0.5,2.8,0,3.5-1c0.3-0.5,0.8-1.4-0.1-2.6c-1.7-2-1.7-5.1-0.1-6.9c1.5-1.8,4.1-1.9,6.9-0.3
					c3,1.7,3.8,1,5.2-0.2c1-0.9,2.1-1.9,4.2-2.5c3.7-1.2,10-1.4,11.1-1.4c1.8-1.1,2-1.8,2-2.1c-0.1-0.6-1.1-1.1-1.4-1.2
					c-0.1,0-0.3-0.2-0.3-0.3c0-0.2,0-0.3,0.2-0.6c1-0.8,3.8-3.4,3-4.9c-0.9-1.9-0.8-4.5-0.6-7.2c0-0.8,0.1-1.4,0.1-2.3
					c0.1-3.2-3.5-6.1-5-6.5c-1-0.2-1.1-0.6-1.1-1.2c0-0.3,0-1-1-1.9c-1.8-1.8-3.7-0.3-3.8-0.3c-0.2,0.1-0.5,0.1-0.6,0
					c-0.1-0.1-0.2-0.3-0.1-0.6c0.5-1,0.2-1.4,0.1-1.4c-0.9-1.1-2.3-1.4-4.1-1.4c-1.7-0.1-3.2-0.3-4.2-1.4c-1.2-1.4-4.1-0.5-5.2,0
					c-0.5,0.2-6.5,3.9-13.2,9.5c-6.3,5.2-14.9,13.4-18.6,22.1c-2.6,6.2-4.3,11.2-5.1,14.9c-0.9,4.1-0.3,5.2,0,5.4
					c0.1,0.1,0.3,0.3,1,0c0.9-0.3,1.7-0.8,2.3-1.2C89.8,145,90.9,144.2,92.1,144.2z"/>
			</g>
		</g>
		<g>
			<path class="st6" d="M125.4,128.9c3-0.6,6-1,9.1-1.4c1.5-0.2,3-0.3,4.6-0.6c1.4-0.1,3-0.2,4.6-0.2c0.2,0,0.5,0.2,0.5,0.6
				c0,0.2-0.2,0.5-0.5,0.5l0,0l0,0c-1.4,0-3,0-4.6,0c-1.5,0-3,0.1-4.6,0.2C131.7,128.1,128.6,128.5,125.4,128.9z"/>
		</g>
	</g>
	<g class="st5">
		<g>
			<path class="st6" d="M135.2,96.8L135.2,96.8L135.2,96.8L135.2,96.8z"/>
		</g>
		<g>
			<path class="st6" d="M147,107.2c-0.1,3.7-0.6,7.1,0.5,9.4c0,0.1,0.1,0.2,0.1,0.3c-0.2-2,0.1-4.5,0.1-7
				C147.8,109,147.5,108,147,107.2C147,107.1,147,107.2,147,107.2z"/>
		</g>
		<g>
			<path class="st6" d="M147.7,117.4c0,2.1-3.4,4.8-3.4,4.8s1.8,0.6,1.9,1.8c1.1-1.1,2.6-3,2-4.5
				C147.9,118.8,147.8,118.1,147.7,117.4z"/>
		</g>
	</g>
	<g>
		<g>
			
				<ellipse transform="matrix(0.8397 -0.543 0.543 0.8397 -36.8937 84.792)" class="st10" cx="125.2" cy="104.9" rx="7.7" ry="6.1"/>
		</g>
		<g class="st8">
			<path class="st9" d="M126.2,110.9c-3.8,1-7-0.9-7.4-4.2c-0.2-3.2,2.5-6.8,6.2-7.8c2.8-0.8,5.2,0.1,6.6,1.9
				c-1.2-2.1-4-3.1-7.1-2.3c-4,1-7,4.8-6.6,8.2c0.3,3.5,3.9,5.4,7.8,4.5c1-0.2,2-0.8,2.9-1.4C127.9,110.3,127.1,110.6,126.2,110.9z"
				/>
		</g>
		<g>
			<path class="st11" d="M125.8,100l0.9,9.2c2.3-1.1,4.1-3.5,3.9-5.8C130.2,101.1,128.2,99.8,125.8,100z"/>
		</g>
		<g>
			<path class="st11" d="M123.5,100.5c-2.3,1.1-4,3.5-3.8,5.8c0.2,2.2,2.2,3.7,4.6,3.5L123.5,100.5z"/>
		</g>
		<g>
			<path class="st11" d="M123.5,100.5c-2.3,1.1-4,3.5-3.8,5.8c0.2,2.2,2.2,3.7,4.6,3.5L123.5,100.5z"/>
		</g>
		<g>
			<path class="st10" d="M123.9,103.7c-0.8,0.3-1.4,1.1-1.2,1.9c0.1,0.8,0.8,1.2,1.4,1.1L123.9,103.7z"/>
		</g>
		<g>
			<path class="st10" d="M126,103.1c0.8,0,1.4,0.3,1.4,1.1c0.1,0.8-0.5,1.4-1.2,1.9L126,103.1z"/>
		</g>
		<g>
			<path class="st6" d="M123.7,111.9c-1.4,0-2.8-0.3-3.9-1.1c-1.4-0.9-2.1-2.3-2.2-4c-0.3-3.8,2.8-7.7,7-8.6
				c2.2-0.6,4.6-0.2,6.1,0.9c1.4,0.9,2.1,2.3,2.2,4c0.3,3.8-2.8,7.7-7,8.6C125.1,111.9,124.3,111.9,123.7,111.9z M126.6,98.8
				c-0.6,0-1.2,0.1-2,0.2c-3.8,1-6.6,4.6-6.2,7.8c0.1,1.4,0.8,2.6,1.9,3.4c1.4,1,3.4,1.2,5.4,0.8c3.8-1,6.6-4.5,6.2-7.8
				c-0.1-1.4-0.8-2.6-1.9-3.4C129,99,127.9,98.8,126.6,98.8z"/>
		</g>
		<g>
			<g>
				<path class="st12" d="M122.8,107.8c0,0.1,0.1,0.2,0.1,0.3c0,0.1,0,0.2,0,0.3c0,0.1-0.1,0.2-0.3,0.2c-0.1,0-0.2-0.1-0.2-0.3
					c0,0,0,0,0-0.1c0-0.1,0.1-0.2,0.2-0.3C122.5,108,122.6,107.9,122.8,107.8z"/>
			</g>
			<g>
				<path class="st12" d="M121.8,106.9c0,0.1,0,0.2-0.1,0.3c0,0.1-0.1,0.2-0.1,0.3c-0.1,0.1-0.2,0.1-0.5,0.1
					c-0.1-0.1-0.1-0.2-0.1-0.5c0,0,0,0,0-0.1c0.1-0.1,0.2-0.1,0.3-0.1C121.4,106.9,121.4,106.9,121.8,106.9z"/>
			</g>
			<g>
				<path class="st12" d="M121.4,105.4c-0.1,0.1-0.1,0.2-0.2,0.2c-0.1,0.1-0.1,0.1-0.2,0.2c-0.1,0.1-0.3,0-0.3-0.1
					c-0.1-0.1,0-0.3,0.1-0.3h0.1c0.1,0,0.2,0,0.3,0C121.1,105.2,121.2,105.2,121.4,105.4z"/>
			</g>
			<g>
				<path class="st12" d="M122,103.8c-0.1,0-0.2,0-0.3,0.1c-0.1,0-0.2,0-0.3,0c-0.1,0-0.2-0.2-0.2-0.3c0-0.1,0.2-0.2,0.3-0.2h0.1
					c0.1,0,0.1,0.1,0.2,0.2S121.9,103.8,122,103.8z"/>
			</g>
			<g>
				<path class="st12" d="M123.2,102.8c-0.1,0-0.2-0.1-0.3-0.1c-0.1-0.1-0.2-0.1-0.2-0.2c-0.1-0.1-0.1-0.3,0.1-0.5
					c0.1-0.1,0.3-0.1,0.5,0.1c0,0,0,0,0,0.1c0,0.1,0,0.2,0,0.3C123.2,102.5,123.2,102.6,123.2,102.8z"/>
			</g>
		</g>
		<g>
			<g>
				<path class="st12" d="M127.9,106.3c0.1,0.1,0.2,0.1,0.3,0.2c0.1,0.1,0.1,0.1,0.2,0.2c0.1,0.1,0,0.3-0.1,0.5
					c-0.1,0.1-0.3,0-0.5-0.1c0,0,0,0,0-0.1c0-0.1,0-0.2,0-0.3C127.9,106.6,127.9,106.5,127.9,106.3z"/>
			</g>
			<g>
				<path class="st12" d="M128.8,105c0.1,0,0.2,0,0.3,0c0.1,0,0.2,0,0.3,0c0.1,0,0.2,0.2,0.2,0.3s-0.2,0.2-0.3,0.2h-0.1
					c-0.1-0.1-0.1-0.1-0.2-0.2C128.9,105.2,128.8,105.1,128.8,105z"/>
			</g>
			<g>
				<path class="st12" d="M128.8,103.4c0.1-0.1,0.1-0.1,0.2-0.2c0.1-0.1,0.1-0.1,0.2-0.1c0.1-0.1,0.3,0,0.3,0.1s0,0.3-0.1,0.3h-0.1
					c-0.1,0-0.2,0-0.3,0C129,103.4,128.9,103.4,128.8,103.4z"/>
			</g>
			<g>
				<path class="st12" d="M127.9,102.2c0-0.1,0.1-0.2,0.1-0.3c0-0.1,0.1-0.2,0.1-0.3c0.1-0.1,0.2-0.1,0.5-0.1
					c0.1,0.1,0.1,0.2,0.1,0.6c0,0,0,0-0.1,0.1c-0.1,0.1-0.2,0.1-0.3,0.1C128.1,102.1,128,102.1,127.9,102.2z"/>
			</g>
			<g>
				<path class="st12" d="M126.5,101.9c0-0.1-0.1-0.2-0.1-0.3c0-0.1,0-0.2,0-0.3s0.1-0.2,0.3-0.2c0.2,0,0.2,0.1,0.2,0.3
					c0,0,0,0,0,0.1c0,0.1-0.1,0.2-0.2,0.3C126.8,101.5,126.6,101.8,126.5,101.9z"/>
			</g>
		</g>
		<g>
			<path class="st11" d="M126.6,109.5c-0.1,0-0.1,0-0.2-0.1s-0.2-0.2-0.2-0.3l-0.9-9.2c0-0.1,0-0.2,0.1-0.3c0.1-0.1,0.1-0.1,0.2-0.1
				c2.8-0.2,5,1.4,5.2,3.9c0.2,2.3-1.4,5-4.1,6.2C126.8,109.5,126.6,109.5,126.6,109.5z M126.2,100.3l0.8,8.1c2-1.1,3.2-3.1,3.1-5
				C129.9,101.5,128.2,100.3,126.2,100.3L126.2,100.3z"/>
		</g>
		<g>
			<path class="st11" d="M124,110.2c-2.5,0-4.6-1.7-4.8-3.9c-0.2-2.3,1.4-5,4-6.1c0.1,0,0.2,0,0.3,0c0.1,0.1,0.2,0.2,0.2,0.3
				l0.9,9.2c0,0.1,0,0.2-0.1,0.3c-0.1,0.1-0.1,0.1-0.2,0.1C124.2,110.2,124.1,110.2,124,110.2z M123.1,101.2c-1.9,1.1-3.1,3.1-3,5
				c0.1,1.9,1.7,3.1,3.8,3.1L123.1,101.2z"/>
		</g>
	</g>
	<g>
		<g>
			
				<ellipse transform="matrix(0.8397 -0.543 0.543 0.8397 -48.4009 78.7072)" class="st10" cx="109.1" cy="121.3" rx="7.1" ry="5.8"/>
		</g>
		<g class="st8">
			<path class="st9" d="M110.2,127c-3.5,0.9-6.6-0.9-6.9-4s2.3-6.3,5.9-7.2c2.6-0.6,4.9,0.1,6.1,1.8c-1.1-2-3.8-2.9-6.6-2.1
				c-3.8,1-6.5,4.3-6.2,7.7c0.2,3.2,3.7,5.1,7.2,4.1c1-0.2,1.9-0.6,2.8-1.2C111.8,126.5,111,126.9,110.2,127z"/>
		</g>
		<g>
			<path class="st11" d="M109.8,116.8l0.8,8.6c2.2-1,3.9-3.2,3.7-5.4S112.1,116.6,109.8,116.8z"/>
		</g>
		<g>
			<path class="st11" d="M107.7,117.4c-2.2,1-3.8,3.2-3.5,5.4s2,3.5,4.3,3.2L107.7,117.4z"/>
		</g>
		<g>
			<path class="st11" d="M107.7,117.4c-2.2,1-3.8,3.2-3.5,5.4s2,3.5,4.3,3.2L107.7,117.4z"/>
		</g>
		<g>
			<path class="st10" d="M108,120.2c-0.8,0.3-1.2,1-1.1,1.8c0.1,0.8,0.6,1.1,1.4,1.1L108,120.2z"/>
		</g>
		<g>
			<path class="st10" d="M110,119.8c0.8,0,1.4,0.3,1.4,1.1c0.1,0.8-0.5,1.4-1.1,1.8L110,119.8z"/>
		</g>
		<g>
			<path class="st6" d="M107.8,128c-1.4,0-2.6-0.3-3.7-1.1c-1.2-0.9-2-2.2-2.1-3.8c-0.3-3.5,2.6-7.1,6.5-8.1
				c2.1-0.6,4.2-0.2,5.8,0.9c1.2,0.9,2,2.2,2.1,3.8l0,0c0.3,3.5-2.6,7.1-6.5,8.1C109.1,127.9,108.3,128,107.8,128z M110.6,115.7
				c-0.6,0-1.2,0.1-1.9,0.2c-3.5,0.9-6.1,4.1-5.9,7.2c0.1,1.2,0.8,2.3,1.8,3.1c1.2,0.9,3.1,1.1,5,0.6c3.5-0.9,6.1-4.1,5.9-7.2l0,0
				c-0.1-1.2-0.8-2.3-1.8-3.1C112.8,116,111.8,115.7,110.6,115.7z"/>
		</g>
		<g>
			<g>
				<path class="st12" d="M107.5,124.2c0.1,0.1,0.1,0.2,0.1,0.2c0,0.1,0.1,0.2,0.1,0.3c0,0.1-0.1,0.2-0.2,0.2s-0.2-0.1-0.2-0.2
					c0,0,0,0,0-0.1C107.4,124.6,107.4,124.5,107.5,124.2C107.5,124.3,107.5,124.3,107.5,124.2z"/>
			</g>
			<g>
				<path class="st12" d="M106.3,123.8c0,0.1,0,0.2,0,0.3c0,0.1,0,0.2-0.1,0.3c0,0.1-0.2,0.2-0.3,0.1c-0.1-0.1-0.2-0.2-0.1-0.3l0,0
					c0.1-0.1,0.1-0.1,0.2-0.2C106.1,123.9,106.2,123.8,106.3,123.8z"/>
			</g>
			<g>
				<path class="st12" d="M105.8,122.5c0,0.1-0.1,0.2-0.1,0.3c-0.1,0.1-0.1,0.2-0.2,0.2c-0.1,0.1-0.2,0.1-0.3,0
					c-0.1-0.1-0.1-0.2,0-0.3l0,0c0.1,0,0.2-0.1,0.3-0.1C105.5,122.6,105.7,122.5,105.8,122.5z"/>
			</g>
			<g>
				<path class="st12" d="M105.9,121.1c-0.1,0.1-0.2,0.1-0.2,0.1c-0.1,0-0.2,0.1-0.2,0.1c-0.1,0-0.2-0.1-0.2-0.2
					c0-0.1,0.1-0.2,0.2-0.2c0,0,0,0,0.1,0C105.7,120.9,105.8,120.9,105.9,121.1C105.7,121,105.8,121,105.9,121.1z"/>
			</g>
			<g>
				<path class="st12" d="M106.8,119.9c-0.1,0-0.2,0-0.3-0.1c-0.1,0-0.2-0.1-0.2-0.1c-0.1-0.1-0.1-0.2-0.1-0.3
					c0.1-0.1,0.2-0.1,0.3-0.1l0,0c0.1,0.1,0.1,0.1,0.1,0.2C106.6,119.5,106.8,119.8,106.8,119.9z"/>
			</g>
		</g>
		<g>
			<g>
				<path class="st12" d="M111.8,122.8c0.1,0.1,0.1,0.1,0.2,0.2c0.1,0.1,0.1,0.1,0.2,0.2c0.1,0.1,0,0.2-0.1,0.3s-0.2,0-0.3-0.1
					c0,0,0,0,0-0.1c0-0.1,0-0.2,0-0.3C111.8,123,111.8,122.9,111.8,122.8z"/>
			</g>
			<g>
				<path class="st12" d="M112.5,121.4c0.1,0,0.2,0,0.3,0c0.1,0,0.2,0,0.2,0c0.1,0,0.2,0.2,0.1,0.3c0,0.1-0.2,0.2-0.3,0.1
					c0,0,0,0-0.1,0s-0.1-0.1-0.2-0.2C112.6,121.5,112.6,121.5,112.5,121.4z"/>
			</g>
			<g>
				<path class="st12" d="M112.5,120c0.1-0.1,0.1-0.1,0.2-0.2c0.1-0.1,0.1-0.1,0.2-0.1s0.2,0,0.3,0.1c0,0.1,0,0.2-0.1,0.3
					c0,0,0,0-0.1,0c-0.1,0-0.2,0-0.3,0C112.8,120.1,112.6,120,112.5,120z"/>
			</g>
			<g>
				<path class="st12" d="M111.8,118.9c0-0.1,0.1-0.2,0.1-0.3s0.1-0.2,0.1-0.2c0.1-0.1,0.2-0.1,0.3,0c0.1,0.1,0.1,0.2,0,0.3l0,0
					c-0.1,0.1-0.1,0.1-0.2,0.1C112,118.9,111.9,118.9,111.8,118.9z"/>
			</g>
			<g>
				<path class="st12" d="M110.6,118.5c0-0.1,0-0.2-0.1-0.3c0-0.1,0-0.2,0-0.3s0.1-0.2,0.2-0.2c0.1,0,0.2,0.1,0.2,0.2l0,0
					c0,0.1-0.1,0.2-0.1,0.2C110.6,118.3,110.6,118.5,110.6,118.5z"/>
			</g>
		</g>
		<g>
			<path class="st11" d="M110.6,125.9c-0.1,0-0.1,0-0.2-0.1c-0.2-0.1-0.2-0.2-0.2-0.3l-0.8-8.6c0-0.1,0-0.2,0.1-0.3
				c0.1-0.1,0.2-0.1,0.3-0.1c2.6-0.2,4.8,1.4,5,3.8c0.2,2.2-1.4,4.8-3.9,5.9C110.6,125.9,110.6,125.9,110.6,125.9z M110.2,117.2
				l0.8,7.5c1.8-1,3-2.9,2.8-4.6C113.5,118.3,112.1,117.2,110.2,117.2z"/>
		</g>
		<g>
			<path class="st11" d="M108.1,126.5c-2.3,0-4.2-1.4-4.5-3.8c-0.2-2.2,1.4-4.6,3.9-5.8c0.1-0.1,0.2,0,0.3,0
				c0.1,0.1,0.2,0.2,0.2,0.3l0.8,8.6c0,0.1,0,0.2-0.1,0.3c-0.1,0.1-0.2,0.1-0.3,0.1C108.3,126.5,108.2,126.5,108.1,126.5z
				 M107.2,118.1c-1.8,1-2.9,2.9-2.8,4.6c0.1,1.8,1.4,2.9,3.4,2.9L107.2,118.1z"/>
		</g>
	</g>
	<g>
		<g>
			<g>
				<path class="st13" d="M99.8,120.5c-4.9,0.2-5,2.6-3.4,6.5C99.2,125.8,101.1,123.4,99.8,120.5z"/>
			</g>
			<g>
				<path class="st14" d="M96.1,127.8C96,127.8,96,127.8,96.1,127.8c-0.2,0-0.3-0.1-0.3-0.2c-0.8-2.1-1.2-4.3-0.2-5.9
					c0.8-1,2.1-1.4,4.2-1.7c0.1,0,0.3,0.1,0.3,0.2c0.6,1.2,0.8,2.3,0.3,3.7c-0.6,1.4-2,3-4.1,3.9C96.2,127.8,96.2,127.8,96.1,127.8z
					 M99.4,120.9c-1.7,0.1-2.6,0.6-3.1,1.2c-0.8,1-0.3,2.9,0.2,4.6c1.7-0.9,2.8-2,3.1-3.1C99.9,122.8,99.8,121.9,99.4,120.9z"/>
			</g>
			<g>
				<path class="st15" d="M99.9,120.9c-0.3,0.1-0.6,0.3-0.9,0.6c-0.2,0.2-0.6,0.6-0.9,0.9c-0.6,0.6-0.9,1.4-1.2,2.1
					c0-0.6,0.1-0.9,0.1-1.2c0.1-0.3,0.2-0.9,0.6-1.2c0.2-0.3,0.6-0.8,0.8-1.1c0.3-0.3,0.8-0.6,1.2-0.8c0.2-0.1,0.6,0.1,0.6,0.3
					C100.1,120.6,100,120.8,99.9,120.9L99.9,120.9z"/>
			</g>
		</g>
		<g>
			<g>
				<path class="st13" d="M108.6,107.1c4.2-2.2,5.7-0.1,6.2,3.9C111.7,111.4,108.9,110.6,108.6,107.1z"/>
			</g>
			<g>
				<path class="st14" d="M114,111.9c-1.9,0-3.4-0.6-4.3-1.4c-0.9-0.8-1.4-1.9-1.4-3.2c0-0.1,0.1-0.3,0.2-0.3c1.9-1,3.2-1.2,4.5-0.8
					c1.7,0.8,2.2,3,2.8,5.2c0,0.1,0,0.2-0.1,0.3c-0.1,0.1-0.2,0.1-0.3,0.1C114.8,111.9,114.3,111.9,114,111.9z M109,107.4
					c0.1,1,0.5,1.8,1.1,2.3c1,0.8,2.5,1.2,4.2,1.1c-0.3-1.8-1-3.5-2.1-4C111.4,106.5,110.6,106.6,109,107.4z"/>
			</g>
			<g>
				<path class="st15" d="M108.3,106.8c0.5-0.1,1-0.1,1.4,0c0.4,0.1,0.9,0.3,1.2,0.6c0.3,0.1,0.8,0.5,1,0.9c0.2,0.3,0.6,0.6,0.8,1
					c-0.8-0.6-1.4-0.9-2.1-1.2c-0.3-0.1-0.8-0.2-1.1-0.2s-0.8-0.1-1.1,0l0,0c-0.2,0-0.5-0.1-0.5-0.3
					C108.1,107,108.2,106.8,108.3,106.8z"/>
			</g>
		</g>
		<g>
			<g>
				<path class="st13" d="M127.7,122.5c-3.4-3.1-5-1.4-6.5,2C123.9,125.7,126.6,125.4,127.7,122.5z"/>
			</g>
			<g>
				<path class="st14" d="M123.7,125.7c-0.9,0-2-0.2-3-0.6c-0.1,0-0.2-0.1-0.2-0.2s0-0.2,0-0.3c1-1.9,2-3.8,3.8-4
					c1.1-0.2,2.3,0.3,3.9,1.8c0.1,0.1,0.1,0.2,0.1,0.6c-0.3,1.2-1.1,2.1-2.1,2.6C125.2,125.4,124.6,125.7,123.7,125.7z M121.4,124.3
					c1.7,0.5,3.1,0.5,4.1,0c0.8-0.3,1.2-1,1.7-1.9c-1.1-1-2-1.4-2.9-1.4C123.1,121.4,122.1,122.9,121.4,124.3z"/>
			</g>
			<g>
				<path class="st15" d="M127.5,122.9c-0.2-0.1-0.6-0.2-1-0.2c-0.3,0-0.8,0-1.1,0c-0.8,0.1-1.4,0.2-2.2,0.6c0.2-0.2,0.6-0.6,1-0.8
					c0.3-0.2,0.8-0.3,1.1-0.5c0.3-0.1,0.9-0.2,1.2-0.2c0.5,0,0.9,0.1,1.4,0.3c0.2,0.1,0.2,0.3,0.1,0.6
					C127.9,122.9,127.8,122.9,127.5,122.9L127.5,122.9z"/>
			</g>
		</g>
		<g>
			<g>
				<path class="st13" d="M89.7,130.2c0.2,0,0.5,0,0.8,0.1c0.2,0,0.6,0.1,0.8,0.1s0.5,0.1,0.8,0.1c0.2,0.1,0.6,0.1,0.9,0.3l0,0
					c0.2,0.1,0.3,0.6,0.2,0.9c-0.1,0.2-0.6,0.3-0.9,0.2c0,0-0.1,0-0.1-0.1c-0.1-0.1-0.2-0.2-0.5-0.2c-0.2-0.1-0.3-0.1-0.6-0.2
					c-0.2-0.1-0.6-0.1-0.6-0.2c-0.1-0.2-0.6-0.1-0.8-0.1l0,0c-0.2,0-0.3-0.2-0.3-0.5C89.2,130.3,89.4,130.2,89.7,130.2z"/>
			</g>
			<g class="st5">
				<path class="st6" d="M89.7,130.2c0.2,0,0.5,0,0.8,0.1c0.2,0,0.6,0.1,0.8,0.1s0.5,0.1,0.8,0.1c0.2,0.1,0.6,0.1,0.9,0.3l0,0
					c0.2,0.1,0.3,0.6,0.2,0.9c-0.1,0.2-0.6,0.3-0.9,0.2c0,0-0.1,0-0.1-0.1c-0.1-0.1-0.2-0.2-0.5-0.2c-0.2-0.1-0.3-0.1-0.6-0.2
					c-0.2-0.1-0.6-0.1-0.6-0.2c-0.1-0.2-0.6-0.1-0.8-0.1l0,0c-0.2,0-0.3-0.2-0.3-0.5C89.2,130.3,89.4,130.2,89.7,130.2z"/>
			</g>
			<g>
				<path class="st14" d="M92.5,132.6c-0.1,0-0.3,0-0.6-0.1l-0.1-0.1c0,0-0.1-0.1-0.3-0.2c-0.1-0.1-0.3-0.1-0.6-0.2
					c-0.2-0.1-0.3-0.1-0.6-0.2c-0.2-0.1-0.6-0.1-0.6-0.1c-0.2,0-0.3-0.1-0.6-0.3c-0.1-0.1-0.1-0.3-0.1-0.6c0.1-0.3,0.3-0.6,0.8-0.6
					l0,0c0.2,0,0.6,0,0.8,0.1c0.2,0,0.5,0.1,0.8,0.1c0.3,0,0.6,0.1,0.9,0.1c0.3,0.1,0.6,0.1,0.9,0.3l0,0c0.6,0.2,0.6,0.9,0.3,1.4
					C93.1,132.3,92.8,132.6,92.5,132.6z M89.7,130.6C89.7,130.6,89.4,130.6,89.7,130.6C89.4,130.8,89.4,130.8,89.7,130.6
					C89.4,130.8,89.4,130.8,89.7,130.6c0.2,0.1,0.5,0.2,0.8,0.2c0.2,0.1,0.6,0.1,0.8,0.2c0.2,0.1,0.5,0.1,0.6,0.2
					c0.2,0.1,0.5,0.2,0.6,0.3l0,0c0.1,0.1,0.2,0,0.3-0.1c0.1-0.1,0-0.2-0.1-0.3l0,0c-0.2-0.1-0.5-0.2-0.8-0.2
					c-0.2-0.1-0.6-0.1-0.8-0.1c-0.2,0-0.6-0.1-0.8-0.1C90.1,130.8,89.9,130.6,89.7,130.6L89.7,130.6z"/>
			</g>
			<g>
				<g>
					<path class="st13" d="M90.2,130.8c-1.4-5.4-7.8-1-7.8-1S87.4,135.5,90.2,130.8z"/>
				</g>
				<g class="st8">
					<path class="st9" d="M90.1,130.9L90.1,130.9c-1.4-5.4-7.7-1-7.7-1s0.1,0.2,0.6,0.5C84.1,129.4,88.6,127,90.1,130.9z"/>
				</g>
				<g>
					<path class="st14" d="M87.2,133.1c-2.8,0-5.4-2.9-5.4-3c-0.1-0.1-0.1-0.1-0.1-0.2c0-0.1,0.1-0.2,0.1-0.2
						c0.1-0.1,3.9-2.6,6.5-1.4c1.1,0.3,1.9,1.4,2.2,2.8c0,0.1,0,0.2,0,0.2c-0.8,1.2-1.8,2-2.9,2.1C87.5,133.1,87.4,133.1,87.2,133.1
						z M82.6,129.9c0.8,0.8,3,2.6,5,2.5c0.9-0.1,1.7-0.6,2.2-1.7c-0.3-1.1-0.9-1.8-1.8-2.1C86.2,128,83.7,129.2,82.6,129.9z"/>
				</g>
				<g>
					<g>
						<line class="st16" x1="90.2" y1="130.8" x2="86" y2="130.2"/>
					</g>
					<g>
						<path class="st15" d="M90.1,131.1c-0.3,0-0.8-0.1-1-0.1s-0.8-0.1-1-0.2c-0.8-0.1-1.4-0.3-2-0.6c0.8,0,1.4,0,2.1,0
							c0.3,0,0.8,0,1,0c0.3,0,0.8,0.1,1,0.1s0.3,0.2,0.2,0.5C90.6,131,90.3,131.1,90.1,131.1z"/>
					</g>
				</g>
			</g>
			<g>
				<path class="st14" d="M87.1,133.1c0.5-0.3,1-0.9,1.4-1.2c0.3-0.3,1-0.8,1.4-1.2c0.1-0.1,0.3-0.1,0.6,0.1
					c0.1,0.1,0.1,0.3-0.1,0.5l0,0l0,0c-0.5,0.2-1.1,0.6-1.7,0.9C88.2,132.3,87.7,132.8,87.1,133.1z"/>
			</g>
			<g>
				<g>
					<path class="st13" d="M90.2,130.9c0,0-3.1,0.2-3.9,5.7C86.3,136.5,92.8,134.5,90.2,130.9z"/>
				</g>
				<g class="st8">
					<path class="st9" d="M87.2,136c0.6-4.6,3.1-4.8,3.2-4.8c-0.1-0.1-0.1-0.2-0.2-0.3c0,0-3.1,0.2-3.9,5.7c0,0,1.4-0.5,2.6-1.2
						C88.1,135.8,87.2,136,87.2,136z"/>
				</g>
				<g>
					<path class="st14" d="M86.3,136.9c-0.1,0-0.1,0-0.2-0.1c-0.1-0.1-0.1-0.2-0.1-0.3c0.8-5.8,4.1-6,4.2-6c0.1,0,0.2,0,0.3,0.1
						c0.6,0.9,0.9,1.9,0.6,2.8C90.2,135.5,86.6,136.9,86.3,136.9L86.3,136.9z M90,131.2c-0.6,0.1-2.6,0.9-3.2,4.8
						c1-0.3,3.1-1.4,3.7-2.9C90.6,132.5,90.6,131.9,90,131.2z"/>
				</g>
				<g>
					<path class="st14" d="M88.3,133.2c0.2-0.5,0.5-0.9,0.8-1.4c0.2-0.5,0.6-0.9,0.8-1.2c0.1-0.1,0.3-0.2,0.5-0.1
						c0.1,0.1,0.2,0.3,0.1,0.5c0,0,0,0-0.1,0.1c-0.3,0.3-0.8,0.6-1,1C89.1,132.5,88.8,132.9,88.3,133.2z"/>
				</g>
			</g>
			<g>
				<g>
					<path class="st13" d="M90.1,130.9c0,0-3-1.1-2-6.6C88.2,124.2,93.8,128.2,90.1,130.9z"/>
				</g>
				<g class="st8">
					<path class="st9" d="M89.1,125c-0.5-0.6-0.9-0.8-0.9-0.8c-1,5.5,2,6.6,2,6.6l0.1-0.1C89.8,130.2,88.2,128.8,89.1,125z"/>
				</g>
				<g>
					<path class="st14" d="M90.1,131.2L90.1,131.2c-0.2,0-3.4-1.4-2.2-7c0-0.1,0.1-0.2,0.2-0.2c0.1,0,0.2,0,0.3,0
						c0.1,0.1,3.2,2.3,3.2,4.8c0,0.9-0.6,1.8-1.4,2.3C90.3,131.2,90.2,131.2,90.1,131.2z M88.6,124.9c-0.5,3.9,1.1,5.1,1.7,5.4
						c0.6-0.5,0.9-1,0.9-1.7C91,127.2,89.4,125.7,88.6,124.9z"/>
				</g>
				<g>
					<path class="st14" d="M89.2,128c0.2,0.6,0.3,0.9,0.6,1.4c0.2,0.6,0.5,0.9,0.6,1.4c0.1,0.1,0,0.3-0.1,0.5
						c-0.1,0.1-0.3,0-0.5-0.1c0,0,0,0,0-0.1c-0.1-0.5-0.2-1-0.3-1.4C89.4,129,89.2,128.5,89.2,128z"/>
				</g>
			</g>
		</g>
	</g>
	<g>
		<path class="st6" d="M84.6,145.8L84.6,145.8C84.7,145.8,84.7,145.8,84.6,145.8c0.2,0.1,0.3,0.1,0.4,0.1c0.2,0,0.6-0.1,0.9-0.2
			c0.6-0.2,1.2-0.6,1.8-1c1.1-0.8,2.3-1.4,3.5-2.3c1.1-0.9,2.2-1.8,3.2-2.6c0.2-0.2,0.6-0.5,0.8-0.8c0.2-0.2,0.5-0.5,0.8-0.8
			c0.1-0.1,0.2-0.2,0.3-0.3l0.3-0.3l0.2-0.1l0.2-0.1l0.3-0.3c2.3-1.7,4.9-2.9,7.7-3.9c1.4-0.5,2.8-0.9,4.1-1.2s2.8-0.6,4.1-0.9
			c-2.8,0.5-5.4,1.4-8.1,2.3c-1.4,0.5-2.6,1.1-3.9,1.8c-1.2,0.6-2.5,1.4-3.7,2.2l-0.3,0.3v0.1l-0.2,0.1l-0.3,0.3
			c-0.1,0.1-0.2,0.2-0.3,0.3c-0.2,0.2-0.6,0.5-0.8,0.8c-0.2,0.2-0.5,0.5-0.8,0.8c-1,1-2.1,1.9-3.2,2.8s-2.2,1.8-3.5,2.5
			c-0.6,0.3-1.2,0.8-1.9,1.1c-0.3,0.1-0.8,0.2-1.1,0.3c-0.2,0-0.6,0-0.8,0c-0.1,0-0.2-0.1-0.3-0.1c-0.1-0.1-0.2-0.2-0.3-0.3
			c-0.1-0.2,0-0.5,0.1-0.6C84.1,145.4,84.5,145.4,84.6,145.8L84.6,145.8z"/>
	</g>
	<g>
		<g class="st5">
			<ellipse transform="matrix(0.968 -0.2508 0.2508 0.968 -26.6884 38.5741)" class="st6" cx="138" cy="124" rx="0.8" ry="0.5"/>
		</g>
		<g class="st5">
			<ellipse transform="matrix(0.968 -0.2508 0.2508 0.968 -26.2959 37.6679)" class="st6" cx="134.6" cy="122" rx="1.2" ry="0.9"/>
		</g>
		<g class="st5">
			
				<ellipse transform="matrix(0.9355 -0.3532 0.3532 0.9355 -33.1034 52.3761)" class="st6" cx="127" cy="116.9" rx="0.9" ry="0.8"/>
		</g>
		<g class="st5">
			
				<ellipse transform="matrix(0.9355 -0.3532 0.3532 0.9355 -29.3974 54.9134)" class="st6" cx="135.8" cy="108" rx="0.6" ry="0.5"/>
		</g>
		<g class="st5">
			
				<ellipse transform="matrix(0.9355 -0.3532 0.3532 0.9355 -31.6396 55.7616)" class="st6" cx="137" cy="114.6" rx="0.8" ry="0.6"/>
		</g>
		<g class="st5">
			<path class="st6" d="M130,112.5c0.1,0.2-0.1,0.5-0.3,0.6c-0.2,0.1-0.6,0-0.8-0.2c-0.1-0.2,0.1-0.6,0.3-0.6
				C129.7,112.1,129.9,112.2,130,112.5z"/>
		</g>
		<g class="st5">
			
				<ellipse transform="matrix(0.8111 -0.5849 0.5849 0.8111 -48.2499 92.5048)" class="st6" cx="119.1" cy="121" rx="0.6" ry="0.5"/>
		</g>
		<g class="st5">
			
				<ellipse transform="matrix(0.8111 -0.5849 0.5849 0.8111 -44.1838 92.2948)" class="st6" cx="120.8" cy="114.6" rx="0.6" ry="0.5"/>
		</g>
		<g class="st5">
			
				<ellipse transform="matrix(0.8111 -0.5849 0.5849 0.8111 -57.8924 83.5861)" class="st6" cx="100.5" cy="131.4" rx="0.9" ry="0.8"/>
		</g>
		<g class="st5">
			
				<ellipse transform="matrix(0.8111 -0.5849 0.5849 0.8111 -54.9834 83.0061)" class="st6" cx="101" cy="126.6" rx="0.8" ry="0.6"/>
		</g>
		<g class="st5">
			
				<ellipse transform="matrix(0.8111 -0.5849 0.5849 0.8111 -61.7007 80.4869)" class="st6" cx="93.8" cy="135.8" rx="0.5" ry="0.3"/>
		</g>
		<g class="st5">
			
				<ellipse transform="matrix(0.8111 -0.5849 0.5849 0.8111 -50.0938 81.3968)" class="st6" cx="101" cy="118.3" rx="0.8" ry="0.6"/>
		</g>
		<g class="st5">
			<ellipse transform="matrix(0.8111 -0.5849 0.5849 0.8111 -46.0522 84.327)" class="st6" cx="107.5" cy="113.5" rx="1" ry="0.8"/>
		</g>
	</g>
	<g>
		<g>
			<g>
				<g>
					<path class="st17" d="M144.3,125.4c-0.9,5.2,11.1,6.1,11.1,6.1s7.7-17.9-4.6-33.1c-12.2-15.2-29.1-13-30.9-9.4
						c-1.9,3.7,1.8,5.2,1.8,5.2S149.4,96.8,144.3,125.4z"/>
				</g>
				<g class="st8">
					<path class="st9" d="M150.9,98.3c-12.3-15.2-29.1-13-30.9-9.4c-1.7,3.2,1.1,4.9,1.7,5.1c-0.8-0.8-1.4-2.1-0.3-3.9
						c0.3-0.8,1.7-1.4,3.2-2c-0.3,0.2-0.6,0.6-0.5,0.8c0.1,0.6,1.2,0.8,2.5,0.6c1.4-0.2,2.2-0.9,2.2-1.4c0-0.2-0.2-0.3-0.5-0.6
						c6-0.1,14.6,2.3,21.8,11.1c11.4,14.1,4.3,30.8,4.3,30.8s-8-0.6-9.9-3.7c0.2,4.6,11.1,5.4,11.1,5.4S163.1,113.7,150.9,98.3z"/>
				</g>
				<g class="st5">
					<path class="st6" d="M155.4,131.4c0,0,1-2.3,1.8-6.2c-1.2-1.2-3.1-2.2-5.1-3c-1.8-0.8-2.9-2.5-2.8-4.3
						c0.3-4.9,0.3-11.1-3.9-16.3c-9.7-11.9-22.6-10.2-24.3-7.5c0.3,0.2,0.6,0.3,0.6,0.3s27.7,2.3,22.6,31
						C143.5,130.6,155.4,131.4,155.4,131.4z"/>
				</g>
				<g>
					<path class="st6" d="M155.4,132L155.4,132c-0.3,0-8.3-0.6-10.9-3.9c-0.6-0.9-0.9-1.9-0.8-2.9c1.5-8.6,0.2-15.4-3.9-20.8
						c-6.5-8.6-18.2-9.7-18.3-9.7h-0.1c-0.1,0-1.8-0.9-2.3-2.6c-0.3-1-0.2-2.2,0.3-3.4c0.8-1.4,3.1-2.5,6.3-2.9
						c7-0.8,17.4,2,25.4,12.1c6.5,8,7.4,16.8,7.1,22.6c-0.3,6.3-2.2,10.9-2.3,11C155.9,131.9,155.8,132,155.4,132z M144.3,125.4
						l0.5,0.1c-0.1,0.8,0,1.4,0.5,2c2,2.5,8.1,3.2,9.8,3.4c0.5-1.1,1.8-5.1,2.1-10.3c0.3-5.8-0.6-14.1-6.9-21.9
						c-7.9-9.8-17.8-12.3-24.6-11.8c-3.1,0.3-5.1,1.4-5.4,2.2c-0.5,0.9-0.6,1.8-0.3,2.6c0.3,1.1,1.4,1.8,1.8,1.9
						c0.6,0,3.4,0.3,6.9,1.7c3.7,1.2,8.6,3.8,12.1,8.3c4.2,5.4,5.7,12.8,4,21.7H144.3z"/>
				</g>
			</g>
			<g>
				<path class="st4" d="M155.4,131.4c0,0-2.3,2.6-7,1.2c-4.6-1.4-5.8-4.6-4.1-7.4C146,122.6,158.9,126,155.4,131.4z"/>
			</g>
			<g class="st5">
				<path class="st6" d="M155.4,131.4c0,0-2.3,2.6-7,1.2c-4.6-1.4-5.8-4.6-4.1-7.4C146,122.6,158.9,126,155.4,131.4z"/>
			</g>
			<g>
				<path class="st6" d="M151.2,133.7c-0.9,0-1.8-0.1-2.9-0.5c-3.2-1-4.6-2.6-4.9-3.9c-0.5-1.4-0.3-2.9,0.5-4.2
					c0.6-1,2.2-1.2,3.5-1.1c3.1,0.1,7.5,1.8,8.8,4.1c0.6,1.1,0.6,2.6-0.2,3.8c0,0,0,0,0,0.1C155.9,131.9,154.2,133.7,151.2,133.7z
					 M147.1,124.9c-1.1,0-2,0.2-2.2,0.8c-0.6,1.1-0.9,2.2-0.3,3.2c0.5,1.4,2,2.6,4.2,3.2c4,1.2,6.1-0.8,6.3-1
					c0.5-0.9,0.6-1.8,0.1-2.6c-1.1-2-5-3.5-7.9-3.7C147.2,124.9,147.2,124.9,147.1,124.9z M155.4,131.4L155.4,131.4L155.4,131.4z"/>
			</g>
		</g>
		<g>
			<g>
				<path class="st18" d="M128.2,92c-0.1-0.2-0.1-0.6-0.1-0.8c0-0.2,0-0.6,0.1-0.8c0.1-0.2,0.2-0.5,0.3-0.6c0.1-0.1,0.3-0.3,0.6-0.3
					c-0.1,0.2-0.2,0.3-0.3,0.6c-0.1,0.3-0.2,0.3-0.2,0.6c-0.1,0.2-0.1,0.3-0.2,0.6C128.3,91.4,128.3,91.8,128.2,92z"/>
			</g>
			<g>
				<path class="st18" d="M129.8,92.9c-0.1-0.3,0-0.8,0-1c0-0.3,0.1-0.6,0.3-1c0.1-0.3,0.3-0.6,0.6-0.9c0.1,0,0.1-0.1,0.2-0.1
					c0.1,0,0.1-0.1,0.2-0.1c0.1,0,0.1-0.1,0.2-0.1c0.1,0,0.1,0,0.2-0.1c-0.2,0.2-0.5,0.6-0.6,0.8c-0.2,0.2-0.3,0.6-0.5,0.8
					c-0.1,0.2-0.2,0.5-0.3,0.9C129.9,92.2,129.8,92.6,129.8,92.9z"/>
			</g>
		</g>
		<g>
			<g>
				<path class="st18" d="M149.4,115.4c0.2-0.2,0.6-0.3,1-0.6c0.3-0.1,0.8-0.1,1.1-0.1s0.8,0.1,1.1,0.2c0.1,0,0.1,0.1,0.2,0.1
					c0.1,0,0.1,0.1,0.2,0.1c0.1,0,0.1,0.1,0.2,0.1c0.1,0.1,0.1,0.1,0.1,0.2c-0.3-0.1-0.8-0.2-1-0.2c-0.3-0.1-0.6-0.1-1-0.1
					s-0.6,0-1,0C150.1,115.2,149.8,115.2,149.4,115.4z"/>
			</g>
			<g>
				<path class="st18" d="M148.9,117.8c0.5-0.2,1-0.3,1.5-0.5c0.5-0.1,1-0.1,1.4,0c0.1,0,0.2,0,0.3,0.1c0.1,0,0.2,0.1,0.3,0.1
					s0.2,0.1,0.3,0.1l0.1,0.1l0.1,0.1c0.1,0.1,0.2,0.1,0.3,0.2c0.1,0.2,0.2,0.1,0.2,0.2l0.1,0.1l0.1,0.1c0.1,0.1,0.1,0.2,0.2,0.2
					c-0.5-0.2-0.9-0.6-1.4-0.6l-0.1-0.1h-0.1c-0.1,0-0.2-0.1-0.3-0.1c-0.1,0-0.2,0-0.3-0.1c-0.1-0.1-0.2,0-0.3-0.1
					c-0.5-0.1-1-0.1-1.5-0.1C149.9,117.8,149.4,117.8,148.9,117.8z"/>
			</g>
		</g>
	</g>
	<g>
		<g>
			<path class="st13" d="M133.8,113.7c3.8-2,4.9-0.1,5.4,3.4C136.3,117.2,134,116.5,133.8,113.7z"/>
		</g>
		<g>
			<path class="st14" d="M138.6,117.7c-1.7,0-2.9-0.3-3.9-1.2c-0.8-0.8-1.2-1.7-1.4-2.9c0-0.1,0.1-0.2,0.2-0.3
				c1.7-0.9,2.9-1.1,3.9-0.6c1.4,0.6,2,2.5,2.3,4.5c0,0.1,0,0.2-0.1,0.3c-0.1,0.1-0.1,0.1-0.2,0.1
				C139.1,117.7,138.9,117.7,138.6,117.7z M134.1,113.8c0.1,0.9,0.5,1.4,1,2c0.9,0.8,2.1,1.1,3.8,1c-0.3-1.4-0.9-3-1.9-3.5
				C136.3,113,135.4,113.1,134.1,113.8z"/>
		</g>
		<g>
			<path class="st15" d="M133.7,113.1c0.3-0.1,0.9-0.1,1.2,0c0.3,0.1,0.8,0.2,1.1,0.5c0.3,0.2,0.6,0.6,0.9,0.8
				c0.2,0.2,0.5,0.6,0.8,0.9c-0.6-0.5-1.2-0.8-1.9-1c-0.3-0.1-0.6-0.2-1-0.2c-0.3,0-0.6,0-0.9,0l0,0c-0.2,0-0.3-0.1-0.5-0.3
				C133.4,113.4,133.5,113.2,133.7,113.1z"/>
		</g>
	</g>
</g>
</svg>
