<?xml version="1.0" encoding="utf-8"?>
<!-- Generator: Adobe Illustrator 23.0.5, SVG Export Plug-In . SVG Version: 6.00 Build 0)  -->
<svg version="1.1" id="Layer_1" xmlns:v="https://vecta.io/nano"
	 xmlns="http://www.w3.org/2000/svg" xmlns:xlink="http://www.w3.org/1999/xlink" x="0px" y="0px" viewBox="0 0 240 240"
	 style="enable-background:new 0 0 240 240;" xml:space="preserve">
<style type="text/css">
	.st0{fill:#B9BFC9;}
	.st1{fill:url(#SVGID_1_);}
	.st2{fill:url(#SVGID_2_);}
	.st3{fill:#FFD283;}
	.st4{fill:#F7AF41;}
	.st5{opacity:0.3;}
	.st6{fill:#6C184E;}
	.st7{fill:#FFCE00;}
	.st8{opacity:0.65;}
	.st9{fill:#FFFFFF;}
	.st10{fill:#EE1822;}
	.st11{fill:#BD1622;}
	.st12{fill:#F6C547;}
	.st13{fill:#48C75A;}
	.st14{fill:#661A47;}
	.st15{fill:#651B47;}
	.st16{fill:none;}
	.st17{fill:#EB984E;}
	.st18{fill:#6D184E;}
</style>
<g>
	<path class="st0" d="M120,0L0,120l60,60c33,33,60,60,60,60s27.1-27,60-60l60-60L120,0z M151.4,151.3
		c-17.2,17.2-31.3,31.3-31.4,31.3s-14.2-14.1-31.4-31.3L57.3,120l31.3-31.4L120,57.3l31.3,31.3l31.3,31.4L151.4,151.3z"/>
	<g>
		
			<linearGradient id="SVGID_1_" gradientUnits="userSpaceOnUse" x1="119.9" y1="275" x2="119.9" y2="206.8264" gradientTransform="matrix(1 0 0 -1 0 443)">
			<stop  offset="0" style="stop-color:#9CB84C"/>
			<stop  offset="1" style="stop-color:#2AB572"/>
		</linearGradient>
		<path class="st1" d="M98.2,214.4c-11.9-11.9-21.7-21.8-21.7-21.8c0-0.2,24.5-24.6,24.6-24.6s4.3,4.2,9.5,9.3l9.3,9.3l9.3-9.3
			c5.1-5.1,9.4-9.3,9.5-9.3c0.2,0,24.6,24.5,24.6,24.6s-43.3,43.5-43.4,43.5C120,236.1,110.2,226.4,98.2,214.4z"/>
		
			<linearGradient id="SVGID_2_" gradientUnits="userSpaceOnUse" x1="120.1" y1="370.7" x2="120.1" y2="439.1" gradientTransform="matrix(1 0 0 -1 0 443)">
			<stop  offset="0" style="stop-color:#9CB84C"/>
			<stop  offset="1" style="stop-color:#2AB572"/>
		</linearGradient>
		<path class="st2" d="M88.9,59.9c-6.8-6.8-12.3-12.4-12.3-12.5s9.8-9.9,21.7-21.9L120,3.9l21.8,21.8l21.8,21.8l-12.4,12.4
			l-12.4,12.4l-9.4-9.4l-9.4-9.4l-9.4,9.4l-9.4,9.4L88.9,59.9L88.9,59.9z"/>
	</g>
	<path class="st0" d="M103.2,136.8L86.5,120l16.8-16.8L120,86.5l16.7,16.8l16.8,16.8l-16.7,16.7c-9.2,9.2-16.7,16.7-16.8,16.7
		S112.4,146,103.2,136.8z"/>
</g>
<circle class="st3" cx="120" cy="120" r="75"/>
<g>
	<g>
		<g>
			<path class="st4" d="M75.1,151.4c0,0-1.8,6.1,12.4-2.6c14.3-8.8,50-15.4,67.1-13.3c17.1,2.2,5-38.2-7.6-44.6
				C134.2,84.6,95.1,112.4,75.1,151.4z"/>
		</g>
		<g class="st5">
			<path class="st6" d="M76.2,150.1c0,0-3.1,7.5,11.2-1.2c14.3-8.7,50-15.4,67.1-13.3c17.1,2.1,5-38.2-7.6-44.6
				C134.2,84.7,96.2,111.1,76.2,150.1z"/>
		</g>
		<g>
			<path class="st6" d="M77.6,153.8c-0.8,0-1.4-0.1-1.7-0.4c-1.4-1.1-0.6-3.3-0.6-3.3s0,0,0-0.1c9.2-17.9,21.1-31.1,29.3-38.9
				c10.7-10,21.7-17.4,30.7-20.1c5.1-1.7,9.2-1.7,12.1-0.3c4.6,2.4,9.4,9,12.6,17.9c3.3,8.8,4.4,17.4,2.8,22.4
				c-1.1,3.6-3.6,5.7-7.1,5.7c-0.4,0-1,0-1.4-0.1c-17.4-2.2-52.8,4.9-66.5,13.3C83.2,152.4,79.9,153.8,77.6,153.8z M76.4,150.3
				c-0.1,0.3-0.3,1.4,0.1,1.8c0.4,0.3,2.5,1.1,10.7-3.9c6.7-4.2,18.8-8.1,32.8-10.8c13.6-2.6,26.5-3.6,34.7-2.5
				c3.6,0.4,6-1.1,7.1-4.6c1.5-4.9,0.4-13.1-2.8-21.5c-3.3-8.5-7.8-15-12.1-17.2c-2.5-1.3-6.4-1.3-11.1,0.3
				c-8.8,2.8-19.7,10-30,19.9C97.4,119.4,85.6,132.5,76.4,150.3z"/>
		</g>
		<g>
			<g>
				<path class="st7" d="M147.8,98.6c-2.1-0.4,0.1-1.2-2.5-3.9c-2.6-2.6-5.4-0.4-5.4-0.4c0.4-1,0.6-1.8,0-2.5
					c-2.2-3.1-8.3-1.2-10.4-3.8c-2.2-2.5-7.4-0.1-7.4-0.1s-31.1,18.6-40,39.9s-8.3,27.9-4.4,26.4c3.9-1.4,6.7-4.9,9.6-2.2
					c2.8,2.6-0.7,7.5,2.6,10c1.8,1.4,6.4-1.1,4.2-4.7c-2.2-3.6-5-10.3-0.1-14c4.9-3.7,15.8-5.7,15.1-0.4c-1.5,12.6,11.8,7.2,7.6,1.8
					c-3.6-4.6-0.3-12.5,7.6-8.1c6.5,3.8,5.8-1.4,12.4-3.5c4.9-1.5,13.9-1.7,13.9-1.7c6.2-3.8,0.6-5.4,0.6-5.4s5.3-4,3.9-6.8
					c-1.2-2.8-0.6-7.2-0.6-11.7C154.9,102.9,149.9,99,147.8,98.6z"/>
			</g>
			<g class="st5">
				<path class="st6" d="M147.8,98.6c-2.1-0.4,0.1-1.2-2.5-3.9c-2.6-2.6-5.4-0.4-5.4-0.4c0.4-1,0.6-1.8,0-2.5
					c-2.2-3.1-8.3-1.2-10.4-3.8c-2.2-2.5-7.4-0.1-7.4-0.1s-0.8,0.4-2.1,1.2c9.7,2.5,29.9,10.8,26.1,39.9c0,0-38.8,2.8-49.6,9.4
					c-7.6,4.9-15.3,13.7-21.4,14.9c0.4,1.1,1.3,1.4,2.4,1c3.9-1.4,6.7-4.9,9.6-2.2c2.8,2.6-0.7,7.5,2.6,10c1.8,1.4,6.4-1.1,4.2-4.7
					c-2.2-3.6-5-10.3-0.1-14c4.9-3.8,15.8-5.7,15.1-0.4c-1.5,12.6,11.9,7.2,7.6,1.8c-3.6-4.6-0.3-12.5,7.6-8.1
					c6.5,3.8,5.8-1.4,12.4-3.5c4.9-1.5,13.9-1.7,13.9-1.7c6.2-3.7,0.6-5.4,0.6-5.4s5.3-4,3.9-6.9c-1.2-2.8-0.6-7.2-0.6-11.7
					C154.9,102.9,149.9,99,147.8,98.6z"/>
			</g>
			<g class="st8">
				<g>
					<path class="st9" d="M149.6,99.7c0.1,0,0.3,0.1,0.6,0.1c-0.6-0.4-1.1-0.8-1.5-1C148.6,99.2,148.8,99.6,149.6,99.7z"/>
				</g>
				<g>
					<path class="st9" d="M152.9,127.1L152.9,127.1L152.9,127.1L152.9,127.1z"/>
				</g>
				<g>
					<path class="st9" d="M141.5,95.3c0,0,1.7-1.2,3.8-0.6c-1.1-1.1-2.4-1.2-3.3-1.1C142.1,94,141.9,94.7,141.5,95.3z"/>
				</g>
				<g>
					<path class="st9" d="M139.6,91.3c-2.1-1.8-5.7-1.4-8.1-2.2C133.1,91,136.9,90.3,139.6,91.3z"/>
				</g>
				<g>
					<path class="st9" d="M122.2,87.8c0,0-13.9,8.3-25.7,20.1c-0.1,0.1-0.4,0.3-0.7,0.6c-0.1,0.1-0.3,0.3-0.3,0.4
						c-5.4,5.6-10.4,12.1-13.3,18.8c-8.3,20-8.3,27.1-5,26.5c-1.1-2.5,0.3-10.3,6.7-25.7c2.4-5.8,6.4-11.4,11-16.4
						c0.1,0.1,0.1,0.3,0.3,0.4c1,1,2.9,0.7,4.2-1c1.2-1.5,1.5-3.5,0.6-4.4c-0.1-0.1-0.1-0.1-0.3-0.1c11.5-11,23.3-19.3,23.3-19.3
						s4-0.7,6.4,0C127.4,85.4,122.2,87.8,122.2,87.8z"/>
				</g>
			</g>
			<g>
				<path class="st6" d="M91.4,162.9c-0.7,0-1.3-0.1-1.7-0.4c-2.1-1.4-2.1-3.8-1.8-5.8c0.1-1.7,0.1-3.3-1-4.2
					c-1.5-1.4-3.1-0.8-5.6,0.8c-1,0.6-2.1,1.1-3.3,1.5c-1.4,0.4-2.2,0.1-2.6-0.3c-2.9-2.9,1.7-16.2,6.2-26.8
					c4.7-11.1,15.3-21.5,23.5-28.3c8.8-7.2,16.7-11.9,16.7-12.1l0,0c0.1-0.1,5.7-2.5,8.1,0.3c0.8,1,2.5,1.3,4.4,1.4
					c2.2,0.1,4.7,0.4,6.1,2.4c0.3,0.4,0.4,1.1,0.4,1.7c1.4-0.4,3.3-0.4,5,1.2c1.5,1.5,1.5,2.6,1.7,3.3c0,0.1,0,0.1,0,0.3
					c0,0,0.1,0.1,0.4,0.1l0,0c2.4,0.4,7.4,4.7,7.4,9.6c0,1-0.1,2.1-0.1,2.9c-0.1,3.3-0.3,6.4,0.6,8.5c1.2,2.5-1.7,5.7-3.3,7.1
					c0.8,0.4,1.7,1.1,1.7,2.2c0.1,1.4-1,2.6-3.3,4c-0.1,0-0.1,0.1-0.3,0.1c-0.1,0-8.9,0-13.6,1.5c-2.4,0.8-3.6,1.8-4.9,2.9
					c-2.2,1.8-3.8,2.9-7.9,0.4c-2.9-1.5-5.4-1.5-6.8,0.1c-1.5,1.9-1.4,4.9,0.1,7.1c1.2,1.5,1.2,3.3,0.1,4.9c-1.4,1.7-3.9,2.5-6,1.7
					c-1.4-0.6-3.7-2.4-2.9-8.2c0.1-0.8-0.1-1.4-0.8-1.7c-2.5-1.4-9.6,0.1-13.3,2.8c-4.6,3.5-1.2,10.3,0.3,13.1
					c1.1,1.7,0.8,3.6-0.7,5C93.6,162.6,92.5,162.9,91.4,162.9z M85.1,150.3c1,0,1.8,0.3,2.6,1.1c1.5,1.4,1.4,3.6,1.4,5.3
					c-0.1,1.8-0.1,3.6,1.2,4.6c0.8,0.4,2.1,0.3,2.9-0.6c0.7-0.4,1.3-1.5,0.3-3.3c-1.8-3.1-5.4-10.8,0-14.9
					c3.7-2.8,11.4-4.9,14.7-2.9c1.1,0.6,1.7,1.7,1.4,3.1c-0.4,3.6,0.3,6.1,2.2,6.7c1.4,0.6,3.5,0,4.4-1.2c0.4-0.6,1-1.7-0.1-3.3
					c-2.1-2.5-2.1-6.4-0.1-8.6c1.9-2.2,5.1-2.4,8.6-0.4c3.8,2.1,4.7,1.2,6.5-0.3c1.2-1.1,2.6-2.4,5.3-3.1c4.6-1.5,12.5-1.7,13.9-1.7
					c2.2-1.4,2.5-2.2,2.5-2.6c-0.1-0.8-1.4-1.4-1.8-1.5c-0.1,0-0.4-0.3-0.4-0.4c0-0.3,0-0.4,0.3-0.7c1.2-1,4.7-4.2,3.8-6.1
					c-1.1-2.4-1-5.6-0.8-9c0-1,0.1-1.8,0.1-2.9c0.1-4-4.4-7.6-6.2-8.1c-1.2-0.3-1.4-0.8-1.4-1.5c0-0.4,0-1.2-1.2-2.4
					c-2.2-2.2-4.6-0.4-4.7-0.4c-0.3,0.1-0.6,0.1-0.8,0c-0.1-0.1-0.3-0.4-0.1-0.8c0.6-1.3,0.3-1.7,0.1-1.8c-1.1-1.4-2.9-1.7-5.1-1.8
					c-2.1-0.1-4-0.4-5.3-1.8c-1.5-1.7-5.1-0.6-6.5,0c-0.6,0.3-8.1,4.9-16.5,11.9c-7.9,6.5-18.6,16.7-23.2,27.6
					c-3.3,7.8-5.4,14-6.4,18.6c-1.1,5.1-0.4,6.5,0,6.8c0.1,0.1,0.4,0.4,1.2,0c1.1-0.4,2.1-1,2.9-1.5
					C82.2,151.2,83.6,150.3,85.1,150.3z"/>
			</g>
		</g>
		<g>
			<path class="st6" d="M126.8,131.1c3.8-0.7,7.5-1.2,11.4-1.7c1.9-0.3,3.7-0.4,5.8-0.7c1.8-0.1,3.7-0.3,5.8-0.3
				c0.3,0,0.6,0.3,0.6,0.7c0,0.3-0.3,0.6-0.6,0.6l0,0l0,0c-1.8,0-3.8,0-5.7,0c-1.9,0-3.8,0.1-5.7,0.3
				C134.6,130.1,130.7,130.6,126.8,131.1z"/>
		</g>
	</g>
	<g class="st5">
		<g>
			<path class="st6" d="M139,91L139,91L139,91L139,91z"/>
		</g>
		<g>
			<path class="st6" d="M153.8,104c-0.1,4.6-0.8,8.9,0.6,11.7c0,0.1,0.1,0.3,0.1,0.4c-0.3-2.5,0.1-5.6,0.1-8.8
				C154.7,106.2,154.4,105,153.8,104C153.8,103.9,153.8,104,153.8,104z"/>
		</g>
		<g>
			<path class="st6" d="M154.6,116.7c0,2.6-4.2,6-4.2,6s2.2,0.7,2.4,2.2c1.4-1.4,3.3-3.8,2.5-5.6
				C154.9,118.5,154.7,117.6,154.6,116.7z"/>
		</g>
	</g>
	<g>
		<g>
			
				<ellipse transform="matrix(0.8397 -0.543 0.543 0.8397 -34.6319 84.9128)" class="st10" cx="126.5" cy="101.1" rx="9.6" ry="7.6"/>
		</g>
		<g class="st8">
			<path class="st9" d="M127.8,108.6c-4.7,1.2-8.8-1.1-9.2-5.3c-0.3-4,3.1-8.5,7.8-9.7c3.5-1,6.5,0.1,8.2,2.4
				c-1.5-2.6-5-3.9-8.9-2.9c-5,1.2-8.8,6-8.3,10.3c0.4,4.4,4.9,6.8,9.7,5.6c1.2-0.3,2.5-1,3.6-1.7
				C129.9,107.9,128.9,108.3,127.8,108.6z"/>
		</g>
		<g>
			<path class="st11" d="M127.2,95l1.1,11.5c2.9-1.4,5.1-4.4,4.9-7.2C132.8,96.4,130.3,94.7,127.2,95z"/>
		</g>
		<g>
			<path class="st11" d="M124.4,95.6c-2.9,1.4-5,4.4-4.7,7.2c0.3,2.8,2.8,4.6,5.8,4.4L124.4,95.6z"/>
		</g>
		<g>
			<path class="st11" d="M124.4,95.6c-2.9,1.4-5,4.4-4.7,7.2c0.3,2.8,2.8,4.6,5.8,4.4L124.4,95.6z"/>
		</g>
		<g>
			<path class="st10" d="M124.9,99.6c-1,0.4-1.7,1.4-1.5,2.4c0.1,1,1,1.5,1.8,1.4L124.9,99.6z"/>
		</g>
		<g>
			<path class="st10" d="M127.5,98.9c1,0,1.8,0.4,1.8,1.4c0.1,1-0.6,1.8-1.5,2.4L127.5,98.9z"/>
		</g>
		<g>
			<path class="st6" d="M124.6,109.9c-1.8,0-3.5-0.4-4.9-1.4c-1.7-1.1-2.6-2.9-2.8-5c-0.4-4.7,3.5-9.6,8.8-10.8
				c2.8-0.8,5.7-0.3,7.6,1.1c1.7,1.1,2.6,2.9,2.8,5c0.4,4.7-3.5,9.6-8.8,10.8C126.4,109.9,125.4,109.9,124.6,109.9z M128.3,93.5
				c-0.8,0-1.5,0.1-2.5,0.3c-4.7,1.2-8.3,5.7-7.8,9.7c0.1,1.7,1,3.3,2.4,4.2c1.7,1.2,4.2,1.5,6.7,1c4.7-1.3,8.3-5.6,7.8-9.7
				c-0.1-1.7-1-3.3-2.4-4.2C131.3,93.8,129.9,93.5,128.3,93.5z"/>
		</g>
		<g>
			<g>
				<path class="st12" d="M123.5,104.7c0,0.1,0.1,0.3,0.1,0.4c0,0.1,0,0.3,0,0.4c0,0.1-0.1,0.3-0.4,0.3c-0.1,0-0.3-0.1-0.3-0.4
					c0,0,0,0,0-0.1s0.1-0.3,0.3-0.4C123.1,105,123.3,104.9,123.5,104.7z"/>
			</g>
			<g>
				<path class="st12" d="M122.2,103.6c0,0.1,0,0.3-0.1,0.4c0,0.1-0.1,0.3-0.1,0.4c-0.1,0.1-0.3,0.1-0.6,0.1
					c-0.1-0.1-0.1-0.3-0.1-0.6c0,0,0,0,0-0.1c0.1-0.1,0.3-0.1,0.4-0.1C121.7,103.6,121.8,103.6,122.2,103.6z"/>
			</g>
			<g>
				<path class="st12" d="M121.7,101.7c-0.1,0.1-0.1,0.3-0.3,0.3c-0.1,0.1-0.1,0.1-0.3,0.3c-0.1,0.1-0.4,0-0.4-0.1
					c-0.1-0.1,0-0.4,0.1-0.4h0.1c0.1,0,0.3,0,0.4,0C121.4,101.5,121.5,101.5,121.7,101.7z"/>
			</g>
			<g>
				<path class="st12" d="M122.5,99.7c-0.1,0-0.3,0-0.4,0.1c-0.1,0-0.3,0-0.4,0c-0.1,0-0.3-0.3-0.3-0.4c0-0.1,0.3-0.3,0.4-0.3h0.1
					c0.1,0,0.1,0.1,0.3,0.3S122.4,99.7,122.5,99.7z"/>
			</g>
			<g>
				<path class="st12" d="M124,98.5c-0.1,0-0.3-0.1-0.4-0.1c-0.1-0.1-0.3-0.1-0.3-0.3c-0.1-0.1-0.1-0.4,0.1-0.6
					c0.1-0.1,0.4-0.1,0.6,0.1c0,0,0,0,0,0.1s0,0.3,0,0.4C124,98.1,124,98.2,124,98.5z"/>
			</g>
		</g>
		<g>
			<g>
				<path class="st12" d="M129.9,102.9c0.1,0.1,0.3,0.1,0.4,0.3c0.1,0.1,0.1,0.1,0.3,0.3c0.1,0.1,0,0.4-0.1,0.6
					c-0.1,0.1-0.4,0-0.6-0.1c0,0,0,0,0-0.1s0-0.3,0-0.4C129.9,103.2,129.9,103.1,129.9,102.9z"/>
			</g>
			<g>
				<path class="st12" d="M131,101.2c0.1,0,0.3,0,0.4,0c0.1,0,0.3,0,0.4,0s0.3,0.3,0.3,0.4c0,0.1-0.3,0.3-0.4,0.3h-0.1
					c-0.1-0.1-0.1-0.1-0.3-0.3C131.1,101.5,131,101.4,131,101.2z"/>
			</g>
			<g>
				<path class="st12" d="M131,99.2c0.1-0.1,0.1-0.1,0.3-0.3c0.1-0.1,0.1-0.1,0.3-0.1c0.1-0.1,0.4,0,0.4,0.1s0,0.4-0.1,0.4h-0.1
					c-0.1,0-0.3,0-0.4,0C131.3,99.3,131.1,99.3,131,99.2z"/>
			</g>
			<g>
				<path class="st12" d="M129.9,97.8c0-0.1,0.1-0.3,0.1-0.4s0.1-0.3,0.1-0.4c0.1-0.1,0.3-0.1,0.6-0.1c0.1,0.1,0.1,0.3,0.1,0.7
					c0,0,0,0-0.1,0.1c-0.1,0.1-0.3,0.1-0.4,0.1C130.1,97.6,130,97.6,129.9,97.8z"/>
			</g>
			<g>
				<path class="st12" d="M128.1,97.4c0-0.1-0.1-0.3-0.1-0.4c0-0.1,0-0.3,0-0.4c0-0.1,0.1-0.3,0.4-0.3c0.3,0,0.3,0.1,0.3,0.4
					c0,0,0,0,0,0.1s-0.1,0.3-0.3,0.4C128.5,96.9,128.3,97.2,128.1,97.4z"/>
			</g>
		</g>
		<g>
			<path class="st11" d="M128.3,106.9c-0.1,0-0.1,0-0.3-0.1s-0.3-0.3-0.3-0.4l-1.1-11.5c0-0.1,0-0.3,0.1-0.4s0.1-0.1,0.3-0.1
				c3.5-0.3,6.3,1.7,6.5,4.9c0.3,2.9-1.8,6.2-5.1,7.8C128.5,106.9,128.3,106.9,128.3,106.9z M127.8,95.4l1,10.1
				c2.5-1.4,4-3.9,3.9-6.2C132.4,96.9,130.3,95.4,127.8,95.4L127.8,95.4z"/>
		</g>
		<g>
			<path class="st11" d="M125,107.8c-3.1,0-5.7-2.1-6-4.9c-0.3-2.9,1.7-6.2,5-7.6c0.1,0,0.3,0,0.4,0c0.1,0.1,0.3,0.3,0.3,0.4
				l1.1,11.5c0,0.1,0,0.3-0.1,0.4c-0.1,0.1-0.1,0.1-0.3,0.1C125.3,107.8,125.1,107.8,125,107.8z M123.9,96.5
				c-2.4,1.4-3.9,3.9-3.7,6.2c0.1,2.4,2.1,3.9,4.7,3.9L123.9,96.5z"/>
		</g>
	</g>
	<g>
		<g>
			
				<ellipse transform="matrix(0.8397 -0.543 0.543 0.8397 -49.0163 77.2639)" class="st10" cx="106.4" cy="121.7" rx="8.9" ry="7.2"/>
		</g>
		<g class="st8">
			<path class="st9" d="M107.8,128.8c-4.4,1.1-8.3-1.1-8.6-5c-0.3-3.9,2.9-7.9,7.4-9c3.3-0.8,6.1,0.1,7.6,2.2
				c-1.4-2.5-4.7-3.6-8.3-2.6c-4.7,1.2-8.1,5.4-7.8,9.6c0.3,4,4.6,6.4,9,5.1c1.2-0.3,2.4-0.8,3.5-1.5
				C109.7,128.1,108.8,128.6,107.8,128.8z"/>
		</g>
		<g>
			<path class="st11" d="M107.2,116l1,10.8c2.8-1.2,4.9-4,4.6-6.7C112.5,117.4,110.1,115.7,107.2,116z"/>
		</g>
		<g>
			<path class="st11" d="M104.6,116.7c-2.8,1.2-4.7,4-4.4,6.7s2.5,4.4,5.4,4L104.6,116.7z"/>
		</g>
		<g>
			<path class="st11" d="M104.6,116.7c-2.8,1.2-4.7,4-4.4,6.7s2.5,4.4,5.4,4L104.6,116.7z"/>
		</g>
		<g>
			<path class="st10" d="M105,120.3c-1,0.4-1.5,1.3-1.4,2.2c0.1,1,0.8,1.4,1.7,1.4L105,120.3z"/>
		</g>
		<g>
			<path class="st10" d="M107.5,119.7c1,0,1.7,0.4,1.7,1.4c0.1,1-0.6,1.7-1.4,2.2L107.5,119.7z"/>
		</g>
		<g>
			<path class="st6" d="M104.7,130c-1.7,0-3.3-0.4-4.6-1.4c-1.5-1.1-2.5-2.8-2.6-4.7c-0.4-4.4,3.3-8.9,8.1-10.1
				c2.6-0.7,5.3-0.3,7.2,1.1c1.5,1.1,2.5,2.8,2.6,4.7l0,0c0.4,4.4-3.3,8.9-8.1,10.1C106.4,129.9,105.4,130,104.7,130z M108.2,114.6
				c-0.8,0-1.5,0.1-2.4,0.3c-4.4,1.1-7.6,5.1-7.4,9c0.1,1.5,1,2.9,2.2,3.9c1.5,1.1,3.9,1.4,6.2,0.8c4.4-1.1,7.6-5.1,7.4-9l0,0
				c-0.1-1.5-1-2.9-2.2-3.9C111,115,109.7,114.6,108.2,114.6z"/>
		</g>
		<g>
			<g>
				<path class="st12" d="M104.4,125.3c0.1,0.1,0.1,0.3,0.1,0.3c0,0.1,0.1,0.3,0.1,0.4c0,0.1-0.1,0.3-0.3,0.3s-0.3-0.1-0.3-0.3
					c0,0,0,0,0-0.1C104.2,125.7,104.2,125.6,104.4,125.3C104.4,125.4,104.4,125.4,104.4,125.3z"/>
			</g>
			<g>
				<path class="st12" d="M102.9,124.7c0,0.1,0,0.3,0,0.4c0,0.1,0,0.3-0.1,0.4c0,0.1-0.3,0.3-0.4,0.1c-0.1-0.1-0.3-0.3-0.1-0.4l0,0
					c0.1-0.1,0.1-0.1,0.3-0.3C102.6,124.9,102.8,124.7,102.9,124.7z"/>
			</g>
			<g>
				<path class="st12" d="M102.2,123.1c0,0.1-0.1,0.3-0.1,0.4c-0.1,0.1-0.1,0.3-0.3,0.3c-0.1,0.1-0.3,0.1-0.4,0
					c-0.1-0.1-0.1-0.3,0-0.4l0,0c0.1,0,0.3-0.1,0.4-0.1S102.1,123.1,102.2,123.1z"/>
			</g>
			<g>
				<path class="st12" d="M102.4,121.4c-0.1,0.1-0.3,0.1-0.3,0.1c-0.1,0-0.3,0.1-0.3,0.1c-0.1,0-0.3-0.1-0.3-0.3
					c0-0.1,0.1-0.3,0.3-0.3c0,0,0,0,0.1,0C102.1,121.1,102.2,121.1,102.4,121.4C102.1,121.2,102.2,121.2,102.4,121.4z"/>
			</g>
			<g>
				<path class="st12" d="M103.5,119.9c-0.1,0-0.3,0-0.4-0.1c-0.1,0-0.3-0.1-0.3-0.1c-0.1-0.1-0.1-0.3-0.1-0.4
					c0.1-0.1,0.3-0.1,0.4-0.1l0,0c0.1,0.1,0.1,0.1,0.1,0.3C103.3,119.4,103.5,119.7,103.5,119.9z"/>
			</g>
		</g>
		<g>
			<g>
				<path class="st12" d="M109.7,123.5c0.1,0.1,0.1,0.1,0.3,0.3c0.1,0.1,0.1,0.1,0.3,0.3c0.1,0.1,0,0.3-0.1,0.4
					c-0.1,0.1-0.3,0-0.4-0.1c0,0,0,0,0-0.1c0-0.1,0-0.3,0-0.4C109.7,123.7,109.7,123.6,109.7,123.5z"/>
			</g>
			<g>
				<path class="st12" d="M110.6,121.8c0.1,0,0.3,0,0.4,0c0.1,0,0.3,0,0.3,0c0.1,0,0.3,0.3,0.1,0.4c0,0.1-0.3,0.3-0.4,0.1
					c0,0,0,0-0.1,0c-0.1,0-0.1-0.1-0.3-0.3C110.8,121.9,110.8,121.9,110.6,121.8z"/>
			</g>
			<g>
				<path class="st12" d="M110.6,120c0.1-0.1,0.1-0.1,0.3-0.3c0.1-0.1,0.1-0.1,0.3-0.1s0.3,0,0.4,0.1c0,0.1,0,0.3-0.1,0.4
					c0,0,0,0-0.1,0c-0.1,0-0.3,0-0.4,0C111,120.1,110.8,120,110.6,120z"/>
			</g>
			<g>
				<path class="st12" d="M109.7,118.6c0-0.1,0.1-0.3,0.1-0.4c0-0.1,0.1-0.3,0.1-0.3c0.1-0.1,0.3-0.1,0.4,0c0.1,0.1,0.1,0.3,0,0.4
					l0,0c-0.1,0.1-0.1,0.1-0.3,0.1C110,118.6,109.9,118.6,109.7,118.6z"/>
			</g>
			<g>
				<path class="st12" d="M108.2,118.1c0-0.1,0-0.3-0.1-0.4c0-0.1,0-0.3,0-0.4c0-0.1,0.1-0.3,0.3-0.3c0.1,0,0.3,0.1,0.3,0.3l0,0
					c0,0.1-0.1,0.3-0.1,0.3C108.3,117.9,108.3,118.1,108.2,118.1z"/>
			</g>
		</g>
		<g>
			<path class="st11" d="M108.2,127.4c-0.1,0-0.1,0-0.3-0.1s-0.3-0.3-0.3-0.4l-1-10.8c0-0.1,0-0.3,0.1-0.4c0.1-0.1,0.3-0.1,0.4-0.1
				c3.3-0.3,6,1.7,6.2,4.7c0.3,2.8-1.7,6-4.9,7.4C108.3,127.4,108.3,127.4,108.2,127.4z M107.8,116.5l1,9.4c2.2-1.3,3.7-3.6,3.5-5.8
				C111.9,117.9,110.1,116.5,107.8,116.5z"/>
		</g>
		<g>
			<path class="st11" d="M105.1,128.1c-2.9,0-5.3-1.8-5.6-4.7c-0.3-2.8,1.7-5.8,4.9-7.2c0.1-0.1,0.3,0,0.4,0
				c0.1,0.1,0.3,0.3,0.3,0.4l1,10.8c0,0.1,0,0.3-0.1,0.4c-0.1,0.1-0.3,0.1-0.4,0.1C105.4,128.1,105.3,128.1,105.1,128.1z M104,117.6
				c-2.2,1.2-3.6,3.6-3.5,5.8s1.8,3.6,4.2,3.6L104,117.6z"/>
		</g>
	</g>
	<g>
		<g>
			<g>
				<path class="st13" d="M94.7,120.6c-6.1,0.3-6.2,3.3-4.2,8.1C94,127.2,96.4,124.3,94.7,120.6z"/>
			</g>
			<g>
				<path class="st14" d="M90.1,129.7C90,129.7,90,129.7,90.1,129.7c-0.3,0-0.4-0.1-0.4-0.3c-1-2.6-1.5-5.4-0.3-7.4
					c1-1.3,2.6-1.8,5.3-2.1c0.1,0,0.4,0.1,0.4,0.3c0.8,1.5,1,2.9,0.4,4.6c-0.7,1.8-2.5,3.8-5.1,4.9
					C90.3,129.7,90.3,129.7,90.1,129.7z M94.2,121.1c-2.1,0.1-3.3,0.7-3.9,1.5c-1,1.2-0.4,3.6,0.3,5.7c2.1-1.1,3.5-2.5,3.9-3.9
					C94.9,123.5,94.7,122.4,94.2,121.1z"/>
			</g>
			<g>
				<path class="st15" d="M94.9,121.1c-0.4,0.1-0.8,0.4-1.1,0.8c-0.3,0.3-0.8,0.7-1.1,1.1c-0.7,0.8-1.1,1.7-1.5,2.6
					c0-0.7,0.1-1.1,0.1-1.5c0.1-0.4,0.3-1.1,0.7-1.5c0.3-0.4,0.7-1,1-1.4c0.4-0.4,1-0.8,1.5-1c0.3-0.1,0.7,0.1,0.7,0.4
					C95.1,120.8,95,121,94.9,121.1L94.9,121.1z"/>
			</g>
		</g>
		<g>
			<g>
				<path class="st13" d="M105.7,103.9c5.3-2.8,7.1-0.1,7.8,4.9C109.6,109.3,106.1,108.3,105.7,103.9z"/>
			</g>
			<g>
				<path class="st14" d="M112.5,109.9c-2.4,0-4.2-0.7-5.4-1.7c-1.1-1-1.8-2.4-1.8-4c0-0.1,0.1-0.4,0.3-0.4c2.4-1.2,4-1.5,5.6-1
					c2.1,1,2.8,3.7,3.5,6.5c0,0.1,0,0.3-0.1,0.4c-0.1,0.1-0.3,0.1-0.4,0.1C113.5,109.9,112.9,109.9,112.5,109.9z M106.2,104.2
					c0.1,1.2,0.6,2.2,1.4,2.9c1.2,1,3.1,1.5,5.3,1.4c-0.4-2.2-1.3-4.4-2.6-5C109.3,103.1,108.2,103.2,106.2,104.2z"/>
			</g>
			<g>
				<path class="st15" d="M105.4,103.5c0.6-0.1,1.3-0.1,1.8,0s1.1,0.4,1.5,0.7c0.4,0.1,1,0.6,1.3,1.1c0.3,0.4,0.8,0.8,1,1.2
					c-1-0.7-1.7-1.1-2.6-1.5c-0.4-0.1-1-0.3-1.4-0.3s-1-0.1-1.4,0l0,0c-0.3,0-0.6-0.1-0.6-0.4C105.1,103.8,105.3,103.5,105.4,103.5z
					"/>
			</g>
		</g>
		<g>
			<g>
				<path class="st13" d="M129.6,123.1c-4.2-3.9-6.2-1.8-8.1,2.5C124.9,127.1,128.3,126.8,129.6,123.1z"/>
			</g>
			<g>
				<path class="st14" d="M124.6,127.1c-1.1,0-2.5-0.3-3.7-0.8c-0.1,0-0.3-0.1-0.3-0.3s0-0.3,0-0.4c1.3-2.4,2.5-4.7,4.7-5
					c1.4-0.3,2.9,0.4,4.9,2.2c0.1,0.1,0.1,0.3,0.1,0.7c-0.4,1.5-1.4,2.6-2.6,3.3C126.5,126.8,125.7,127.1,124.6,127.1z M121.7,125.4
					c2.1,0.6,3.9,0.6,5.1,0c1-0.4,1.5-1.3,2.1-2.4c-1.4-1.3-2.5-1.8-3.6-1.7C123.9,121.8,122.6,123.6,121.7,125.4z"/>
			</g>
			<g>
				<path class="st15" d="M129.4,123.6c-0.3-0.1-0.8-0.3-1.2-0.3c-0.4,0-1,0-1.4,0c-1,0.1-1.8,0.3-2.8,0.7c0.3-0.3,0.8-0.7,1.2-1
					c0.4-0.3,1-0.4,1.4-0.6c0.4-0.1,1.1-0.3,1.5-0.3c0.6,0,1.1,0.1,1.7,0.4c0.3,0.1,0.3,0.4,0.1,0.8
					C129.9,123.6,129.7,123.6,129.4,123.6L129.4,123.6z"/>
			</g>
		</g>
		<g>
			<g>
				<path class="st13" d="M82.1,132.8c0.3,0,0.6,0,1,0.1c0.3,0,0.7,0.1,1,0.1c0.3,0,0.6,0.1,1,0.1c0.3,0.1,0.7,0.1,1.1,0.4l0,0
					c0.3,0.1,0.4,0.8,0.3,1.1c-0.1,0.3-0.8,0.4-1.1,0.3c0,0-0.1,0-0.1-0.1c-0.1-0.1-0.3-0.3-0.6-0.3c-0.3-0.1-0.4-0.1-0.8-0.3
					c-0.3-0.1-0.7-0.1-0.8-0.3s-0.7-0.1-1-0.1l0,0c-0.3,0-0.4-0.3-0.4-0.6C81.5,132.9,81.7,132.8,82.1,132.8z"/>
			</g>
			<g class="st5">
				<path class="st6" d="M82.1,132.8c0.3,0,0.6,0,1,0.1c0.3,0,0.7,0.1,1,0.1c0.3,0,0.6,0.1,1,0.1c0.3,0.1,0.7,0.1,1.1,0.4l0,0
					c0.3,0.1,0.4,0.8,0.3,1.1c-0.1,0.3-0.8,0.4-1.1,0.3c0,0-0.1,0-0.1-0.1c-0.1-0.1-0.3-0.3-0.6-0.3c-0.3-0.1-0.4-0.1-0.8-0.3
					c-0.3-0.1-0.7-0.1-0.8-0.3s-0.7-0.1-1-0.1l0,0c-0.3,0-0.4-0.3-0.4-0.6C81.5,132.9,81.7,132.8,82.1,132.8z"/>
			</g>
			<g>
				<path class="st14" d="M85.6,135.7c-0.1,0-0.4,0-0.7-0.1l-0.1-0.1c0,0-0.1-0.1-0.4-0.3c-0.1-0.1-0.4-0.1-0.8-0.3
					c-0.3-0.1-0.4-0.1-0.8-0.3c-0.3-0.1-0.7-0.1-0.8-0.1c-0.3,0-0.4-0.1-0.7-0.4c-0.1-0.1-0.1-0.4-0.1-0.8c0.1-0.4,0.4-0.8,1-0.8
					l0,0c0.3,0,0.7,0,1,0.1c0.3,0,0.6,0.1,1,0.1c0.4,0,0.8,0.1,1.1,0.1c0.4,0.1,0.8,0.1,1.1,0.4l0,0c0.7,0.3,0.8,1.1,0.4,1.7
					C86.4,135.4,86,135.7,85.6,135.7z M82.1,133.2C82.1,133.2,81.8,133.2,82.1,133.2C81.8,133.5,81.8,133.5,82.1,133.2
					C81.8,133.5,81.8,133.5,82.1,133.2c0.3,0.1,0.6,0.3,1,0.3c0.3,0.1,0.7,0.1,1,0.3c0.3,0.1,0.6,0.1,0.8,0.3
					c0.3,0.1,0.6,0.3,0.8,0.4l0,0c0.1,0.1,0.3,0,0.4-0.1c0.1-0.1,0-0.3-0.1-0.4l0,0c-0.3-0.1-0.6-0.3-1-0.3c-0.3-0.1-0.7-0.1-1-0.1
					c-0.3,0-0.7-0.1-1-0.1C82.6,133.5,82.4,133.2,82.1,133.2L82.1,133.2z"/>
			</g>
			<g>
				<g>
					<path class="st13" d="M82.8,133.5c-1.8-6.7-9.7-1.2-9.7-1.2S79.2,139.4,82.8,133.5z"/>
				</g>
				<g class="st8">
					<path class="st9" d="M82.6,133.6L82.6,133.6c-1.8-6.8-9.6-1.2-9.6-1.2s0.1,0.3,0.7,0.6C75.1,131.8,80.8,128.8,82.6,133.6z"/>
				</g>
				<g>
					<path class="st14" d="M79,136.4c-3.5,0-6.7-3.6-6.8-3.7c-0.1-0.1-0.1-0.1-0.1-0.3c0-0.1,0.1-0.3,0.1-0.3
						c0.1-0.1,4.9-3.2,8.1-1.8c1.4,0.4,2.4,1.7,2.8,3.5c0,0.1,0,0.3,0,0.3c-1,1.5-2.2,2.5-3.6,2.6C79.4,136.4,79.2,136.4,79,136.4z
						 M73.3,132.4c1,1,3.7,3.3,6.2,3.1c1.1-0.1,2.1-0.8,2.8-2.1c-0.4-1.4-1.1-2.2-2.2-2.6C77.8,130,74.6,131.5,73.3,132.4z"/>
				</g>
				<g>
					<g>
						<line class="st16" x1="82.8" y1="133.5" x2="77.5" y2="132.8"/>
					</g>
					<g>
						<path class="st15" d="M82.6,133.9c-0.4,0-1-0.1-1.2-0.1s-1-0.1-1.2-0.3c-1-0.1-1.7-0.4-2.5-0.8c1,0,1.7,0,2.6,0
							c0.4,0,1,0,1.2,0c0.4,0,1,0.1,1.2,0.1s0.4,0.3,0.3,0.6C83.2,133.7,82.9,133.9,82.6,133.9z"/>
					</g>
				</g>
			</g>
			<g>
				<path class="st14" d="M78.9,136.4c0.6-0.4,1.2-1.1,1.7-1.5c0.4-0.4,1.2-1,1.8-1.5c0.1-0.1,0.4-0.1,0.7,0.1
					c0.1,0.1,0.1,0.4-0.1,0.6l0,0l0,0c-0.6,0.3-1.4,0.8-2.1,1.1C80.3,135.4,79.6,136,78.9,136.4z"/>
			</g>
			<g>
				<g>
					<path class="st13" d="M82.8,133.6c0,0-3.9,0.3-4.9,7.1C77.9,140.6,86,138.1,82.8,133.6z"/>
				</g>
				<g class="st8">
					<path class="st9" d="M79,140c0.8-5.7,3.9-6,4-6c-0.1-0.1-0.1-0.3-0.3-0.4c0,0-3.9,0.3-4.9,7.1c0,0,1.7-0.6,3.3-1.5
						C80.1,139.7,79,140,79,140z"/>
				</g>
				<g>
					<path class="st14" d="M77.9,141.1c-0.1,0-0.1,0-0.3-0.1c-0.1-0.1-0.1-0.3-0.1-0.4c1-7.2,5.1-7.5,5.3-7.5c0.1,0,0.3,0,0.4,0.1
						c0.8,1.1,1.1,2.4,0.7,3.5C82.8,139.4,78.3,141.1,77.9,141.1L77.9,141.1z M82.5,134c-0.8,0.1-3.3,1.1-4,6
						c1.2-0.4,3.9-1.7,4.6-3.6C83.2,135.6,83.2,134.9,82.5,134z"/>
				</g>
				<g>
					<path class="st14" d="M80.4,136.5c0.3-0.6,0.6-1.1,1-1.7c0.3-0.6,0.7-1.1,1-1.5c0.1-0.1,0.4-0.3,0.6-0.1
						c0.1,0.1,0.3,0.4,0.1,0.6c0,0,0,0-0.1,0.1c-0.4,0.4-1,0.8-1.2,1.2C81.4,135.6,81,136.1,80.4,136.5z"/>
				</g>
			</g>
			<g>
				<g>
					<path class="st13" d="M82.6,133.6c0,0-3.7-1.4-2.5-8.3C80.3,125.3,87.2,130.3,82.6,133.6z"/>
				</g>
				<g class="st8">
					<path class="st9" d="M81.4,126.2c-0.6-0.7-1.1-1-1.1-1c-1.2,6.9,2.5,8.3,2.5,8.3l0.1-0.1C82.2,132.8,80.3,131,81.4,126.2z"/>
				</g>
				<g>
					<path class="st14" d="M82.6,134L82.6,134c-0.3,0-4.2-1.7-2.8-8.8c0-0.1,0.1-0.3,0.3-0.3c0.1,0,0.3,0,0.4,0c0.1,0.1,4,2.9,4,6
						c0,1.1-0.7,2.2-1.7,2.9C82.9,134,82.8,134,82.6,134z M80.7,126.1c-0.6,4.9,1.4,6.4,2.1,6.8c0.8-0.6,1.1-1.2,1.1-2.1
						C83.8,129,81.7,127.1,80.7,126.1z"/>
				</g>
				<g>
					<path class="st14" d="M81.5,130c0.3,0.7,0.4,1.1,0.8,1.7c0.3,0.7,0.6,1.1,0.8,1.7c0.1,0.1,0,0.4-0.1,0.6
						c-0.1,0.1-0.4,0-0.6-0.1c0,0,0,0,0-0.1c-0.1-0.6-0.3-1.2-0.4-1.8C81.7,131.3,81.5,130.6,81.5,130z"/>
				</g>
			</g>
		</g>
	</g>
	<g>
		<path class="st6" d="M75.8,152.2L75.8,152.2c0.1,0,0.1,0.1,0.1,0.1c0.1,0,0.3,0,0.4,0c0.3,0,0.8-0.1,1.1-0.3
			c0.8-0.3,1.5-0.8,2.2-1.2c1.4-1,2.9-1.8,4.4-2.9c1.4-1.1,2.8-2.2,4-3.3c0.3-0.3,0.7-0.6,1-1c0.3-0.3,0.6-0.6,1-1
			c0.1-0.1,0.3-0.3,0.4-0.4l0.4-0.4l0.3-0.1l0.3-0.1l0.4-0.4c2.9-2.1,6.1-3.6,9.6-4.9c1.7-0.6,3.5-1.1,5.1-1.5s3.5-0.8,5.1-1.1
			c-3.5,0.6-6.8,1.7-10.1,2.9c-1.7,0.6-3.3,1.4-4.9,2.2c-1.5,0.8-3.1,1.7-4.6,2.8l-0.4,0.4v0.1l-0.3,0.1l-0.4,0.4
			c-0.1,0.1-0.3,0.3-0.4,0.4c-0.3,0.3-0.7,0.6-1,1c-0.3,0.3-0.6,0.6-1,1c-1.2,1.2-2.6,2.4-4,3.5s-2.8,2.2-4.4,3.1
			c-0.8,0.4-1.5,1-2.4,1.4c-0.4,0.1-1,0.3-1.4,0.4c-0.3,0-0.7,0-1,0c-0.1,0-0.3-0.1-0.4-0.1c-0.1-0.1-0.3-0.3-0.4-0.4
			c-0.1-0.3,0-0.6,0.1-0.8C75.1,151.7,75.6,151.8,75.8,152.2L75.8,152.2z"/>
	</g>
	<g>
		<g class="st5">
			<ellipse transform="matrix(0.968 -0.2508 0.2508 0.968 -26.7949 39.7335)" class="st6" cx="142.5" cy="125" rx="1" ry="0.6"/>
		</g>
		<g class="st5">
			<ellipse transform="matrix(0.968 -0.2508 0.2508 0.968 -26.3008 38.609)" class="st6" cx="138.3" cy="122.5" rx="1.5" ry="1.1"/>
		</g>
		<g class="st5">
			
				<ellipse transform="matrix(0.9355 -0.3532 0.3532 0.9355 -32.7096 52.9578)" class="st6" cx="128.7" cy="116.1" rx="1.1" ry="1"/>
		</g>
		<g class="st5">
			
				<ellipse transform="matrix(0.9355 -0.3532 0.3532 0.9355 -28.0782 56.1172)" class="st6" cx="139.7" cy="105" rx="0.8" ry="0.6"/>
		</g>
		<g class="st5">
			
				<ellipse transform="matrix(0.9355 -0.3532 0.3532 0.9355 -30.8742 57.1853)" class="st6" cx="141.2" cy="113.2" rx="1" ry="0.8"/>
		</g>
		<g class="st5">
			<path class="st6" d="M132.5,110.6c0.1,0.3-0.1,0.6-0.4,0.8c-0.3,0.1-0.8,0-1-0.3c-0.1-0.3,0.1-0.7,0.4-0.8
				C132.1,110.1,132.4,110.3,132.5,110.6z"/>
		</g>
		<g class="st5">
			
				<ellipse transform="matrix(0.8111 -0.5849 0.5849 0.8111 -48.4648 92.4309)" class="st6" cx="118.9" cy="121.2" rx="0.8" ry="0.6"/>
		</g>
		<g class="st5">
			<ellipse transform="matrix(0.8111 -0.5849 0.5849 0.8111 -43.354 92.1478)" class="st6" cx="121" cy="113.2" rx="0.8" ry="0.6"/>
		</g>
		<g class="st5">
			<ellipse transform="matrix(0.8111 -0.5849 0.5849 0.8111 -60.515 81.2639)" class="st6" cx="95.6" cy="134.3" rx="1.1" ry="1"/>
		</g>
		<g class="st5">
			<ellipse transform="matrix(0.8111 -0.5849 0.5849 0.8111 -56.8778 80.5479)" class="st6" cx="96.3" cy="128.3" rx="1" ry="0.8"/>
		</g>
		<g class="st5">
			
				<ellipse transform="matrix(0.8111 -0.5849 0.5849 0.8111 -65.2381 77.4039)" class="st6" cx="87.2" cy="139.7" rx="0.6" ry="0.4"/>
		</g>
		<g class="st5">
			<ellipse transform="matrix(0.8111 -0.5849 0.5849 0.8111 -50.7136 78.5373)" class="st6" cx="96.2" cy="117.8" rx="1" ry="0.8"/>
		</g>
		<g class="st5">
			<ellipse transform="matrix(0.8111 -0.5849 0.5849 0.8111 -45.6585 82.21)" class="st6" cx="104.4" cy="111.8" rx="1.2" ry="1"/>
		</g>
	</g>
	<g>
		<g>
			<g>
				<g>
					<path class="st17" d="M150.4,126.7c-1.1,6.5,13.9,7.6,13.9,7.6s9.6-22.4-5.8-41.4c-15.3-19-36.4-16.2-38.6-11.7
						c-2.4,4.6,2.2,6.5,2.2,6.5S156.7,91,150.4,126.7z"/>
				</g>
				<g class="st8">
					<path class="st9" d="M158.6,92.9c-15.4-19-36.4-16.2-38.6-11.7c-2.1,4,1.4,6.1,2.1,6.4c-1-1-1.7-2.6-0.4-4.9
						c0.4-1,2.1-1.8,4-2.5c-0.4,0.3-0.8,0.7-0.6,1c0.1,0.7,1.5,1,3.1,0.7c1.7-0.3,2.8-1.1,2.8-1.7c0-0.3-0.3-0.4-0.6-0.7
						c7.5-0.1,18.3,2.9,27.2,13.9c14.3,17.6,5.4,38.5,5.4,38.5s-10-0.7-12.4-4.6c0.3,5.8,13.9,6.7,13.9,6.7S173.9,112.1,158.6,92.9z
						"/>
				</g>
				<g class="st5">
					<path class="st6" d="M164.3,134.3c0,0,1.2-2.9,2.2-7.8c-1.5-1.5-3.9-2.8-6.4-3.8c-2.2-1-3.6-3.1-3.5-5.4
						c0.4-6.1,0.4-13.9-4.9-20.4c-12.1-14.9-28.3-12.8-30.4-9.4c0.4,0.3,0.8,0.4,0.8,0.4s34.6,2.9,28.3,38.8
						C149.4,133.2,164.3,134.3,164.3,134.3z"/>
				</g>
				<g>
					<path class="st6" d="M164.3,135L164.3,135c-0.4,0-10.4-0.8-13.6-4.9c-0.8-1.1-1.1-2.4-1-3.6c1.9-10.7,0.3-19.3-4.9-26
						c-8.1-10.7-22.8-12.1-22.9-12.1h-0.1c-0.1,0-2.2-1.1-2.9-3.3c-0.4-1.3-0.3-2.8,0.4-4.2c1-1.7,3.9-3.1,7.9-3.6
						c8.8-1,21.7,2.5,31.7,15.1c8.1,10,9.2,21,8.9,28.3c-0.4,7.9-2.8,13.6-2.9,13.7C164.9,134.9,164.7,135,164.3,135z M150.4,126.7
						l0.6,0.1c-0.1,1,0,1.7,0.6,2.5c2.5,3.1,10.1,4,12.2,4.3c0.6-1.4,2.2-6.4,2.6-12.9c0.4-7.2-0.8-17.6-8.6-27.4
						c-9.9-12.2-22.2-15.4-30.7-14.7c-3.9,0.4-6.4,1.7-6.8,2.8c-0.6,1.1-0.8,2.2-0.4,3.3c0.4,1.4,1.8,2.2,2.2,2.4
						c0.8,0,4.2,0.4,8.6,2.1c4.6,1.5,10.8,4.7,15.1,10.4c5.3,6.8,7.1,16,5,27.1H150.4z"/>
				</g>
			</g>
			<g>
				<path class="st4" d="M164.3,134.3c0,0-2.9,3.3-8.8,1.5c-5.8-1.8-7.2-5.8-5.1-9.2C152.5,123.2,168.6,127.5,164.3,134.3z"/>
			</g>
			<g class="st5">
				<path class="st6" d="M164.3,134.3c0,0-2.9,3.3-8.8,1.5c-5.8-1.8-7.2-5.8-5.1-9.2C152.5,123.2,168.6,127.5,164.3,134.3z"/>
			</g>
			<g>
				<path class="st6" d="M159,137.1c-1.1,0-2.2-0.1-3.6-0.6c-4-1.2-5.7-3.3-6.1-4.9c-0.6-1.7-0.4-3.6,0.6-5.3
					c0.8-1.3,2.8-1.5,4.4-1.4c3.9,0.1,9.4,2.2,11,5.1c0.8,1.4,0.8,3.2-0.3,4.7c0,0,0,0,0,0.1C164.9,134.9,162.8,137.1,159,137.1z
					 M153.9,126.1c-1.4,0-2.5,0.3-2.8,1c-0.8,1.4-1.1,2.8-0.4,4c0.6,1.7,2.5,3.3,5.3,4c5,1.5,7.6-1,7.9-1.2c0.6-1.1,0.8-2.2,0.1-3.3
					c-1.4-2.5-6.2-4.4-9.9-4.6C154,126.1,154,126.1,153.9,126.1z M164.3,134.3L164.3,134.3L164.3,134.3z"/>
			</g>
		</g>
		<g>
			<g>
				<path class="st18" d="M130.3,85c-0.1-0.3-0.1-0.7-0.1-1s0-0.7,0.1-1c0.1-0.3,0.3-0.6,0.4-0.8c0.1-0.1,0.4-0.4,0.8-0.4
					c-0.1,0.3-0.3,0.4-0.4,0.8c-0.1,0.4-0.3,0.4-0.3,0.8c-0.1,0.3-0.1,0.4-0.3,0.8C130.4,84.3,130.4,84.7,130.3,85z"/>
			</g>
			<g>
				<path class="st18" d="M132.2,86.1c-0.1-0.4,0-1,0-1.2c0-0.4,0.1-0.8,0.4-1.2c0.1-0.4,0.4-0.8,0.8-1.1c0.1,0,0.1-0.1,0.3-0.1
					c0.1,0,0.1-0.1,0.3-0.1c0.1,0,0.1-0.1,0.3-0.1c0.1,0,0.1,0,0.3-0.1c-0.3,0.3-0.6,0.7-0.8,1c-0.3,0.3-0.4,0.7-0.6,1
					c-0.1,0.3-0.3,0.6-0.4,1.1C132.4,85.3,132.2,85.7,132.2,86.1z"/>
			</g>
		</g>
		<g>
			<g>
				<path class="st18" d="M156.7,114.2c0.3-0.3,0.8-0.4,1.2-0.7c0.4-0.1,1-0.1,1.4-0.1s1,0.1,1.4,0.3c0.1,0,0.1,0.1,0.3,0.1
					c0.1,0,0.1,0.1,0.3,0.1c0.1,0,0.1,0.1,0.3,0.1c0.1,0.1,0.1,0.1,0.1,0.3c-0.4-0.1-1-0.3-1.2-0.3c-0.4-0.1-0.8-0.1-1.2-0.1
					c-0.4,0-0.8,0-1.2,0C157.6,114,157.2,114,156.7,114.2z"/>
			</g>
			<g>
				<path class="st18" d="M156.1,117.2c0.6-0.3,1.2-0.4,1.9-0.6c0.6-0.1,1.2-0.1,1.8,0c0.1,0,0.3,0,0.4,0.1c0.1,0,0.3,0.1,0.4,0.1
					c0.1,0,0.3,0.1,0.4,0.1l0.1,0.1l0.1,0.1c0.1,0.1,0.3,0.1,0.4,0.3s0.3,0.1,0.3,0.3l0.1,0.1l0.1,0.1c0.1,0.1,0.1,0.3,0.3,0.3
					c-0.6-0.3-1.1-0.7-1.7-0.8l-0.1-0.1h-0.1c-0.1,0-0.3-0.1-0.4-0.1s-0.3,0-0.4-0.1s-0.3,0-0.4-0.1c-0.6-0.1-1.2-0.1-1.9-0.1
					C157.4,117.2,156.7,117.2,156.1,117.2z"/>
			</g>
		</g>
	</g>
	<g>
		<g>
			<path class="st13" d="M137.2,112.1c4.7-2.5,6.1-0.1,6.7,4.2C140.4,116.5,137.5,115.6,137.2,112.1z"/>
		</g>
		<g>
			<path class="st14" d="M143.2,117.1c-2.1,0-3.6-0.4-4.9-1.5c-1-1-1.5-2.1-1.7-3.6c0-0.1,0.1-0.3,0.3-0.4c2.1-1.1,3.6-1.4,4.9-0.8
				c1.7,0.8,2.5,3.1,2.9,5.6c0,0.1,0,0.3-0.1,0.4s-0.1,0.1-0.3,0.1C143.9,117.1,143.6,117.1,143.2,117.1z M137.6,112.2
				c0.1,1.1,0.6,1.8,1.2,2.5c1.1,1,2.6,1.4,4.7,1.2c-0.4-1.8-1.1-3.7-2.4-4.4C140.4,111.2,139.2,111.4,137.6,112.2z"/>
		</g>
		<g>
			<path class="st15" d="M137.1,111.4c0.4-0.1,1.1-0.1,1.5,0s1,0.3,1.4,0.6c0.4,0.3,0.8,0.7,1.1,1c0.3,0.3,0.6,0.8,1,1.1
				c-0.8-0.6-1.5-1-2.4-1.3c-0.4-0.1-0.8-0.3-1.2-0.3c-0.4,0-0.8,0-1.1,0l0,0c-0.3,0-0.4-0.1-0.6-0.4
				C136.7,111.7,136.9,111.5,137.1,111.4z"/>
		</g>
	</g>
</g>
</svg>
