<?xml version="1.0" encoding="utf-8"?>
<!-- Generator: Adobe Illustrator 23.0.5, SVG Export Plug-In . SVG Version: 6.00 Build 0)  -->
<svg version="1.1" id="Layer_1" xmlns:v="https://vecta.io/nano"
	 xmlns="http://www.w3.org/2000/svg" xmlns:xlink="http://www.w3.org/1999/xlink" x="0px" y="0px" viewBox="0 0 240 240"
	 style="enable-background:new 0 0 240 240;" xml:space="preserve">
<style type="text/css">
	.st0{fill:#B9BFC9;}
	.st1{fill:url(#SVGID_1_);}
	.st2{fill:url(#SVGID_2_);}
	.st3{fill:#D7D9E2;}
	.st4{fill:#F3BA2F;}
	.st5{fill:url(#SVGID_3_);}
	.st6{fill:url(#SVGID_4_);}
	.st7{fill-rule:evenodd;clip-rule:evenodd;fill:#633001;}
	.st8{fill:#FEDC90;}
	.st9{fill-rule:evenodd;clip-rule:evenodd;fill:#D1884F;}
	.st10{fill:#633001;}
</style>
<g>
	<path class="st0" d="M120,0L0,120l60,60c33,33,60,60,60,60s27.1-27,60-60l60-60L120,0z M151.4,151.3
		c-17.2,17.2-31.3,31.3-31.4,31.3s-14.2-14.1-31.4-31.3L57.3,120l31.3-31.4L120,57.3l31.3,31.3l31.3,31.4L151.4,151.3z"/>
	<g>
		
			<linearGradient id="SVGID_1_" gradientUnits="userSpaceOnUse" x1="119.9" y1="-147" x2="119.9" y2="-78.8264" gradientTransform="matrix(1 0 0 1 0 315)">
			<stop  offset="0" style="stop-color:#9CB84C"/>
			<stop  offset="1" style="stop-color:#2AB572"/>
		</linearGradient>
		<path class="st1" d="M98.2,214.4c-11.9-11.9-21.7-21.8-21.7-21.8c0-0.2,24.5-24.6,24.6-24.6s4.3,4.2,9.5,9.3l9.3,9.3l9.3-9.3
			c5.1-5.1,9.4-9.3,9.5-9.3c0.2,0,24.6,24.5,24.6,24.6s-43.3,43.5-43.4,43.5C120,236.1,110.2,226.4,98.2,214.4z"/>
		
			<linearGradient id="SVGID_2_" gradientUnits="userSpaceOnUse" x1="120.1" y1="-242.7" x2="120.1" y2="-311.1" gradientTransform="matrix(1 0 0 1 0 315)">
			<stop  offset="0" style="stop-color:#9CB84C"/>
			<stop  offset="1" style="stop-color:#2AB572"/>
		</linearGradient>
		<path class="st2" d="M88.9,59.9c-6.8-6.8-12.3-12.4-12.3-12.5s9.8-9.9,21.7-21.9L120,3.9l21.8,21.8l21.8,21.8l-12.4,12.4
			l-12.4,12.4l-9.4-9.4l-9.4-9.4l-9.4,9.4l-9.4,9.4L88.9,59.9L88.9,59.9z"/>
	</g>
	<path class="st0" d="M103.2,136.8L86.5,120l16.8-16.8L120,86.5l16.7,16.8l16.8,16.8l-16.7,16.7c-9.2,9.2-16.7,16.7-16.8,16.7
		S112.4,146,103.2,136.8z"/>
</g>
<g>
	<path class="st0" d="M117.7,180c-13.1-0.5-25.5-5.2-35.8-13.6c-2.8-2.3-6-5.5-8.3-8.3c-6.4-7.9-10.8-17.1-12.6-27
		c-1.3-7.3-1.3-15.1,0-22.3c1.9-9.9,6.1-19.1,12.6-27c2.3-2.8,5.5-6,8.3-8.3c7.9-6.4,17.1-10.8,27-12.6c7.3-1.3,15.1-1.3,22.3,0
		c9.9,1.9,19.1,6.1,27,12.6c2.8,2.3,6,5.5,8.3,8.3c6.4,7.9,10.8,17.1,12.6,27c1.3,7.3,1.3,15.1,0,22.3c-1.9,9.9-6.1,19.1-12.6,27
		c-2.3,2.8-5.5,6-8.3,8.3C146.8,175.7,132.4,180.5,117.7,180z"/>
</g>
<g>
	<path class="st3" d="M117.7,180c-13.1-0.5-25.5-5.2-35.8-13.6c-2.8-2.3-6-5.5-8.3-8.3c-6.4-7.9-10.8-17.1-12.6-27
		c-1.3-7.3-1.3-15.1,0-22.3c1.9-9.9,6.1-19.1,12.6-27c2.3-2.8,5.5-6,8.3-8.3c7.9-6.4,17.1-10.8,27-12.6c7.3-1.3,15.1-1.3,22.3,0
		c9.9,1.9,19.1,6.1,27,12.6c2.8,2.3,6,5.5,8.3,8.3c6.4,7.9,10.8,17.1,12.6,27c1.3,7.3,1.3,15.1,0,22.3c-1.9,9.9-6.1,19.1-12.6,27
		c-2.3,2.8-5.5,6-8.3,8.3C146.8,175.7,132.4,180.5,117.7,180z M146.1,145.8l25.9-25.9L146,93.8l-25.9-25.9L94,94l-25.9,25.9
		L94,145.8c14.3,14.3,26.1,26.1,26.1,26.1S131.8,160.1,146.1,145.8z"/>
	<path class="st3" d="M106.4,133.4l-13.5-13.5l13.6-13.6l13.5-13.5l13.6,13.6l13.5,13.5l-13.6,13.6c-7.5,7.5-13.6,13.6-13.6,13.6
		S113.9,140.9,106.4,133.4z"/>
</g>
<g>
	<path class="st4" d="M117.7,180c-13.1-0.5-25.5-5.2-35.8-13.6c-2.8-2.3-6-5.5-8.3-8.3c-6.4-7.9-10.8-17.1-12.6-27
		c-1.3-7.3-1.3-15.1,0-22.3c1.9-9.9,6.1-19.1,12.6-27c2.3-2.8,5.5-6,8.3-8.3c7.9-6.4,17.1-10.8,27-12.6c7.3-1.3,15.1-1.3,22.3,0
		c9.9,1.9,19.1,6.1,27,12.6c2.8,2.3,6,5.5,8.3,8.3c6.4,7.9,10.8,17.1,12.6,27c1.3,7.3,1.3,15.1,0,22.3c-1.9,9.9-6.1,19.1-12.6,27
		c-2.3,2.8-5.5,6-8.3,8.3C146.8,175.7,132.4,180.5,117.7,180z M124.1,173.9c2.5-0.1,4.7-0.5,6.9-0.9c12.8-2.7,24.5-10,32.3-20.6
		c5.9-7.9,9.5-17.1,10.6-27c0.1-2,0.3-2.9,0.3-5.5c0-3.5-0.1-5.9-0.7-9.1c-2.3-13.6-9.8-25.9-20.8-34.2c-7.9-5.9-17.1-9.5-27-10.6
		c-2-0.1-2.9-0.3-5.5-0.3c-3.5,0-5.9,0.1-9.1,0.7c-13.8,2.4-26.1,9.9-34.3,21c-5.9,7.9-9.5,17.1-10.6,27c-0.1,2-0.3,2.9-0.3,5.5
		c0,3.5,0.1,5.9,0.7,9.1c2.3,13.6,9.8,25.9,20.8,34.2c7.9,5.9,17.1,9.5,27,10.6c0.7,0.1,1.6,0.1,3.3,0.3
		C118.7,174,123,174,124.1,173.9z"/>
</g>
<g>
	
		<linearGradient id="SVGID_3_" gradientUnits="userSpaceOnUse" x1="120.0668" y1="28.6297" x2="120.0668" y2="58.162" gradientTransform="matrix(1 0 0 1 0 112)">
		<stop  offset="0" style="stop-color:#9CB84C"/>
		<stop  offset="1" style="stop-color:#2AB572"/>
	</linearGradient>
	<path class="st5" d="M110.6,160.8c-5.2-5.2-9.4-9.5-9.4-9.5c0-0.1,10.6-10.7,10.7-10.7c0,0,1.9,1.9,4.1,4l4,4l4-4
		c2.3-2.3,4-4,4.1-4c0.1,0,10.7,10.6,10.7,10.7c0,0-18.7,18.8-18.8,18.8C120.1,170.1,115.8,166,110.6,160.8z"/>
	
		<linearGradient id="SVGID_4_" gradientUnits="userSpaceOnUse" x1="120.0668" y1="-12.8151" x2="120.0668" y2="-42.4402" gradientTransform="matrix(1 0 0 1 0 112)">
		<stop  offset="0" style="stop-color:#9CB84C"/>
		<stop  offset="1" style="stop-color:#2AB572"/>
	</linearGradient>
	<path class="st6" d="M106.6,93.8c-2.9-2.9-5.3-5.3-5.3-5.3s4.3-4.3,9.4-9.5l9.4-9.4l9.5,9.5l9.5,9.5l-5.3,5.3l-5.3,5.3l-4-4
		l-4.1-4.3l-4.1,4.1l-4,4L106.6,93.8L106.6,93.8z"/>
</g>
<path class="st7" d="M110.6,109.6c-0.4-2.4,1.5-4.7,3.9-4.7c2.1,0,3.9,1.7,3.9,4v4.9c0.5,0,1.1,0,1.6,0s1.1,0,1.6,0v-4.9
	c0-2.1,1.7-4,3.9-4c2.4,0,4.3,2.3,3.9,4.7l-1.1,5.7c3.6,1.6,6.4,4.4,6.4,7.9v2.1c0,2.9-1.9,5.3-4.5,6.9s-6.3,2.7-10.2,2.7
	s-7.5-0.9-10.2-2.7c-2.7-1.6-4.5-4-4.5-6.9v-2.1c0-3.5,2.7-6.3,6.4-7.9L110.6,109.6z M127,116l1.2-6.7c0.3-1.7-0.9-3.2-2.7-3.2
	c-1.5,0-2.7,1.2-2.7,2.8v6.3c-0.4,0-0.8-0.1-1.2-0.1c-0.5,0-1.1,0-1.6,0s-1.1,0-1.6,0c-0.4,0-0.8,0.1-1.2,0.1v-6.3
	c0-1.5-1.2-2.8-2.7-2.8c-1.7,0-2.9,1.6-2.7,3.2l1.2,6.8c-3.9,1.5-6.5,4.1-6.5,7.1v2.1c0,4.7,6,8.3,13.5,8.3s13.5-3.7,13.5-8.3v-2.1
	C133.6,120.1,131,117.5,127,116L127,116z"/>
<path class="st8" d="M133.6,125.4c0,4.7-6,8.3-13.5,8.3c-7.5,0-13.5-3.7-13.5-8.3v-2.1h27C133.6,123.2,133.6,125.4,133.6,125.4z"/>
<path class="st9" d="M111.8,109.3c-0.3-1.7,0.9-3.2,2.7-3.2c1.5,0,2.7,1.2,2.7,2.8v6.3c0.9-0.1,1.9-0.1,2.8-0.1s1.9,0,2.8,0.1v-6.3
	c0-1.5,1.2-2.8,2.7-2.8c1.7,0,2.9,1.6,2.7,3.2l-1.2,6.7c3.9,1.5,6.5,4.1,6.5,7.2c0,4.7-6,8.4-13.5,8.4s-13.5-3.7-13.5-8.4
	c0-3.1,2.7-5.6,6.5-7.1L111.8,109.3z"/>
<path class="st10" d="M116.3,122.6c0,1.2-0.7,2.3-1.5,2.3c-0.8,0-1.5-1.1-1.5-2.3s0.7-2.3,1.5-2.3
	C115.7,120.3,116.3,121.3,116.3,122.6z M126.6,122.6c0,1.2-0.7,2.3-1.5,2.3s-1.5-1.1-1.5-2.3s0.7-2.3,1.5-2.3
	S126.6,121.3,126.6,122.6z"/>
</svg>
