<?xml version="1.0" encoding="utf-8"?>
<!-- Generator: Adobe Illustrator 23.0.5, SVG Export Plug-In . SVG Version: 6.00 Build 0)  -->
<svg version="1.1" id="Layer_1" xmlns:v="https://vecta.io/nano"
	 xmlns="http://www.w3.org/2000/svg" xmlns:xlink="http://www.w3.org/1999/xlink" x="0px" y="0px" viewBox="0 0 240 240"
	 style="enable-background:new 0 0 240 240;" xml:space="preserve">
<style type="text/css">
	.st0{fill:#B9BFC9;}
	.st1{fill:url(#SVGID_1_);}
	.st2{fill:url(#SVGID_2_);}
	.st3{fill:#F0B90B;}
	.st4{fill:#FFFDFA;}
	.st5{fill:#50AF95;}
	.st6{fill-rule:evenodd;clip-rule:evenodd;fill:#FFFFFF;}
</style>
<g>
	<path class="st0" d="M120,0L0,120l60,60c33,33,60,60,60,60s27.1-27,60-60l60-60L120,0z M151.4,151.3
		c-17.2,17.2-31.3,31.3-31.4,31.3s-14.2-14.1-31.4-31.3L57.3,120l31.3-31.4L120,57.3l31.3,31.3l31.3,31.4L151.4,151.3z"/>
	<g>
		
			<linearGradient id="SVGID_1_" gradientUnits="userSpaceOnUse" x1="119.9" y1="163" x2="119.9" y2="94.8264" gradientTransform="matrix(1 0 0 -1 0 331)">
			<stop  offset="0" style="stop-color:#9CB84C"/>
			<stop  offset="1" style="stop-color:#2AB572"/>
		</linearGradient>
		<path class="st1" d="M98.2,214.4c-11.9-11.9-21.7-21.8-21.7-21.8c0-0.2,24.5-24.6,24.6-24.6s4.3,4.2,9.5,9.3l9.3,9.3l9.3-9.3
			c5.1-5.1,9.4-9.3,9.5-9.3c0.2,0,24.6,24.5,24.6,24.6s-43.3,43.5-43.4,43.5C120,236.1,110.2,226.4,98.2,214.4z"/>
		
			<linearGradient id="SVGID_2_" gradientUnits="userSpaceOnUse" x1="120.1" y1="258.7" x2="120.1" y2="327.1" gradientTransform="matrix(1 0 0 -1 0 331)">
			<stop  offset="0" style="stop-color:#9CB84C"/>
			<stop  offset="1" style="stop-color:#2AB572"/>
		</linearGradient>
		<path class="st2" d="M88.9,59.9c-6.8-6.8-12.3-12.4-12.3-12.5s9.8-9.9,21.7-21.9L120,3.9l21.8,21.8l21.8,21.8l-12.4,12.4
			l-12.4,12.4l-9.4-9.4l-9.4-9.4l-9.4,9.4l-9.4,9.4L88.9,59.9L88.9,59.9z"/>
	</g>
	<path class="st0" d="M103.2,136.8L86.5,120l16.8-16.8L120,86.5l16.7,16.8l16.8,16.8l-16.7,16.7c-9.2,9.2-16.7,16.7-16.8,16.7
		S112.4,146,103.2,136.8z"/>
</g>
<circle class="st3" cx="195" cy="120" r="45"/>
<path class="st4" d="M178.2,120l-6.9,6.9l-6.9-6.9l6.9-6.9L178.2,120z M195,103.2l11.9,11.9l6.9-6.9l-11.9-11.8l-6.9-6.9l-18.7,18.7
	l6.9,6.9L195,103.2z M218.7,113.1l-6.9,6.9l6.9,6.9l6.9-6.9L218.7,113.1z M195,136.8l-11.9-11.9l-6.9,6.9l18.7,18.7l18.8-18.8
	l-6.9-6.9L195,136.8z M195,126.9l6.9-6.9l-6.9-6.9l-6.9,6.9L195,126.9z"/>
<circle class="st5" cx="45" cy="120" r="45"/>
<path class="st6" d="M50.9,121.9L50.9,121.9c-0.3,0-2,0.1-5.7,0.1c-2.9,0-5.1-0.1-5.8-0.1l0,0c-11.4-0.4-19.9-2.5-19.9-4.8
	s8.5-4.3,19.9-4.8v7.8c0.8,0,2.8,0.3,5.8,0.3c3.5,0,5.3-0.1,5.7-0.3v-7.7c11.3,0.4,19.8,2.5,19.8,4.8
	C70.7,119.4,62.2,121.5,50.9,121.9L50.9,121.9L50.9,121.9z M50.9,111.4v-6.9h15.8V93.9H23.4v10.5h15.8v6.9
	c-12.9,0.6-22.7,3.2-22.7,6.2c0,3.1,9.7,5.7,22.7,6.2v22.3h11.4v-22.3c12.9-0.6,22.6-3.2,22.6-6.2C73.4,114.6,63.8,112.1,50.9,111.4
	L50.9,111.4L50.9,111.4z M50.9,111.4L50.9,111.4z"/>
</svg>
