<?xml version="1.0" encoding="utf-8"?>
<!-- Generator: Adobe Illustrator 23.0.5, SVG Export Plug-In . SVG Version: 6.00 Build 0)  -->
<svg version="1.1" id="Layer_1" xmlns:v="https://vecta.io/nano"
	 xmlns="http://www.w3.org/2000/svg" xmlns:xlink="http://www.w3.org/1999/xlink" x="0px" y="0px" viewBox="0 0 325 192.5"
	 style="enable-background:new 0 0 325 192.5;" xml:space="preserve">
<style type="text/css">
	.st0{fill:#B26E3B;}
	.st1{fill:#9B5E35;}
	.st2{fill:#306F54;}
	.st3{fill:#3F8968;}
	.st4{fill:#266046;}
	.st5{fill:#59A780;}
	.st6{fill:#AF5D20;}
	.st7{fill:#BAB4A6;}
	.st8{fill:#A59D88;}
	.st9{fill:#DD890E;}
	.st10{fill:#EDA024;}
	.st11{fill:#B76800;}
	.st12{fill:#222226;}
	.st13{fill:#EAAE28;}
	.st14{fill:#F3BA2F;}
	.st15{fill:#FFB03E;}
	.st16{fill:#DD7957;}
	.st17{fill:#F08D63;}
	.st18{fill:#AF2708;}
	.st19{fill:#9E1600;}
	.st20{fill:#380800;}
	.st21{fill:#701000;}
	.st22{fill:#3D3D3D;}
	.st23{fill:#6C6C6C;}
</style>
<g>
	<g>
		<g>
			<g>
				<g>
					<path class="st0" d="M310.2,157.7c3.6,1.8,6.2,3.8,8,5.8c2.3,2.6,3.1,5.3,2.7,8c-1.2,7.5-12.9,14.2-32,14.6
						c-31,0.6-167,9.4-232.8,1.7c-2.4-0.3-4.6-0.6-6.8-0.8c-57.1-7.3-31.4-11.9-31.4-11.9s-28-4.4-6.8-16.1
						c21.2-11.7,93.5-15.5,93.5-15.5s3-13.1,70.9-11.7c48.1,1,139.6,6,147.1,15.2c0.5,0.6,0.6,1.3,0.3,2
						C318,159.1,310.7,157.8,310.2,157.7z"/>
					<g>
						<g>
							<path class="st1" d="M321,171.5c-1.2,7.5-12.9,14.2-32,14.6c-31,0.6-167,9.4-232.8,1.7c-2.4-0.3-4.6-0.6-6.8-0.8
								c11.7-0.5,22.5-2,29.4-3.7c13.4-3.4-6.1-22.8,2.8-20.2c8.9,2.6,1.6,9.8,17,11.6c15.4,1.8,23.5,1.3,33.8,3.1
								c10.3,1.8,26.9,5.9,45.5,4.1c6.3-0.6,12.9-0.7,18.9-0.5c0.3-1.2,29.2-4.7,48.7-5.7c21.4-1,40,1,31.9-0.5
								c-8.1-1.5-16.4-1.3-9.1-2.3c7.3-1,7.7-1.8,23.3-1.3C301.6,171.8,313.8,172.4,321,171.5z"/>
							<path class="st1" d="M323,148.8c-5,10.2-12.3,9-12.7,8.9c3.6,1.8,6.2,3.8,8,5.8c-2.4-0.5-5.3-1-8.4-1.9
								c-9.3-2.6-31.1-5.4-23.5-5.9c7.5-0.5,16.6,0,11.5-1c-5.1-1-17.4-2.6-11.9-3.4c5.5-0.8,12.1,0.3,24.7-1.3
								c6.3-0.8,11-1.6,12-3.2C323.2,147.5,323.3,148.2,323,148.8z"/>
						</g>
						<path class="st1" d="M18.7,157c-0.4,0-8.4,2.6-7,5.1c1.4,2.5,8.3,1.8,8.3,1.8s-7.4,4.3,6.9,4.8C41.2,169.1,39,165,39,165
							s11.2,7.9,22.2,3.8s4-7,4-7s2.9,3.1,12,0.7c9.2-2.5,4-11.1-13.8-11C45.7,151.6,18.7,157,18.7,157z"/>
						<path class="st1" d="M254.1,169.1c0,0-1.8,0.4-2.4,1c-0.6,0.5,2.4,2.9,4.3,2.4c1.8-0.4,5.6-0.8,6.1-1.6
							c0.5-0.9-2.7-1.9-2.7-1.9L254.1,169.1z"/>
						<path class="st1" d="M251.3,142.5c-0.4,0-5.9,2.7-5.9,2.7s1,1.8,5.4,1.8c4.4,0,5.5-0.2,6.5-0.4c0.9-0.2,4.5-1.6,4.5-2.6
							c0.1-1,0.3-2.2,0.3-2.2S252.6,142.4,251.3,142.5z"/>
					</g>
				</g>
				<g>
					<g>
						<path class="st2" d="M71,151.8c-0.3,9-9.4,5.2-9.4,5.2s-3.4,6-11.4,5.2c-8-0.7-9.6-2.2-9.6-2.2s-9,8-19.1,0.4
							c0,0-4.1,3.5-5.8-2.2c-1.7-5.8,2.7-7.6,2.7-7.6s-3.1-12.1,0.9-17.7c0.7-1,1.4-1.7,2.1-2.1c3.4-2.2,6.6,0.5,6.6,0.5
							s0.1-8,3-10.1c0.2-0.2,0.5-0.3,0.7-0.4c2.5-1.2,4.7,1,4.7,1s2.4-12.1,12.7-11.2c10.3,0.9,11.7,15.5,11.7,15.5s2.1-0.9,4.4,0.4
							c1.1,0.6,2.2,1.7,3,3.5c0.2,0.5,0.4,1,0.5,1.6c1.2,5.2-3.2,9.6-3.2,9.6S71.3,142.8,71,151.8z"/>
						<path class="st3" d="M59,127.5c0.2,2.7-0.6,4-0.6,4c-1.5-8.1-10.5-6.8-10.5-6.8c2.7-4.3,6.1-2.6,6.1-2.6s1.2-9.9-7.1-8.8
							c-8.3,1.2-10.6,11.6-10.6,11.6c-1.3-2.7-3.1-3.9-4.5-4.4c2.5-1.2,4.7,1,4.7,1s2.4-12.1,12.7-11.2
							c10.3,0.9,11.7,15.5,11.7,15.5s2.1-0.9,4.4,0.4C61.6,126.3,59,127.5,59,127.5z"/>
						<path class="st4" d="M71,151.8c-0.3,9-9.4,5.2-9.4,5.2s-3.4,6-11.4,5.2c-8-0.7-9.6-2.2-9.6-2.2s-9,8-19.1,0.4
							c0,0-4.1,3.5-5.8-2.2c-1.7-5.8,2.7-7.6,2.7-7.6s-3.1-12.1,0.9-17.7c0.7-1,1.4-1.7,2.1-2.1c-1.2,3.9-2.1,9.9,0.6,14.4
							c4.4,7.2,9.8-2.5,9.8-2.5s2.1,8.1,8.3,8.4c4.9,0.3,7.6-4.5,8.5-6.5c-0.8,2.2-2.2,8,3.6,10.6c7.3,3.2,9.4-8.9,7.6-14.4
							c0,0,9.1-1.5,8.8-9.2c0-0.1,0-0.1,0-0.2c1.2,5.2-3.2,9.6-3.2,9.6S71.3,142.8,71,151.8z"/>
						<g>
							<path class="st5" d="M32.5,144.5c-4.5-0.7-4,6.2,0.6,6C37.6,150.3,34.8,144.9,32.5,144.5z"/>
							<path class="st5" d="M31.5,134.5c-2.8,0-1.9,3.5,0.6,2.8C34.5,136.5,32.6,134.5,31.5,134.5z"/>
							<path class="st5" d="M41,127.6c-2.8,0.9-3.4,6,1,6.9C46.4,135.4,45.2,126.3,41,127.6z"/>
							<path class="st5" d="M43.7,140.8c-2.4,0-2.4,6.2,0.4,5.6C47,145.8,47,140.8,43.7,140.8z"/>
							<path class="st5" d="M55,146.2c-4.1-1.7-6.8,6-2.3,7.6C57.3,155.5,60.3,148.4,55,146.2z"/>
							<path class="st5" d="M53.2,123.8c-2.8-0.4-2,4.7,1.1,4.3C57.4,127.7,55.6,124.2,53.2,123.8z"/>
						</g>
					</g>
				</g>
				<g>
					<g>
						<path class="st1" d="M190.2,135.3c0,0-9.3,0.9-10.7,4.3c-1.4,3.4,10.8,4,10.8,4s-8.4,9.9,10.9,8.9c19.3-1,14.5-3.1,14.5-3.1
							s10.4,3.4,20.3-0.1c9.9-3.5,3.7-4.6,3.7-4.6s15.6-2.7,0.5-6.1C225,135.2,199.8,132.1,190.2,135.3z"/>
						<path class="st2" d="M242.7,138.9c-0.5,8.6-9.2,4.6-9.2,4.6s-3.4,5.6-11.1,4.5c-7.6-1.1-9.1-2.6-9.1-2.6s-8.8,7.3-18.4-0.5
							c0,0-4.1,3.2-5.6-2.4c-1.5-5.6,2.8-7.2,2.8-7.2s-2.7-11.8,1.3-17c1.8-2.3,3.6-2.8,5.2-2.6c1.9,0.2,3.2,1.4,3.2,1.4
							s0.4-7.7,3.1-9.5c0.8-0.5,1.5-0.7,2.1-0.7c1.2,0,2.1,0.6,2.6,1c0.3,0.2,0.4,0.4,0.4,0.4s0.1-0.5,0.4-1.4
							c1.1-3,4.4-9.8,12.1-8.8c5.7,0.8,8.4,5.8,9.7,9.9c0.9,3,1.1,5.5,1.1,5.5s1.7-0.6,3.7,0.3c0.3,0.1,0.6,0.3,0.9,0.5
							c0.9,0.6,1.8,1.7,2.5,3.3c1.3,3,0.4,5.8-0.7,7.8c-1,1.7-2.2,2.8-2.2,2.8S243.2,130.4,242.7,138.9z"/>
						<path class="st3" d="M207.1,106.9c1.2,0,2.1,0.6,2.6,1c-1.5,1.8-2.2,3.4-2.2,3.4C207.4,109.8,207.2,108.3,207.1,106.9z"/>
						<path class="st3" d="M232.4,108.1c-2.1-1.8-4.8-3.5-8.4-4.7c-6.3-2.1-10.7,0.7-13.4,3.6c1.1-3,4.4-9.8,12.1-8.8
							C228.4,99,231.1,104,232.4,108.1z"/>
						<path class="st3" d="M238,114.4c0,0.8-0.1,1.2-0.1,1.2s-0.2-0.7-0.8-1.8C237.4,114,237.7,114.2,238,114.4z"/>
						<path class="st4" d="M242.7,138.9c-0.5,8.6-9.2,4.6-9.2,4.6s-3.4,5.6-11.1,4.5c-7.6-1.1-9.1-2.6-9.1-2.6s-8.8,7.3-18.4-0.5
							c0,0-4.1,3.2-5.6-2.4c-1.5-5.6,2.8-7.2,2.8-7.2s-2.7-11.8,1.3-17c1.8-2.3,3.6-2.8,5.2-2.6c-0.3,2.8-0.2,6.1,0.6,9.6
							c2.6,10.7,14.1-0.8,14.1-0.8s-0.6,6.5,7.2,6.9c7.8,0.4,10.3-14.5,10.3-14.5s3.2,7,8.9,8.7c-1,1.7-2.2,2.8-2.2,2.8
							S243.2,130.4,242.7,138.9z"/>
						<g>
							<path class="st5" d="M205.9,130.2c-4.3-0.9-4,5.7,0.4,5.8C210.6,136,208.1,130.7,205.9,130.2z"/>
							<path class="st5" d="M205.2,120.5c-2.7-0.1-1.9,3.3,0.5,2.7C208,122.6,206.3,120.6,205.2,120.5z"/>
							<path class="st5" d="M214.5,114.3c-2.7,0.7-3.4,5.6,0.8,6.7C219.5,122.1,218.5,113.3,214.5,114.3z"/>
							<path class="st5" d="M216.8,127.1c-2.3-0.1-2.5,5.8,0.3,5.4C219.8,132.1,219.9,127.3,216.8,127.1z"/>
							<path class="st5" d="M227.5,132.8c-3.9-1.8-6.7,5.4-2.4,7.2C229.4,141.9,232.5,135.2,227.5,132.8z"/>
							<path class="st5" d="M226.3,111.3c-2.7-0.5-2,4.4,1,4.2C230.3,115.2,228.6,111.8,226.3,111.3z"/>
						</g>
					</g>
				</g>
				<g>
					<g>
						<g>
							<path class="st6" d="M50.3,170.1c-0.3,0-5.3,1.7-4,1.9c1.3,0.2,4.3,2.1,8.3,1.4c4-0.7,7.2-1.2,7.2-2.2c0-1.1-6.4-1.1-7.2-1.2
								C53.9,169.8,50.3,170.1,50.3,170.1z"/>
							<path class="st7" d="M57.9,172.1c-1.3-0.1-2.8-0.3-5-0.3c-2.2,0-3.1,0.5-3.5-0.1c-0.3-0.3-0.6-1.4-0.7-2.3
								c-0.1-0.7-0.1-1.4,0.1-1.6c0.5-0.4,3.7-1.1,4.9-1.2c1.2-0.1,2-1.1,3.4-1.3c1.1-0.2,2.1,2,2.5,3c0.1,0.3,0.2,0.5,0.2,0.5
								C60.1,170.1,59.2,172.1,57.9,172.1z"/>
							<g>
								<path class="st8" d="M57.9,172.1c-1.3-0.1-2.8-0.3-5-0.3c-2.2,0-3.1,0.5-3.5-0.1c-0.3-0.3-0.6-1.4-0.7-2.3
									c0.5,0.3,1.3,0.6,2.3,0.4c1.8-0.3,3.4-0.7,3.6-0.7c0.1,0-1.4,1.4-1.4,1.4s1.8,0.8,2.4,0.1c0.7-0.7,0.5-2.3,0.9-2.4
									c0.4-0.1,1.1,1,1.8,0.8c0.4-0.1,0.9-0.4,1.4-0.6c0.1,0.3,0.2,0.5,0.2,0.5C60.1,170.1,59.2,172.1,57.9,172.1z"/>
							</g>
						</g>
					</g>
					<g>
						<g>
							<path class="st7" d="M262,168.5c-0.1,0.6-0.3,1.6-2.3,1.9c-2,0.3-2.9,0.4-3.5,0.3c-0.6-0.2-1.5-1.5-1.6-1.7
								c-0.1-0.1,0.5-0.8,0.6-1c0,0,0-0.1,0-0.1c0.2-0.2,1.1-1.2,2.5-1.3c1.4-0.1,2.1,0.3,2.9,0.5c0.5,0.1,0.9,0.4,1.2,0.7
								C262,168,262,168.2,262,168.5z"/>
							<g>
								<path class="st8" d="M262,168.5c-0.1,0.6-0.3,1.6-2.3,1.9c-2,0.3-2.9,0.4-3.5,0.3c-0.6-0.2-1.5-1.5-1.6-1.7
									c-0.1-0.1,0.5-0.8,0.6-1c0.3,0.2,0.5,0.3,0.7,0.5c0.5,0.3,2.8-0.1,2.8-0.1l-0.2,0.6c0,0,1.6-0.1,1.9-0.3
									c0.3-0.2,0.5-0.7,0.6-0.8c0.1,0,0.4-0.1,0.8-0.2C262,168,262,168.2,262,168.5z"/>
							</g>
						</g>
					</g>
					<g>
						<g>
							<g>
								<path class="st6" d="M287.2,142.7c-0.3,0-4.9,0.4-5.1,0.7c-0.3,0.2,5.1,2.6,6.1,2.3c1-0.3,3.4,0.7,3.4,0.7s-3.1,1-0.8,1.1
									c2.4,0.1,6.5,0.2,8.2,0.2c1.8,0,4.1,0.8,5.9,0.1c1.8-0.7,5-2.6,5.4-2.7c0,0,0.1,0,0.1,0c0.8-0.4,0.7-1.6-0.1-1.9
									c-2.3-0.9-6.2-2.3-7.5-2.3C301,140.8,287.2,142.7,287.2,142.7z"/>
								<path class="st7" d="M305.4,134.6c0,0-1.3,6-1.6,7c-0.3,1-6.3,2.2-6.3,2.2l-10.5-2.3c0,0-0.5-3.7-0.6-5.3c0-0.3,0-0.6,0-0.7
									c0.1-0.9,1-1.6,1-1.6s-0.7-1,0.2-2.1c0,0,0.1-0.1,0.1-0.1c1-1.1,4.5-3,7.1-4.3c2.7-1.2,3.8-1.2,4.6-0.8
									c0.5,0.3,1.9,1.4,3,2.4c0.6,0.5,1.2,1,1.5,1.1C304.7,130.5,305.4,134.6,305.4,134.6z"/>
								<g>
									<path class="st8" d="M294,130.2c0,0-2.4,1.5-3.4,1.3c-0.7-0.2-2.1,0.4-3,0.4c-0.9,1.1-0.2,2.1-0.2,2.1s3-1,4-1.4
										C292.4,132,294,130.2,294,130.2z"/>
								</g>
								<g>
									<path class="st8" d="M303.9,130.2c-0.3-0.1-0.9-0.6-1.5-1.1c-0.7,1.3-1.8,3.3-1.9,4.2c-0.1,1.3-2,2.1-2.4,2.4
										c-0.3,0.3-1,2-1.2,2.1c-0.2,0.2-2.3,1.2-3.3,2c-1.1,0.9-2,2-2,2s-2.1-3-3-3.7c-0.6-0.5-1.6-1.5-2.2-2
										c0.1,1.7,0.6,5.3,0.6,5.3l10.5,2.3c0,0,6.1-1.1,6.3-2.2c0.3-1,1.6-7,1.6-7S304.7,130.5,303.9,130.2z"/>
								</g>
							</g>
						</g>
						<g>
							<g>
								<path class="st7" d="M292.7,144.3c-1.3,0-2.8-0.2-5-0.2c-2.2,0-3.1,0.3-3.5,0c-0.3-0.2-0.6-0.8-0.7-1.3
									c-0.1-0.4-0.1-0.8,0.1-0.9c0.5-0.2,3.7-0.6,4.9-0.7c1.2,0,2-0.6,3.4-0.7c1.1-0.1,2.1,1.1,2.5,1.7c0.1,0.2,0.2,0.3,0.2,0.3
									C294.9,143.1,294,144.3,292.7,144.3z"/>
								<g>
									<path class="st8" d="M292.7,144.3c-1.3,0-2.8-0.2-5-0.2c-2.2,0-3.1,0.3-3.5,0c-0.3-0.2-0.6-0.8-0.7-1.3
										c0.5,0.2,1.3,0.3,2.3,0.2c1.8-0.2,3.4-0.4,3.6-0.4c0.1,0-1.4,0.8-1.4,0.8s1.8,0.4,2.4,0c0.7-0.4,0.5-1.3,0.9-1.4
										c0.4-0.1,1.1,0.6,1.8,0.5c0.4-0.1,0.9-0.2,1.4-0.4c0.1,0.2,0.2,0.3,0.2,0.3C294.9,143.1,294,144.3,292.7,144.3z"/>
								</g>
							</g>
						</g>
						<g>
							<g>
								<path class="st7" d="M298.6,144.1c-0.1,0.6-0.3,1.6-2.3,1.9c-2,0.3-2.9,0.4-3.5,0.3c-0.6-0.2-1.5-1.5-1.6-1.7
									c-0.1-0.1,0.5-0.8,0.6-1c0,0,0-0.1,0-0.1c0.2-0.2,1.1-1.2,2.5-1.3c1.4-0.1,2.1,0.3,2.9,0.5c0.5,0.1,0.9,0.4,1.2,0.7
									C298.6,143.6,298.7,143.8,298.6,144.1z"/>
								<g>
									<path class="st8" d="M298.6,144.1c-0.1,0.6-0.3,1.6-2.3,1.9c-2,0.3-2.9,0.4-3.5,0.3c-0.6-0.2-1.5-1.5-1.6-1.7
										c-0.1-0.1,0.5-0.8,0.6-1c0.3,0.2,0.5,0.3,0.7,0.5c0.5,0.3,2.8-0.1,2.8-0.1l-0.2,0.6c0,0,1.6-0.1,1.9-0.3
										c0.3-0.2,0.5-0.7,0.6-0.8c0.1,0,0.4-0.1,0.8-0.2C298.6,143.6,298.7,143.8,298.6,144.1z"/>
								</g>
							</g>
						</g>
						<g>
							<g>
								<path class="st7" d="M307.9,140.4c-0.1,1.7-0.4,2.8-0.9,3.5c-0.4,0.7-3.4,2.1-5.4,2.1c-2,0.1-3.6-1-3.6-1s-1.9-3.2-1.9-3.7
									c0,0,0-0.1,0-0.2c0.1-0.6,0.9-1.9,2-2.3c1.2-0.5,3-2.9,3.1-3c0.9-0.3,4.2,0.4,5.3,1.6c0.6,0.6,0.9,0.9,1.1,1.3
									C307.9,139.1,307.9,139.5,307.9,140.4z"/>
								<g>
									<path class="st8" d="M303.3,140c-1.6-0.1-3.1-0.1-3.1-0.1l1.7,1.6c0,0-3.1,1-4.2,0.5c-0.5-0.2-1.1-0.6-1.5-0.9
										c0,0.1,0,0.1,0,0.2c0,0.5,1.9,3.7,1.9,3.7s1.6,1.1,3.6,1c2-0.1,5-1.5,5.4-2.1c0.4-0.7,0.8-1.8,0.9-3.5c0-0.9,0-1.3-0.2-1.7
										c-0.1,0.1-0.1,0.1-0.1,0.1C307.5,138.9,305,140.1,303.3,140z"/>
								</g>
							</g>
						</g>
					</g>
					<g>
						<g>
							<path class="st6" d="M63.8,166.2c-0.3,0-2.7,1.7-2.7,1.7s4.6,1.5,6.8,1c2.1-0.5,5.5-2.3,5.5-3.1
								C73.4,165.1,69.3,165.3,63.8,166.2z"/>
							<path class="st7" d="M71.7,162.6c-0.1,1.7-0.4,2.8-0.9,3.5c-0.4,0.7-3.4,2.1-5.4,2.1c-2,0.1-3.6-1-3.6-1S60,164,60,163.5
								c0,0,0-0.1,0-0.2c0.1-0.6,0.9-1.9,2-2.3c1.2-0.5,3-2.9,3.1-3c0.9-0.3,4.2,0.4,5.3,1.6c0.6,0.6,0.9,0.9,1.1,1.3
								C71.7,161.3,71.7,161.7,71.7,162.6z"/>
							<g>
								<path class="st8" d="M67.1,162.2c-1.6-0.1-3.1-0.1-3.1-0.1l1.7,1.6c0,0-3.1,1-4.2,0.5c-0.5-0.2-1.1-0.6-1.5-0.9
									c0,0.1,0,0.1,0,0.2c0,0.5,1.9,3.7,1.9,3.7s1.6,1.1,3.6,1c2-0.1,5-1.5,5.4-2.1c0.4-0.7,0.8-1.8,0.9-3.5c0-0.9,0-1.3-0.2-1.7
									c-0.1,0.1-0.1,0.1-0.1,0.1C71.2,161.1,68.7,162.3,67.1,162.2z"/>
							</g>
						</g>
					</g>
					<g>
						<g>
							<path class="st7" d="M262.2,139c-0.1,1.7-0.4,2.8-0.9,3.5c-0.4,0.7-3.4,2.1-5.4,2.1c-2,0.1-3.6-1-3.6-1s-1.9-3.2-1.9-3.7
								c0,0,0-0.1,0-0.2c0.1-0.6,0.9-1.9,2-2.3c1.2-0.5,3-2.9,3.1-3c0.9-0.3,4.2,0.4,5.3,1.6c0.6,0.6,0.9,0.9,1.1,1.3
								C262.2,137.7,262.2,138.1,262.2,139z"/>
							<g>
								<path class="st8" d="M257.6,138.6c-1.6-0.1-3.1-0.1-3.1-0.1l1.7,1.6c0,0-3.1,1-4.2,0.5c-0.5-0.2-1.1-0.6-1.5-0.9
									c0,0.1,0,0.1,0,0.2c0,0.5,1.9,3.7,1.9,3.7s1.6,1.1,3.6,1c2-0.1,5-1.5,5.4-2.1c0.4-0.7,0.8-1.8,0.9-3.5c0-0.9,0-1.3-0.2-1.7
									c-0.1,0.1-0.1,0.1-0.1,0.1C261.7,137.5,259.2,138.7,257.6,138.6z"/>
							</g>
						</g>
					</g>
				</g>
			</g>
			<g>
				<g>
					<path class="st1" d="M172.1,165.1c-0.4-0.1-23,1.3-20.2,3.4c2.7,2.1,15.9,1.6,28.2,1.6c12.3,0,11.4,0,23.8,0s24.5-3.6,24.4-4
						c-0.1-0.4-1.8-1.4-14.8-1.3c-13.1,0.1-13.9,0.4-21,0.4C185.3,165.2,172.1,165.1,172.1,165.1z"/>
					<g>
						<path class="st9" d="M179.7,130.2c0,0-1.5-2.7-9.5-2.7c-8,0-9.8,1.1-9.8,1.1s-0.1,5.3,8.7,5.7
							C177.9,134.7,179.7,130.2,179.7,130.2z"/>
						<g>
							<path class="st9" d="M194.5,127.4c0,0,6.8-0.4,10.6,1.4c0,0-8.8,8.2-19.8,1.2C185.3,130.1,188.1,127.8,194.5,127.4z"/>
							<path class="st10" d="M209.9,164.5c0,0-13.6,2.6-17.5,2.7c-4,0.1-9.8,0.1-9.8,0.1s-0.6-1.3,0.3-2.6c0.5-0.8,1.6-1.6,3.7-2.1
								c3.6-0.9,6.7-4.4,8.4-6.7c0.9-1.2,1.4-2,1.4-2l-0.1-0.3l-10.9-23.6c0.3,0.1,6.8,2,13.7,0.8c2.1-0.4,4.2-1,6.1-2.1
								c0,0,3.6,27.2,3.7,28.1C208.9,157.8,209.9,164.5,209.9,164.5z"/>
							<path class="st9" d="M209.9,164.5c0,0-13.6,2.6-17.5,2.7c-4,0.1-9.8,0.1-9.8,0.1s-0.6-1.3,0.3-2.6c5-1.4,17.9-2.1,18.5-4.9
								c0.6-2.6-5.3-3.7-6.4-3.9c0.9-1.2,1.4-2,1.4-2l-0.1-0.3c1.8-0.4,6.1-1.8,7.1-5.1c0.9-3-2.4-12.4-4.4-17.7
								c2.1-0.4,4.2-1,6.1-2.1c0,0,3.6,27.2,3.7,28.1C208.9,157.8,209.9,164.5,209.9,164.5z"/>
						</g>
						<path class="st10" d="M177.9,167.4c-0.1,0.4-28.9,0-28.9,0s-0.4-1-0.1-2.1c0.3-1,1.2-2.1,3.6-2.6c3.2-0.7,7.1-3.4,9.5-5.3
							c1.3-1,2.2-1.8,2.3-1.9l0,0l-4-26.9c0,0,2.3,3,8.2,3.6c0.3,0,0.6,0.1,0.8,0.1c6.6,0.5,10.2-2.1,10.2-2.1s-2,23.3-2.1,25.1
							C177.4,157.2,178.1,167,177.9,167.4z"/>
						<path class="st9" d="M177.9,167.4c-0.1,0.4-28.9,0-28.9,0s-0.4-1-0.1-2.1c6.4-0.2,19.7-0.9,18.9-3.6c-0.7-2.4-3.9-3.7-5.8-4.3
							c1.3-1,2.2-1.8,2.3-1.9l0,0c0,0,6.7,3.9,6.5-6.3c-0.1-6.8-1.4-13.3-2.3-16.9c0.3,0,0.6,0.1,0.8,0.1c6.6,0.5,10.2-2.1,10.2-2.1
							s-2,23.3-2.1,25.1C177.4,157.2,178.1,167,177.9,167.4z"/>
					</g>
					<g>
						<path class="st11" d="M209.3,17.7c0,0-15.2,17.3-37.7,21.1c-22.6,3.8-35.9-2-35.9-2s13.7-12.3,36.6-16.9
							S209.3,17.7,209.3,17.7z"/>
						<path class="st12" d="M188.5,137.7c8.9-1.3,17-6.8,23.3-16c1.7-2.5,3.7-6.1,5-9c3.8-8.4,5.9-18.1,6.4-28.3
							c0.4-7.6-0.3-15.4-1.8-22.9c-2.1-9.9-5.8-19.2-10.7-26.8c-1.8-2.7-4.2-5.8-6.3-8c-5.8-6.1-12.5-10-19.3-11.4
							c-5.1-1.1-10.4-0.6-15.2,1.3c-6.6,2.5-12.5,7.5-17.4,14.5c-1.7,2.5-3.7,6.1-5,9c-3.8,8.4-5.9,18.1-6.4,28.3
							c-0.4,7.6,0.3,15.4,1.8,22.9c2.1,9.9,5.8,19.2,10.7,26.8c1.8,2.7,4.2,5.8,6.3,8C168.4,135.1,178.6,139.2,188.5,137.7z"/>
						<g>
							<path class="st13" d="M188.5,137.7c8.9-1.3,17-6.8,23.3-16c1.7-2.5,3.7-6.1,5-9c3.8-8.4,5.9-18.1,6.4-28.3
								c0.4-7.6-0.3-15.4-1.8-22.9c-2.1-9.9-5.8-19.2-10.7-26.8c-1.8-2.7-4.2-5.8-6.3-8c-5.8-6.1-12.5-10-19.3-11.4
								c-5.1-1.1-10.4-0.6-15.2,1.3c-6.6,2.5-12.5,7.5-17.4,14.5c-1.7,2.5-3.7,6.1-5,9c-3.8,8.4-5.9,18.1-6.4,28.3
								c-0.4,7.6,0.3,15.4,1.8,22.9c2.1,9.9,5.8,19.2,10.7,26.8c1.8,2.7,4.2,5.8,6.3,8C168.4,135.1,178.6,139.2,188.5,137.7z
								 M183.8,131.9c-3.4-0.1-6.2-0.7-9.2-1.9c-3.2-1.3-6.3-3.3-9.4-5.7c-8.2-7-14.6-18.2-17.9-31.3c-0.6-2.5-1.1-5.2-1.5-7.5
								c-0.3-2.2-0.4-2.8-0.6-5.7c-0.3-3.5-0.4-5-0.3-8c0.1-7.2,1.2-14.3,3.3-20.8c3.3-10.9,9.2-19.7,16.5-24.8
								c3.5-2.5,7.1-3.9,11.2-4.5c1-0.1,3.6-0.4,4.5-0.4c6.1,0.2,11.5,2.3,16.9,6.3c7.5,5.6,13.8,15,17.6,26.2
								c1.7,4.9,2.8,10,3.7,15.8c0.2,1.3,0.6,6.4,0.6,7.7c0.1,5.1-0.2,9.2-0.8,13.8c-0.6,4.7-1.8,9.3-3.3,13.5
								c-3.2,9-8.1,16.4-14.2,21.1c-3.6,2.8-7.8,4.9-12,5.7c-0.4,0.1-0.8,0.1-0.9,0.1C187.7,131.7,184.3,132,183.8,131.9z"/>
							<path class="st13" d="M199.6,98.7l13.8-24.7l-17.5-22.1l-17.5-22.1l-13.8,24.7l-13.8,24.7l17.5,22.1
								c9.7,12.2,17.5,22.1,17.5,22.1S192,112.3,199.6,98.7z M174.9,89.4L165.9,78l7.2-12.9l7.2-12.9l9.1,11.4l9.1,11.4L191.1,88
								c-4,7.1-7.2,12.9-7.2,12.9S179.9,95.8,174.9,89.4z"/>
						</g>
						<g>
							<path class="st14" d="M188.5,137.7c8.9-1.3,17-6.8,23.3-16c1.7-2.5,3.7-6.1,5-9c3.8-8.4,5.9-18.1,6.4-28.3
								c0.4-7.6-0.3-15.4-1.8-22.9c-2.1-9.9-5.8-19.2-10.7-26.8c-1.8-2.7-4.2-5.8-6.3-8c-5.8-6.1-12.5-10-19.3-11.4
								c-5.1-1.1-10.4-0.6-15.2,1.3c-6.6,2.5-12.5,7.5-17.4,14.5c-1.7,2.5-3.7,6.1-5,9c-3.8,8.4-5.9,18.1-6.4,28.3
								c-0.4,7.6,0.3,15.4,1.8,22.9c2.1,9.9,5.8,19.2,10.7,26.8c1.8,2.7,4.2,5.8,6.3,8C168.4,135.1,178.6,139.2,188.5,137.7z
								 M184.4,132c-9.3,0-18.2-5-25.4-14.1c-6.4-8.2-11-18.9-13-30.9c-1-5.5-1.3-11.3-1.1-17c0.4-9.7,2.6-19.2,6.2-26.9
								c0.1-0.4,0.3-0.8,0.3-0.8s0.1-0.1,0.1-0.3c0.1-0.1,0.1-0.3,0.1-0.4c0,0,0.1-0.3,0.3-0.4c0.1-0.3,0.3-0.4,0.3-0.4
								s0.3-0.5,0.5-1c0.3-0.5,0.5-1,0.5-1c0-0.1,0.1-0.4,0.1-0.3c0,0,0.4-0.6,0.4-0.8l0,0l0.4-0.5l0,0c0,0,0.3-0.4,0.5-0.8
								c1.7-2.5,3.7-4.9,5.6-6.8c0.6-0.6,1.8-1.6,2.3-2c0.1-0.1,0.3-0.2,0.4-0.4c0,0,0-0.1,0,0c0,0,0.3-0.1,0.6-0.4
								c1.5-1.1,3.7-2.5,5.2-3.2c0.1-0.1,0.3-0.1,0.3-0.2l0,0c0,0,1.5-0.5,1.5-0.6c0,0,0.1,0,0.3-0.1c0.1,0,0.3,0,0.3-0.1
								c0,0,0,0,0.1,0c0.1,0,0.1,0,0.1,0s0,0,0.1,0c0.1,0,0.1,0,0.1,0s0,0,0.1,0c0.1,0,0.1,0,0.1,0s0.1-0.1,0.3-0.1
								c0.1,0,0.3,0,0.3-0.1c0,0,0.1-0.1,0.4-0.1c0.1,0,0.3-0.1,0.3-0.1l0.1,0c0.1,0,0.1,0,0.3-0.1l0,0c0,0.1,0.4,0,0.4-0.1l0,0
								c0,0.1,0.4,0,0.4-0.1l0,0c0,0.1,0.5,0,0.5-0.1l0,0c0,0,0.3,0,0.5,0c0.6-0.1,3.1-0.3,3.8-0.3c0.3,0,0.5,0,0.5-0.1
								s0.1-0.1,0.1,0s0.5,0.1,0.5,0l0,0l0.1,0l0.1,0c0.1,0,0.1,0,0.1,0l0,0l0.1,0l0.1,0c0.1,0,0.1,0,0.1,0l0,0l0.1,0l0.1,0
								c0.1,0,0.1,0,0.3,0c0,0,0.1,0,0.4,0c0.1,0,0.4,0,0.4,0s0.1,0,0.3,0c0.1,0,0.3,0,0.3,0l0.1,0c0.1,0,0.1,0,0.1,0s0,0,0.1,0
								c0.1,0,0.1,0,0.1,0s0,0,0.1,0c0.1,0,0.1,0,0.1,0s0.1,0.1,0.3,0c0.1,0,0.3,0,0.3,0c0,0.1,1.5,0.3,1.5,0.3l0.1,0
								c0,0,0.4,0.1,0.7,0.3c1.7,0.6,3.5,1.3,5.2,2.1c0.4,0.1,0.6,0.3,0.7,0.3l0.1,0c0,0,0.1,0.1,0.2,0.3c0.5,0.3,2,1.2,2.6,1.6
								c2.3,1.6,4.5,3.5,6.6,5.7c0.5,0.5,0.7,0.7,0.7,0.7s0.1,0,0,0c-0.1,0.1,0.4,0.5,0.4,0.5s0.1,0,0,0c0,0,0,0.1,0.2,0.4
								c0.1,0.1,0.2,0.3,0.4,0.3c0.1,0,0.2,0.1,0.2,0.3c0,0,1.2,1.6,1.3,1.6c0,0,0.1,0,0.1,0.1c0,0.1,0.1,0.1,0,0.1
								c0,0.1,0.5,0.7,0.5,0.7c0.1,0,0.1,0,0,0c0,0,0,0.1,0.1,0.3c0.1,0.1,0.2,0.3,0.2,0.3s0.1,0,0,0c0,0,0,0.3,0.4,0.7
								c3.1,4.6,5.8,10.1,7.8,15.9c2.8,8.3,4.2,17.5,4.2,26.7c-0.1,10.5-2.1,20.5-6.1,29c-0.3,0.5-0.4,1-0.4,1l0,0
								c0,0-0.3,0.5-0.3,0.6l0,0l-0.4,0.8l-0.1,0.3c0,0-0.3,0.5-0.5,1c-0.3,0.5-0.5,1-0.5,1s-0.1,0.1-0.3,0.4
								c-0.1,0.3-0.3,0.4-0.3,0.4s-0.1,0.1-0.1,0.3c-0.1,0.1-0.1,0.3-0.1,0.3s-0.3,0.2-0.4,0.6c-5.5,8.3-12.8,13.6-20.9,15
								C187.7,131.7,185.3,131.9,184.4,132L184.4,132z"/>
							<path class="st14" d="M199.6,98.7l13.8-24.7l-17.5-22.1l-17.5-22.1l-13.8,24.7l-13.8,24.7l17.5,22.1
								c9.7,12.2,17.5,22.1,17.5,22.1S192,112.3,199.6,98.7z M179.3,113.7l-6.3-7.9l2.8-5.1c1.6-2.8,2.8-5.1,2.8-5.1
								s1.2,1.6,2.8,3.4c1.4,1.8,2.7,3.4,2.8,3.4c0.1,0,1.1-1.8,2.1-3.8c1.2-2.1,2.1-3.8,2.1-3.8s1.6,2,3.6,4.5l3.5,4.5l-4.9,8.8
								c-2.7,4.9-4.9,8.8-4.9,8.8C185.6,121.6,182.8,118,179.3,113.7z M174.9,89.4L165.9,78l7.2-12.9l7.2-12.9l9.1,11.4l9.1,11.4
								l-5,9c-2.8,4.9-5,9-4.9,9l0,0c0,0-1.1,1.8-2.2,3.8c-1.2,2.1-2.1,3.8-2.1,3.8S179.9,95.8,174.9,89.4z M182.8,53.9
								c-1.4-1.8-2.8-3.4-2.8-3.4s-1.1,1.8-2.2,3.8l-2.1,3.8l-3.5-4.5c-1.9-2.5-3.5-4.5-3.5-4.5s2.3-4,4.9-9l4.9-8.8l6.3,7.9L191,47
								l-2.8,5.1c-1.6,2.8-2.8,5.1-2.8,5.1C185.5,57.3,184.2,55.7,182.8,53.9z"/>
							<path class="st14" d="M186.9,82.7l3.8-6.9l-5-6.2l-4.8-6.2l-3.8,6.9l-3.8,6.9l4.8,6.2c2.7,3.4,4.8,6.2,5,6.2
								S184.8,86.5,186.9,82.7z"/>
						</g>
						<g>
							<path class="st15" d="M185.9,16.1c0,0-5.2-5.5-9.2-10.7c-4.1-5-9.4,3.8-12,4.6s-8.2-1.4-9.8,0.3S154.6,24,154.6,24
								S175.7,13.6,185.9,16.1z"/>
							<path class="st10" d="M209.3,17.7c0,0-25.2,0.8-41.5,4.7c-16.3,4-32.1,14.3-32.1,14.3s13.8-16.4,37.6-20.2
								S209.3,17.7,209.3,17.7z"/>
						</g>
					</g>
					<g>
						<g>
							<path class="st16" d="M157.8,82c-2.8,0.3-4,4.4-4.5,8.8c-0.4,4.4,4.2,4.9,6.1,5.2c1.9,0.3,4.2-2.3,3.8-4.2
								c-0.4-1.9,1.6-5.7-1.5-9C159.9,80.8,157.8,82,157.8,82z"/>
						</g>
					</g>
					<g>
						<path class="st17" d="M202.1,87.8c0,0,0,1-0.4,2.2c0,0,0,0,0,0c0,0.1-0.1,0.3-0.1,0.4c-0.3,1.2-0.9,2.6-1.8,3.7
							c-0.7,0.8-1.3,1-1.9,0.9c-0.4,0.4-1.1,0.8-1.8,1c-1.2,0.3-1.3,0-1.3,0s-1,1.1-2.2,1.5c-1.2,0.4-2-0.2-2-0.2s-2,1.2-3.3,0.5
							c-1.3-0.6-2.7-5.4-2.8-6.3c0-0.2,0-0.6,0.2-1.1c0.5-1.9,2.1-5.4,3.5-6.1c1.7-0.8,8.3-1.8,8.3-1.8
							C199.9,81.8,201.9,83.9,202.1,87.8z"/>
						<path class="st16" d="M201.6,90.5c-0.3,1.2-0.9,2.6-1.8,3.7c-0.7,0.8-1.3,1-1.9,0.9c-0.4,0.4-1.1,0.8-1.8,1
							c-1.2,0.3-1.3,0-1.3,0s-1,1.1-2.2,1.5c-1.2,0.4-2-0.2-2-0.2s-2,1.2-3.3,0.5c-1.3-0.6-2.7-5.4-2.8-6.3c0-0.2,0-0.6,0.2-1.1
							c0.1,0.2,0.3,0.4,0.5,0.6c1.6,1.3,0.8-1.5,2.9-2.1c2.1-0.7,3.1,2.6,2.8,4c-0.4,1.4-2.6,2.5-2.2,3.2c0.4,0.8,2.1,0,2.4-0.5
							c0.3-0.4,1-3.4,1.1-3.8c0,0.4-0.4,3.4,0.2,3.9c0.6,0.5,2.2-0.2,2.9-2.8c0.7-2.7,0.6-1,0.6,0.9c0,1.9,1.6,1.4,2.4-1.3
							c0.9-2.7,0.7-1.1,0.5,0.9C198.6,95.1,200.5,92.9,201.6,90.5z"/>
						<path class="st17" d="M202.1,87.8c0,0.8-0.1,1.5-0.4,2.2C202,88.7,202.1,87.8,202.1,87.8z"/>
					</g>
					<g>
						<g>
							<path class="st18" d="M161.6,88.5l-4.7,1.6l-13.3,31.4l-5,1.4c0,0-0.3,4.5,0.1,4.4c0.4-0.1,7.2-2.2,7.2-2.2l13.4-31.6
								l4.5-1.8C163.8,91.7,164.4,89.4,161.6,88.5z"/>
							<g>
								<path class="st18" d="M190.6,93.3l-5.4,2.2l-15.8,37.4c0,0-8,2.5-8.5,2.6c-0.5,0.1-0.1-5.2-0.1-5.2l5.9-1.7l3-7l12.8-30.1
									l5.2-1.8l0.4-0.1C191.2,90.6,190.6,93.3,190.6,93.3z"/>
								<path class="st19" d="M190.6,93.3l-5.4,2.2l-15.8,37.4c0,0-8,2.5-8.5,2.6c-0.5,0.1-0.1-5.2-0.1-5.2l5.9-1.7l3-7
									c1.4-0.4,3.4-1.2,4.1-1.9c1-1.2,9.7-25,10.1-25.4c0.4-0.4,3.7-1.2,4.3-2.4c0.4-0.7-0.1-1.6-0.4-2.2l0.4-0.1
									C191.2,90.6,190.6,93.3,190.6,93.3z"/>
							</g>
						</g>
						<g>
							<g>
								<polygon class="st20" points="82.1,114.6 139.3,94.3 139.8,127.6 98.2,139.2 								"/>
								<polygon class="st20" points="174.3,101.8 139.3,94.3 139.8,127.6 163.5,135.2 								"/>
							</g>
							<g>
								<g>
									<path class="st12" d="M151.5,118.6c-3.9-0.2-7.7-1.6-10.7-4.1c-0.8-0.7-1.8-1.7-2.5-2.5c-1.9-2.3-3.2-5.1-3.8-8.1
										c-0.4-2.2-0.4-4.5,0-6.7c0.6-3,1.9-5.7,3.8-8.1c0.7-0.8,1.7-1.8,2.5-2.5c2.3-1.9,5.1-3.2,8.1-3.8c2.2-0.4,4.5-0.4,6.7,0
										c3,0.6,5.7,1.9,8.1,3.8c0.8,0.7,1.8,1.7,2.5,2.5c1.9,2.3,3.2,5.1,3.8,8.1c0.4,2.2,0.4,4.5,0,6.7c-0.6,3-1.9,5.7-3.8,8.1
										c-0.7,0.8-1.7,1.8-2.5,2.5C160.2,117.3,155.9,118.8,151.5,118.6z"/>
									<g>
										<path class="st13" d="M151.5,118.6c-3.9-0.2-7.7-1.6-10.7-4.1c-0.8-0.7-1.8-1.7-2.5-2.5c-1.9-2.3-3.2-5.1-3.8-8.1
											c-0.4-2.2-0.4-4.5,0-6.7c0.6-3,1.9-5.7,3.8-8.1c0.7-0.8,1.7-1.8,2.5-2.5c2.3-1.9,5.1-3.2,8.1-3.8c2.2-0.4,4.5-0.4,6.7,0
											c3,0.6,5.7,1.9,8.1,3.8c0.8,0.7,1.8,1.7,2.5,2.5c1.9,2.3,3.2,5.1,3.8,8.1c0.4,2.2,0.4,4.5,0,6.7c-0.6,3-1.9,5.7-3.8,8.1
											c-0.7,0.8-1.7,1.8-2.5,2.5C160.2,117.3,155.9,118.8,151.5,118.6z M153.3,116.8c1.5-0.1,2.7-0.4,4-0.8
											c1.4-0.5,2.7-1.1,3.9-1.9c3.4-2.2,5.8-5.7,6.7-9.6c0.2-0.7,0.3-1.5,0.4-2.2c0.1-0.6,0.1-0.8,0.1-1.7c0-1,0-1.5-0.2-2.3
											c-0.3-2.1-1-4.1-2.1-6c-1.8-3.1-4.7-5.5-8.1-6.8c-1.6-0.6-3.2-1-5-1.1c-0.4,0-1.6,0-2,0c-2.6,0.2-5,0.9-7.2,2.3
											c-3.1,1.8-5.5,4.7-6.8,8.1c-0.6,1.5-0.9,3-1,4.7c0,0.4,0,1.9,0,2.3c0.1,1.5,0.4,2.7,0.8,4c0.5,1.4,1.1,2.7,1.9,3.9
											c1.7,2.6,4.1,4.6,6.9,5.8c1.7,0.8,3.6,1.2,5.4,1.3c0.2,0,0.3,0,0.4,0C151.6,116.8,153.1,116.8,153.3,116.8z"/>
										<path class="st13" d="M145.3,107.5l-6.9-6.9l6.9-6.9l6.9-6.9l6.9,6.9l6.9,6.9l-6.9,6.9c-3.8,3.8-6.9,6.9-6.9,6.9
											S149.1,111.3,145.3,107.5z M155.7,104.2l3.6-3.6l-3.6-3.6l-3.6-3.6l-3.6,3.6l-3.6,3.6l3.6,3.6c2,2,3.6,3.6,3.6,3.6
											S153.8,106.2,155.7,104.2z"/>
									</g>
									<g>
										<path class="st14" d="M151.5,118.6c-3.9-0.2-7.7-1.6-10.7-4.1c-0.8-0.7-1.8-1.7-2.5-2.5c-1.9-2.3-3.2-5.1-3.8-8.1
											c-0.4-2.2-0.4-4.5,0-6.7c0.6-3,1.9-5.7,3.8-8.1c0.7-0.8,1.7-1.8,2.5-2.5c2.3-1.9,5.1-3.2,8.1-3.8c2.2-0.4,4.5-0.4,6.7,0
											c3,0.6,5.7,1.9,8.1,3.8c0.8,0.7,1.8,1.7,2.5,2.5c1.9,2.3,3.2,5.1,3.8,8.1c0.4,2.2,0.4,4.5,0,6.7c-0.6,3-1.9,5.7-3.8,8.1
											c-0.7,0.8-1.7,1.8-2.5,2.5C160.2,117.3,155.9,118.8,151.5,118.6z M153,116.8c4-0.2,7.8-1.9,10.6-4.7
											c2.5-2.5,4.1-5.8,4.6-9.3c0.2-1.7,0.2-3.4-0.1-5c-0.5-2.8-1.8-5.5-3.6-7.7c-0.1-0.1-0.2-0.2-0.2-0.2c0,0,0,0-0.1-0.1
											s-0.1-0.1-0.1-0.1c0,0,0-0.1-0.1-0.1c-0.1-0.1-0.1-0.1-0.1-0.1c0,0-0.1-0.1-0.3-0.3c-0.2-0.1-0.3-0.3-0.3-0.3
											c0,0-0.1-0.1-0.1-0.1s-0.2-0.2-0.2-0.2c0,0,0,0,0,0c0,0-0.2-0.1-0.2-0.2c0,0,0,0,0,0c0,0-0.1-0.1-0.3-0.2
											c-0.8-0.7-1.7-1.3-2.7-1.8c-0.3-0.2-0.9-0.4-1.1-0.5c-0.1,0-0.1-0.1-0.2-0.1c0,0,0,0,0,0s-0.1,0-0.3-0.1
											c-0.7-0.3-1.7-0.6-2.4-0.8c-0.1,0-0.1,0-0.1,0c0,0,0,0,0,0c0,0-0.7-0.1-0.7-0.1c0,0,0,0-0.1,0c0,0-0.1,0-0.1,0
											c0,0,0,0-0.1,0c0,0-0.1,0-0.1,0s0,0-0.1,0c0,0-0.1,0-0.1,0s0,0-0.1,0c0,0-0.1,0-0.1,0c0,0-0.1,0-0.1,0c-0.1,0-0.1,0-0.1,0
											c0,0-0.1,0-0.1,0c-0.1,0-0.1,0-0.1,0c0,0,0,0-0.1,0c-0.1,0-0.1,0-0.1,0c0,0,0,0,0,0c0,0-0.1,0-0.2,0c0,0,0,0,0,0
											c0,0-0.2,0-0.2,0c0,0,0,0,0,0c0,0-0.2,0-0.2,0c0,0,0,0,0,0c0,0-0.1,0-0.2,0c-0.3,0-1.4,0-1.7,0c-0.1,0-0.2,0-0.2,0
											c0,0-0.1,0-0.1,0c0,0-0.2,0-0.2,0c0,0,0,0,0,0c0,0,0,0,0,0s0,0-0.1,0s-0.1,0-0.1,0c0,0,0,0,0,0s0,0,0,0s0,0-0.1,0
											c0,0-0.1,0-0.1,0s0,0,0,0s0,0,0,0c0,0,0,0-0.1,0c-0.1,0-0.1,0-0.1,0c0,0-0.1,0-0.1,0c-0.1,0-0.1,0-0.1,0c0,0-0.1,0-0.1,0
											s-0.1,0-0.1,0c0,0,0,0-0.1,0c0,0-0.1,0-0.1,0c0,0,0,0-0.1,0c0,0-0.1,0-0.1,0s0,0,0,0c0,0-0.1,0-0.1,0c0,0,0,0-0.1,0
											c0,0-0.1,0-0.1,0c0,0-0.6,0.1-0.7,0.1c0,0,0,0,0,0c0,0-0.2,0.1-0.3,0.1c-0.8,0.2-1.5,0.4-2.2,0.7
											c-0.2,0.1-0.3,0.1-0.3,0.1c0,0,0,0,0,0s0,0-0.1,0.1c-0.2,0.1-0.8,0.4-1.1,0.5c-1,0.5-1.9,1.1-2.7,1.8
											c-0.2,0.2-0.3,0.2-0.3,0.2c0,0,0,0,0,0c0,0-0.1,0.2-0.2,0.2c0,0,0,0,0,0c0,0,0,0-0.1,0.1c-0.1,0.1-0.1,0.1-0.1,0.1
											c0,0-0.1,0.1-0.1,0.1c0,0-0.5,0.5-0.5,0.5c0,0,0,0-0.1,0c0,0,0,0,0,0c0,0-0.2,0.2-0.2,0.2c0,0,0,0,0,0c0,0,0,0,0,0.1
											c0,0-0.1,0.1-0.1,0.1c0,0,0,0,0,0c0,0,0,0.1-0.1,0.2c-1.2,1.4-2.2,3.1-2.9,4.8c-0.9,2.5-1.2,5.2-0.9,7.9
											c0.4,3.1,1.7,5.9,3.7,8.3c0.1,0.1,0.2,0.3,0.2,0.3c0,0,0,0,0,0c0,0,0.2,0.1,0.2,0.2c0,0,0,0,0,0c0,0,0.2,0.2,0.2,0.2
											c0,0,0.1,0.1,0.1,0.1c0,0,0.1,0.1,0.3,0.3c0.1,0.2,0.3,0.3,0.3,0.3c0,0,0.1,0.1,0.1,0.1c0.1,0.1,0.1,0.1,0.1,0.1
											c0,0,0,0,0.1,0.1c0,0,0.1,0.1,0.1,0.1c0,0,0.1,0.1,0.2,0.2c2.7,2.3,6.1,3.7,9.6,3.9C151.6,116.8,152.7,116.8,153,116.8
											L153,116.8z"/>
										<path class="st14" d="M145.3,107.5l-6.9-6.9l6.9-6.9l6.9-6.9l6.9,6.9l6.9,6.9l-6.9,6.9c-3.8,3.8-6.9,6.9-6.9,6.9
											S149.1,111.3,145.3,107.5z M154.6,111.4l2.5-2.5l-1.4-1.4c-0.8-0.8-1.4-1.4-1.4-1.4s-0.5,0.5-1.1,1.1s-1.1,1.1-1.1,1.1
											s-0.5-0.5-1.1-1.1s-1.1-1.1-1.1-1.1s-0.6,0.6-1.4,1.4l-1.4,1.4l2.5,2.5c1.4,1.4,2.5,2.5,2.5,2.5S153.3,112.7,154.6,111.4z
											 M155.7,104.2l3.6-3.6l-3.6-3.6l-3.6-3.6l-3.6,3.6l-3.6,3.6l2.5,2.5c1.4,1.4,2.5,2.5,2.5,2.5s0,0,0,0s0.5,0.5,1.1,1.1
											c0.6,0.6,1.1,1.1,1.1,1.1S153.8,106.2,155.7,104.2z M151.1,94c0.6-0.6,1.1-1.1,1.1-1.1s0.5,0.5,1.1,1.1l1.1,1.1l1.4-1.4
											c0.8-0.8,1.4-1.4,1.4-1.4c0,0-1.1-1.1-2.5-2.5l-2.5-2.5l-2.5,2.5l-2.5,2.5l1.4,1.4c0.8,0.8,1.4,1.4,1.4,1.4
											S150.5,94.6,151.1,94z"/>
										<path class="st14" d="M150.2,102.5l-1.9-1.9l1.9-1.9l1.9-1.9l1.9,1.9l1.9,1.9l-1.9,1.9c-1.1,1.1-1.9,1.9-1.9,1.9
											S151.3,103.6,150.2,102.5z"/>
									</g>
								</g>
								<g>
									<path class="st12" d="M140.8,121.9c-3.9-0.2-7.7-1.6-10.7-4.1c-0.8-0.7-1.8-1.7-2.5-2.5c-1.9-2.3-3.2-5.1-3.8-8.1
										c-0.4-2.2-0.4-4.5,0-6.7c0.6-3,1.9-5.7,3.8-8.1c0.7-0.8,1.7-1.8,2.5-2.5c2.3-1.9,5.1-3.2,8.1-3.8c2.2-0.4,4.5-0.4,6.7,0
										c3,0.6,5.7,1.9,8.1,3.8c0.8,0.7,1.8,1.7,2.5,2.5c1.9,2.3,3.2,5.1,3.8,8.1c0.4,2.2,0.4,4.5,0,6.7c-0.6,3-1.9,5.7-3.8,8.1
										c-0.7,0.8-1.7,1.8-2.5,2.5C149.5,120.6,145.2,122.1,140.8,121.9z"/>
									<g>
										<path class="st13" d="M140.8,121.9c-3.9-0.2-7.7-1.6-10.7-4.1c-0.8-0.7-1.8-1.7-2.5-2.5c-1.9-2.3-3.2-5.1-3.8-8.1
											c-0.4-2.2-0.4-4.5,0-6.7c0.6-3,1.9-5.7,3.8-8.1c0.7-0.8,1.7-1.8,2.5-2.5c2.3-1.9,5.1-3.2,8.1-3.8c2.2-0.4,4.5-0.4,6.7,0
											c3,0.6,5.7,1.9,8.1,3.8c0.8,0.7,1.8,1.7,2.5,2.5c1.9,2.3,3.2,5.1,3.8,8.1c0.4,2.2,0.4,4.5,0,6.7c-0.6,3-1.9,5.7-3.8,8.1
											c-0.7,0.8-1.7,1.8-2.5,2.5C149.5,120.6,145.2,122.1,140.8,121.9z M142.7,120.1c1.5-0.1,2.7-0.4,4-0.8
											c1.4-0.5,2.7-1.1,3.9-1.9c3.4-2.2,5.8-5.7,6.7-9.6c0.2-0.7,0.3-1.5,0.4-2.2c0.1-0.6,0.1-0.8,0.1-1.7c0-1,0-1.5-0.2-2.3
											c-0.3-2.1-1-4.1-2.1-6c-1.8-3.1-4.7-5.5-8.1-6.8c-1.6-0.6-3.2-1-5-1.1c-0.4,0-1.6,0-2,0c-2.6,0.2-5,0.9-7.2,2.3
											c-3.1,1.8-5.5,4.7-6.8,8.1c-0.6,1.5-0.9,3-1,4.7c0,0.4,0,1.9,0,2.3c0.1,1.5,0.4,2.7,0.8,4c0.5,1.4,1.1,2.7,1.9,3.9
											c1.7,2.6,4.1,4.6,6.9,5.8c1.7,0.8,3.6,1.2,5.4,1.3c0.2,0,0.3,0,0.4,0C140.9,120.1,142.4,120.1,142.7,120.1z"/>
										<path class="st13" d="M134.6,110.8l-6.9-6.9l6.9-6.9l6.9-6.9l6.9,6.9l6.9,6.9l-6.9,6.9c-3.8,3.8-6.9,6.9-6.9,6.9
											S138.4,114.6,134.6,110.8z M145.1,107.5l3.6-3.6l-3.6-3.6l-3.6-3.6l-3.6,3.6l-3.6,3.6l3.6,3.6c2,2,3.6,3.6,3.6,3.6
											S143.1,109.4,145.1,107.5z"/>
									</g>
									<g>
										<path class="st14" d="M140.8,121.9c-3.9-0.2-7.7-1.6-10.7-4.1c-0.8-0.7-1.8-1.7-2.5-2.5c-1.9-2.3-3.2-5.1-3.8-8.1
											c-0.4-2.2-0.4-4.5,0-6.7c0.6-3,1.9-5.7,3.8-8.1c0.7-0.8,1.7-1.8,2.5-2.5c2.3-1.9,5.1-3.2,8.1-3.8c2.2-0.4,4.5-0.4,6.7,0
											c3,0.6,5.7,1.9,8.1,3.8c0.8,0.7,1.8,1.7,2.5,2.5c1.9,2.3,3.2,5.1,3.8,8.1c0.4,2.2,0.4,4.5,0,6.7c-0.6,3-1.9,5.7-3.8,8.1
											c-0.7,0.8-1.7,1.8-2.5,2.5C149.5,120.6,145.2,122.1,140.8,121.9z M142.4,120.1c4-0.2,7.8-1.9,10.6-4.7
											c2.5-2.5,4.1-5.8,4.6-9.3c0.2-1.7,0.2-3.4-0.1-5c-0.5-2.8-1.8-5.5-3.6-7.7c-0.1-0.1-0.2-0.2-0.2-0.2c0,0,0,0-0.1-0.1
											s-0.1-0.1-0.1-0.1c0,0,0-0.1-0.1-0.1c-0.1-0.1-0.1-0.1-0.1-0.1c0,0-0.1-0.1-0.3-0.3c-0.2-0.1-0.3-0.3-0.3-0.3
											c0,0-0.1-0.1-0.1-0.1s-0.2-0.2-0.2-0.2c0,0,0,0,0,0c0,0-0.2-0.1-0.2-0.2c0,0,0,0,0,0c0,0-0.1-0.1-0.3-0.2
											c-0.8-0.7-1.7-1.3-2.7-1.8c-0.3-0.2-0.9-0.4-1.1-0.5c-0.1,0-0.1-0.1-0.2-0.1c0,0,0,0,0,0s-0.1,0-0.3-0.1
											c-0.7-0.3-1.7-0.6-2.4-0.8c-0.1,0-0.1,0-0.1,0c0,0,0,0,0,0c0,0-0.7-0.1-0.7-0.1c0,0,0,0-0.1,0c0,0-0.1,0-0.1,0
											c0,0,0,0-0.1,0c0,0-0.1,0-0.1,0s0,0-0.1,0c0,0-0.1,0-0.1,0s0,0-0.1,0s-0.1,0-0.1,0c0,0-0.1,0-0.1,0c-0.1,0-0.1,0-0.1,0
											c0,0-0.1,0-0.1,0c-0.1,0-0.1,0-0.1,0c0,0,0,0-0.1,0c-0.1,0-0.1,0-0.1,0c0,0,0,0,0,0c0,0-0.1,0-0.2,0c0,0,0,0,0,0
											c0,0-0.2,0-0.2,0c0,0,0,0,0,0c0,0-0.2,0-0.2,0c0,0,0,0,0,0c0,0-0.1,0-0.2,0c-0.3,0-1.4,0-1.7,0c-0.1,0-0.2,0-0.2,0
											c0,0-0.1,0-0.1,0c0,0-0.2,0-0.2,0c0,0,0,0,0,0s0,0,0,0s0,0-0.1,0c0,0-0.1,0-0.1,0c0,0,0,0,0,0s0,0,0,0s0,0-0.1,0
											s-0.1,0-0.1,0s0,0,0,0s0,0,0,0c0,0,0,0-0.1,0c-0.1,0-0.1,0-0.1,0c0,0-0.1,0-0.1,0c-0.1,0-0.1,0-0.1,0c0,0-0.1,0-0.1,0
											c-0.1,0-0.1,0-0.1,0c0,0,0,0-0.1,0c0,0-0.1,0-0.1,0c0,0,0,0-0.1,0c0,0-0.1,0-0.1,0s0,0,0,0c0,0-0.1,0-0.1,0c0,0,0,0-0.1,0
											c0,0-0.1,0-0.1,0c0,0-0.6,0.1-0.7,0.1c0,0,0,0,0,0c0,0-0.2,0.1-0.3,0.1c-0.8,0.2-1.5,0.4-2.2,0.7C135.1,89,135,89,135,89
											c0,0,0,0,0,0s0,0-0.1,0.1c-0.2,0.1-0.8,0.4-1.1,0.5c-1,0.5-1.9,1.1-2.7,1.8c-0.2,0.2-0.3,0.2-0.3,0.2c0,0,0,0,0,0
											c0,0-0.1,0.2-0.2,0.2c0,0,0,0,0,0c0,0,0,0-0.1,0.1c-0.1,0.1-0.1,0.1-0.1,0.1c0,0-0.1,0.1-0.1,0.1c0,0-0.5,0.5-0.5,0.5
											c0,0,0,0-0.1,0c0,0,0,0,0,0c0,0-0.2,0.2-0.2,0.2c0,0,0,0,0,0s0,0,0,0.1c0,0-0.1,0.1-0.1,0.1c0,0,0,0,0,0
											c0,0,0,0.1-0.1,0.2c-1.2,1.4-2.2,3.1-2.9,4.8c-0.9,2.5-1.2,5.2-0.9,7.9c0.4,3.1,1.7,5.9,3.7,8.3c0.1,0.1,0.2,0.3,0.2,0.3
											c0,0,0,0,0,0c0,0,0.2,0.1,0.2,0.2c0,0,0,0,0,0c0,0,0.2,0.2,0.2,0.2c0,0,0.1,0.1,0.1,0.1c0,0,0.1,0.1,0.3,0.3
											c0.1,0.2,0.3,0.3,0.3,0.3c0,0,0.1,0.1,0.1,0.1c0.1,0.1,0.1,0.1,0.1,0.1c0,0,0,0,0.1,0.1s0.1,0.1,0.1,0.1
											c0,0,0.1,0.1,0.2,0.2c2.7,2.3,6.1,3.7,9.6,3.9C141,120.1,142,120.1,142.4,120.1L142.4,120.1z"/>
										<path class="st14" d="M134.6,110.8l-6.9-6.9l6.9-6.9l6.9-6.9l6.9,6.9l6.9,6.9l-6.9,6.9c-3.8,3.8-6.9,6.9-6.9,6.9
											S138.4,114.6,134.6,110.8z M144,114.6l2.5-2.5l-1.4-1.4c-0.8-0.8-1.4-1.4-1.4-1.4s-0.5,0.5-1.1,1.1
											c-0.6,0.6-1.1,1.1-1.1,1.1s-0.5-0.5-1.1-1.1c-0.6-0.6-1.1-1.1-1.1-1.1s-0.6,0.6-1.4,1.4l-1.4,1.4l2.5,2.5
											c1.4,1.4,2.5,2.5,2.5,2.5S142.6,116,144,114.6z M145.1,107.5l3.6-3.6l-3.6-3.6l-3.6-3.6l-3.6,3.6l-3.6,3.6l2.5,2.5
											c1.4,1.4,2.5,2.5,2.5,2.5c0,0,0,0,0,0s0.5,0.5,1.1,1.1c0.6,0.6,1.1,1.1,1.1,1.1S143.1,109.4,145.1,107.5z M140.4,97.3
											c0.6-0.6,1.1-1.1,1.1-1.1s0.5,0.5,1.1,1.1l1.1,1.1L145,97c0.8-0.8,1.4-1.4,1.4-1.4c0,0-1.1-1.1-2.5-2.5l-2.5-2.5l-2.5,2.5
											l-2.5,2.5l1.4,1.4c0.8,0.8,1.4,1.4,1.4,1.4S139.8,97.9,140.4,97.3z"/>
										<path class="st14" d="M139.6,105.8l-1.9-1.9l1.9-1.9l1.9-1.9l1.9,1.9l1.9,1.9l-1.9,1.9c-1.1,1.1-1.9,1.9-1.9,1.9
											S140.6,106.9,139.6,105.8z"/>
									</g>
								</g>
								<g>
									<path class="st12" d="M133.5,124.1c-3.9-0.2-7.7-1.6-10.7-4.1c-0.8-0.7-1.8-1.7-2.5-2.5c-1.9-2.3-3.2-5.1-3.8-8.1
										c-0.4-2.2-0.4-4.5,0-6.7c0.6-3,1.9-5.7,3.8-8.1c0.7-0.8,1.7-1.8,2.5-2.5c2.3-1.9,5.1-3.2,8.1-3.8c2.2-0.4,4.5-0.4,6.7,0
										c3,0.6,5.7,1.9,8.1,3.8c0.8,0.7,1.8,1.7,2.5,2.5c1.9,2.3,3.2,5.1,3.8,8.1c0.4,2.2,0.4,4.5,0,6.7c-0.6,3-1.9,5.7-3.8,8.1
										c-0.7,0.8-1.7,1.8-2.5,2.5C142.2,122.9,137.9,124.3,133.5,124.1z"/>
									<g>
										<path class="st13" d="M133.5,124.1c-3.9-0.2-7.7-1.6-10.7-4.1c-0.8-0.7-1.8-1.7-2.5-2.5c-1.9-2.3-3.2-5.1-3.8-8.1
											c-0.4-2.2-0.4-4.5,0-6.7c0.6-3,1.9-5.7,3.8-8.1c0.7-0.8,1.7-1.8,2.5-2.5c2.3-1.9,5.1-3.2,8.1-3.8c2.2-0.4,4.5-0.4,6.7,0
											c3,0.6,5.7,1.9,8.1,3.8c0.8,0.7,1.8,1.7,2.5,2.5c1.9,2.3,3.2,5.1,3.8,8.1c0.4,2.2,0.4,4.5,0,6.7c-0.6,3-1.9,5.7-3.8,8.1
											c-0.7,0.8-1.7,1.8-2.5,2.5C142.2,122.9,137.9,124.3,133.5,124.1z M135.3,122.3c1.5-0.1,2.7-0.4,4-0.8
											c1.4-0.5,2.7-1.1,3.9-1.9c3.4-2.2,5.8-5.7,6.7-9.6c0.2-0.7,0.3-1.5,0.4-2.2c0.1-0.6,0.1-0.8,0.1-1.7c0-1,0-1.5-0.2-2.3
											c-0.3-2.1-1-4.1-2.1-6c-1.8-3.1-4.7-5.5-8.1-6.8c-1.6-0.6-3.2-1-5-1.1c-0.4,0-1.6,0-2,0c-2.6,0.2-5,0.9-7.2,2.3
											c-3.1,1.8-5.5,4.7-6.8,8.1c-0.6,1.5-0.9,3-1,4.7c0,0.4,0,1.9,0,2.3c0.1,1.5,0.4,2.7,0.8,4c0.5,1.4,1.1,2.7,1.9,3.9
											c1.7,2.6,4.1,4.6,6.9,5.8c1.7,0.8,3.6,1.2,5.4,1.3c0.2,0,0.3,0,0.4,0C133.6,122.3,135.1,122.3,135.3,122.3z"/>
										<path class="st13" d="M127.3,113l-6.9-6.9l6.9-6.9l6.9-6.9l6.9,6.9l6.9,6.9l-6.9,6.9c-3.8,3.8-6.9,6.9-6.9,6.9
											S131.1,116.8,127.3,113z M137.7,109.7l3.6-3.6l-3.6-3.6l-3.6-3.6l-3.6,3.6l-3.6,3.6l3.6,3.6c2,2,3.6,3.6,3.6,3.6
											S135.8,111.7,137.7,109.7z"/>
									</g>
									<g>
										<path class="st14" d="M133.5,124.1c-3.9-0.2-7.7-1.6-10.7-4.1c-0.8-0.7-1.8-1.7-2.5-2.5c-1.9-2.3-3.2-5.1-3.8-8.1
											c-0.4-2.2-0.4-4.5,0-6.7c0.6-3,1.9-5.7,3.8-8.1c0.7-0.8,1.7-1.8,2.5-2.5c2.3-1.9,5.1-3.2,8.1-3.8c2.2-0.4,4.5-0.4,6.7,0
											c3,0.6,5.7,1.9,8.1,3.8c0.8,0.7,1.8,1.7,2.5,2.5c1.9,2.3,3.2,5.1,3.8,8.1c0.4,2.2,0.4,4.5,0,6.7c-0.6,3-1.9,5.7-3.8,8.1
											c-0.7,0.8-1.7,1.8-2.5,2.5C142.2,122.9,137.9,124.3,133.5,124.1z M135,122.3c4-0.2,7.8-1.9,10.6-4.7
											c2.5-2.5,4.1-5.8,4.6-9.3c0.2-1.7,0.2-3.4-0.1-5c-0.5-2.8-1.8-5.5-3.6-7.7c-0.1-0.1-0.2-0.2-0.2-0.2c0,0,0,0-0.1-0.1
											s-0.1-0.1-0.1-0.1c0,0,0-0.1-0.1-0.1c-0.1-0.1-0.1-0.1-0.1-0.1c0,0-0.1-0.1-0.3-0.3c-0.2-0.1-0.3-0.3-0.3-0.3
											c0,0-0.1-0.1-0.1-0.1s-0.2-0.2-0.2-0.2c0,0,0,0,0,0c0,0-0.2-0.1-0.2-0.2c0,0,0,0,0,0c0,0-0.1-0.1-0.3-0.2
											c-0.8-0.7-1.7-1.3-2.7-1.8c-0.3-0.2-0.9-0.4-1.1-0.5c-0.1,0-0.1-0.1-0.2-0.1c0,0,0,0,0,0s-0.1,0-0.3-0.1
											c-0.7-0.3-1.7-0.6-2.4-0.8c-0.1,0-0.1,0-0.1,0c0,0,0,0,0,0c0,0-0.7-0.1-0.7-0.1c0,0,0,0-0.1,0c0,0-0.1,0-0.1,0
											c0,0,0,0-0.1,0c0,0-0.1,0-0.1,0s0,0-0.1,0c0,0-0.1,0-0.1,0s0,0-0.1,0c0,0-0.1,0-0.1,0c0,0-0.1,0-0.1,0c-0.1,0-0.1,0-0.1,0
											c0,0-0.1,0-0.1,0c-0.1,0-0.1,0-0.1,0c0,0,0,0-0.1,0c-0.1,0-0.1,0-0.1,0c0,0,0,0,0,0c0,0-0.1,0-0.2,0c0,0,0,0,0,0
											c0,0-0.2,0-0.2,0c0,0,0,0,0,0c0,0-0.2,0-0.2,0c0,0,0,0,0,0c0,0-0.1,0-0.2,0c-0.3,0-1.4,0-1.7,0c-0.1,0-0.2,0-0.2,0
											c0,0-0.1,0-0.1,0s-0.2,0-0.2,0c0,0,0,0,0,0c0,0,0,0,0,0s0,0-0.1,0s-0.1,0-0.1,0c0,0,0,0,0,0s0,0,0,0s0,0-0.1,0
											c0,0-0.1,0-0.1,0s0,0,0,0s0,0,0,0c0,0,0,0-0.1,0c-0.1,0-0.1,0-0.1,0c0,0-0.1,0-0.1,0c-0.1,0-0.1,0-0.1,0c0,0-0.1,0-0.1,0
											s-0.1,0-0.1,0c0,0,0,0-0.1,0c0,0-0.1,0-0.1,0c0,0,0,0-0.1,0c0,0-0.1,0-0.1,0s0,0,0,0c0,0-0.1,0-0.1,0c0,0,0,0-0.1,0
											c0,0-0.1,0-0.1,0c0,0-0.6,0.1-0.7,0.1c0,0,0,0,0,0c0,0-0.2,0.1-0.3,0.1c-0.8,0.2-1.5,0.4-2.2,0.7
											c-0.2,0.1-0.3,0.1-0.3,0.1c0,0,0,0,0,0s0,0-0.1,0.1c-0.2,0.1-0.8,0.4-1.1,0.5c-1,0.5-1.9,1.1-2.7,1.8
											c-0.2,0.2-0.3,0.2-0.3,0.2c0,0,0,0,0,0c0,0-0.1,0.2-0.2,0.2c0,0,0,0,0,0c0,0,0,0-0.1,0.1c-0.1,0.1-0.1,0.1-0.1,0.1
											c0,0-0.1,0.1-0.1,0.1c0,0-0.5,0.5-0.5,0.5c0,0,0,0-0.1,0c0,0,0,0,0,0c0,0-0.2,0.2-0.2,0.2c0,0,0,0,0,0s0,0,0,0.1
											c0,0-0.1,0.1-0.1,0.1c0,0,0,0,0,0c0,0,0,0.1-0.1,0.2c-1.2,1.4-2.2,3.1-2.9,4.8c-0.9,2.5-1.2,5.2-0.9,7.9
											c0.4,3.1,1.7,5.9,3.7,8.3c0.1,0.1,0.2,0.3,0.2,0.3c0,0,0,0,0,0c0,0,0.2,0.1,0.2,0.2c0,0,0,0,0,0c0,0,0.2,0.2,0.2,0.2
											c0,0,0.1,0.1,0.1,0.1c0,0,0.1,0.1,0.3,0.3c0.1,0.2,0.3,0.3,0.3,0.3c0,0,0.1,0.1,0.1,0.1c0.1,0.1,0.1,0.1,0.1,0.1
											c0,0,0,0,0.1,0.1s0.1,0.1,0.1,0.1c0,0,0.1,0.1,0.2,0.2c2.7,2.3,6.1,3.7,9.6,3.9C133.6,122.3,134.7,122.3,135,122.3
											L135,122.3z"/>
										<path class="st14" d="M127.3,113l-6.9-6.9l6.9-6.9l6.9-6.9l6.9,6.9l6.9,6.9l-6.9,6.9c-3.8,3.8-6.9,6.9-6.9,6.9
											S131.1,116.8,127.3,113z M136.6,116.9l2.5-2.5l-1.4-1.4c-0.8-0.8-1.4-1.4-1.4-1.4s-0.5,0.5-1.1,1.1
											c-0.6,0.6-1.1,1.1-1.1,1.1s-0.5-0.5-1.1-1.1c-0.6-0.6-1.1-1.1-1.1-1.1s-0.6,0.6-1.4,1.4l-1.4,1.4l2.5,2.5
											c1.4,1.4,2.5,2.5,2.5,2.5S135.3,118.2,136.6,116.9z M137.7,109.7l3.6-3.6l-3.6-3.6l-3.6-3.6l-3.6,3.6l-3.6,3.6l2.5,2.5
											c1.4,1.4,2.5,2.5,2.5,2.5s0,0,0,0s0.5,0.5,1.1,1.1c0.6,0.6,1.1,1.1,1.1,1.1S135.8,111.7,137.7,109.7z M133.1,99.5
											c0.6-0.6,1.1-1.1,1.1-1.1s0.5,0.5,1.1,1.1l1.1,1.1l1.4-1.4c0.8-0.8,1.4-1.4,1.4-1.4c0,0-1.1-1.1-2.5-2.5l-2.5-2.5
											l-2.5,2.5l-2.5,2.5l1.4,1.4c0.8,0.8,1.4,1.4,1.4,1.4S132.5,100.1,133.1,99.5z"/>
										<path class="st14" d="M132.2,108.1l-1.9-1.9l1.9-1.9l1.9-1.9l1.9,1.9l1.9,1.9l-1.9,1.9c-1.1,1.1-1.9,1.9-1.9,1.9
											S133.3,109.1,132.2,108.1z"/>
									</g>
								</g>
								<g>
									<path class="st12" d="M128.2,125.2c-3.9-0.2-7.7-1.6-10.7-4.1c-0.8-0.7-1.8-1.7-2.5-2.5c-1.9-2.3-3.2-5.1-3.8-8.1
										c-0.4-2.2-0.4-4.5,0-6.7c0.6-3,1.9-5.7,3.8-8.1c0.7-0.8,1.7-1.8,2.5-2.5c2.3-1.9,5.1-3.2,8.1-3.8c2.2-0.4,4.5-0.4,6.7,0
										c3,0.6,5.7,1.9,8.1,3.8c0.8,0.7,1.8,1.7,2.5,2.5c1.9,2.3,3.2,5.1,3.8,8.1c0.4,2.2,0.4,4.5,0,6.7c-0.6,3-1.9,5.7-3.8,8.1
										c-0.7,0.8-1.7,1.8-2.5,2.5C137,123.9,132.7,125.3,128.2,125.2z"/>
									<g>
										<path class="st13" d="M128.2,125.2c-3.9-0.2-7.7-1.6-10.7-4.1c-0.8-0.7-1.8-1.7-2.5-2.5c-1.9-2.3-3.2-5.1-3.8-8.1
											c-0.4-2.2-0.4-4.5,0-6.7c0.6-3,1.9-5.7,3.8-8.1c0.7-0.8,1.7-1.8,2.5-2.5c2.3-1.9,5.1-3.2,8.1-3.8c2.2-0.4,4.5-0.4,6.7,0
											c3,0.6,5.7,1.9,8.1,3.8c0.8,0.7,1.8,1.7,2.5,2.5c1.9,2.3,3.2,5.1,3.8,8.1c0.4,2.2,0.4,4.5,0,6.7c-0.6,3-1.9,5.7-3.8,8.1
											c-0.7,0.8-1.7,1.8-2.5,2.5C137,123.9,132.7,125.3,128.2,125.2z M130.1,123.3c1.5-0.1,2.7-0.4,4-0.8
											c1.4-0.5,2.7-1.1,3.9-1.9c3.4-2.2,5.8-5.7,6.7-9.6c0.2-0.7,0.3-1.5,0.4-2.2c0.1-0.6,0.1-0.8,0.1-1.7c0-1,0-1.5-0.2-2.3
											c-0.3-2.1-1-4.1-2.1-6c-1.8-3.1-4.7-5.5-8.1-6.8c-1.6-0.6-3.2-1-5-1.1c-0.4,0-1.6,0-2,0c-2.6,0.2-5,0.9-7.2,2.3
											c-3.1,1.8-5.5,4.7-6.8,8.1c-0.6,1.5-0.9,3-1,4.7c0,0.4,0,1.9,0,2.3c0.1,1.5,0.4,2.7,0.8,4c0.5,1.4,1.1,2.7,1.9,3.9
											c1.7,2.6,4.1,4.6,6.9,5.8c1.7,0.8,3.6,1.2,5.4,1.3c0.2,0,0.3,0,0.4,0C128.4,123.4,129.9,123.4,130.1,123.3z"/>
										<path class="st13" d="M122.1,114.1l-6.9-6.9l6.9-6.9l6.9-6.9l6.9,6.9l6.9,6.9l-6.9,6.9c-3.8,3.8-6.9,6.9-6.9,6.9
											S125.9,117.8,122.1,114.1z M132.5,110.7l3.6-3.6l-3.6-3.6L129,100l-3.6,3.6l-3.6,3.6l3.6,3.6c2,2,3.6,3.6,3.6,3.6
											S130.6,112.7,132.5,110.7z"/>
									</g>
									<g>
										<path class="st14" d="M128.2,125.2c-3.9-0.2-7.7-1.6-10.7-4.1c-0.8-0.7-1.8-1.7-2.5-2.5c-1.9-2.3-3.2-5.1-3.8-8.1
											c-0.4-2.2-0.4-4.5,0-6.7c0.6-3,1.9-5.7,3.8-8.1c0.7-0.8,1.7-1.8,2.5-2.5c2.3-1.9,5.1-3.2,8.1-3.8c2.2-0.4,4.5-0.4,6.7,0
											c3,0.6,5.7,1.9,8.1,3.8c0.8,0.7,1.8,1.7,2.5,2.5c1.9,2.3,3.2,5.1,3.8,8.1c0.4,2.2,0.4,4.5,0,6.7c-0.6,3-1.9,5.7-3.8,8.1
											c-0.7,0.8-1.7,1.8-2.5,2.5C137,123.9,132.7,125.3,128.2,125.2z M129.8,123.4c4-0.2,7.8-1.9,10.6-4.7
											c2.5-2.5,4.1-5.8,4.6-9.3c0.2-1.7,0.2-3.4-0.1-5c-0.5-2.8-1.8-5.5-3.6-7.7c-0.1-0.1-0.2-0.2-0.2-0.2c0,0,0,0-0.1-0.1
											s-0.1-0.1-0.1-0.1c0,0,0-0.1-0.1-0.1c-0.1-0.1-0.1-0.1-0.1-0.1c0,0-0.1-0.1-0.3-0.3c-0.2-0.1-0.3-0.3-0.3-0.3
											c0,0-0.1-0.1-0.1-0.1s-0.2-0.2-0.2-0.2c0,0,0,0,0,0c0,0-0.2-0.1-0.2-0.2c0,0,0,0,0,0c0,0-0.1-0.1-0.3-0.2
											c-0.8-0.7-1.7-1.3-2.7-1.8c-0.3-0.2-0.9-0.4-1.1-0.5c-0.1,0-0.1-0.1-0.2-0.1c0,0,0,0,0,0s-0.1,0-0.3-0.1
											c-0.7-0.3-1.7-0.6-2.4-0.8c-0.1,0-0.1,0-0.1,0c0,0,0,0,0,0c0,0-0.7-0.1-0.7-0.1c0,0,0,0-0.1,0c0,0-0.1,0-0.1,0
											c0,0,0,0-0.1,0c0,0-0.1,0-0.1,0s0,0-0.1,0c0,0-0.1,0-0.1,0s0,0-0.1,0s-0.1,0-0.1,0c0,0-0.1,0-0.1,0c-0.1,0-0.1,0-0.1,0
											c0,0-0.1,0-0.1,0c-0.1,0-0.1,0-0.1,0c0,0,0,0-0.1,0c-0.1,0-0.1,0-0.1,0c0,0,0,0,0,0c0,0-0.1,0-0.2,0c0,0,0,0,0,0
											c0,0-0.2,0-0.2,0c0,0,0,0,0,0c0,0-0.2,0-0.2,0c0,0,0,0,0,0c0,0-0.1,0-0.2,0c-0.3,0-1.4,0-1.7,0c-0.1,0-0.2,0-0.2,0
											c0,0-0.1,0-0.1,0s-0.2,0-0.2,0c0,0,0,0,0,0s0,0,0,0s0,0-0.1,0s-0.1,0-0.1,0c0,0,0,0,0,0s0,0,0,0s0,0-0.1,0
											c0,0-0.1,0-0.1,0s0,0,0,0s0,0,0,0c0,0,0,0-0.1,0c-0.1,0-0.1,0-0.1,0c0,0-0.1,0-0.1,0c-0.1,0-0.1,0-0.1,0c0,0-0.1,0-0.1,0
											s-0.1,0-0.1,0c0,0,0,0-0.1,0c0,0-0.1,0-0.1,0c0,0,0,0-0.1,0c0,0-0.1,0-0.1,0s0,0,0,0c0,0-0.1,0-0.1,0c0,0,0,0-0.1,0
											c0,0-0.1,0-0.1,0c0,0-0.6,0.1-0.7,0.1c0,0,0,0,0,0c0,0-0.2,0.1-0.3,0.1c-0.8,0.2-1.5,0.4-2.2,0.7
											c-0.2,0.1-0.3,0.1-0.3,0.1c0,0,0,0,0,0s0,0-0.1,0.1c-0.2,0.1-0.8,0.4-1.1,0.5c-1,0.5-1.9,1.1-2.7,1.8
											c-0.2,0.2-0.3,0.2-0.3,0.2c0,0,0,0,0,0c0,0-0.1,0.2-0.2,0.2c0,0,0,0,0,0c0,0,0,0-0.1,0.1c-0.1,0.1-0.1,0.1-0.1,0.1
											c0,0-0.1,0.1-0.1,0.1c0,0-0.5,0.5-0.5,0.5c0,0,0,0-0.1,0c0,0,0,0,0,0c0,0-0.2,0.2-0.2,0.2c0,0,0,0,0,0c0,0,0,0,0,0.1
											c0,0-0.1,0.1-0.1,0.1c0,0,0,0,0,0c0,0,0,0.1-0.1,0.2c-1.2,1.4-2.2,3.1-2.9,4.8c-0.9,2.5-1.2,5.2-0.9,7.9
											c0.4,3.1,1.7,5.9,3.7,8.3c0.1,0.1,0.2,0.3,0.2,0.3c0,0,0,0,0,0c0,0,0.2,0.1,0.2,0.2c0,0,0,0,0,0c0,0,0.2,0.2,0.2,0.2
											c0,0,0.1,0.1,0.1,0.1c0,0,0.1,0.1,0.3,0.3c0.1,0.2,0.3,0.3,0.3,0.3c0,0,0.1,0.1,0.1,0.1c0.1,0.1,0.1,0.1,0.1,0.1
											c0,0,0,0,0.1,0.1c0,0,0.1,0.1,0.1,0.1c0,0,0.1,0.1,0.2,0.2c2.7,2.3,6.1,3.7,9.6,3.9C128.4,123.4,129.4,123.4,129.8,123.4
											L129.8,123.4z"/>
										<path class="st14" d="M122.1,114.1l-6.9-6.9l6.9-6.9l6.9-6.9l6.9,6.9l6.9,6.9l-6.9,6.9c-3.8,3.8-6.9,6.9-6.9,6.9
											S125.9,117.8,122.1,114.1z M131.4,117.9l2.5-2.5l-1.4-1.4c-0.8-0.8-1.4-1.4-1.4-1.4s-0.5,0.5-1.1,1.1
											c-0.6,0.6-1.1,1.1-1.1,1.1s-0.5-0.5-1.1-1.1c-0.6-0.6-1.1-1.1-1.1-1.1s-0.6,0.6-1.4,1.4l-1.4,1.4l2.5,2.5
											c1.4,1.4,2.5,2.5,2.5,2.5S130.1,119.3,131.4,117.9z M132.5,110.7l3.6-3.6l-3.6-3.6L129,100l-3.6,3.6l-3.6,3.6l2.5,2.5
											c1.4,1.4,2.5,2.5,2.5,2.5s0,0,0,0s0.5,0.5,1.1,1.1c0.6,0.6,1.1,1.1,1.1,1.1S130.6,112.7,132.5,110.7z M127.9,100.6
											c0.6-0.6,1.1-1.1,1.1-1.1s0.5,0.5,1.1,1.1l1.1,1.1l1.4-1.4c0.8-0.8,1.4-1.4,1.4-1.4c0,0-1.1-1.1-2.5-2.5l-2.5-2.5
											l-2.5,2.5l-2.5,2.5l1.4,1.4c0.8,0.8,1.4,1.4,1.4,1.4S127.3,101.2,127.9,100.6z"/>
										<path class="st14" d="M127,109.1l-1.9-1.9l1.9-1.9l1.9-1.9l1.9,1.9l1.9,1.9l-1.9,1.9c-1.1,1.1-1.9,1.9-1.9,1.9
											S128.1,110.2,127,109.1z"/>
									</g>
								</g>
								<g>
									<path class="st12" d="M104.3,119.3c-3.5-0.1-6.8-1.4-9.5-3.6c-0.7-0.6-1.6-1.5-2.2-2.2c-1.7-2.1-2.9-4.5-3.4-7.2
										c-0.4-2-0.4-4,0-6c0.5-2.6,1.6-5.1,3.4-7.2c0.6-0.7,1.5-1.6,2.2-2.2c2.1-1.7,4.5-2.9,7.2-3.4c2-0.4,4-0.4,6,0
										c2.6,0.5,5.1,1.6,7.2,3.4c0.7,0.6,1.6,1.5,2.2,2.2c1.7,2.1,2.9,4.5,3.4,7.2c0.4,2,0.4,4,0,6c-0.5,2.6-1.6,5.1-3.4,7.2
										c-0.6,0.7-1.5,1.6-2.2,2.2C112.1,118.2,108.2,119.5,104.3,119.3z"/>
									<g>
										<path class="st13" d="M104.3,119.3c-3.5-0.1-6.8-1.4-9.5-3.6c-0.7-0.6-1.6-1.5-2.2-2.2c-1.7-2.1-2.9-4.5-3.4-7.2
											c-0.4-2-0.4-4,0-6c0.5-2.6,1.6-5.1,3.4-7.2c0.6-0.7,1.5-1.6,2.2-2.2c2.1-1.7,4.5-2.9,7.2-3.4c2-0.4,4-0.4,6,0
											c2.6,0.5,5.1,1.6,7.2,3.4c0.7,0.6,1.6,1.5,2.2,2.2c1.7,2.1,2.9,4.5,3.4,7.2c0.4,2,0.4,4,0,6c-0.5,2.6-1.6,5.1-3.4,7.2
											c-0.6,0.7-1.5,1.6-2.2,2.2C112.1,118.2,108.2,119.5,104.3,119.3z M106,117.7c1.3-0.1,2.4-0.3,3.5-0.7
											c1.2-0.4,2.4-1,3.4-1.7c3-2,5.1-5,6-8.5c0.2-0.6,0.3-1.4,0.3-2c0.1-0.6,0.1-0.7,0.1-1.5c0-0.9,0-1.3-0.1-2.1
											c-0.3-1.9-0.9-3.7-1.9-5.3c-1.6-2.7-4.2-4.9-7.2-6.1c-1.4-0.5-2.9-0.9-4.5-0.9c-0.4,0-1.4,0-1.8,0c-2.4,0.2-4.4,0.8-6.4,2
											c-2.7,1.6-4.9,4.2-6.1,7.2c-0.5,1.3-0.8,2.6-0.9,4.2c0,0.3,0,1.7,0,2c0.1,1.3,0.3,2.4,0.7,3.6c0.4,1.2,1,2.4,1.7,3.4
											c1.5,2.3,3.7,4.1,6.2,5.2c1.5,0.7,3.2,1.1,4.8,1.2c0.1,0,0.3,0,0.3,0C104.5,117.7,105.8,117.7,106,117.7z"/>
										<path class="st13" d="M98.8,109.4l-6.1-6.1l6.1-6.1l6.1-6.1l6.1,6.1l6.1,6.1l-6.1,6.1c-3.4,3.4-6.1,6.1-6.1,6.1
											S102.2,112.8,98.8,109.4z M108.1,106.5l3.2-3.2l-3.2-3.2L105,97l-3.2,3.2l-3.2,3.2l3.2,3.2c1.7,1.7,3.2,3.2,3.2,3.2
											C105,109.7,106.4,108.2,108.1,106.5z"/>
									</g>
									<g>
										<path class="st14" d="M104.3,119.3c-3.5-0.1-6.8-1.4-9.5-3.6c-0.7-0.6-1.6-1.5-2.2-2.2c-1.7-2.1-2.9-4.5-3.4-7.2
											c-0.4-2-0.4-4,0-6c0.5-2.6,1.6-5.1,3.4-7.2c0.6-0.7,1.5-1.6,2.2-2.2c2.1-1.7,4.5-2.9,7.2-3.4c2-0.4,4-0.4,6,0
											c2.6,0.5,5.1,1.6,7.2,3.4c0.7,0.6,1.6,1.5,2.2,2.2c1.7,2.1,2.9,4.5,3.4,7.2c0.4,2,0.4,4,0,6c-0.5,2.6-1.6,5.1-3.4,7.2
											c-0.6,0.7-1.5,1.6-2.2,2.2C112.1,118.2,108.2,119.5,104.3,119.3z M105.7,117.7c3.6-0.2,6.9-1.7,9.4-4.2
											c2.3-2.3,3.7-5.1,4.1-8.3c0.2-1.5,0.2-3-0.1-4.4c-0.4-2.5-1.6-4.9-3.2-6.8c-0.1-0.1-0.1-0.2-0.1-0.2c0,0,0,0-0.1-0.1
											s-0.1-0.1-0.1-0.1c0,0,0-0.1-0.1-0.1c-0.1,0-0.1-0.1-0.1-0.1c0,0-0.1-0.1-0.3-0.3c-0.1-0.1-0.3-0.2-0.3-0.3
											c0,0-0.1-0.1-0.1-0.1c0,0-0.2-0.2-0.2-0.2c0,0,0,0,0,0c0,0-0.1-0.1-0.1-0.1c0,0,0,0,0,0c0,0-0.1-0.1-0.3-0.2
											c-0.7-0.6-1.6-1.2-2.4-1.6c-0.2-0.1-0.8-0.4-1-0.5c-0.1,0-0.1-0.1-0.1-0.1c0,0,0,0,0,0c0,0-0.1,0-0.2-0.1
											c-0.6-0.3-1.5-0.6-2.1-0.7c-0.1,0-0.1,0-0.1,0c0,0,0,0,0,0c0,0-0.6-0.1-0.6-0.1c0,0,0,0-0.1,0c0,0-0.1,0-0.1,0
											c0,0,0,0-0.1,0c0,0,0,0,0,0s0,0,0,0c0,0,0,0,0,0s0,0-0.1,0s-0.1,0-0.1,0c0,0,0,0-0.1,0c-0.1,0-0.1,0-0.1,0
											c0,0-0.1,0-0.1,0c-0.1,0-0.1,0-0.1,0c0,0,0,0-0.1,0c0,0-0.1,0-0.1,0c0,0,0,0,0,0c0,0-0.1,0-0.1,0c0,0,0,0,0,0
											c0,0-0.1,0-0.2,0c0,0,0,0,0,0c0,0-0.2,0-0.2,0c0,0,0,0,0,0c0,0-0.1,0-0.2,0c-0.3,0-1.2,0-1.5,0c-0.1,0-0.2,0-0.2,0
											c0,0,0,0-0.1,0c0,0-0.2,0-0.2,0c0,0,0,0,0,0s0,0,0,0s0,0-0.1,0c0,0-0.1,0-0.1,0c0,0,0,0,0,0s0,0,0,0s0,0-0.1,0
											c0,0-0.1,0-0.1,0s0,0,0,0c0,0,0,0,0,0c0,0,0,0-0.1,0c0,0-0.1,0-0.1,0c0,0-0.1,0-0.1,0c-0.1,0-0.1,0-0.1,0c0,0-0.1,0-0.1,0
											s-0.1,0-0.1,0c0,0,0,0-0.1,0c0,0-0.1,0-0.1,0c0,0,0,0,0,0c0,0,0,0,0,0c0,0,0,0,0,0c0,0,0,0-0.1,0c0,0,0,0-0.1,0
											c0,0-0.1,0-0.1,0c0,0-0.5,0.1-0.6,0.1c0,0,0,0,0,0c0,0-0.1,0.1-0.3,0.1c-0.7,0.2-1.3,0.4-1.9,0.6
											c-0.1,0.1-0.2,0.1-0.3,0.1c0,0,0,0,0,0c0,0,0,0-0.1,0.1c-0.2,0.1-0.7,0.4-1,0.5c-0.9,0.5-1.6,1-2.4,1.6
											c-0.2,0.1-0.2,0.2-0.3,0.2c0,0,0,0,0,0c0,0-0.1,0.1-0.1,0.1c0,0,0,0,0,0c0,0,0,0-0.1,0.1c-0.1,0-0.1,0.1-0.1,0.1
											c0,0-0.1,0-0.1,0.1c0,0-0.4,0.4-0.4,0.4c0,0,0,0-0.1,0c0,0,0,0,0,0c0,0-0.1,0.2-0.2,0.2c0,0,0,0,0,0c0,0,0,0,0,0.1
											c0,0-0.1,0.1-0.1,0.1c0,0,0,0,0,0c0,0,0,0.1-0.1,0.2c-1.1,1.2-2,2.7-2.5,4.3c-0.8,2.2-1.1,4.6-0.8,7
											c0.4,2.7,1.5,5.2,3.3,7.4c0.1,0.1,0.2,0.2,0.2,0.3c0,0,0,0,0,0c0,0,0.1,0.1,0.1,0.1c0,0,0,0,0,0c0,0,0.2,0.2,0.2,0.2
											c0,0,0,0.1,0.1,0.1c0,0,0.1,0.1,0.3,0.3c0.1,0.1,0.2,0.3,0.3,0.3c0,0,0.1,0,0.1,0.1c0.1,0.1,0.1,0.1,0.1,0.1
											c0,0,0,0,0.1,0.1c0,0,0.1,0.1,0.1,0.1c0,0,0.1,0.1,0.2,0.1c2.4,2,5.4,3.3,8.6,3.4C104.5,117.7,105.4,117.7,105.7,117.7
											L105.7,117.7z"/>
										<path class="st14" d="M98.8,109.4l-6.1-6.1l6.1-6.1l6.1-6.1l6.1,6.1l6.1,6.1l-6.1,6.1c-3.4,3.4-6.1,6.1-6.1,6.1
											S102.2,112.8,98.8,109.4z M107.1,112.9l2.2-2.2l-1.2-1.2c-0.7-0.7-1.2-1.2-1.2-1.2c0,0-0.4,0.4-1,0.9s-0.9,0.9-1,0.9
											s-0.4-0.4-1-0.9s-0.9-0.9-1-0.9c0,0-0.6,0.6-1.2,1.2l-1.2,1.2l2.2,2.2c1.2,1.2,2.2,2.2,2.2,2.2S105.9,114.1,107.1,112.9z
											 M108.1,106.5l3.2-3.2l-3.2-3.2L105,97l-3.2,3.2l-3.2,3.2l2.2,2.2c1.2,1.2,2.2,2.2,2.2,2.2c0,0,0,0,0,0s0.4,0.4,1,0.9
											c0.5,0.5,0.9,0.9,1,0.9C105,109.7,106.4,108.2,108.1,106.5z M104,97.5c0.5-0.5,1-0.9,1-0.9s0.4,0.4,1,0.9l0.9,0.9l1.2-1.2
											c0.7-0.7,1.2-1.2,1.2-1.2c0,0-1-1-2.2-2.2l-2.2-2.2l-2.2,2.2l-2.2,2.2l1.2,1.2c0.7,0.7,1.2,1.2,1.2,1.2
											C103,98.4,103.4,98,104,97.5z"/>
										<path class="st14" d="M103.2,105l-1.7-1.7l1.7-1.7l1.7-1.7l1.7,1.7l1.7,1.7l-1.7,1.7c-0.9,0.9-1.7,1.7-1.7,1.7
											S104.2,106,103.2,105z"/>
									</g>
								</g>
								<g>
									<path class="st12" d="M104.5,129.7c-2.8-0.1-5.5-1.1-7.7-2.9c-0.6-0.5-1.3-1.2-1.8-1.8c-1.4-1.7-2.3-3.7-2.7-5.8
										c-0.3-1.6-0.3-3.3,0-4.8c0.4-2.1,1.3-4.1,2.7-5.8c0.5-0.6,1.2-1.3,1.8-1.8c1.7-1.4,3.7-2.3,5.8-2.7c1.6-0.3,3.3-0.3,4.8,0
										c2.1,0.4,4.1,1.3,5.8,2.7c0.6,0.5,1.3,1.2,1.8,1.8c1.4,1.7,2.3,3.7,2.7,5.8c0.3,1.6,0.3,3.3,0,4.8
										c-0.4,2.1-1.3,4.1-2.7,5.8c-0.5,0.6-1.2,1.3-1.8,1.8C110.8,128.8,107.7,129.9,104.5,129.7z"/>
									<g>
										<path class="st13" d="M104.5,129.7c-2.8-0.1-5.5-1.1-7.7-2.9c-0.6-0.5-1.3-1.2-1.8-1.8c-1.4-1.7-2.3-3.7-2.7-5.8
											c-0.3-1.6-0.3-3.3,0-4.8c0.4-2.1,1.3-4.1,2.7-5.8c0.5-0.6,1.2-1.3,1.8-1.8c1.7-1.4,3.7-2.3,5.8-2.7c1.6-0.3,3.3-0.3,4.8,0
											c2.1,0.4,4.1,1.3,5.8,2.7c0.6,0.5,1.3,1.2,1.8,1.8c1.4,1.7,2.3,3.7,2.7,5.8c0.3,1.6,0.3,3.3,0,4.8
											c-0.4,2.1-1.3,4.1-2.7,5.8c-0.5,0.6-1.2,1.3-1.8,1.8C110.8,128.8,107.7,129.9,104.5,129.7z M105.8,128.4
											c1.1-0.1,1.9-0.3,2.9-0.6c1-0.3,1.9-0.8,2.8-1.4c2.4-1.6,4.2-4.1,4.9-6.9c0.1-0.5,0.2-1.1,0.3-1.6c0-0.5,0.1-0.6,0.1-1.2
											c0-0.7,0-1.1-0.1-1.7c-0.2-1.5-0.7-3-1.5-4.3c-1.3-2.2-3.4-4-5.8-4.9c-1.2-0.4-2.3-0.7-3.6-0.8c-0.3,0-1.1,0-1.4,0
											c-1.9,0.2-3.6,0.7-5.2,1.6c-2.2,1.3-4,3.4-4.9,5.8c-0.4,1.1-0.7,2.1-0.8,3.4c0,0.3,0,1.4,0,1.6c0.1,1.1,0.3,2,0.6,2.9
											c0.3,1,0.8,1.9,1.4,2.8c1.2,1.8,3,3.3,5,4.2c1.2,0.5,2.6,0.9,3.9,1c0.1,0,0.2,0,0.3,0
											C104.6,128.5,105.7,128.4,105.8,128.4z"/>
										<path class="st13" d="M100,121.7l-5-5l5-5l5-5l5,5l5,5l-5,5c-2.7,2.7-5,5-5,5S102.8,124.5,100,121.7z M107.6,119.3
											l2.6-2.6l-2.6-2.6l-2.6-2.6l-2.6,2.6l-2.6,2.6l2.6,2.6c1.4,1.4,2.6,2.6,2.6,2.6C105,121.9,106.2,120.7,107.6,119.3z"/>
									</g>
									<g>
										<path class="st14" d="M104.5,129.7c-2.8-0.1-5.5-1.1-7.7-2.9c-0.6-0.5-1.3-1.2-1.8-1.8c-1.4-1.7-2.3-3.7-2.7-5.8
											c-0.3-1.6-0.3-3.3,0-4.8c0.4-2.1,1.3-4.1,2.7-5.8c0.5-0.6,1.2-1.3,1.8-1.8c1.7-1.4,3.7-2.3,5.8-2.7c1.6-0.3,3.3-0.3,4.8,0
											c2.1,0.4,4.1,1.3,5.8,2.7c0.6,0.5,1.3,1.2,1.8,1.8c1.4,1.7,2.3,3.7,2.7,5.8c0.3,1.6,0.3,3.3,0,4.8
											c-0.4,2.1-1.3,4.1-2.7,5.8c-0.5,0.6-1.2,1.3-1.8,1.8C110.8,128.8,107.7,129.9,104.5,129.7z M105.6,128.4
											c2.9-0.2,5.6-1.4,7.7-3.4c1.8-1.8,3-4.2,3.3-6.7c0.2-1.2,0.1-2.4-0.1-3.6c-0.4-2-1.3-4-2.6-5.6c-0.1-0.1-0.1-0.1-0.1-0.1
											c0,0,0,0-0.1-0.1s-0.1-0.1-0.1-0.1c0,0,0,0-0.1-0.1c0,0-0.1-0.1-0.1-0.1c0,0-0.1-0.1-0.2-0.2c-0.1-0.1-0.2-0.2-0.2-0.2
											c0,0-0.1-0.1-0.1-0.1s-0.1-0.1-0.1-0.1c0,0,0,0,0,0c0,0-0.1-0.1-0.1-0.1c0,0,0,0,0,0c0,0-0.1-0.1-0.2-0.2
											c-0.6-0.5-1.3-1-2-1.3c-0.2-0.1-0.6-0.3-0.8-0.4c-0.1,0-0.1,0-0.1-0.1c0,0,0,0,0,0s-0.1,0-0.2-0.1
											c-0.5-0.2-1.2-0.4-1.7-0.6c-0.1,0-0.1,0-0.1,0c0,0,0,0,0,0c0,0-0.5-0.1-0.5-0.1c0,0,0,0-0.1,0c0,0-0.1,0-0.1,0
											c0,0,0,0,0,0c0,0,0,0,0,0s0,0,0,0c0,0,0,0,0,0c0,0,0,0,0,0c0,0,0,0,0,0c0,0,0,0-0.1,0c0,0-0.1,0-0.1,0c0,0-0.1,0-0.1,0
											c-0.1,0-0.1,0-0.1,0c0,0,0,0-0.1,0c0,0-0.1,0-0.1,0c0,0,0,0,0,0c0,0-0.1,0-0.1,0c0,0,0,0,0,0c0,0-0.1,0-0.1,0c0,0,0,0,0,0
											c0,0-0.2,0-0.2,0c0,0,0,0,0,0c0,0-0.1,0-0.2,0c-0.2,0-1,0-1.2,0c-0.1,0-0.2,0-0.2,0c0,0,0,0,0,0c0,0-0.1,0-0.1,0
											c0,0,0,0,0,0c0,0,0,0,0,0s0,0-0.1,0s-0.1,0-0.1,0c0,0,0,0,0,0c0,0,0,0,0,0c0,0,0,0,0,0s0,0,0,0c0,0,0,0,0,0c0,0,0,0,0,0
											c0,0,0,0-0.1,0c0,0-0.1,0-0.1,0c0,0,0,0-0.1,0c-0.1,0-0.1,0-0.1,0c0,0,0,0-0.1,0c0,0-0.1,0-0.1,0c0,0,0,0,0,0c0,0,0,0,0,0
											c0,0,0,0,0,0c0,0,0,0,0,0c0,0,0,0,0,0c0,0,0,0,0,0c0,0,0,0-0.1,0c0,0-0.1,0-0.1,0c0,0-0.4,0.1-0.5,0.1c0,0,0,0,0,0
											c0,0-0.1,0-0.2,0.1c-0.6,0.1-1.1,0.3-1.6,0.5c-0.1,0-0.2,0.1-0.2,0.1c0,0,0,0,0,0c0,0,0,0-0.1,0.1
											c-0.1,0.1-0.6,0.3-0.8,0.4c-0.7,0.4-1.3,0.8-2,1.3c-0.1,0.1-0.2,0.2-0.2,0.2c0,0,0,0,0,0c0,0-0.1,0.1-0.1,0.1c0,0,0,0,0,0
											c0,0,0,0-0.1,0.1c0,0-0.1,0.1-0.1,0.1c0,0-0.1,0-0.1,0c0,0-0.3,0.4-0.4,0.4c0,0,0,0,0,0c0,0,0,0,0,0c0,0-0.1,0.2-0.2,0.2
											c0,0,0,0,0,0c0,0,0,0,0,0.1c0,0-0.1,0.1-0.1,0.1c0,0,0,0,0,0c0,0,0,0-0.1,0.2c-0.9,1-1.6,2.2-2.1,3.5
											c-0.7,1.8-0.9,3.8-0.6,5.7c0.3,2.2,1.2,4.3,2.6,6c0.1,0.1,0.2,0.2,0.2,0.2c0,0,0,0,0,0c0,0,0.1,0.1,0.1,0.1c0,0,0,0,0,0
											c0,0,0.2,0.1,0.1,0.2c0,0,0,0.1,0.1,0.1c0,0,0.1,0.1,0.2,0.2c0.1,0.1,0.2,0.2,0.2,0.2c0,0,0,0,0.1,0.1
											c0,0,0.1,0.1,0.1,0.1c0,0,0,0,0.1,0.1c0,0,0.1,0.1,0.1,0.1c0,0,0.1,0.1,0.1,0.1c1.9,1.7,4.4,2.6,6.9,2.8
											C104.6,128.5,105.3,128.5,105.6,128.4L105.6,128.4z"/>
										<path class="st14" d="M100,121.7l-5-5l5-5l5-5l5,5l5,5l-5,5c-2.7,2.7-5,5-5,5S102.8,124.5,100,121.7z M106.8,124.5
											l1.8-1.8l-1-1c-0.6-0.6-1-1-1-1s-0.4,0.3-0.8,0.8c-0.4,0.4-0.8,0.8-0.8,0.8c0,0-0.4-0.3-0.8-0.8c-0.4-0.4-0.8-0.8-0.8-0.8
											c0,0-0.5,0.5-1,1l-1,1l1.8,1.8c1,1,1.8,1.8,1.8,1.8C105,126.3,105.8,125.5,106.8,124.5z M107.6,119.3l2.6-2.6l-2.6-2.6
											l-2.6-2.6l-2.6,2.6l-2.6,2.6l1.8,1.8c1,1,1.8,1.8,1.8,1.8c0,0,0,0,0,0c0,0,0.4,0.3,0.8,0.8c0.4,0.4,0.8,0.8,0.8,0.8
											C105,121.9,106.2,120.7,107.6,119.3z M104.2,112c0.4-0.4,0.8-0.8,0.8-0.8c0,0,0.4,0.3,0.8,0.8l0.8,0.8l1-1
											c0.6-0.6,1-1,1-1c0,0-0.8-0.8-1.8-1.8l-1.8-1.8l-1.8,1.8l-1.8,1.8l1,1c0.6,0.6,1,1,1,1C103.4,112.8,103.8,112.4,104.2,112
											z"/>
										<path class="st14" d="M103.6,118.1l-1.4-1.4l1.4-1.4l1.4-1.4l1.4,1.4l1.4,1.4l-1.4,1.4c-0.8,0.8-1.4,1.4-1.4,1.4
											S104.4,118.9,103.6,118.1z"/>
									</g>
								</g>
							</g>
							<g>
								<path class="st21" d="M149.9,128.8c0,0-6.2,26-9.2,26.2c-3,0.1-12-22-12-22l2.1-0.9c0,0,7,18,9.7,18
									c1.8,0,6.3-19.9,6.3-19.9L149.9,128.8z"/>
								<path class="st18" d="M162.8,133.8c0,0-6.2,26-9.2,26.2c-3,0.1-12-22-12-22l2.1-0.9c0,0,7,18,9.7,18
									c1.8,0,6.3-19.9,6.3-19.9L162.8,133.8z"/>
							</g>
							<g>
								<path class="st21" d="M115.4,135.1l-10.3,27.4c-0.3,0.9,0.1,1.8,0.9,2.2l0,0c0.8,0.3,1.8,0,2.2-0.8l15-27.6L115.4,135.1z"/>
								
									<ellipse transform="matrix(0.7071 -0.7071 0.7071 0.7071 -83.4476 123.2454)" class="st22" cx="107" cy="162.4" rx="10.9" ry="10.9"/>
								
									<ellipse transform="matrix(0.2298 -0.9732 0.9732 0.2298 -73.8331 233.5768)" class="st23" cx="110.7" cy="163.4" rx="10.9" ry="10.9"/>
								<circle class="st22" cx="110.7" cy="163.4" r="4.4"/>
								<path class="st18" d="M126.8,137.4l-5.1,9.3l-9.9,18.3c-0.3,0.6-0.9,0.9-1.5,0.9c-0.2,0-0.5,0-0.7-0.1
									c-0.8-0.4-1.3-1.3-0.9-2.2l5.7-15l4.7-12.4L126.8,137.4z"/>
								<polygon class="st21" points="126.8,137.4 121.8,146.7 114.4,148.6 119.1,136.1 								"/>
							</g>
							<g>
								<g>
									<g>
										<polygon class="st21" points="82.1,114.6 109,122.8 119.2,145.9 98.2,139.2 										"/>
									</g>
									<polygon class="st18" points="174.3,101.8 173.9,103 163.6,135.2 130.5,143.2 119.2,145.9 109,122.8 									"/>
									<path class="st19" d="M173.9,103l-10.3,32.2l-33.1,8C156.4,128.8,169.4,110.4,173.9,103z"/>
								</g>
							</g>
						</g>
					</g>
				</g>
			</g>
		</g>
	</g>
</g>
</svg>
