<?xml version="1.0" encoding="utf-8"?>
<!-- Generator: Adobe Illustrator 23.0.5, SVG Export Plug-In . SVG Version: 6.00 Build 0)  -->
<svg version="1.1" id="Layer_1" xmlns:v="https://vecta.io/nano"
	 xmlns="http://www.w3.org/2000/svg" xmlns:xlink="http://www.w3.org/1999/xlink" x="0px" y="0px" viewBox="0 0 206 146"
	 style="enable-background:new 0 0 206 146;" xml:space="preserve">
<style type="text/css">
	.st0{fill:#B26E3B;}
	.st1{fill:#9B5E35;}
	.st2{fill:#935324;}
	.st3{fill:#222226;}
	.st4{fill:#EAAE28;}
	.st5{fill:#F3BA2F;}
	.st6{fill:#DD890E;}
	.st7{fill:#EDA024;}
	.st8{fill:#B76800;}
	.st9{fill:#FFB03E;}
	.st10{fill:#D17E46;}
	.st11{fill:#533E3D;}
	.st12{fill:#C66F34;}
	.st13{fill:#F9954B;}
	.st14{fill:#F99850;}
</style>
<g>
	<g>
		<g>
			<g>
				<path class="st0" d="M205.4,131.7c-0.7,7.9-21.2,14.2-56.4,11.4c-35.3-2.8-71.7,4.1-115.2,1.2c-43.4-2.8-32.2-12.6-24.6-16.8
					c0.8-0.5,1.8-0.9,2.7-1.3c7.9-3.3,19.2-4.7,14.4-6.2c-5.4-1.6-0.2-6.9,20.9-9.5c21.2-2.6,50.5-1.5,53.6-1.8
					c42.1-4.5,62.3,6.1,77.1,8.5l0,0C192.8,119.6,206.1,123.8,205.4,131.7z"/>
				<path class="st1" d="M205.4,131.7c-0.7,7.9-21.2,14.2-56.4,11.4c-35.3-2.8-71.7,4.1-115.2,1.2c-43.4-2.8-32.2-12.6-24.6-16.8
					c0.8-0.5,1.8-0.9,2.7-1.3c-0.8,1.9-4.4,8.8,1.2,10.2c6.7,1.7,13.2-1.4,15.3-0.2c2.2,1.2,2.2,4.3,8.4,4.3s9.7-1.7,11-1.9
					c1.2-0.2,2,1.7,5.8,2.3s7-2.9,8.7-2.7c1.8,0.2,3,1.2,5.8,2.7c2.9,1.4,6.7-1.4,8.8-1s7.7,1.2,11.2,1.4c3.6,0.2,11.5-4.7,18.7-3.3
					c7.2,1.4,38.5,1.2,53.8,0.6c15.3-0.6,16.5-6,6-8.3s-22.7-4.1-13.6-4.3c9.1-0.2,9.3,0.8,25.8,2.3c16.5,1.4,23.9-1.7,17.7-3.7
					c-6.2-2.1-1-1.4-11-5c-2.3-0.8-5-1.7-7.6-2.5C192.8,119.6,206.1,123.8,205.4,131.7z"/>
				<g>
					<path class="st2" d="M102,113.4c-0.1,0-2.6,1.1-4.9,4.1c-1,1.3-2,1.8-2.9,2.3c-0.5,0.2-0.9,0.4-1.3,0.7
						c-0.2,0.2-0.4,0.3-0.6,0.6c-0.2,0.2-0.3,0.6-0.3,0.9c-0.1,0.4-0.1,0.8-0.2,1c-0.1,0.4-0.2,0.7-0.6,1.2
						c-0.3,0.5-0.9,1.1-1.9,1.9c-0.6,0.5-1.1,0.8-1.4,1s-0.5,0.3-0.7,0.4c-0.3,0.2-0.6,0.4-0.9,0.8c-0.3,0.4-0.5,0.9-0.9,1.8
						c-0.6,1.5-1.1,2.4-1.7,3.1c-0.6,0.7-1.2,1.2-2.4,2c-2.4,1.6-3.8,3.4-3.9,3.5c-0.3,0.3-0.2,0.9,0,1.2s0.7,0.3,1-0.1l0,0
						c0.1-0.2,1.4-1.8,3.5-3.1c1.2-0.8,2-1.4,2.7-2.3c0.7-0.9,1.3-1.9,1.9-3.5c0.3-0.7,0.5-1.2,0.7-1.4c0.1-0.2,0.2-0.3,0.3-0.3
						c0.1-0.1,0.4-0.2,0.8-0.5c0.4-0.2,1-0.6,1.8-1.3c1.4-1.1,2.1-1.9,2.5-2.8c0.2-0.4,0.4-0.8,0.5-1.2c0.1-0.4,0.1-0.8,0.2-1.2
						c0-0.1,0-0.1,0.1-0.2s0.2-0.2,0.5-0.4c0.9-0.5,2.7-1,4.2-3.1c1-1.3,2.1-2.3,3-2.8c0.4-0.3,0.8-0.5,1-0.6
						c0.1-0.1,0.2-0.1,0.3-0.1h0.1l0,0l0,0c0.4-0.2,0.6-0.6,0.4-1.1C102.8,113.5,102.4,113.3,102,113.4L102,113.4z"/>
					<path class="st2" d="M111.7,111.7c-0.6,0.2-1.1,0.7-1.5,1.2c-0.6,0.7-1.1,1.6-1.6,2.4s-1.1,1.6-2,2.2c-1.3,0.9-2.1,1.5-2.9,2.3
						c-0.7,0.8-1.3,1.6-1.7,2.9c-0.4,1.2-0.9,2.2-1.5,3c-0.6,0.8-1.4,1.6-2.5,2.1c-1.4,0.7-2.2,1.8-2.9,3c-0.7,1.2-1.2,2.5-2,3.7
						c-0.7,1.1-1.5,1.6-2.3,2c-0.4,0.2-0.8,0.4-1.2,0.8c-0.4,0.3-0.8,0.8-1.1,1.4c-0.2,0.4-0.1,0.9,0.3,1.1c0.3,0.2,0.8,0.1,0.9-0.3
						c0.2-0.4,0.4-0.6,0.6-0.8c0.4-0.3,1-0.6,1.7-1s1.5-1,2.2-2.1c0.9-1.4,1.4-2.7,2-3.8s1.2-1.9,2.3-2.4c1.3-0.6,2.3-1.5,3-2.5
						c0.8-1,1.3-2.2,1.8-3.4c0.4-1.1,0.8-1.7,1.4-2.3c0.6-0.6,1.4-1.2,2.7-2.1c1.4-1,2.2-2.4,2.9-3.5c0.3-0.6,0.6-1,1-1.4
						c0.3-0.4,0.6-0.6,0.9-0.7c0.4-0.1,0.6-0.6,0.4-1C112.5,111.8,112.1,111.6,111.7,111.7L111.7,111.7z"/>
					<path class="st2" d="M123.9,110.2c-1,0-2,0.5-3.1,1.5c-1,1-1.9,2.4-2.5,4.3c-0.3,0.8-0.6,1.4-0.9,1.9c-0.5,0.7-1.1,1.1-1.8,1.6
						c-0.7,0.4-1.5,0.9-2.3,1.5c-0.6,0.5-1,1.1-1.3,1.7c-0.5,0.9-0.8,1.8-1.1,2.7c-0.3,0.8-0.6,1.6-1.2,2.2
						c-0.3,0.4-0.8,0.7-1.4,1.1c-0.9,0.5-2,0.9-3,1.5c-0.5,0.3-1,0.6-1.4,1s-0.8,0.8-1.1,1.4c-0.6,1.4-0.9,2.9-1.2,4.2
						c-0.2,0.6-0.4,1.2-0.6,1.6c-0.3,0.4-0.6,0.7-1.1,0.9c-0.4,0.2-0.5,0.6-0.4,1.1c0.1,0.4,0.5,0.6,0.9,0.5
						c0.7-0.3,1.3-0.9,1.7-1.5c0.6-0.9,0.9-2.1,1.1-3.1c0.3-1.1,0.5-2.1,0.8-2.8c0.2-0.4,0.6-0.8,1.1-1.2c0.8-0.6,1.8-1,2.8-1.5
						s2.1-1,2.8-1.9c1-1.1,1.4-2.5,1.8-3.6c0.2-0.6,0.4-1.1,0.6-1.6s0.5-0.9,0.9-1.2c0.9-0.7,1.8-1.2,2.8-1.9c0.5-0.4,1-0.8,1.4-1.5
						c0.4-0.6,0.8-1.4,1.1-2.4c0.5-1.7,1.3-2.9,2.1-3.6c0.8-0.8,1.6-1.1,2.2-1.1c0.4,0,0.7-0.4,0.7-0.8
						C124.6,110.6,124.3,110.2,123.9,110.2L123.9,110.2z"/>
					<path class="st2" d="M131.1,110.7c-0.3,0.1-0.6,0.2-0.9,0.5c-0.4,0.4-0.7,0.9-1,1.4c-0.4,0.8-0.6,1.8-1,2.7
						c-0.3,0.9-0.7,1.8-1.2,2.6c-0.7,1.1-1.8,1.7-2.9,2.3c-0.6,0.3-1.1,0.6-1.6,1.1c-0.5,0.4-1,1-1.3,1.8c-0.5,1.3-0.9,3.1-1.5,4.7
						c-0.3,0.8-0.6,1.6-0.9,2.3s-0.7,1.2-1.1,1.5c-0.9,0.7-1.9,1.1-2.8,1.6c-0.5,0.3-0.9,0.5-1.3,1c-0.4,0.4-0.7,1-0.9,1.8
						c-0.2,1-0.8,2.3-1.4,3.4c-0.3,0.5-0.5,0.9-0.7,1.3c-0.1,0.2-0.2,0.3-0.2,0.4l-0.1,0.1l0,0c-0.2,0.4-0.2,0.9,0.1,1.2
						c0.3,0.3,0.7,0.2,1-0.1c0,0,0.5-0.8,1.1-1.9c0.6-1.1,1.3-2.5,1.5-3.8c0.1-0.5,0.3-0.7,0.5-1c0.3-0.4,0.9-0.7,1.6-1
						s1.5-0.7,2.4-1.4c0.6-0.5,1.1-1.2,1.5-2c0.6-1.2,1.1-2.5,1.5-3.8s0.7-2.5,1-3.4c0.2-0.4,0.4-0.8,0.8-1.1
						c0.6-0.5,1.4-0.9,2.3-1.4s1.8-1.2,2.5-2.3c0.9-1.4,1.4-3.1,1.8-4.4c0.2-0.7,0.4-1.2,0.7-1.6c0.1-0.2,0.2-0.3,0.3-0.4
						s0.2-0.1,0.3-0.2c0.4-0.1,0.6-0.5,0.5-1C131.9,110.8,131.5,110.6,131.1,110.7L131.1,110.7z"/>
				</g>
				<g>
					<path class="st2" d="M58.2,114.2c-0.1,0-3.3,1-6.7,3.6c-1.4,1.1-2.8,1.6-3.9,2c-0.6,0.2-1.1,0.4-1.7,0.6
						c-0.3,0.1-0.5,0.3-0.8,0.5c-0.2,0.2-0.5,0.5-0.6,0.8c-0.2,0.4-0.3,0.7-0.5,0.9c-0.2,0.4-0.4,0.6-0.9,1s-1.3,0.9-2.7,1.7
						c-0.9,0.5-1.5,0.7-1.9,0.9c-0.3,0.1-0.6,0.2-0.9,0.3c-0.4,0.1-0.8,0.4-1.3,0.7c-0.4,0.4-0.8,0.8-1.5,1.6
						c-1.1,1.3-1.8,2.1-2.7,2.7c-0.8,0.6-1.7,1.1-3.2,1.7c-3.1,1.4-5.3,3-5.3,3c-0.4,0.3-0.5,0.8-0.2,1c0.3,0.3,0.8,0.3,1.2,0l0,0
						c0.2-0.1,2.1-1.6,4.8-2.7c1.5-0.7,2.6-1.2,3.7-2c1-0.8,1.9-1.7,3-3c0.5-0.6,0.9-1,1.1-1.2c0.2-0.2,0.3-0.2,0.4-0.3
						c0.2-0.1,0.5-0.2,1-0.4s1.3-0.5,2.3-1.1c1.8-1,2.9-1.7,3.6-2.4c0.4-0.4,0.6-0.7,0.8-1.1c0.2-0.3,0.3-0.7,0.5-1
						c0-0.1,0.1-0.1,0.1-0.2c0.1-0.1,0.3-0.2,0.7-0.4c1.1-0.4,3.3-0.9,5.6-2.7c1.5-1.2,3-2,4.1-2.5c0.6-0.3,1-0.4,1.3-0.6
						c0.2-0.1,0.3-0.1,0.4-0.1h0.1l0,0l0,0c0.5-0.1,0.8-0.5,0.7-0.9C59.1,114.2,58.7,114.1,58.2,114.2L58.2,114.2z"/>
					<path class="st2" d="M69.9,112.7c-0.8,0.2-1.4,0.6-2,1c-0.9,0.6-1.6,1.4-2.4,2.1s-1.7,1.4-2.8,1.9c-1.7,0.8-2.9,1.3-3.9,2
						s-1.9,1.4-2.7,2.6c-0.8,1-1.6,1.9-2.5,2.6s-2,1.4-3.4,1.9c-1.7,0.6-3,1.6-4.1,2.7c-1.1,1.1-2,2.2-3.2,3.2
						c-1.1,1-2.1,1.4-3.2,1.8c-0.5,0.2-1.1,0.4-1.6,0.7c-0.6,0.3-1.1,0.7-1.6,1.2c-0.3,0.4-0.3,0.8,0.1,1c0.3,0.2,0.9,0.1,1.2-0.3
						c0.3-0.3,0.6-0.5,0.9-0.7c0.5-0.3,1.3-0.5,2.2-0.9s2-0.9,3-1.9c1.3-1.2,2.3-2.4,3.3-3.3c1-1,1.9-1.7,3.2-2.1
						c1.7-0.6,3-1.3,4.1-2.2c1.1-0.9,2-1.9,2.9-3c0.8-1,1.3-1.5,2.1-2s1.9-1,3.6-1.8c1.9-0.9,3.2-2.1,4.2-3c0.5-0.5,1-0.9,1.4-1.2
						c0.4-0.3,0.8-0.5,1.3-0.7c0.5-0.1,0.8-0.5,0.8-0.9C70.7,112.8,70.3,112.6,69.9,112.7L69.9,112.7z"/>
					<path class="st2" d="M84.3,111.4c-1.1,0-2.5,0.4-3.9,1.3c-1.4,0.8-2.8,2.1-4,3.8c-0.5,0.7-1,1.2-1.5,1.7
						c-0.8,0.6-1.6,1-2.5,1.4s-1.9,0.8-3,1.4c-0.8,0.4-1.4,0.9-1.9,1.5c-0.8,0.8-1.3,1.6-1.9,2.3c-0.6,0.7-1.1,1.4-1.9,1.9
						c-0.5,0.3-1.1,0.7-1.9,0.9c-1.2,0.4-2.5,0.8-3.8,1.3c-0.7,0.2-1.3,0.5-1.9,0.9c-0.6,0.3-1.2,0.7-1.6,1.3
						c-1.1,1.2-1.7,2.6-2.4,3.7c-0.4,0.5-0.7,1-1.1,1.4c-0.4,0.4-0.8,0.6-1.4,0.8c-0.5,0.1-0.8,0.6-0.7,0.9c0,0.4,0.5,0.6,0.9,0.4
						c0.9-0.3,1.7-0.8,2.3-1.3c0.9-0.8,1.5-1.8,2.1-2.7c0.5-0.9,1.1-1.8,1.7-2.5c0.3-0.4,0.9-0.7,1.5-1c1-0.5,2.3-0.9,3.6-1.3
						c1.3-0.4,2.6-0.9,3.7-1.7c1.4-1,2.2-2.2,2.9-3.2c0.4-0.5,0.7-1,1.1-1.4s0.8-0.8,1.4-1.1c1.2-0.7,2.4-1,3.8-1.7
						c0.7-0.3,1.4-0.7,2-1.3c0.7-0.5,1.3-1.2,1.9-2.1c1-1.5,2.2-2.5,3.3-3.2c1.1-0.7,2.1-1,2.8-1c0.4,0,0.9-0.3,1-0.7
						C85,111.7,84.7,111.4,84.3,111.4L84.3,111.4z"/>
					<path class="st2" d="M92.5,111.8c-0.4,0.1-0.8,0.2-1.1,0.4c-0.6,0.3-1.1,0.8-1.5,1.3c-0.6,0.7-1.2,1.6-1.8,2.4
						c-0.6,0.8-1.2,1.6-2,2.3c-1.1,0.9-2.4,1.5-3.9,2c-0.7,0.3-1.5,0.6-2.2,0.9c-0.7,0.4-1.4,0.9-1.9,1.6c-0.9,1.1-1.8,2.7-2.9,4.1
						c-0.5,0.7-1.1,1.4-1.7,2s-1.1,1-1.7,1.3c-1.2,0.7-2.5,1-3.6,1.4c-0.6,0.2-1.2,0.5-1.8,0.9c-0.6,0.4-1.1,0.9-1.4,1.6
						c-0.5,0.9-1.5,2.1-2.4,2.9c-0.4,0.4-0.9,0.8-1.1,1.1c-0.1,0.1-0.3,0.2-0.4,0.3h0.1l0,0c-0.4,0.3-0.4,0.8-0.2,1
						c0.3,0.2,0.8,0.2,1.2-0.1c0,0,0.8-0.7,1.8-1.6c0.9-1,2.1-2.2,2.7-3.4c0.2-0.4,0.5-0.7,0.8-0.9c0.5-0.3,1.2-0.6,2.1-0.9
						c0.9-0.3,1.9-0.6,3.1-1.2c0.8-0.4,1.6-1.1,2.2-1.7c1-1,1.9-2.2,2.7-3.4c0.8-1.1,1.5-2.2,2-3c0.3-0.4,0.7-0.7,1.2-1
						c0.8-0.4,1.8-0.8,3-1.2c1.1-0.5,2.4-1,3.5-2c1.4-1.3,2.3-2.7,3.2-3.9c0.4-0.6,0.8-1.1,1.2-1.4c0.2-0.2,0.3-0.3,0.5-0.4
						c0.1-0.1,0.3-0.1,0.4-0.2c0.5-0.1,0.8-0.5,0.9-0.9C93.3,111.9,92.9,111.7,92.5,111.8L92.5,111.8z"/>
				</g>
				<g>
					<g>
						<g>
							<g>
								<path class="st3" d="M45.9,119.8c-1.5-0.1-3-0.6-4.2-1.6c-0.3-0.3-0.7-0.6-1-1c-0.8-0.9-1.3-2-1.5-3.2
									c-0.2-0.9-0.2-1.8,0-2.6c0.2-1.2,0.7-2.2,1.5-3.2c0.3-0.3,0.6-0.7,1-1c0.9-0.7,2-1.2,3.2-1.5c0.9-0.2,1.8-0.2,2.6,0
									c1.2,0.2,2.2,0.7,3.2,1.5c0.3,0.3,0.7,0.6,1,1c0.7,0.9,1.2,2,1.5,3.2c0.2,0.9,0.2,1.8,0,2.6c-0.2,1.2-0.7,2.2-1.5,3.2
									c-0.3,0.3-0.6,0.7-1,1C49.3,119.3,47.7,119.8,45.9,119.8z"/>
							</g>
							<g>
								<path class="st4" d="M45.9,119.8c-1.5-0.1-3-0.6-4.2-1.6c-0.3-0.3-0.7-0.6-1-1c-0.8-0.9-1.3-2-1.5-3.2
									c-0.2-0.9-0.2-1.8,0-2.6c0.2-1.2,0.7-2.2,1.5-3.2c0.3-0.3,0.6-0.7,1-1c0.9-0.7,2-1.2,3.2-1.5c0.9-0.2,1.8-0.2,2.6,0
									c1.2,0.2,2.2,0.7,3.2,1.5c0.3,0.3,0.7,0.6,1,1c0.7,0.9,1.2,2,1.5,3.2c0.2,0.9,0.2,1.8,0,2.6c-0.2,1.2-0.7,2.2-1.5,3.2
									c-0.3,0.3-0.6,0.7-1,1C49.3,119.3,47.7,119.8,45.9,119.8z M46.7,119c0.6,0,1.1-0.2,1.6-0.3c0.5-0.2,1-0.4,1.5-0.7
									c1.3-0.9,2.2-2.2,2.6-3.7c0.1-0.3,0.1-0.6,0.2-0.9c0-0.2,0-0.3,0-0.7c0-0.4,0-0.6-0.1-0.9c-0.1-0.8-0.4-1.6-0.8-2.3
									c-0.7-1.2-1.8-2.1-3.2-2.6c-0.6-0.2-1.3-0.4-1.9-0.4c-0.2,0-0.6,0-0.8,0c-1,0.1-1.9,0.4-2.8,0.9c-1.2,0.7-2.1,1.8-2.6,3.2
									c-0.2,0.6-0.4,1.2-0.4,1.8c0,0.2,0,0.7,0,0.9c0,0.6,0.1,1.1,0.3,1.6c0.2,0.6,0.4,1.1,0.7,1.5c0.7,1,1.6,1.8,2.7,2.3
									c0.7,0.3,1.4,0.5,2.1,0.5c0.1,0,0.1,0,0.2,0C46,119.1,46.6,119.1,46.7,119z"/>
								<path class="st4" d="M43.6,115.4l-2.7-2.7l2.7-2.7l2.7-2.7l2.7,2.7l2.7,2.7l-2.7,2.7c-1.5,1.5-2.7,2.7-2.7,2.7
									S45,116.9,43.6,115.4z M47.6,114.1l1.4-1.4l-1.4-1.4l-1.4-1.4l-1.4,1.4l-1.4,1.4l1.4,1.4c0.8,0.8,1.4,1.4,1.4,1.4
									S46.9,114.9,47.6,114.1z"/>
							</g>
							<path class="st5" d="M43.6,115.4l-2.7-2.7l2.7-2.7l2.7-2.7l2.7,2.7l2.7,2.7l-2.7,2.7c-1.5,1.5-2.7,2.7-2.7,2.7
								S45,116.9,43.6,115.4z M47.2,116.9l1-1l-0.5-0.5c-0.3-0.3-0.5-0.5-0.5-0.5s-0.2,0.2-0.4,0.4c-0.2,0.2-0.4,0.4-0.4,0.4
								s-0.2-0.2-0.4-0.4c-0.2-0.2-0.4-0.4-0.4-0.4s-0.2,0.2-0.5,0.5l-0.5,0.5l1,1c0.5,0.5,1,1,1,1S46.7,117.5,47.2,116.9z
								 M47.6,114.1l1.4-1.4l-1.4-1.4l-1.4-1.4l-1.4,1.4l-1.4,1.4l1,1c0.5,0.5,1,1,1,1l0,0c0,0,0.2,0.2,0.4,0.4
								c0.2,0.2,0.4,0.4,0.4,0.4S46.9,114.9,47.6,114.1z M45.8,110.2c0.2-0.2,0.4-0.4,0.4-0.4s0.2,0.2,0.4,0.4l0.4,0.4l0.5-0.5
								c0.3-0.3,0.5-0.5,0.5-0.5s-0.4-0.4-1-1l-0.9-1l-1,1l-1,1l0.5,0.5c0.3,0.3,0.5,0.5,0.5,0.5C45.4,110.6,45.6,110.4,45.8,110.2z
								"/>
							<path class="st5" d="M45.5,113.5l-0.7-0.7l0.7-0.7l0.7-0.7L47,112l0.7,0.7l-0.7,0.7c-0.4,0.4-0.7,0.7-0.7,0.7
								S45.9,113.9,45.5,113.5z"/>
						</g>
					</g>
					<g>
						<g>
							<g>
								<path class="st3" d="M37.6,126.9c-1.5-0.1-3-0.6-4.2-1.6c-0.3-0.3-0.7-0.6-1-1c-0.8-0.9-1.3-2-1.5-3.2
									c-0.2-0.9-0.2-1.8,0-2.6c0.2-1.2,0.7-2.2,1.5-3.2c0.3-0.3,0.6-0.7,1-1c0.9-0.7,2-1.2,3.2-1.5c0.9-0.2,1.8-0.2,2.6,0
									c1.2,0.2,2.2,0.7,3.2,1.5c0.3,0.3,0.7,0.6,1,1c0.7,0.9,1.2,2,1.5,3.2c0.2,0.9,0.2,1.8,0,2.6c-0.2,1.2-0.7,2.2-1.5,3.2
									c-0.3,0.3-0.6,0.7-1,1C41,126.4,39.4,127,37.6,126.9z"/>
							</g>
							<g>
								<path class="st4" d="M37.6,126.9c-1.5-0.1-3-0.6-4.2-1.6c-0.3-0.3-0.7-0.6-1-1c-0.8-0.9-1.3-2-1.5-3.2
									c-0.2-0.9-0.2-1.8,0-2.6c0.2-1.2,0.7-2.2,1.5-3.2c0.3-0.3,0.6-0.7,1-1c0.9-0.7,2-1.2,3.2-1.5c0.9-0.2,1.8-0.2,2.6,0
									c1.2,0.2,2.2,0.7,3.2,1.5c0.3,0.3,0.7,0.6,1,1c0.7,0.9,1.2,2,1.5,3.2c0.2,0.9,0.2,1.8,0,2.6c-0.2,1.2-0.7,2.2-1.5,3.2
									c-0.3,0.3-0.6,0.7-1,1C41,126.4,39.4,127,37.6,126.9z M38.4,126.2c0.6,0,1.1-0.2,1.6-0.3c0.5-0.2,1-0.4,1.5-0.7
									c1.3-0.9,2.2-2.2,2.6-3.7c0.1-0.3,0.1-0.6,0.2-0.9c0-0.2,0-0.3,0-0.7c0-0.4,0-0.6-0.1-0.9c-0.1-0.8-0.4-1.6-0.8-2.3
									c-0.7-1.2-1.8-2.1-3.2-2.6c-0.6-0.2-1.3-0.4-1.9-0.4c-0.2,0-0.6,0-0.8,0c-1,0.1-1.9,0.4-2.8,0.9c-1.2,0.7-2.1,1.8-2.6,3.2
									c-0.2,0.6-0.4,1.2-0.4,1.8c0,0.2,0,0.7,0,0.9c0,0.6,0.1,1.1,0.3,1.6c0.2,0.6,0.4,1.1,0.7,1.5c0.7,1,1.6,1.8,2.7,2.3
									c0.7,0.3,1.4,0.5,2.1,0.5c0.1,0,0.1,0,0.2,0C37.7,126.2,38.3,126.2,38.4,126.2z"/>
								<path class="st4" d="M35.2,122.6l-2.7-2.7l2.7-2.7l2.7-2.7l2.7,2.7l2.7,2.7l-2.7,2.7c-1.5,1.5-2.7,2.7-2.7,2.7
									S36.7,124.1,35.2,122.6z M39.3,121.3l1.4-1.4l-1.4-1.4l-1.4-1.4l-1.4,1.4l-1.4,1.4l1.4,1.4c0.8,0.8,1.4,1.4,1.4,1.4
									C37.9,122.7,38.5,122.1,39.3,121.3z"/>
							</g>
							<path class="st5" d="M35.2,122.6l-2.7-2.7l2.7-2.7l2.7-2.7l2.7,2.7l2.7,2.7l-2.7,2.7c-1.5,1.5-2.7,2.7-2.7,2.7
								S36.7,124.1,35.2,122.6z M38.9,124.1l1-1l-0.5-0.5c-0.3-0.3-0.5-0.5-0.5-0.5s-0.2,0.2-0.4,0.4c-0.2,0.2-0.4,0.4-0.4,0.4
								s-0.2-0.2-0.4-0.4c-0.2-0.2-0.4-0.4-0.4-0.4s-0.2,0.2-0.5,0.5l-0.5,0.5l1,1c0.5,0.5,1,1,1,1S38.3,124.6,38.9,124.1z
								 M39.3,121.3l1.4-1.4l-1.4-1.4l-1.4-1.4l-1.4,1.4l-1.4,1.4l1,1c0.5,0.5,1,1,1,1l0,0c0,0,0.2,0.2,0.4,0.4
								c0.2,0.2,0.4,0.4,0.4,0.4S38.5,122.1,39.3,121.3z M37.5,117.4c0.2-0.2,0.4-0.4,0.4-0.4s0.2,0.2,0.4,0.4l0.4,0.4l0.5-0.5
								c0.3-0.3,0.5-0.5,0.5-0.5s-0.4-0.4-1-1l-0.9-1l-1,1l-1,1l0.5,0.5c0.3,0.3,0.5,0.5,0.5,0.5C37.1,117.8,37.2,117.6,37.5,117.4z
								"/>
							<path class="st5" d="M37.2,120.7l-0.7-0.7l0.7-0.7l0.7-0.7l0.7,0.7l0.7,0.7l-0.7,0.7c-0.4,0.4-0.7,0.7-0.7,0.7
								S37.6,121.1,37.2,120.7z"/>
						</g>
					</g>
					<g>
						<g>
							<path class="st3" d="M30.2,135.4c-1.5-0.1-3-0.6-4.2-1.6c-0.3-0.3-0.7-0.6-1-1c-0.8-0.9-1.3-2-1.5-3.2
								c-0.2-0.9-0.2-1.8,0-2.6c0.2-1.2,0.7-2.2,1.5-3.2c0.3-0.3,0.6-0.7,1-1c0.9-0.7,2-1.2,3.2-1.5c0.9-0.2,1.8-0.2,2.6,0
								c1.2,0.2,2.2,0.7,3.2,1.5c0.3,0.3,0.7,0.6,1,1c0.7,0.9,1.2,2,1.5,3.2c0.2,0.9,0.2,1.8,0,2.6c-0.2,1.2-0.7,2.2-1.5,3.2
								c-0.3,0.3-0.6,0.7-1,1C33.6,134.9,32,135.5,30.2,135.4z"/>
						</g>
						<g>
							<path class="st4" d="M30.2,135.4c-1.5-0.1-3-0.6-4.2-1.6c-0.3-0.3-0.7-0.6-1-1c-0.8-0.9-1.3-2-1.5-3.2
								c-0.2-0.9-0.2-1.8,0-2.6c0.2-1.2,0.7-2.2,1.5-3.2c0.3-0.3,0.6-0.7,1-1c0.9-0.7,2-1.2,3.2-1.5c0.9-0.2,1.8-0.2,2.6,0
								c1.2,0.2,2.2,0.7,3.2,1.5c0.3,0.3,0.7,0.6,1,1c0.7,0.9,1.2,2,1.5,3.2c0.2,0.9,0.2,1.8,0,2.6c-0.2,1.2-0.7,2.2-1.5,3.2
								c-0.3,0.3-0.6,0.7-1,1C33.6,134.9,32,135.5,30.2,135.4z M31,134.7c0.6,0,1.1-0.2,1.6-0.3c0.5-0.2,1-0.4,1.5-0.7
								c1.3-0.9,2.2-2.2,2.6-3.7c0.1-0.3,0.1-0.6,0.2-0.9c0-0.2,0-0.3,0-0.7c0-0.4,0-0.6-0.1-0.9c-0.1-0.8-0.4-1.6-0.8-2.3
								c-0.7-1.2-1.8-2.1-3.2-2.6c-0.6-0.2-1.3-0.4-1.9-0.4c-0.2,0-0.6,0-0.8,0c-1,0.1-1.9,0.4-2.8,0.9c-1.2,0.7-2.1,1.8-2.6,3.2
								c-0.2,0.6-0.4,1.2-0.4,1.8c0,0.2,0,0.7,0,0.9c0,0.6,0.1,1.1,0.3,1.6c0.2,0.6,0.4,1.1,0.7,1.5c0.7,1,1.6,1.8,2.7,2.3
								c0.7,0.3,1.4,0.5,2.1,0.5c0.1,0,0.1,0,0.2,0C30.3,134.7,30.9,134.7,31,134.7z"/>
							<path class="st4" d="M27.9,131.1l-2.7-2.7l2.7-2.7l2.7-2.7l2.7,2.7l2.7,2.7l-2.7,2.7c-1.5,1.5-2.7,2.7-2.7,2.7
								S29.3,132.6,27.9,131.1z M31.9,129.8l1.4-1.4l-1.4-1.4l-1.4-1.4l-1.4,1.4l-1.4,1.4l1.4,1.4c0.8,0.8,1.4,1.4,1.4,1.4
								S31.2,130.5,31.9,129.8z"/>
						</g>
						<path class="st5" d="M27.9,131.1l-2.7-2.7l2.7-2.7l2.7-2.7l2.7,2.7l2.7,2.7l-2.7,2.7c-1.5,1.5-2.7,2.7-2.7,2.7
							S29.3,132.6,27.9,131.1z M31.5,132.6l1-1l-0.5-0.5c-0.3-0.3-0.5-0.5-0.5-0.5s-0.2,0.2-0.4,0.4c-0.2,0.2-0.4,0.4-0.4,0.4
							s-0.2-0.2-0.4-0.4c-0.2-0.2-0.4-0.4-0.4-0.4s-0.2,0.2-0.5,0.5l-0.5,0.5l1,1c0.5,0.5,1,1,1,1S31,133.1,31.5,132.6z M31.9,129.8
							l1.4-1.4l-1.4-1.4l-1.4-1.4l-1.4,1.4l-1.4,1.4l1,1c0.5,0.5,1,1,1,1l0,0c0,0,0.2,0.2,0.4,0.4c0.2,0.2,0.4,0.4,0.4,0.4
							S31.2,130.5,31.9,129.8z M30.1,125.8c0.2-0.2,0.4-0.4,0.4-0.4s0.2,0.2,0.4,0.4l0.4,0.4l0.5-0.5c0.3-0.3,0.5-0.5,0.5-0.5
							s-0.4-0.4-1-1l-0.9-1l-1,1l-1,1l0.5,0.5c0.3,0.3,0.5,0.5,0.5,0.5C29.7,126.2,29.9,126.1,30.1,125.8z"/>
						<path class="st5" d="M29.8,129.1l-0.7-0.7l0.7-0.7l0.7-0.7l0.7,0.7l0.7,0.7l-0.7,0.7c-0.4,0.4-0.7,0.7-0.7,0.7
							S30.2,129.6,29.8,129.1z"/>
					</g>
				</g>
				<g>
					<g>
						<g>
							<g>
								<path class="st3" d="M69.7,121.8c-1.5-0.1-3-0.6-4.2-1.6c-0.3-0.3-0.7-0.6-1-1c-0.8-0.9-1.3-2-1.5-3.2
									c-0.2-0.9-0.2-1.8,0-2.6c0.2-1.2,0.7-2.2,1.5-3.2c0.3-0.3,0.6-0.7,1-1c0.9-0.7,2-1.2,3.2-1.5c0.9-0.2,1.8-0.2,2.6,0
									c1.2,0.2,2.2,0.7,3.2,1.5c0.3,0.3,0.7,0.6,1,1c0.7,0.9,1.2,2,1.5,3.2c0.2,0.9,0.2,1.8,0,2.6c-0.2,1.2-0.7,2.2-1.5,3.2
									c-0.3,0.3-0.6,0.7-1,1C73.1,121.3,71.5,121.8,69.7,121.8z"/>
							</g>
							<g>
								<path class="st4" d="M69.7,121.8c-1.5-0.1-3-0.6-4.2-1.6c-0.3-0.3-0.7-0.6-1-1c-0.8-0.9-1.3-2-1.5-3.2
									c-0.2-0.9-0.2-1.8,0-2.6c0.2-1.2,0.7-2.2,1.5-3.2c0.3-0.3,0.6-0.7,1-1c0.9-0.7,2-1.2,3.2-1.5c0.9-0.2,1.8-0.2,2.6,0
									c1.2,0.2,2.2,0.7,3.2,1.5c0.3,0.3,0.7,0.6,1,1c0.7,0.9,1.2,2,1.5,3.2c0.2,0.9,0.2,1.8,0,2.6c-0.2,1.2-0.7,2.2-1.5,3.2
									c-0.3,0.3-0.6,0.7-1,1C73.1,121.3,71.5,121.8,69.7,121.8z M70.5,121.1c0.6,0,1.1-0.2,1.6-0.3c0.5-0.2,1-0.4,1.5-0.7
									c1.3-0.9,2.2-2.2,2.6-3.7c0.1-0.3,0.1-0.6,0.2-0.9c0-0.2,0-0.3,0-0.7c0-0.4,0-0.6-0.1-0.9c-0.1-0.8-0.4-1.6-0.8-2.3
									c-0.7-1.2-1.8-2.1-3.2-2.6c-0.6-0.2-1.3-0.4-1.9-0.4c-0.2,0-0.6,0-0.8,0c-1,0.1-1.9,0.4-2.8,0.9c-1.2,0.7-2.1,1.8-2.6,3.2
									c-0.2,0.6-0.4,1.2-0.4,1.8c0,0.2,0,0.7,0,0.9c0,0.6,0.1,1.1,0.3,1.6c0.2,0.6,0.4,1.1,0.7,1.5c0.7,1,1.6,1.8,2.7,2.3
									c0.7,0.3,1.4,0.5,2.1,0.5c0.1,0,0.1,0,0.2,0C69.8,121.1,70.4,121.1,70.5,121.1z"/>
								<path class="st4" d="M67.3,117.4l-2.7-2.7l2.7-2.7l2.7-2.7l2.7,2.7l2.7,2.7l-2.7,2.7c-1.5,1.5-2.7,2.7-2.7,2.7
									S68.8,118.9,67.3,117.4z M71.4,116.2l1.4-1.4l-1.4-1.4L70,112l-1.4,1.4l-1.4,1.4l1.4,1.4c0.8,0.8,1.4,1.4,1.4,1.4
									C70,117.5,70.7,116.9,71.4,116.2z"/>
							</g>
							<path class="st5" d="M67.3,117.4l-2.7-2.7l2.7-2.7l2.7-2.7l2.7,2.7l2.7,2.7l-2.7,2.7c-1.5,1.5-2.7,2.7-2.7,2.7
								S68.8,118.9,67.3,117.4z M71,119l1-1l-0.5-0.5c-0.3-0.3-0.5-0.5-0.5-0.5s-0.2,0.2-0.4,0.4c-0.2,0.2-0.4,0.4-0.4,0.4
								s-0.2-0.2-0.4-0.4c-0.2-0.2-0.4-0.4-0.4-0.4s-0.2,0.2-0.5,0.5l-0.5,0.5l1,1c0.5,0.5,1,1,1,1S70.5,119.5,71,119z M71.4,116.2
								l1.4-1.4l-1.4-1.4L70,112l-1.4,1.4l-1.4,1.4l1,1c0.5,0.5,1,1,1,1l0,0c0,0,0.2,0.2,0.4,0.4c0.2,0.2,0.4,0.4,0.4,0.4
								S70.7,116.9,71.4,116.2z M69.6,112.2c0.2-0.2,0.4-0.4,0.4-0.4s0.2,0.2,0.4,0.4l0.4,0.4l0.5-0.5c0.3-0.3,0.5-0.5,0.5-0.5
								s-0.4-0.4-1-1l-0.9-1l-1,1l-1,1l0.5,0.5c0.3,0.3,0.5,0.5,0.5,0.5C69.2,112.6,69.4,112.4,69.6,112.2z"/>
							<path class="st5" d="M69.3,115.5l-0.7-0.7l0.7-0.7l0.7-0.7l0.7,0.7l0.7,0.7l-0.7,0.7c-0.4,0.4-0.7,0.7-0.7,0.7
								S69.7,115.9,69.3,115.5z"/>
						</g>
					</g>
					<g>
						<g>
							<g>
								<path class="st3" d="M61.4,128.9c-1.5-0.1-3-0.6-4.2-1.6c-0.3-0.3-0.7-0.6-1-1c-0.8-0.9-1.3-2-1.5-3.2
									c-0.2-0.9-0.2-1.8,0-2.6c0.2-1.2,0.7-2.2,1.5-3.2c0.3-0.3,0.6-0.7,1-1c0.9-0.7,2-1.2,3.2-1.5c0.9-0.2,1.8-0.2,2.6,0
									c1.2,0.2,2.2,0.7,3.2,1.5c0.3,0.3,0.7,0.6,1,1c0.7,0.9,1.2,2,1.5,3.2c0.2,0.9,0.2,1.8,0,2.6c-0.2,1.2-0.7,2.2-1.5,3.2
									c-0.3,0.3-0.6,0.7-1,1C64.8,128.4,63.1,129,61.4,128.9z"/>
							</g>
							<g>
								<path class="st4" d="M61.4,128.9c-1.5-0.1-3-0.6-4.2-1.6c-0.3-0.3-0.7-0.6-1-1c-0.8-0.9-1.3-2-1.5-3.2
									c-0.2-0.9-0.2-1.8,0-2.6c0.2-1.2,0.7-2.2,1.5-3.2c0.3-0.3,0.6-0.7,1-1c0.9-0.7,2-1.2,3.2-1.5c0.9-0.2,1.8-0.2,2.6,0
									c1.2,0.2,2.2,0.7,3.2,1.5c0.3,0.3,0.7,0.6,1,1c0.7,0.9,1.2,2,1.5,3.2c0.2,0.9,0.2,1.8,0,2.6c-0.2,1.2-0.7,2.2-1.5,3.2
									c-0.3,0.3-0.6,0.7-1,1C64.8,128.4,63.1,129,61.4,128.9z M62.2,128.2c0.6,0,1.1-0.2,1.6-0.3c0.5-0.2,1-0.4,1.5-0.7
									c1.3-0.9,2.2-2.2,2.6-3.7c0.1-0.3,0.1-0.6,0.2-0.9c0-0.2,0-0.3,0-0.7c0-0.4,0-0.6-0.1-0.9c-0.1-0.8-0.4-1.6-0.8-2.3
									c-0.7-1.2-1.8-2.1-3.2-2.6c-0.6-0.2-1.3-0.4-1.9-0.4c-0.2,0-0.6,0-0.8,0c-1,0.1-1.9,0.4-2.8,0.9c-1.2,0.7-2.1,1.8-2.6,3.2
									c-0.2,0.6-0.4,1.2-0.4,1.8c0,0.2,0,0.7,0,0.9c0,0.6,0.1,1.1,0.3,1.6c0.2,0.6,0.4,1.1,0.7,1.5c0.7,1,1.6,1.8,2.7,2.3
									c0.7,0.3,1.4,0.5,2.1,0.5c0.1,0,0.1,0,0.2,0C61.5,128.2,62.1,128.2,62.2,128.2z"/>
								<path class="st4" d="M59,124.6l-2.7-2.7l2.7-2.7l2.7-2.7l2.7,2.7l2.7,2.7l-2.7,2.7c-1.5,1.5-2.7,2.7-2.7,2.7
									S60.5,126.1,59,124.6z M63.1,123.3l1.4-1.4l-1.4-1.4l-1.4-1.4l-1.4,1.4l-1.4,1.4l1.4,1.4c0.8,0.8,1.4,1.4,1.4,1.4
									S62.3,124.1,63.1,123.3z"/>
							</g>
							<path class="st5" d="M59,124.6l-2.7-2.7l2.7-2.7l2.7-2.7l2.7,2.7l2.7,2.7l-2.7,2.7c-1.5,1.5-2.7,2.7-2.7,2.7
								S60.5,126.1,59,124.6z M62.7,126.1l1-1l-0.5-0.5c-0.3-0.3-0.5-0.5-0.5-0.5s-0.2,0.2-0.4,0.4c-0.2,0.2-0.4,0.4-0.4,0.4
								s-0.2-0.2-0.4-0.4c-0.2-0.2-0.4-0.4-0.4-0.4s-0.2,0.2-0.5,0.5l-0.5,0.5l1,1c0.5,0.5,1,1,1,1S62.1,126.6,62.7,126.1z
								 M63.1,123.3l1.4-1.4l-1.4-1.4l-1.4-1.4l-1.4,1.4l-1.4,1.4l1,1c0.5,0.5,1,1,1,1l0,0c0,0,0.2,0.2,0.4,0.4s0.4,0.4,0.4,0.4
								S62.3,124.1,63.1,123.3z M61.3,119.4c0.2-0.2,0.4-0.4,0.4-0.4s0.2,0.2,0.4,0.4l0.4,0.4l0.5-0.5c0.3-0.3,0.5-0.5,0.5-0.5
								s-0.4-0.4-1-1l-0.9-1l-1,1l-1,1l0.5,0.5c0.3,0.3,0.5,0.5,0.5,0.5C60.8,119.8,61,119.6,61.3,119.4z"/>
							<path class="st5" d="M61,122.7l-0.7-0.7l0.7-0.7l0.7-0.7l0.7,0.7l0.7,0.7l-0.7,0.7c-0.4,0.4-0.7,0.7-0.7,0.7
								S61.4,123.1,61,122.7z"/>
						</g>
					</g>
					<g>
						<g>
							<path class="st3" d="M54,137.4c-1.5-0.1-3-0.6-4.2-1.6c-0.3-0.3-0.7-0.6-1-1c-0.8-0.9-1.3-2-1.5-3.2c-0.2-0.9-0.2-1.8,0-2.6
								c0.2-1.2,0.7-2.2,1.5-3.2c0.3-0.3,0.6-0.7,1-1c0.9-0.7,2-1.2,3.2-1.5c0.9-0.2,1.8-0.2,2.6,0c1.2,0.2,2.2,0.7,3.2,1.5
								c0.3,0.3,0.7,0.6,1,1c0.7,0.9,1.2,2,1.5,3.2c0.2,0.9,0.2,1.8,0,2.6c-0.2,1.2-0.7,2.2-1.5,3.2c-0.3,0.3-0.6,0.7-1,1
								C57.4,136.9,55.8,137.5,54,137.4z"/>
						</g>
						<g>
							<path class="st4" d="M54,137.4c-1.5-0.1-3-0.6-4.2-1.6c-0.3-0.3-0.7-0.6-1-1c-0.8-0.9-1.3-2-1.5-3.2c-0.2-0.9-0.2-1.8,0-2.6
								c0.2-1.2,0.7-2.2,1.5-3.2c0.3-0.3,0.6-0.7,1-1c0.9-0.7,2-1.2,3.2-1.5c0.9-0.2,1.8-0.2,2.6,0c1.2,0.2,2.2,0.7,3.2,1.5
								c0.3,0.3,0.7,0.6,1,1c0.7,0.9,1.2,2,1.5,3.2c0.2,0.9,0.2,1.8,0,2.6c-0.2,1.2-0.7,2.2-1.5,3.2c-0.3,0.3-0.6,0.7-1,1
								C57.4,136.9,55.8,137.5,54,137.4z M54.8,136.7c0.6,0,1.1-0.2,1.6-0.3c0.5-0.2,1-0.4,1.5-0.7c1.3-0.9,2.2-2.2,2.6-3.7
								c0.1-0.3,0.1-0.6,0.2-0.9c0-0.2,0-0.3,0-0.7c0-0.4,0-0.6-0.1-0.9c-0.1-0.8-0.4-1.6-0.8-2.3c-0.7-1.2-1.8-2.1-3.2-2.6
								c-0.6-0.2-1.3-0.4-1.9-0.4c-0.2,0-0.6,0-0.8,0c-1,0.1-1.9,0.4-2.8,0.9c-1.2,0.7-2.1,1.8-2.6,3.2c-0.2,0.6-0.4,1.2-0.4,1.8
								c0,0.2,0,0.7,0,0.9c0,0.6,0.1,1.1,0.3,1.6c0.2,0.6,0.4,1.1,0.7,1.5c0.7,1,1.6,1.8,2.7,2.3c0.7,0.3,1.4,0.5,2.1,0.5
								c0.1,0,0.1,0,0.2,0C54.1,136.7,54.7,136.7,54.8,136.7z"/>
							<path class="st4" d="M51.7,133.1l-2.7-2.7l2.7-2.7l2.7-2.7l2.7,2.7l2.7,2.7l-2.7,2.7c-1.5,1.5-2.7,2.7-2.7,2.7
								S53.1,134.6,51.7,133.1z M55.7,131.8l1.4-1.4l-1.4-1.4l-1.4-1.4l-1.4,1.4l-1.4,1.4l1.4,1.4c0.8,0.8,1.4,1.4,1.4,1.4
								S55,132.6,55.7,131.8z"/>
						</g>
						<path class="st5" d="M51.7,133.1l-2.7-2.7l2.7-2.7l2.7-2.7l2.7,2.7l2.7,2.7l-2.7,2.7c-1.5,1.5-2.7,2.7-2.7,2.7
							S53.1,134.6,51.7,133.1z M55.3,134.6l1-1l-0.5-0.5c-0.3-0.3-0.5-0.5-0.5-0.5s-0.2,0.2-0.4,0.4c-0.2,0.2-0.4,0.4-0.4,0.4
							s-0.2-0.2-0.4-0.4c-0.2-0.2-0.4-0.4-0.4-0.4s-0.2,0.2-0.5,0.5l-0.5,0.5l1,1c0.5,0.5,1,1,1,1S54.8,135.1,55.3,134.6z
							 M55.7,131.8l1.4-1.4l-1.4-1.4l-1.4-1.4l-1.4,1.4l-1.4,1.4l1,1c0.5,0.5,1,1,1,1l0,0c0,0,0.2,0.2,0.4,0.4s0.4,0.4,0.4,0.4
							S55,132.6,55.7,131.8z M53.9,127.9c0.2-0.2,0.4-0.4,0.4-0.4s0.2,0.2,0.4,0.4l0.4,0.4l0.5-0.5c0.3-0.3,0.5-0.5,0.5-0.5
							s-0.4-0.4-1-1l-0.9-1l-1,1l-1,1l0.5,0.5c0.3,0.3,0.5,0.5,0.5,0.5C53.5,128.3,53.7,128.1,53.9,127.9z"/>
						<path class="st5" d="M53.6,131.2l-0.7-0.7l0.7-0.7l0.7-0.7l0.7,0.7l0.7,0.7l-0.7,0.7c-0.4,0.4-0.7,0.7-0.7,0.7
							S54,131.6,53.6,131.2z"/>
					</g>
				</g>
				<g>
					<g>
						<g>
							<g>
								<path class="st3" d="M95.3,122.7c-1.5-0.1-3-0.6-4.2-1.6c-0.3-0.3-0.7-0.6-1-1c-0.8-0.9-1.3-2-1.5-3.2
									c-0.2-0.9-0.2-1.8,0-2.6c0.2-1.2,0.7-2.2,1.5-3.2c0.3-0.3,0.6-0.7,1-1c0.9-0.7,2-1.2,3.2-1.5c0.9-0.2,1.8-0.2,2.6,0
									c1.2,0.2,2.2,0.7,3.2,1.5c0.3,0.3,0.7,0.6,1,1c0.7,0.9,1.2,2,1.5,3.2c0.2,0.9,0.2,1.8,0,2.6c-0.2,1.2-0.7,2.2-1.5,3.2
									c-0.3,0.3-0.6,0.7-1,1C98.6,122.2,97,122.7,95.3,122.7z"/>
							</g>
							<g>
								<path class="st4" d="M95.3,122.7c-1.5-0.1-3-0.6-4.2-1.6c-0.3-0.3-0.7-0.6-1-1c-0.8-0.9-1.3-2-1.5-3.2
									c-0.2-0.9-0.2-1.8,0-2.6c0.2-1.2,0.7-2.2,1.5-3.2c0.3-0.3,0.6-0.7,1-1c0.9-0.7,2-1.2,3.2-1.5c0.9-0.2,1.8-0.2,2.6,0
									c1.2,0.2,2.2,0.7,3.2,1.5c0.3,0.3,0.7,0.6,1,1c0.7,0.9,1.2,2,1.5,3.2c0.2,0.9,0.2,1.8,0,2.6c-0.2,1.2-0.7,2.2-1.5,3.2
									c-0.3,0.3-0.6,0.7-1,1C98.6,122.2,97,122.7,95.3,122.7z M96,121.9c0.6,0,1.1-0.2,1.6-0.3c0.5-0.2,1-0.4,1.5-0.7
									c1.3-0.9,2.2-2.2,2.6-3.7c0.1-0.3,0.1-0.6,0.2-0.9c0-0.2,0-0.3,0-0.7c0-0.4,0-0.6-0.1-0.9c-0.1-0.8-0.4-1.6-0.8-2.3
									c-0.7-1.2-1.8-2.1-3.2-2.6c-0.6-0.2-1.3-0.4-1.9-0.4c-0.2,0-0.6,0-0.8,0c-1,0.1-1.9,0.4-2.8,0.9c-1.2,0.7-2.1,1.8-2.6,3.2
									c-0.2,0.6-0.4,1.2-0.4,1.8c0,0.2,0,0.7,0,0.9c0,0.6,0.1,1.1,0.3,1.6c0.2,0.6,0.4,1.1,0.7,1.5c0.7,1,1.6,1.8,2.7,2.3
									c0.7,0.3,1.4,0.5,2.1,0.5c0.1,0,0.1,0,0.2,0C95.3,122,95.9,122,96,121.9z"/>
								<path class="st4" d="M92.9,118.3l-2.7-2.7l2.7-2.7l2.7-2.7l2.7,2.7l2.7,2.7l-2.7,2.7c-1.5,1.5-2.7,2.7-2.7,2.7
									S94.3,119.8,92.9,118.3z M96.9,117l1.4-1.4l-1.4-1.4l-1.4-1.4l-1.4,1.4l-1.4,1.4l1.4,1.4c0.8,0.8,1.4,1.4,1.4,1.4
									C95.6,118.4,96.2,117.8,96.9,117z"/>
							</g>
							<path class="st5" d="M92.9,118.3l-2.7-2.7l2.7-2.7l2.7-2.7l2.7,2.7l2.7,2.7l-2.7,2.7c-1.5,1.5-2.7,2.7-2.7,2.7
								S94.3,119.8,92.9,118.3z M96.5,119.8l1-1l-0.5-0.5c-0.3-0.3-0.5-0.5-0.5-0.5s-0.2,0.2-0.4,0.4c-0.2,0.2-0.4,0.4-0.4,0.4
								s-0.2-0.2-0.4-0.4c-0.2-0.2-0.4-0.4-0.4-0.4s-0.2,0.2-0.5,0.5l-0.5,0.5l1,1c0.5,0.5,1,1,1,1S96,120.4,96.5,119.8z M96.9,117
								l1.4-1.4l-1.4-1.4l-1.4-1.4l-1.4,1.4l-1.4,1.4l1,1c0.5,0.5,1,1,1,1l0,0c0,0,0.2,0.2,0.4,0.4c0.2,0.2,0.4,0.4,0.4,0.4
								S96.2,117.8,96.9,117z M95.1,113.1c0.2-0.2,0.4-0.4,0.4-0.4s0.2,0.2,0.4,0.4l0.4,0.4l0.5-0.5c0.3-0.3,0.5-0.5,0.5-0.5
								s-0.4-0.4-1-1l-0.9-1l-1,1l-1,1l0.5,0.5c0.3,0.3,0.5,0.5,0.5,0.5C94.7,113.5,94.9,113.3,95.1,113.1z"/>
							<path class="st5" d="M94.8,116.4l-0.7-0.7l0.7-0.7l0.7-0.7l0.7,0.7l0.7,0.7l-0.7,0.7c-0.4,0.4-0.7,0.7-0.7,0.7
								S95.2,116.8,94.8,116.4z"/>
						</g>
					</g>
					<g>
						<g>
							<g>
								<path class="st3" d="M86.9,129.8c-1.5-0.1-3-0.6-4.2-1.6c-0.3-0.3-0.7-0.6-1-1c-0.8-0.9-1.3-2-1.5-3.2
									c-0.2-0.9-0.2-1.8,0-2.6c0.2-1.2,0.7-2.2,1.5-3.2c0.3-0.3,0.6-0.7,1-1c0.9-0.7,2-1.2,3.2-1.5c0.9-0.2,1.8-0.2,2.6,0
									c1.2,0.2,2.2,0.7,3.2,1.5c0.3,0.3,0.7,0.6,1,1c0.7,0.9,1.2,2,1.5,3.2c0.2,0.9,0.2,1.8,0,2.6c-0.2,1.2-0.7,2.2-1.5,3.2
									c-0.3,0.3-0.6,0.7-1,1C90.3,129.3,88.7,129.9,86.9,129.8z"/>
							</g>
							<g>
								<path class="st4" d="M86.9,129.8c-1.5-0.1-3-0.6-4.2-1.6c-0.3-0.3-0.7-0.6-1-1c-0.8-0.9-1.3-2-1.5-3.2
									c-0.2-0.9-0.2-1.8,0-2.6c0.2-1.2,0.7-2.2,1.5-3.2c0.3-0.3,0.6-0.7,1-1c0.9-0.7,2-1.2,3.2-1.5c0.9-0.2,1.8-0.2,2.6,0
									c1.2,0.2,2.2,0.7,3.2,1.5c0.3,0.3,0.7,0.6,1,1c0.7,0.9,1.2,2,1.5,3.2c0.2,0.9,0.2,1.8,0,2.6c-0.2,1.2-0.7,2.2-1.5,3.2
									c-0.3,0.3-0.6,0.7-1,1C90.3,129.3,88.7,129.9,86.9,129.8z M87.7,129.1c0.6,0,1.1-0.2,1.6-0.3c0.5-0.2,1-0.4,1.5-0.7
									c1.3-0.9,2.2-2.2,2.6-3.7c0.1-0.3,0.1-0.6,0.2-0.9c0-0.2,0-0.3,0-0.7c0-0.4,0-0.6-0.1-0.9c-0.1-0.8-0.4-1.6-0.8-2.3
									c-0.7-1.2-1.8-2.1-3.2-2.6c-0.6-0.2-1.3-0.4-1.9-0.4c-0.2,0-0.6,0-0.8,0c-1,0.1-1.9,0.4-2.8,0.9c-1.2,0.7-2.1,1.8-2.6,3.2
									c-0.2,0.6-0.4,1.2-0.4,1.8c0,0.2,0,0.7,0,0.9c0,0.6,0.1,1.1,0.3,1.6c0.2,0.6,0.4,1.1,0.7,1.5c0.7,1,1.6,1.8,2.7,2.3
									c0.7,0.3,1.4,0.5,2.1,0.5c0.1,0,0.1,0,0.2,0C87,129.1,87.6,129.1,87.7,129.1z"/>
								<path class="st4" d="M84.5,125.5l-2.7-2.7l2.7-2.7l2.7-2.7l2.7,2.7l2.7,2.7l-2.7,2.7c-1.5,1.5-2.7,2.7-2.7,2.7
									S86,127,84.5,125.5z M88.6,124.2l1.4-1.4l-1.4-1.4l-1.4-1.4l-1.4,1.4l-1.4,1.4l1.4,1.4c0.8,0.8,1.4,1.4,1.4,1.4
									C87.2,125.6,87.9,125,88.6,124.2z"/>
							</g>
							<path class="st5" d="M84.5,125.5l-2.7-2.7l2.7-2.7l2.7-2.7l2.7,2.7l2.7,2.7l-2.7,2.7c-1.5,1.5-2.7,2.7-2.7,2.7
								S86,127,84.5,125.5z M88.2,127l1-1l-0.5-0.5c-0.3-0.3-0.5-0.5-0.5-0.5s-0.2,0.2-0.4,0.4c-0.2,0.2-0.4,0.4-0.4,0.4
								s-0.2-0.2-0.4-0.4c-0.2-0.2-0.4-0.4-0.4-0.4s-0.2,0.2-0.5,0.5l-0.5,0.5l1,1c0.5,0.5,1,1,1,1S87.7,127.5,88.2,127z
								 M88.6,124.2l1.4-1.4l-1.4-1.4l-1.4-1.4l-1.4,1.4l-1.4,1.4l1,1c0.5,0.5,1,1,1,1l0,0c0,0,0.2,0.2,0.4,0.4
								c0.2,0.2,0.4,0.4,0.4,0.4S87.9,125,88.6,124.2z M86.8,120.3c0.2-0.2,0.4-0.4,0.4-0.4s0.2,0.2,0.4,0.4l0.4,0.4l0.5-0.5
								c0.3-0.3,0.5-0.5,0.5-0.5s-0.4-0.4-1-1l-0.9-1l-1,1l-1,1l0.5,0.5c0.3,0.3,0.5,0.5,0.5,0.5C86.4,120.7,86.6,120.5,86.8,120.3z
								"/>
							<path class="st5" d="M86.5,123.6l-0.7-0.7l0.7-0.7l0.7-0.7l0.7,0.7l0.7,0.7l-0.7,0.7c-0.4,0.4-0.7,0.7-0.7,0.7
								S86.9,124,86.5,123.6z"/>
						</g>
					</g>
					<g>
						<g>
							<path class="st3" d="M79.6,138.3c-1.5-0.1-3-0.6-4.2-1.6c-0.3-0.3-0.7-0.6-1-1c-0.8-0.9-1.3-2-1.5-3.2
								c-0.2-0.9-0.2-1.8,0-2.6c0.2-1.2,0.7-2.2,1.5-3.2c0.3-0.3,0.6-0.7,1-1c0.9-0.7,2-1.2,3.2-1.5c0.9-0.2,1.8-0.2,2.6,0
								c1.2,0.2,2.2,0.7,3.2,1.5c0.3,0.3,0.7,0.6,1,1c0.7,0.9,1.2,2,1.5,3.2c0.2,0.9,0.2,1.8,0,2.6c-0.2,1.2-0.7,2.2-1.5,3.2
								c-0.3,0.3-0.6,0.7-1,1C83,137.8,81.3,138.4,79.6,138.3z"/>
						</g>
						<g>
							<path class="st4" d="M79.6,138.3c-1.5-0.1-3-0.6-4.2-1.6c-0.3-0.3-0.7-0.6-1-1c-0.8-0.9-1.3-2-1.5-3.2
								c-0.2-0.9-0.2-1.8,0-2.6c0.2-1.2,0.7-2.2,1.5-3.2c0.3-0.3,0.6-0.7,1-1c0.9-0.7,2-1.2,3.2-1.5c0.9-0.2,1.8-0.2,2.6,0
								c1.2,0.2,2.2,0.7,3.2,1.5c0.3,0.3,0.7,0.6,1,1c0.7,0.9,1.2,2,1.5,3.2c0.2,0.9,0.2,1.8,0,2.6c-0.2,1.2-0.7,2.2-1.5,3.2
								c-0.3,0.3-0.6,0.7-1,1C83,137.8,81.3,138.4,79.6,138.3z M80.3,137.6c0.6,0,1.1-0.2,1.6-0.3c0.5-0.2,1-0.4,1.5-0.7
								c1.3-0.9,2.2-2.2,2.6-3.7c0.1-0.3,0.1-0.6,0.2-0.9c0-0.2,0-0.3,0-0.7c0-0.4,0-0.6-0.1-0.9c-0.1-0.8-0.4-1.6-0.8-2.3
								c-0.7-1.2-1.8-2.1-3.2-2.6c-0.6-0.2-1.3-0.4-1.9-0.4c-0.2,0-0.6,0-0.8,0c-1,0.1-1.9,0.4-2.8,0.9c-1.2,0.7-2.1,1.8-2.6,3.2
								c-0.2,0.6-0.4,1.2-0.4,1.8c0,0.2,0,0.7,0,0.9c0,0.6,0.1,1.1,0.3,1.6c0.2,0.6,0.4,1.1,0.7,1.5c0.7,1,1.6,1.8,2.7,2.3
								c0.7,0.3,1.4,0.5,2.1,0.5c0.1,0,0.1,0,0.2,0C79.6,137.6,80.2,137.6,80.3,137.6z"/>
							<path class="st4" d="M77.2,134l-2.7-2.7l2.7-2.7l2.7-2.7l2.7,2.7l2.7,2.7l-2.7,2.7c-1.5,1.5-2.7,2.7-2.7,2.7
								S78.6,135.5,77.2,134z M81.2,132.7l1.4-1.4l-1.4-1.4l-1.4-1.4l-1.4,1.4l-1.4,1.4l1.4,1.4c0.8,0.8,1.4,1.4,1.4,1.4
								C79.9,134.1,80.5,133.4,81.2,132.7z"/>
						</g>
						<path class="st5" d="M77.2,134l-2.7-2.7l2.7-2.7l2.7-2.7l2.7,2.7l2.7,2.7l-2.7,2.7c-1.5,1.5-2.7,2.7-2.7,2.7
							S78.6,135.5,77.2,134z M80.8,135.5l1-1l-0.5-0.5c-0.3-0.3-0.5-0.5-0.5-0.5s-0.2,0.2-0.4,0.4c-0.2,0.2-0.4,0.4-0.4,0.4
							s-0.2-0.2-0.4-0.4c-0.2-0.2-0.4-0.4-0.4-0.4s-0.2,0.2-0.5,0.5l-0.5,0.5l1,1c0.5,0.5,1,1,1,1S80.3,136,80.8,135.5z M81.2,132.7
							l1.4-1.4l-1.4-1.4l-1.4-1.4l-1.4,1.4l-1.4,1.4l1,1c0.5,0.5,1,1,1,1l0,0c0,0,0.2,0.2,0.4,0.4c0.2,0.2,0.4,0.4,0.4,0.4
							S80.5,133.4,81.2,132.7z M79.4,128.7c0.2-0.2,0.4-0.4,0.4-0.4s0.2,0.2,0.4,0.4l0.4,0.4l0.5-0.5c0.3-0.3,0.5-0.5,0.5-0.5
							s-0.4-0.4-1-1l-0.9-1l-1,1l-1,1l0.5,0.5c0.3,0.3,0.5,0.5,0.5,0.5C79,129.2,79.2,129,79.4,128.7z"/>
						<path class="st5" d="M79.1,132l-0.7-0.7l0.7-0.7l0.7-0.7l0.7,0.7l0.7,0.7l-0.7,0.7c-0.4,0.4-0.7,0.7-0.7,0.7
							S79.5,132.5,79.1,132z"/>
					</g>
				</g>
				<g>
					<g>
						<g>
							<g>
								<path class="st3" d="M122.6,121.7c-1.5-0.1-3-0.6-4.2-1.6c-0.3-0.3-0.7-0.6-1-1c-0.8-0.9-1.3-2-1.5-3.2
									c-0.2-0.9-0.2-1.8,0-2.6c0.2-1.2,0.7-2.2,1.5-3.2c0.3-0.3,0.6-0.7,1-1c0.9-0.7,2-1.2,3.2-1.5c0.9-0.2,1.8-0.2,2.6,0
									c1.2,0.2,2.2,0.7,3.2,1.5c0.3,0.3,0.7,0.6,1,1c0.7,0.9,1.2,2,1.5,3.2c0.2,0.9,0.2,1.8,0,2.6c-0.2,1.2-0.7,2.2-1.5,3.2
									c-0.3,0.3-0.6,0.7-1,1C126,121.2,124.3,121.8,122.6,121.7z"/>
							</g>
							<g>
								<path class="st4" d="M122.6,121.7c-1.5-0.1-3-0.6-4.2-1.6c-0.3-0.3-0.7-0.6-1-1c-0.8-0.9-1.3-2-1.5-3.2
									c-0.2-0.9-0.2-1.8,0-2.6c0.2-1.2,0.7-2.2,1.5-3.2c0.3-0.3,0.6-0.7,1-1c0.9-0.7,2-1.2,3.2-1.5c0.9-0.2,1.8-0.2,2.6,0
									c1.2,0.2,2.2,0.7,3.2,1.5c0.3,0.3,0.7,0.6,1,1c0.7,0.9,1.2,2,1.5,3.2c0.2,0.9,0.2,1.8,0,2.6c-0.2,1.2-0.7,2.2-1.5,3.2
									c-0.3,0.3-0.6,0.7-1,1C126,121.2,124.3,121.8,122.6,121.7z M123.3,121c0.6,0,1.1-0.2,1.6-0.3c0.5-0.2,1-0.4,1.5-0.7
									c1.3-0.9,2.2-2.2,2.6-3.7c0.1-0.3,0.1-0.6,0.2-0.9c0-0.2,0-0.3,0-0.7c0-0.4,0-0.6-0.1-0.9c-0.1-0.8-0.4-1.6-0.8-2.3
									c-0.7-1.2-1.8-2.1-3.2-2.6c-0.6-0.2-1.3-0.4-1.9-0.4c-0.2,0-0.6,0-0.8,0c-1,0.1-1.9,0.4-2.8,0.9c-1.2,0.7-2.1,1.8-2.6,3.2
									c-0.2,0.6-0.4,1.2-0.4,1.8c0,0.2,0,0.7,0,0.9c0,0.6,0.1,1.1,0.3,1.6c0.2,0.6,0.4,1.1,0.7,1.5c0.7,1,1.6,1.8,2.7,2.3
									c0.7,0.3,1.4,0.5,2.1,0.5c0.1,0,0.1,0,0.2,0C122.6,121,123.2,121,123.3,121z"/>
								<path class="st4" d="M120.2,117.4l-2.7-2.7l2.7-2.7l2.7-2.7l2.7,2.7l2.7,2.7l-2.7,2.7c-1.5,1.5-2.7,2.7-2.7,2.7
									S121.7,118.8,120.2,117.4z M124.3,116.1l1.4-1.4l-1.4-1.4l-1.4-1.4l-1.4,1.4l-1.4,1.4l1.4,1.4c0.8,0.8,1.4,1.4,1.4,1.4
									C122.9,117.4,123.5,116.8,124.3,116.1z"/>
							</g>
							<path class="st5" d="M120.2,117.4l-2.7-2.7l2.7-2.7l2.7-2.7l2.7,2.7l2.7,2.7l-2.7,2.7c-1.5,1.5-2.7,2.7-2.7,2.7
								S121.7,118.8,120.2,117.4z M123.8,118.9l1-1l-0.5-0.5c-0.3-0.3-0.5-0.5-0.5-0.5s-0.2,0.2-0.4,0.4c-0.2,0.2-0.4,0.4-0.4,0.4
								s-0.2-0.2-0.4-0.4c-0.2-0.2-0.4-0.4-0.4-0.4s-0.2,0.2-0.5,0.5l-0.5,0.5l1,1c0.5,0.5,1,1,1,1S123.3,119.4,123.8,118.9z
								 M124.3,116.1l1.4-1.4l-1.4-1.4l-1.4-1.4l-1.4,1.4l-1.4,1.4l1,1c0.5,0.5,1,1,1,1l0,0c0,0,0.2,0.2,0.4,0.4
								c0.2,0.2,0.4,0.4,0.4,0.4S123.5,116.8,124.3,116.1z M122.4,112.1c0.2-0.2,0.4-0.4,0.4-0.4s0.2,0.2,0.4,0.4l0.4,0.4l0.5-0.5
								c0.3-0.3,0.5-0.5,0.5-0.5s-0.4-0.4-1-1l-0.9-1l-1,1l-1,1l0.5,0.5c0.3,0.3,0.5,0.5,0.5,0.5C122,112.5,122.2,112.3,122.4,112.1
								z"/>
							<path class="st5" d="M122.1,115.4l-0.7-0.7l0.7-0.7l0.7-0.7l0.7,0.7l0.7,0.7l-0.7,0.7c-0.4,0.4-0.7,0.7-0.7,0.7
								S122.5,115.8,122.1,115.4z"/>
						</g>
					</g>
					<g>
						<g>
							<g>
								<path class="st3" d="M114.3,128.9c-1.5-0.1-3-0.6-4.2-1.6c-0.3-0.3-0.7-0.6-1-1c-0.8-0.9-1.3-2-1.5-3.2
									c-0.2-0.9-0.2-1.8,0-2.6c0.2-1.2,0.7-2.2,1.5-3.2c0.3-0.3,0.6-0.7,1-1c0.9-0.7,2-1.2,3.2-1.5c0.9-0.2,1.8-0.2,2.6,0
									c1.2,0.2,2.2,0.7,3.2,1.5c0.3,0.3,0.7,0.6,1,1c0.7,0.9,1.2,2,1.5,3.2c0.2,0.9,0.2,1.8,0,2.6c-0.2,1.2-0.7,2.2-1.5,3.2
									c-0.3,0.3-0.6,0.7-1,1C117.6,128.4,116,128.9,114.3,128.9z"/>
							</g>
							<g>
								<path class="st4" d="M114.3,128.9c-1.5-0.1-3-0.6-4.2-1.6c-0.3-0.3-0.7-0.6-1-1c-0.8-0.9-1.3-2-1.5-3.2
									c-0.2-0.9-0.2-1.8,0-2.6c0.2-1.2,0.7-2.2,1.5-3.2c0.3-0.3,0.6-0.7,1-1c0.9-0.7,2-1.2,3.2-1.5c0.9-0.2,1.8-0.2,2.6,0
									c1.2,0.2,2.2,0.7,3.2,1.5c0.3,0.3,0.7,0.6,1,1c0.7,0.9,1.2,2,1.5,3.2c0.2,0.9,0.2,1.8,0,2.6c-0.2,1.2-0.7,2.2-1.5,3.2
									c-0.3,0.3-0.6,0.7-1,1C117.6,128.4,116,128.9,114.3,128.9z M115,128.1c0.6,0,1.1-0.2,1.6-0.3c0.5-0.2,1-0.4,1.5-0.7
									c1.3-0.9,2.2-2.2,2.6-3.7c0.1-0.3,0.1-0.6,0.2-0.9c0-0.2,0-0.3,0-0.7c0-0.4,0-0.6-0.1-0.9c-0.1-0.8-0.4-1.6-0.8-2.3
									c-0.7-1.2-1.8-2.1-3.2-2.6c-0.6-0.2-1.3-0.4-1.9-0.4c-0.2,0-0.6,0-0.8,0c-1,0.1-1.9,0.4-2.8,0.9c-1.2,0.7-2.1,1.8-2.6,3.2
									c-0.2,0.6-0.4,1.2-0.4,1.8c0,0.2,0,0.7,0,0.9c0,0.6,0.1,1.1,0.3,1.6c0.2,0.6,0.4,1.1,0.7,1.5c0.7,1,1.6,1.8,2.7,2.3
									c0.7,0.3,1.4,0.5,2.1,0.5c0.1,0,0.1,0,0.2,0C114.3,128.2,114.9,128.2,115,128.1z"/>
								<path class="st4" d="M111.9,124.5l-2.7-2.7l2.7-2.7l2.7-2.7l2.7,2.7l2.7,2.7l-2.7,2.7c-1.5,1.5-2.7,2.7-2.7,2.7
									S113.3,126,111.9,124.5z M115.9,123.2l1.4-1.4l-1.4-1.4l-1.4-1.4l-1.4,1.4l-1.4,1.4l1.4,1.4c0.8,0.8,1.4,1.4,1.4,1.4
									C114.6,124.6,115.2,124,115.9,123.2z"/>
							</g>
							<path class="st5" d="M111.9,124.5l-2.7-2.7l2.7-2.7l2.7-2.7l2.7,2.7l2.7,2.7l-2.7,2.7c-1.5,1.5-2.7,2.7-2.7,2.7
								S113.3,126,111.9,124.5z M115.5,126l1-1l-0.5-0.5c-0.3-0.3-0.5-0.5-0.5-0.5s-0.2,0.2-0.4,0.4c-0.2,0.2-0.4,0.4-0.4,0.4
								s-0.2-0.2-0.4-0.4c-0.2-0.2-0.4-0.4-0.4-0.4s-0.2,0.2-0.5,0.5l-0.5,0.5l1,1c0.5,0.5,1,1,1,1S115,126.6,115.5,126z
								 M115.9,123.2l1.4-1.4l-1.4-1.4l-1.4-1.4l-1.4,1.4l-1.4,1.4l1,1c0.5,0.5,1,1,1,1l0,0c0,0,0.2,0.2,0.4,0.4
								c0.2,0.2,0.4,0.4,0.4,0.4S115.2,124,115.9,123.2z M114.1,119.3c0.2-0.2,0.4-0.4,0.4-0.4s0.2,0.2,0.4,0.4l0.4,0.4l0.5-0.5
								c0.3-0.3,0.5-0.5,0.5-0.5s-0.4-0.4-1-1l-0.9-1l-1,1l-1,1l0.5,0.5c0.3,0.3,0.5,0.5,0.5,0.5
								C113.7,119.7,113.9,119.5,114.1,119.3z"/>
							<path class="st5" d="M113.8,122.6l-0.7-0.7l0.7-0.7l0.7-0.7l0.7,0.7l0.7,0.7l-0.7,0.7c-0.4,0.4-0.7,0.7-0.7,0.7
								S114.2,123,113.8,122.6z"/>
						</g>
					</g>
					<g>
						<g>
							<path class="st3" d="M106.9,137.3c-1.5-0.1-3-0.6-4.2-1.6c-0.3-0.3-0.7-0.6-1-1c-0.8-0.9-1.3-2-1.5-3.2
								c-0.2-0.9-0.2-1.8,0-2.6c0.2-1.2,0.7-2.2,1.5-3.2c0.3-0.3,0.6-0.7,1-1c0.9-0.7,2-1.2,3.2-1.5c0.9-0.2,1.8-0.2,2.6,0
								c1.2,0.2,2.2,0.7,3.2,1.5c0.3,0.3,0.7,0.6,1,1c0.7,0.9,1.2,2,1.5,3.2c0.2,0.9,0.2,1.8,0,2.6c-0.2,1.2-0.7,2.2-1.5,3.2
								c-0.3,0.3-0.6,0.7-1,1C110.3,136.8,108.6,137.4,106.9,137.3z"/>
						</g>
						<g>
							<path class="st4" d="M106.9,137.3c-1.5-0.1-3-0.6-4.2-1.6c-0.3-0.3-0.7-0.6-1-1c-0.8-0.9-1.3-2-1.5-3.2
								c-0.2-0.9-0.2-1.8,0-2.6c0.2-1.2,0.7-2.2,1.5-3.2c0.3-0.3,0.6-0.7,1-1c0.9-0.7,2-1.2,3.2-1.5c0.9-0.2,1.8-0.2,2.6,0
								c1.2,0.2,2.2,0.7,3.2,1.5c0.3,0.3,0.7,0.6,1,1c0.7,0.9,1.2,2,1.5,3.2c0.2,0.9,0.2,1.8,0,2.6c-0.2,1.2-0.7,2.2-1.5,3.2
								c-0.3,0.3-0.6,0.7-1,1C110.3,136.8,108.6,137.4,106.9,137.3z M107.6,136.6c0.6,0,1.1-0.2,1.6-0.3c0.5-0.2,1-0.4,1.5-0.7
								c1.3-0.9,2.2-2.2,2.6-3.7c0.1-0.3,0.1-0.6,0.2-0.9c0-0.2,0-0.3,0-0.7c0-0.4,0-0.6-0.1-0.9c-0.1-0.8-0.4-1.6-0.8-2.3
								c-0.7-1.2-1.8-2.1-3.2-2.6c-0.6-0.2-1.3-0.4-1.9-0.4c-0.2,0-0.6,0-0.8,0c-1,0.1-1.9,0.4-2.8,0.9c-1.2,0.7-2.1,1.8-2.6,3.2
								c-0.2,0.6-0.4,1.2-0.4,1.8c0,0.2,0,0.7,0,0.9c0,0.6,0.1,1.1,0.3,1.6c0.2,0.6,0.4,1.1,0.7,1.5c0.7,1,1.6,1.8,2.7,2.3
								c0.7,0.3,1.4,0.5,2.1,0.5c0.1,0,0.1,0,0.2,0C106.9,136.6,107.5,136.6,107.6,136.6z"/>
							<path class="st4" d="M104.5,133l-2.7-2.7l2.7-2.7l2.7-2.7l2.7,2.7l2.7,2.7l-2.7,2.7c-1.5,1.5-2.7,2.7-2.7,2.7
								S106,134.5,104.5,133z M108.6,131.7l1.4-1.4l-1.4-1.4l-1.4-1.4l-1.4,1.4l-1.4,1.4l1.4,1.4c0.8,0.8,1.4,1.4,1.4,1.4
								C107.2,133.1,107.8,132.5,108.6,131.7z"/>
						</g>
						<path class="st5" d="M104.5,133l-2.7-2.7l2.7-2.7l2.7-2.7l2.7,2.7l2.7,2.7l-2.7,2.7c-1.5,1.5-2.7,2.7-2.7,2.7
							S106,134.5,104.5,133z M108.1,134.5l1-1l-0.5-0.5c-0.3-0.3-0.5-0.5-0.5-0.5s-0.2,0.2-0.4,0.4c-0.2,0.2-0.4,0.4-0.4,0.4
							s-0.2-0.2-0.4-0.4c-0.2-0.2-0.4-0.4-0.4-0.4s-0.2,0.2-0.5,0.5l-0.5,0.5l1,1c0.5,0.5,1,1,1,1S107.6,135,108.1,134.5z
							 M108.6,131.7l1.4-1.4l-1.4-1.4l-1.4-1.4l-1.4,1.4l-1.4,1.4l1,1c0.5,0.5,1,1,1,1l0,0c0,0,0.2,0.2,0.4,0.4
							c0.2,0.2,0.4,0.4,0.4,0.4S107.8,132.5,108.6,131.7z M106.7,127.8c0.2-0.2,0.4-0.4,0.4-0.4s0.2,0.2,0.4,0.4l0.4,0.4l0.5-0.5
							c0.3-0.3,0.5-0.5,0.5-0.5s-0.4-0.4-1-1l-0.9-1l-1,1l-1,1l0.5,0.5c0.3,0.3,0.5,0.5,0.5,0.5C106.3,128.2,106.5,128,106.7,127.8z
							"/>
						<path class="st5" d="M106.4,131.1l-0.7-0.7l0.7-0.7l0.7-0.7l0.7,0.7l0.7,0.7l-0.7,0.7c-0.4,0.4-0.7,0.7-0.7,0.7
							S106.8,131.5,106.4,131.1z"/>
					</g>
				</g>
			</g>
		</g>
	</g>
	<g>
		<g>
			<g>
				<path class="st6" d="M90.3,112.3c-0.3,0.8-23.6-0.3-23.6-1.3c0-3.4,5-22.4,5-22.4L82,92l-5,11.6c0,0,11.1,5.2,12.1,5.7
					c0.4,0.2,0.7,0.6,0.9,1C90.4,110.9,90.5,111.8,90.3,112.3z"/>
				<path class="st7" d="M90,110.2c-0.5,0.5-1.1,0.8-1.6,0.7c-1.4-0.3-15.7-2.1-16.3-3.8c-0.6-1.7,4.9-3.5,4.9-3.5
					s11.1,5.2,12.1,5.7C89.5,109.4,89.8,109.8,90,110.2z"/>
			</g>
		</g>
		<g>
			<g>
				<path class="st6" d="M59,118.2c0,0-24,0.7-24.2-0.8c-0.2-1.4,7-26.4,7.2-27l10.2,4.2l-5.9,14.2c0,0,9.7,5.3,11.5,6.1
					c0.4,0.2,0.7,0.4,0.8,0.7C59.3,116.7,59,118.2,59,118.2z"/>
				<path class="st7" d="M58.6,115.7c-1.6,0.4-3.1,0-5.6-0.6c-2.9-0.7-8.9-1.1-10.5-2.4s1.6-3.2,3.7-3.8c0,0,9.7,5.3,11.5,6.1
					C58.1,115.1,58.4,115.4,58.6,115.7z"/>
			</g>
		</g>
		<g>
			<path class="st8" d="M44.3,8.9c0,0,11.7,13.8,29.6,17.3s28.7-0.7,28.7-0.7s-10.6-9.9-28.8-14S44.3,8.9,44.3,8.9z"/>
			<path class="st3" d="M58,102.9c-7.1-1.2-13.4-5.7-18.2-13c-1.3-2-2.8-4.8-3.8-7.1c-2.8-6.6-4.3-14.2-4.4-22.2
				c-0.1-5.9,0.6-12,2-17.8c1.9-7.7,5.1-14.8,9.2-20.6c1.5-2.1,3.5-4.4,5.2-6.1c4.8-4.6,10.2-7.5,15.7-8.4C67.8,7,72,7.5,75.8,9.1
				c5.2,2.1,9.8,6.1,13.5,11.7c1.3,2,2.8,4.8,3.8,7.1c2.8,6.6,4.3,14.2,4.4,22.2c0.1,5.9-0.6,12-2,17.8c-1.9,7.7-5.1,14.8-9.2,20.6
				c-1.5,2.1-3.5,4.4-5.2,6.1C74.1,101.3,65.9,104.3,58,102.9z"/>
			<g>
				<path class="st4" d="M58,102.9c-7.1-1.2-13.4-5.7-18.2-13c-1.3-2-2.8-4.8-3.8-7.1c-2.8-6.6-4.3-14.2-4.4-22.2
					c-0.1-5.9,0.6-12,2-17.8c1.9-7.7,5.1-14.8,9.2-20.6c1.5-2.1,3.5-4.4,5.2-6.1c4.8-4.6,10.2-7.5,15.7-8.4C67.8,7,72,7.5,75.8,9.1
					c5.2,2.1,9.8,6.1,13.5,11.7c1.3,2,2.8,4.8,3.8,7.1c2.8,6.6,4.3,14.2,4.4,22.2c0.1,5.9-0.6,12-2,17.8c-1.9,7.7-5.1,14.8-9.2,20.6
					c-1.5,2.1-3.5,4.4-5.2,6.1C74.1,101.3,65.9,104.3,58,102.9z M61.9,98.5c2.7,0,5-0.4,7.4-1.3c2.6-0.9,5.1-2.4,7.6-4.2
					c6.7-5.3,12.1-13.8,15-24c0.5-1.9,1-4,1.4-5.8c0.3-1.7,0.4-2.2,0.6-4.4c0.3-2.7,0.4-3.9,0.4-6.2c0.1-5.6-0.6-11.2-2.1-16.3
					c-2.4-8.6-6.9-15.6-12.6-19.7c-2.7-2-5.6-3.2-8.8-3.8c-0.8-0.1-2.9-0.4-3.6-0.4c-4.9,0-9.2,1.5-13.6,4.5
					c-6.1,4.2-11.4,11.4-14.7,20c-1.5,3.8-2.5,7.7-3.3,12.2c-0.2,1-0.6,5-0.7,6c-0.2,4-0.1,7.2,0.3,10.8c0.4,3.7,1.2,7.3,2.3,10.6
					c2.3,7.1,6.1,13,10.8,16.8c2.8,2.3,6.1,4,9.4,4.7c0.3,0.1,0.6,0.1,0.7,0.1C58.8,98.2,61.5,98.5,61.9,98.5z"/>
				<path class="st4" d="M50.1,72.2L39.7,52.6l14.5-16.8L68.7,19l10.4,19.6l10.4,19.6L75,75c-8,9.3-14.5,16.8-14.5,16.8
					S55.8,83,50.1,72.2z M70,65.6l7.5-8.7l-5.4-10.2l-5.4-10.2l-7.5,8.7l-7.5,8.7l5.4,10.2c3,5.6,5.4,10.2,5.4,10.2
					S65.9,70.4,70,65.6z"/>
			</g>
			<g>
				<path class="st5" d="M58,102.9c-7.1-1.2-13.4-5.7-18.2-13c-1.3-2-2.8-4.8-3.8-7.1c-2.8-6.6-4.3-14.2-4.4-22.2
					c-0.1-5.9,0.6-12,2-17.8c1.9-7.7,5.1-14.8,9.2-20.6c1.5-2.1,3.5-4.4,5.2-6.1c4.8-4.6,10.2-7.5,15.7-8.4C67.8,7,72,7.5,75.8,9.1
					c5.2,2.1,9.8,6.1,13.5,11.7c1.3,2,2.8,4.8,3.8,7.1c2.8,6.6,4.3,14.2,4.4,22.2c0.1,5.9-0.6,12-2,17.8c-1.9,7.7-5.1,14.8-9.2,20.6
					c-1.5,2.1-3.5,4.4-5.2,6.1C74.1,101.3,65.9,104.3,58,102.9z M61.4,98.5C68.8,98.7,76,95,82,88.1c5.3-6.2,9.2-14.5,11.1-23.8
					c0.9-4.3,1.3-8.8,1.3-13.2c-0.1-7.6-1.6-15-4.3-21.1c-0.1-0.3-0.2-0.6-0.2-0.6s-0.1-0.1-0.1-0.2c-0.1-0.1-0.1-0.2-0.1-0.3
					c0,0-0.1-0.2-0.2-0.3c-0.1-0.2-0.2-0.3-0.2-0.3s-0.2-0.4-0.4-0.8c-0.2-0.4-0.4-0.8-0.4-0.8c0-0.1-0.1-0.3-0.1-0.2
					c0,0-0.3-0.5-0.3-0.6l0,0l-0.3-0.4l0,0c0,0-0.2-0.3-0.4-0.6c-1.3-2-2.8-3.9-4.3-5.4c-0.5-0.5-1.4-1.3-1.8-1.6
					c-0.1-0.1-0.2-0.2-0.3-0.3c0,0,0-0.1,0,0c0,0-0.2-0.1-0.5-0.3c-1.2-0.9-2.9-2-4.1-2.6c-0.1-0.1-0.2-0.1-0.2-0.2l0,0
					c0,0-1.2-0.4-1.2-0.5c0,0-0.1,0-0.2-0.1c-0.1,0-0.2,0-0.2-0.1c0,0,0,0-0.1,0s-0.1,0-0.1,0s0,0-0.1,0s-0.1,0-0.1,0s0,0-0.1,0
					s-0.1,0-0.1,0s-0.1-0.1-0.2-0.1s-0.2,0-0.2-0.1c0,0-0.1-0.1-0.3-0.1c-0.1,0-0.2-0.1-0.2-0.1H73c-0.1,0-0.1,0-0.2-0.1l0,0
					c0,0.1-0.3,0-0.3-0.1l0,0c0,0.1-0.3,0-0.3-0.1l0,0c0,0.1-0.4,0-0.4-0.1l0,0c0,0-0.2,0-0.4,0c-0.5-0.1-2.5-0.3-3-0.3
					c-0.2,0-0.4,0-0.4-0.1s-0.1-0.1-0.1,0s-0.4,0.1-0.4,0l0,0h-0.1h-0.1c-0.1,0-0.1,0-0.1,0l0,0h-0.1H67c-0.1,0-0.1,0-0.1,0l0,0
					h-0.1h-0.1c-0.1,0-0.1,0-0.2,0c0,0-0.1,0-0.3,0c-0.1,0-0.3,0-0.3,0s-0.1,0-0.2,0s-0.2,0-0.2,0h-0.1c-0.1,0-0.1,0-0.1,0
					s0,0-0.1,0s-0.1,0-0.1,0s0,0-0.1,0s-0.1,0-0.1,0s-0.1,0.1-0.2,0c-0.1,0-0.2,0-0.2,0c0,0.1-1.2,0.2-1.2,0.2h-0.1
					c0,0-0.3,0.1-0.6,0.2c-1.4,0.4-2.8,0.9-4.2,1.5c-0.3,0.1-0.5,0.2-0.6,0.2h-0.1c0,0-0.1,0.1-0.2,0.2c-0.4,0.2-1.6,0.9-2.1,1.2
					c-1.9,1.2-3.7,2.6-5.4,4.3c-0.4,0.4-0.6,0.5-0.6,0.5s-0.1,0,0,0c0.1,0.1-0.3,0.4-0.3,0.4s-0.1,0,0,0c0,0,0,0.1-0.2,0.3
					c-0.1,0.1-0.2,0.2-0.3,0.2s-0.2,0.1-0.2,0.2c0,0-1,1.2-1.1,1.2c0,0-0.1,0-0.1,0.1s-0.1,0.1,0,0.1c0,0.1-0.4,0.5-0.4,0.5
					c-0.1,0-0.1,0,0,0c0,0,0,0.1-0.1,0.2s-0.2,0.2-0.2,0.2s-0.1,0,0,0c0,0,0,0.2-0.3,0.5c-2.6,3.5-4.9,7.7-6.6,12.2
					c-2.4,6.4-3.8,13.5-4,20.7c-0.2,8.2,1.2,16,4.2,22.7c0.2,0.4,0.3,0.8,0.3,0.8l0,0c0,0,0.2,0.4,0.2,0.5l0,0l0.3,0.6l0.1,0.2
					c0,0,0.2,0.4,0.4,0.8s0.4,0.8,0.4,0.8s0.1,0.1,0.2,0.3c0.1,0.2,0.2,0.3,0.2,0.3s0.1,0.1,0.1,0.2c0.1,0.1,0.1,0.2,0.1,0.2
					s0.2,0.2,0.3,0.5c4.2,6.6,9.9,10.9,16.3,12.2C58.8,98.2,60.7,98.4,61.4,98.5L61.4,98.5z"/>
				<path class="st5" d="M50.1,72.2L39.7,52.6l14.5-16.8L68.7,19l10.4,19.6l10.4,19.6L75,75c-8,9.3-14.5,16.8-14.5,16.8
					S55.8,83,50.1,72.2z M65.9,84.4l5.2-6l-2.1-4c-1.2-2.2-2.1-4-2.1-4s-1,1.2-2.3,2.6c-1.2,1.4-2.2,2.6-2.3,2.6s-0.8-1.4-1.6-3
					c-0.9-1.7-1.6-3-1.6-3s-1.3,1.5-3,3.4l-2.9,3.4l3.7,7c2,3.9,3.7,7,3.7,7C60.7,90.4,63,87.7,65.9,84.4z M70,65.6l7.5-8.7
					l-5.4-10.2l-5.4-10.2l-7.5,8.7l-7.5,8.7l3.8,7.1c2.1,3.9,3.8,7.1,3.7,7.1l0,0c0,0,0.8,1.4,1.7,3c0.9,1.7,1.6,3,1.6,3
					S65.9,70.4,70,65.6z M64.6,37.7c1.2-1.4,2.3-2.6,2.3-2.6s0.8,1.4,1.7,3l1.6,3l2.9-3.4c1.6-1.9,2.9-3.4,2.9-3.4s-1.7-3.2-3.7-7.1
					l-3.7-7l-5.2,6l-5.2,6l2.1,4c1.2,2.2,2.1,4,2.1,4C62.3,40.3,63.4,39.1,64.6,37.7z"/>
				<path class="st5" d="M60.6,60.1l-2.9-5.5l4.1-4.7l4-4.7l2.9,5.5l2.9,5.5l-4,4.7c-2.2,2.6-4,4.7-4.1,4.7S62.2,63.1,60.6,60.1z"/>
			</g>
			<g>
				<path class="st9" d="M63,8.2c0,0,4.3-4.2,7.6-8.1C74-3.7,78,3.3,80.1,4s6.6-0.9,7.8,0.5c1.2,1.4-0.1,10.6-0.1,10.6
					S71.2,6.5,63,8.2z"/>
				<path class="st7" d="M44.3,8.9c0,0,20.1,1.2,33,4.6c12.9,3.5,25.3,11.9,25.3,11.9S92,12.3,73.1,8.8S44.3,8.9,44.3,8.9z"/>
			</g>
		</g>
		<g>
			<path class="st10" d="M39.5,49.8l0.6-0.1c0,0,3.6,1.8,4.4,2.5c0.8,0.8,0.5,3.5,0.5,4.2s-0.5,1.5-2,1s-2.5-1.1-2.7-1.9
				s1.9-0.8,1.9-0.8S37.7,53.6,39.5,49.8z"/>
			<path class="st11" d="M22,36.5c0,0-2.9-0.6-2.4,2.4L40.3,57l2.6-2.5L22,36.5z"/>
			<path class="st10" d="M44.4,55.7c0,1.8-1.8,3.6-1.8,3.6s-1.7,1.4-2.4,1s-1-1.1-1.2-1.1s-0.7,0.1-1.1-0.1
				c-0.4-0.2-0.9-0.9-0.9-0.9s-0.7,0-1.2-0.4s-0.9-1.2-0.9-1.2s-1.6,0.1-1.7-0.9c-0.1-0.7,0.4-4,0.7-5.6c0.1-0.6,0.1-0.9,0.1-0.9
				L33.4,45l6.3-0.4L40,49l0.1,0.7C40.1,49.7,44.4,53.9,44.4,55.7z"/>
			<path class="st12" d="M40,49c-1.1,0.7-3.2,1.6-6.1,1.1c0.1-0.6,0.1-0.9,0.1-0.9L33.4,45l6.3-0.4L40,49z"/>
		</g>
		<path class="st13" d="M32.7,42.9l0.8,5.5c0,0,4.5,1.8,6.8-0.8l-0.5-5.3c-0.7-0.3-2.2-0.7-4-0.5C34.4,42,33.3,42.5,32.7,42.9z"/>
		<path class="st11" d="M132,121.3l-2.6-6c-0.6-1.3-2.1-1.8-3.3-1.1l-9.4,5c-0.4,0.2-0.9,0.2-1.3-0.1L45.1,57.7
			c-0.7-0.6-1.7-0.6-2.4,0.1l0,0c-0.8,0.7-0.7,2,0.1,2.7l68.3,59.9c0.6,0.5,0.5,1.5-0.2,1.9l-8.7,4.6c-1.1,0.6-1.5,1.9-1.1,3
			l2.9,6.9c0.2,0.5,0.8,0.7,1.3,0.4l0.7-0.4c0.4-0.2,0.6-0.7,0.4-1.1l-2.3-6.6l2.4-1.1l2.5,6c0.2,0.5,0.8,0.7,1.3,0.5l0.9-0.5
			c0.4-0.2,0.6-0.7,0.4-1.1l-2.3-6.1l2.6-1.4l2.7,5.6c0.2,0.5,0.8,0.7,1.3,0.4l0.7-0.4c0.4-0.2,0.6-0.7,0.4-1.2l-2.5-6l3.2-1.8
			l2.6,5.7c0.2,0.5,0.8,0.7,1.3,0.4l0.8-0.4c0.4-0.2,0.6-0.7,0.4-1.2l-2.5-5.7l3.1-1.5l2.7,5.2c0.2,0.5,0.8,0.6,1.3,0.4l0.2-0.1
			c0.4-0.2,0.6-0.8,0.4-1.2l-2.6-5.1l2.5-1.4l2.4,5.1c0.2,0.3,0.5,0.5,0.8,0.5c0.2,0,0.3,0,0.5-0.1C132,122.3,132.2,121.8,132,121.3
			z"/>
		<g>
			<g>
				<path class="st14" d="M83.3,73.7l-4.4,5.2c0,0-0.4,2.4,1.1,3.9s3.8,0.9,3.8,0.9l4.7-6.1C88.5,77.6,87.3,74.1,83.3,73.7z"/>
				<g>
					<path class="st12" d="M80,79.1c0,0-2.8,0.4-4,1.1s-2.6,3.2,0,6.2c2.5,2.8,5,1.2,6.2-0.4c1.2-1.7,1.5-3,1.5-3S83.5,80.6,80,79.1
						z"/>
					<g>
						<path class="st10" d="M80.6,88c-1.2-0.3-2.4,0.3-2.9,1l-0.1,0.1c-0.4,0.7-0.2,1.5-0.2,1.5l-0.7-0.2c-2.1-0.7-1.6-2.6-1.6-2.6
							c-1.6-1.1-0.5-2.6-0.5-2.6s-1.5-0.5-1.6-1.4s0.8-1.6,0.8-1.6s-1-1.1-0.8-2.1c0-0.2,0.1-0.3,0.2-0.5c0.6-0.6,1.8-1,2.6-1.2
							c0.7-0.2,2,0.2,2.5,0.9c0.2,0.3,0.2,0.7,0.1,1.1l-0.1,0.3c1.7,0.6,0.7,2.2,0.7,2.2c2.1,0.9,0.9,2.3,0.9,2.3
							C81.7,86.1,81.8,88.4,80.6,88z"/>
						<path class="st12" d="M77.4,90.8l-0.7-0.2c-2.1-0.7-1.6-2.6-1.6-2.6c-1.6-1.1-0.5-2.6-0.5-2.6S73.1,84.9,73,84
							s0.8-1.6,0.8-1.6s-1-1.1-0.8-2.1c0-0.2,0.1-0.3,0.2-0.5c0,0.6,0.1,1.3,1,1.8c0,0,1.1-0.4,2-0.5c0,0-1.9,1-1.9,2s1.1,1,1.1,1
							s0.8-0.4,1.8-0.7c-0.1,0.1-1.5,1.1-1.4,2.1s0.3,1,0.3,1s0.2-0.8,1.5-1.1c0,0-2.1,2.4-0.9,3.3c0.3,0.2,0.6,0.3,0.9,0.4
							C77.2,90,77.4,90.8,77.4,90.8z"/>
					</g>
					<g>
						<path class="st10" d="M82,88c-0.1,0.1-0.3,0.2-0.4,0.3c-1.1,0.6-2.2-0.6-3.7-2c-1.6-1.5-1.2-2.2-0.4-2.2c0,0,0,0,0.1,0
							c0.8,0,2,0.7,2.2,0.9c-0.1-0.1-0.2-0.4-0.5-1.4c-0.1-0.3-0.1-0.6,0-0.9l0,0c0.3-0.9,1.4-1.5,1.4-1.5c1.6-0.3,2.7,1.2,2.9,2
							C83.9,83.8,83.3,86.8,82,88z"/>
						<path class="st12" d="M79.4,83.5c-0.1-0.3-0.1-0.6,0-0.9c0.1,0.6,0.4,1.4,1,2c1,1.1,0.8,1.4,0.8,1.4s-0.4-0.4-1.4-1.1l0,0l0,0
							C79.8,84.8,79.6,84.5,79.4,83.5z"/>
						<path class="st12" d="M81.6,88.2c-1.1,0.6-2.2-0.6-3.7-2c-1.6-1.5-1.2-2.2-0.4-2.2c0.4,0.4,1.5,1.1,2.2,1.8
							C80.5,86.5,81.6,87.6,81.6,88.2z"/>
					</g>
				</g>
			</g>
		</g>
	</g>
</g>
</svg>
