<?xml version="1.0" encoding="utf-8"?>
<!-- Generator: Adobe Illustrator 23.0.5, SVG Export Plug-In . SVG Version: 6.00 Build 0)  -->
<svg version="1.1" id="Layer_1" xmlns:v="https://vecta.io/nano"
	 xmlns="http://www.w3.org/2000/svg" xmlns:xlink="http://www.w3.org/1999/xlink" x="0px" y="0px" viewBox="0 0 72 72"
	 style="enable-background:new 0 0 72 72;" xml:space="preserve">
<style type="text/css">
	.st0{fill:#D7D9E2;}
	.st1{fill:#C5C9D3;}
	.st2{fill:#B6B8BF;}
	.st3{fill:#B9BFC9;}
</style>
<g>
	<path class="st0" d="M34.6,72c-7.9-0.3-15.3-3.2-21.4-8.2c-1.7-1.4-3.6-3.3-5-5c-3.9-4.7-6.4-10.2-7.6-16.2c-0.8-4.4-0.8-9,0-13.4
		c1.1-5.9,3.7-11.5,7.6-16.2c1.4-1.7,3.3-3.6,5-5c4.7-3.9,10.2-6.4,16.2-7.6c4.4-0.8,9-0.8,13.4,0c5.9,1.1,11.5,3.7,16.2,7.6
		c1.7,1.4,3.6,3.3,5,5c3.9,4.7,6.4,10.2,7.6,16.2c0.8,4.4,0.8,9,0,13.4c-1.1,5.9-3.7,11.5-7.6,16.2c-1.4,1.7-3.3,3.6-5,5
		C52,69.4,43.4,72.3,34.6,72z"/>
</g>
<g>
	<path class="st1" d="M34.6,72c-7.9-0.3-15.3-3.2-21.4-8.2c-1.7-1.4-3.6-3.3-5-5c-3.9-4.7-6.4-10.2-7.6-16.2c-0.8-4.4-0.8-9,0-13.4
		c1.1-5.9,3.7-11.5,7.6-16.2c1.4-1.7,3.3-3.6,5-5c4.7-3.9,10.2-6.4,16.2-7.6c4.4-0.8,9-0.8,13.4,0c5.9,1.1,11.5,3.7,16.2,7.6
		c1.7,1.4,3.6,3.3,5,5c3.9,4.7,6.4,10.2,7.6,16.2c0.8,4.4,0.8,9,0,13.4c-1.1,5.9-3.7,11.5-7.6,16.2c-1.4,1.7-3.3,3.6-5,5
		C52,69.4,43.4,72.3,34.6,72z M38.3,68.3c2.9-0.2,5.4-0.7,7.9-1.6c2.7-0.9,5.3-2.2,7.7-3.8c6.7-4.5,11.5-11.3,13.5-19.1
		c0.4-1.4,0.6-3.1,0.8-4.5c0.1-1.3,0.1-1.7,0.1-3.4c0-2-0.1-2.9-0.3-4.7c-0.6-4.2-2-8.3-4.3-12c-3.7-6.2-9.4-11-16.2-13.6
		c-3.2-1.2-6.5-1.9-10-2.1c-0.9,0-3.2,0-3.9,0c-5.3,0.4-9.9,1.9-14.3,4.5c-6.2,3.7-11,9.4-13.6,16.2c-1.1,3-1.8,5.9-2.1,9.4
		c-0.1,0.7-0.1,3.8,0,4.5c0.2,3,0.7,5.4,1.6,8C6.2,49,7.4,51.6,9,54c3.4,5.1,8.2,9.2,13.8,11.6c3.4,1.5,7.2,2.4,10.9,2.7
		c0.3,0,0.7,0,0.8,0.1C34.9,68.4,37.9,68.4,38.3,68.3z"/>
	<path class="st1" d="M22.2,49.8L8.5,36l13.8-13.8L36,8.5l13.8,13.8L63.5,36L49.8,49.8C42.2,57.3,36,63.5,36,63.5
		S29.8,57.3,22.2,49.8z M43.1,43.1l7.1-7.1l-7.1-7.1L36,21.7l-7.1,7.1L21.7,36l7.1,7.1c3.9,3.9,7.1,7.1,7.1,7.1S39.2,47.1,43.1,43.1
		z"/>
</g>
<g>
	<path class="st2" d="M34.6,72c-7.9-0.3-15.3-3.2-21.4-8.2c-1.7-1.4-3.6-3.3-5-5c-3.9-4.7-6.4-10.2-7.6-16.2c-0.8-4.4-0.8-9,0-13.4
		c1.1-5.9,3.7-11.5,7.6-16.2c1.4-1.7,3.3-3.6,5-5c4.7-3.9,10.2-6.4,16.2-7.6c4.4-0.8,9-0.8,13.4,0c5.9,1.1,11.5,3.7,16.2,7.6
		c1.7,1.4,3.6,3.3,5,5c3.9,4.7,6.4,10.2,7.6,16.2c0.8,4.4,0.8,9,0,13.4c-1.1,5.9-3.7,11.5-7.6,16.2c-1.4,1.7-3.3,3.6-5,5
		C52,69.4,43.4,72.3,34.6,72z M37.7,68.4c8.1-0.4,15.5-3.8,21.2-9.5c5.1-5.1,8.3-11.6,9.2-18.6c0.4-3.3,0.4-6.7-0.2-10
		c-1-5.7-3.5-11-7.3-15.4c-0.2-0.2-0.3-0.4-0.3-0.4c0,0-0.1-0.1-0.2-0.2S60,14.2,60,14.2c0,0-0.1-0.1-0.2-0.2
		c-0.1-0.1-0.2-0.2-0.2-0.2c0,0-0.3-0.3-0.6-0.6c-0.3-0.3-0.6-0.6-0.6-0.6c0,0-0.2-0.2-0.2-0.2c0,0-0.4-0.4-0.4-0.4c0,0,0,0,0,0
		c0,0-0.3-0.3-0.3-0.3c0,0,0,0,0,0c0,0-0.3-0.2-0.6-0.4c-1.7-1.4-3.5-2.6-5.4-3.7c-0.6-0.3-1.7-0.9-2.1-1.1C49.2,6.4,49,6.3,49,6.3
		c0,0,0,0-0.1,0c0,0-0.3-0.1-0.5-0.2C47,5.4,45,4.8,43.6,4.5c-0.2,0-0.3-0.1-0.3-0.1c0,0,0,0,0,0c0,0-1.3-0.2-1.4-0.3
		c0,0-0.1,0-0.2,0c-0.1,0-0.2,0-0.2,0c0,0-0.1,0-0.1,0c-0.1,0-0.1,0-0.1,0s0,0-0.1,0c-0.1,0-0.1,0-0.1,0c0,0-0.1,0-0.1,0
		s-0.1,0-0.1,0c0,0-0.1,0-0.2,0c-0.1,0-0.2,0-0.3,0c0,0-0.1,0-0.3,0c-0.1,0-0.3,0-0.3,0c0,0-0.1,0-0.2,0c-0.1,0-0.2,0-0.2,0
		c0,0,0,0,0,0c0,0.1-0.3,0-0.3,0c0,0,0,0,0,0c0,0.1-0.3,0-0.4,0c0,0,0,0,0,0c0,0-0.4,0-0.5,0c0,0,0,0,0,0c0,0-0.2,0-0.5,0
		c-0.6,0-2.7,0-3.3,0c-0.2,0-0.5,0-0.5,0c0,0-0.1,0-0.1,0c0,0-0.4,0.1-0.4,0c0,0,0,0-0.1,0s-0.1,0-0.1,0s-0.1,0-0.1,0
		c-0.1,0-0.1,0-0.1,0c0,0,0,0-0.1,0c0,0-0.1,0-0.1,0c0,0-0.1,0-0.1,0c-0.1,0-0.1,0-0.1,0s0,0-0.1,0c0,0-0.1,0-0.1,0c0,0-0.1,0-0.2,0
		c-0.1,0-0.2,0-0.2,0c0,0-0.1,0-0.3,0c-0.1,0-0.3,0-0.3,0c0,0-0.1,0-0.3,0s-0.2,0-0.2,0c0,0-0.1,0-0.1,0c-0.1,0-0.1,0-0.1,0
		c0,0,0,0-0.1,0c-0.1,0-0.1,0-0.1,0s0,0-0.1,0c-0.1,0-0.1,0-0.1,0c0,0-0.1,0-0.2,0c-0.1,0-0.2,0-0.2,0c0,0-1.2,0.3-1.3,0.3
		c0,0-0.1,0-0.1,0c0,0-0.3,0.1-0.7,0.2C26.4,5,25,5.5,23.6,6c-0.3,0.1-0.5,0.2-0.6,0.2c-0.1,0-0.1,0-0.1,0c0,0-0.1,0.1-0.2,0.2
		c-0.4,0.2-1.7,0.8-2.2,1.1c-1.9,1.1-3.7,2.3-5.4,3.7c-0.4,0.3-0.6,0.4-0.6,0.4c-0.1,0-0.1,0,0,0c0.1,0.1-0.2,0.3-0.3,0.3
		c-0.1,0-0.1,0,0,0c0,0,0,0.1-0.2,0.2c-0.1,0.1-0.2,0.2-0.3,0.2c-0.1,0-0.2,0.1-0.2,0.1c0,0-0.9,1-1,1c0,0-0.1,0-0.1,0.1
		c0,0-0.1,0.1,0,0.1c0.1,0-0.3,0.4-0.4,0.4c-0.1,0-0.1,0,0,0s0,0.1-0.1,0.2c-0.1,0.1-0.2,0.1-0.2,0.1c-0.1,0-0.1,0,0,0
		c0,0,0,0.1-0.3,0.4C9,17.7,7,21.1,5.7,24.5c-1.9,5-2.5,10.4-1.8,15.7c0.8,6.1,3.3,11.8,7.3,16.6c0.3,0.3,0.5,0.6,0.4,0.6
		c0,0,0,0,0,0c0.1,0,0.3,0.3,0.3,0.3c0,0,0,0,0,0c0,0,0.4,0.4,0.4,0.4c0,0,0.1,0.1,0.1,0.2c0,0,0.3,0.3,0.6,0.6
		c0.3,0.3,0.6,0.6,0.6,0.6c0,0,0.1,0.1,0.2,0.2c0.1,0.1,0.2,0.2,0.2,0.2c0,0,0.1,0.1,0.2,0.2c0.1,0.1,0.2,0.2,0.2,0.2
		c0,0,0.2,0.1,0.4,0.3c5.4,4.6,12.2,7.3,19.2,7.7C34.9,68.4,37,68.4,37.7,68.4L37.7,68.4z"/>
	<path class="st3" d="M22.2,49.8L8.5,36l13.8-13.8L36,8.5l13.8,13.8L63.5,36L49.8,49.8C42.2,57.3,36,63.5,36,63.5
		S29.8,57.3,22.2,49.8z M40.9,57.5l4.9-4.9l-2.8-2.8c-1.5-1.5-2.8-2.8-2.8-2.8s-1,0.9-2.1,2.1C37,50.3,36,51.2,36,51.2
		c0,0-1-0.9-2.2-2.1S31.7,47,31.7,47s-1.3,1.2-2.8,2.8l-2.8,2.8l4.9,4.9c2.7,2.7,4.9,4.9,5,4.9S38.2,60.2,40.9,57.5z M43.1,43.1
		l7.1-7.1l-7.1-7.1L36,21.7l-7.1,7.1L21.7,36l5,5c2.7,2.7,5,5,5,5s0,0,0,0c0,0,1,1,2.2,2.1c1.2,1.2,2.1,2.1,2.1,2.1
		S39.2,47.1,43.1,43.1z M33.8,22.8c1.2-1.2,2.1-2.1,2.2-2.1c0,0,1,1,2.2,2.1l2.1,2.1l2.8-2.8c1.5-1.5,2.8-2.8,2.8-2.8
		c0,0-2.2-2.2-4.9-5L36,9.5L31,14.4l-4.9,4.9l2.8,2.8c1.5,1.5,2.8,2.8,2.8,2.8C31.7,24.9,32.6,24,33.8,22.8z"/>
</g>
<g>
	<path class="st3" d="M34.3,37.8c0.2-0.6,0.4-1,0.7-1.4c0.3-0.4,0.6-0.8,1.1-1.4c0.4-0.4,0.6-0.8,0.8-1c0.2-0.3,0.4-0.6,0.5-0.9
		c0.1-0.3,0.2-0.7,0.2-1.1v0c0-0.6-0.1-1-0.4-1.3c-0.3-0.3-0.7-0.5-1.2-0.5c-0.5,0-0.9,0.2-1.1,0.5c-0.3,0.3-0.4,0.8-0.4,1.4v0H31v0
		c0-1.1,0.3-2,0.7-2.8c0.4-0.8,1-1.3,1.7-1.7C34.1,27.2,35,27,36,27c1.1,0,2,0.2,2.7,0.5c0.8,0.4,1.3,0.9,1.7,1.6
		c0.4,0.7,0.6,1.5,0.6,2.5v0c0,0.6-0.1,1.2-0.3,1.7c-0.2,0.5-0.4,0.9-0.6,1.3c-0.3,0.4-0.6,0.8-1,1.3c-0.4,0.5-0.7,0.9-0.9,1.2
		c-0.2,0.3-0.4,0.7-0.6,1.1c-0.2,0.4-0.2,0.9-0.2,1.4H34C34,39,34.1,38.4,34.3,37.8z M34,41.6h3.4V45H34V41.6z"/>
</g>
</svg>
