<?xml version="1.0" encoding="utf-8"?>
<!-- Generator: Adobe Illustrator 23.0.5, SVG Export Plug-In . SVG Version: 6.00 Build 0)  -->
<svg version="1.1" id="Layer_1" xmlns:v="https://vecta.io/nano"
	 xmlns="http://www.w3.org/2000/svg" xmlns:xlink="http://www.w3.org/1999/xlink" x="0px" y="0px" viewBox="0 0 193 230"
	 style="enable-background:new 0 0 193 230;" xml:space="preserve">
<style type="text/css">
	.st0{clip-path:url(#SVGID_2_);}
	.st1{opacity:0.1;}
	.st2{fill:#222226;}
	.st3{fill:#EAAE28;}
	.st4{fill:#F3BA2F;}
</style>
<g>
	<defs>
		<rect id="SVGID_1_" width="192.2" height="230"/>
	</defs>
	<clipPath id="SVGID_2_">
		<use xlink:href="#SVGID_1_"  style="overflow:visible;"/>
	</clipPath>
	<g class="st0">
		<g class="st1">
			<g>
				<path class="st2" d="M131.2,146.9c-19.7-0.8-38.3-7.9-53.5-20.4c-4.2-3.4-9-8.3-12.4-12.4c-9.6-11.7-16.1-25.6-18.9-40.4
					c-2.1-11-2.1-22.5,0-33.5c2.8-14.8,9.3-28.6,18.9-40.4c3.4-4.2,8.3-9,12.4-12.4c11.7-9.6,25.6-16.1,40.4-18.9
					c11-2.1,22.5-2.1,33.5,0c14.8,2.8,28.6,9.3,40.4,18.9c4.2,3.4,9,8.3,12.4,12.4c9.6,11.7,16.1,25.6,18.9,40.4
					c2.1,11,2.1,22.5,0,33.5c-2.8,14.8-9.3,28.6-18.9,40.4c-3.4,4.2-8.3,9-12.4,12.4C174.8,140.6,153.2,147.8,131.2,146.9z"/>
			</g>
			<g>
				<path class="st3" d="M131.2,146.9c-19.7-0.8-38.3-7.9-53.5-20.4c-4.2-3.4-9-8.3-12.4-12.4c-9.6-11.7-16.1-25.6-18.9-40.4
					c-2.1-11-2.1-22.5,0-33.5c2.8-14.8,9.3-28.6,18.9-40.4c3.4-4.2,8.3-9,12.4-12.4c11.7-9.6,25.6-16.1,40.4-18.9
					c11-2.1,22.5-2.1,33.5,0c14.8,2.8,28.6,9.3,40.4,18.9c4.2,3.4,9,8.3,12.4,12.4c9.6,11.7,16.1,25.6,18.9,40.4
					c2.1,11,2.1,22.5,0,33.5c-2.8,14.8-9.3,28.6-18.9,40.4c-3.4,4.2-8.3,9-12.4,12.4C174.8,140.6,153.2,147.8,131.2,146.9z
					 M140.6,137.9c7.3-0.6,13.4-1.8,19.9-4c6.9-2.3,13.3-5.5,19.4-9.5c16.8-11.2,28.8-28.3,33.6-47.8c0.9-3.6,1.6-7.7,2-11.2
					c0.3-3.2,0.4-4.2,0.4-8.4c0-5.1-0.2-7.3-0.8-11.7c-1.5-10.5-5.1-20.7-10.6-29.9c-9.2-15.4-23.6-27.6-40.4-34.1
					c-8-3.1-16.2-4.8-25.1-5.3c-2.2-0.1-7.9-0.1-9.9,0.1c-13.2,1.1-24.8,4.7-35.8,11.3C77.8-3.4,65.6,11.1,59.1,27.9
					c-2.9,7.5-4.5,14.8-5.2,23.5c-0.2,1.9-0.2,9.5,0,11.3c0.6,7.4,1.8,13.5,4,20c2.3,6.9,5.5,13.3,9.5,19.4
					C76,114.8,88,124.9,102,131.1c8.5,3.8,18,6.1,27.1,6.7c0.8,0.1,1.6,0.1,1.9,0.1C132,138,139.5,137.9,140.6,137.9z"/>
				<path class="st3" d="M100.3,91.4L65.9,57l34.4-34.4l34.4-34.4l34.4,34.4L203.6,57l-34.4,34.4c-18.9,18.9-34.4,34.4-34.4,34.4
					S119.3,110.3,100.3,91.4z M152.6,74.8L170.5,57l-17.9-17.9l-17.8-17.8l-17.8,17.8L99.1,57l17.8,17.8
					c9.8,9.8,17.8,17.8,17.9,17.8C134.8,92.7,142.8,84.6,152.6,74.8z"/>
			</g>
			<g>
				<path class="st4" d="M131.2,146.9c-19.7-0.8-38.3-7.9-53.5-20.4c-4.2-3.4-9-8.3-12.4-12.4c-9.6-11.7-16.1-25.6-18.9-40.4
					c-2.1-11-2.1-22.5,0-33.5c2.8-14.8,9.3-28.6,18.9-40.4c3.4-4.2,8.3-9,12.4-12.4c11.7-9.6,25.6-16.1,40.4-18.9
					c11-2.1,22.5-2.1,33.5,0c14.8,2.8,28.6,9.3,40.4,18.9c4.2,3.4,9,8.3,12.4,12.4c9.6,11.7,16.1,25.6,18.9,40.4
					c2.1,11,2.1,22.5,0,33.5c-2.8,14.8-9.3,28.6-18.9,40.4c-3.4,4.2-8.3,9-12.4,12.4C174.8,140.6,153.2,147.8,131.2,146.9z
					 M139.1,137.9c20.2-1.1,38.8-9.4,53-23.6c12.7-12.7,20.7-29,23-46.6c1.1-8.3,0.9-16.8-0.5-24.9c-2.5-14.1-8.9-27.6-18.2-38.5
					c-0.5-0.5-0.8-1-0.8-1c0,0-0.2-0.2-0.4-0.4c-0.2-0.2-0.4-0.4-0.4-0.5c0,0-0.2-0.3-0.5-0.6c-0.3-0.3-0.5-0.6-0.5-0.6
					c0-0.1-0.6-0.7-1.4-1.4c-0.8-0.7-1.4-1.4-1.4-1.4c0-0.1-0.4-0.5-0.4-0.4c0,0.1-1-0.9-1-1c0,0,0-0.1-0.1-0.1
					c-0.1,0-0.8-0.6-0.8-0.8c0-0.1,0-0.1-0.1,0c0,0-0.7-0.5-1.4-1.1c-4.2-3.5-8.7-6.6-13.5-9.2c-1.4-0.8-4.3-2.2-5.4-2.7
					c-0.4-0.2-0.7-0.3-0.8-0.4c-0.1-0.1-0.1-0.1-0.1-0.1c0,0-0.6-0.2-1.3-0.5c-3.6-1.5-8.5-3.1-12.1-3.9c-0.4-0.1-0.7-0.2-0.7-0.2
					c0,0,0-0.1-0.1,0c-0.1,0.1-3.3-0.6-3.4-0.7c0,0-0.2-0.1-0.5-0.1c-0.2,0-0.5-0.1-0.5-0.1c0,0-0.1-0.1-0.3,0c-0.2,0-0.3,0-0.3,0
					c0,0-0.1-0.1-0.3,0c-0.1,0-0.3,0-0.3,0s-0.1-0.1-0.3,0c-0.2,0-0.3,0-0.3,0c0,0-0.3-0.1-0.6-0.1c-0.3,0-0.6,0-0.6-0.1
					c0,0-0.4-0.1-0.7-0.1c-0.4,0-0.7-0.1-0.7-0.1c0,0-0.2-0.1-0.4,0c-0.3,0-0.4,0-0.5-0.1c0-0.1-0.1-0.1-0.1,0
					c0,0.1-0.7,0.1-0.8-0.1c0-0.1-0.1-0.1-0.1,0c0,0.1-0.8,0.1-0.9-0.1c0-0.1-0.1-0.1-0.1,0c0,0.1-1.1,0.1-1.2-0.1
					c0-0.1-0.1-0.1-0.1,0c0,0-0.5,0-1.2,0c-1.4-0.1-6.8-0.1-8.3,0c-0.6,0-1.1,0-1.2,0c0-0.1-0.3-0.1-0.3,0c0,0.1-1,0.2-1,0.1
					c0,0-0.1-0.1-0.1-0.1c-0.1,0-0.1,0-0.1,0.1c0,0-0.2,0.1-0.4,0.1c-0.2,0-0.4,0-0.4,0c0,0-0.1-0.1-0.1-0.1c-0.1,0-0.1,0-0.1,0.1
					s-0.1,0.1-0.3,0.1c-0.2,0-0.3,0-0.3,0c0,0-0.1-0.1-0.1-0.1c-0.1,0-0.1,0-0.1,0.1c0,0.1-0.1,0.1-0.4,0.1c-0.3,0-0.4,0-0.4,0
					c0,0.1-0.3,0.1-0.7,0.1c-0.4,0-0.7,0.1-0.7,0.1c0,0.1-0.3,0.1-0.7,0.1s-0.6,0-0.6,0.1c0,0-0.1,0-0.3,0c-0.2,0-0.3,0-0.3,0
					c0,0.1-0.1,0.1-0.3,0c-0.2,0-0.3,0-0.3,0c0,0.1-0.1,0.1-0.2,0.1c-0.2,0-0.3,0-0.3,0.1c0,0.1-0.2,0.1-0.5,0.1
					c-0.2,0-0.5,0-0.5,0.1c-0.1,0.1-3.1,0.7-3.3,0.6c-0.1,0-0.2,0-0.2,0c0,0.1-0.8,0.3-1.6,0.5c-3.8,1-7.5,2.2-10.9,3.6
					c-0.8,0.3-1.3,0.5-1.5,0.5c-0.1,0-0.2,0-0.1,0.1c0,0.1-0.1,0.2-0.6,0.4c-1,0.4-4.1,2-5.5,2.7c-4.8,2.6-9.3,5.7-13.5,9.2
					c-0.9,0.8-1.4,1.1-1.5,1.1c-0.1,0-0.2,0-0.1,0.1c0.2,0.1-0.6,0.8-0.8,0.8c-0.1,0-0.2,0-0.1,0.1c0.1,0.1,0,0.2-0.4,0.6
					C79.4-2.2,79.1-2,79.1-2c-0.2,0-0.5,0.3-0.4,0.3c0.1,0.1-2.3,2.5-2.5,2.5c-0.1,0-0.2,0.1-0.3,0.2c-0.1,0.1-0.1,0.2,0,0.2
					C76,1.3,75,2.3,74.8,2.3c-0.1,0-0.2,0,0,0.1s0.1,0.1-0.2,0.5C74.3,3,74.1,3.2,74,3.2c-0.1,0-0.2,0-0.1,0.1
					c0.1,0.1-0.1,0.3-0.7,1.1c-6,7-11,15.4-14.3,24.1c-4.7,12.5-6.2,26-4.5,39.4c2,15.3,8.3,29.5,18.3,41.5c0.6,0.7,1.1,1.4,1.1,1.4
					c0,0,0,0.1,0,0.1c0.1,0,0.8,0.7,0.8,0.8c0,0,0,0.1,0.1,0.1c0.1,0,1.1,1,1,1.1c0,0.1,0.3,0.4,0.4,0.4c0.1,0,0.7,0.6,1.4,1.4
					c0.7,0.8,1.4,1.4,1.4,1.4c0.1,0,0.3,0.3,0.6,0.5c0.3,0.3,0.5,0.5,0.6,0.5c0,0,0.2,0.2,0.5,0.4c0.2,0.2,0.4,0.4,0.4,0.4
					c0,0,0.5,0.4,1,0.8c13.4,11.5,30.4,18.3,48.1,19.3C132.1,138,137.2,138,139.1,137.9L139.1,137.9z"/>
				<path class="st4" d="M100.3,91.4L65.9,57l34.4-34.4l34.4-34.4l34.4,34.4L203.6,57l-34.4,34.4c-18.9,18.9-34.4,34.4-34.4,34.4
					S119.3,110.3,100.3,91.4z M147.1,110.7l12.3-12.3l-6.9-6.9c-3.8-3.8-7-6.9-7-6.9s-2.5,2.4-5.4,5.3c-2.9,2.9-5.3,5.3-5.4,5.3
					c-0.1,0-2.5-2.4-5.4-5.3c-2.9-2.9-5.3-5.3-5.4-5.3s-3.2,3.1-7,6.9l-6.9,6.9l12.3,12.3c6.8,6.8,12.4,12.3,12.4,12.3
					S140.3,117.5,147.1,110.7z M152.6,74.8L170.5,57l-17.9-17.9l-17.8-17.8l-17.8,17.8L99.1,57l12.5,12.5
					c6.9,6.9,12.4,12.5,12.4,12.5s0,0.1,0.1,0.1c0.1,0,2.5,2.4,5.4,5.3c2.9,2.9,5.3,5.3,5.4,5.3C134.8,92.7,142.8,84.6,152.6,74.8z
					 M129.2,24c2.9-2.9,5.4-5.3,5.4-5.3c0.1,0,2.5,2.4,5.4,5.3l5.3,5.3l6.9-6.9c3.8-3.8,6.9-7,7-7c0,0-5.5-5.6-12.3-12.4L134.7-9.3
					L122.3,3L110,15.4l6.9,7c3.8,3.8,7,7,7,7S126.3,27,129.2,24z"/>
				<path class="st4" d="M125.1,66.6l-9.6-9.6l9.6-9.6l9.6-9.6l9.6,9.6L154,57l-9.6,9.6c-5.3,5.3-9.6,9.6-9.6,9.6
					S130.4,71.9,125.1,66.6z"/>
			</g>
		</g>
	</g>
</g>
</svg>
