<?xml version="1.0" encoding="utf-8"?>
<!-- Generator: Adobe Illustrator 23.0.5, SVG Export Plug-In . SVG Version: 6.00 Build 0)  -->
<svg version="1.1" id="Layer_1" xmlns:v="https://vecta.io/nano"
	 xmlns="http://www.w3.org/2000/svg" xmlns:xlink="http://www.w3.org/1999/xlink" x="0px" y="0px" viewBox="0 0 64 64"
	 style="enable-background:new 0 0 64 64;" xml:space="preserve">
<style type="text/css">
	.st0{fill:#222226;}
	.st1{fill:#EAAE28;}
	.st2{fill:#F3BA2F;}
</style>
<g>
	<path class="st0" d="M30.7,64c-7-0.3-13.6-2.8-19-7.2c-1.5-1.2-3.2-2.9-4.4-4.4C3.8,48.1,1.5,43.2,0.6,38c-0.7-3.9-0.7-8,0-11.9
		c1-5.3,3.3-10.2,6.7-14.4c1.2-1.5,2.9-3.2,4.4-4.4c4.2-3.4,9.1-5.7,14.4-6.7c3.9-0.7,8-0.7,11.9,0c5.3,1,10.2,3.3,14.4,6.7
		c1.5,1.2,3.2,2.9,4.4,4.4c3.4,4.2,5.7,9.1,6.7,14.4c0.7,3.9,0.7,8,0,11.9c-1,5.3-3.3,10.2-6.7,14.4c-1.2,1.5-2.9,3.2-4.4,4.4
		C46.2,61.7,38.6,64.3,30.7,64z"/>
</g>
<g>
	<g>
		<path class="st1" d="M30.7,64c-7-0.3-13.6-2.8-19-7.2c-1.5-1.2-3.2-2.9-4.4-4.4C3.8,48.1,1.5,43.2,0.6,38c-0.7-3.9-0.7-8,0-11.9
			c1-5.3,3.3-10.2,6.7-14.4c1.2-1.5,2.9-3.2,4.4-4.4c4.2-3.4,9.1-5.7,14.4-6.7c3.9-0.7,8-0.7,11.9,0c5.3,1,10.2,3.3,14.4,6.7
			c1.5,1.2,3.2,2.9,4.4,4.4c3.4,4.2,5.7,9.1,6.7,14.4c0.7,3.9,0.7,8,0,11.9c-1,5.3-3.3,10.2-6.7,14.4c-1.2,1.5-2.9,3.2-4.4,4.4
			C46.2,61.7,38.6,64.3,30.7,64z M34.1,60.7c2.6-0.2,4.8-0.7,7.1-1.4c2.4-0.8,4.7-1.9,6.9-3.4c6-4,10.2-10.1,12-17
			c0.3-1.3,0.6-2.7,0.7-4c0.1-1.1,0.1-1.5,0.1-3c0-1.8-0.1-2.6-0.3-4.1c-0.5-3.7-1.8-7.3-3.8-10.6c-3.3-5.5-8.4-9.8-14.4-12.1
			c-2.8-1.1-5.8-1.7-8.9-1.9c-0.8,0-2.8,0-3.5,0c-4.7,0.4-8.8,1.7-12.7,4c-5.5,3.3-9.8,8.4-12.1,14.4c-1,2.7-1.6,5.3-1.9,8.3
			c-0.1,0.7-0.1,3.4,0,4c0.2,2.6,0.6,4.8,1.4,7.1c0.8,2.6,1.9,4.9,3.3,7c3,4.5,7.3,8.1,12.3,10.4c3,1.3,6.4,2.2,9.7,2.4
			c0.3,0,0.6,0,0.7,0C31,60.8,33.7,60.8,34.1,60.7z"/>
		<path class="st1" d="M19.8,44.2L7.5,32l12.2-12.2L32,7.5l12.2,12.2L56.5,32L44.2,44.2C37.5,51,32,56.5,32,56.5S26.5,51,19.8,44.2z
			 M38.4,38.3l6.3-6.3l-6.3-6.3L32,19.3l-6.3,6.3L19.3,32l6.3,6.3c3.5,3.5,6.3,6.3,6.4,6.3S34.9,41.8,38.4,38.3z"/>
	</g>
	<path class="st2" d="M19.8,44.2L7.5,32l12.2-12.2L32,7.5l12.2,12.2L56.5,32L44.2,44.2C37.5,51,32,56.5,32,56.5S26.5,51,19.8,44.2z
		 M36.4,51.1l4.4-4.4l-2.5-2.5c-1.4-1.4-2.5-2.5-2.5-2.5s-0.9,0.8-1.9,1.9c-1,1-1.9,1.9-1.9,1.9s-0.9-0.8-1.9-1.9
		c-1-1-1.9-1.9-1.9-1.9s-1.1,1.1-2.5,2.5l-2.5,2.5l4.4,4.4c2.4,2.4,4.4,4.4,4.4,4.4S34,53.5,36.4,51.1z M38.4,38.3l6.3-6.3l-6.3-6.3
		L32,19.3l-6.3,6.3L19.3,32l4.4,4.4c2.4,2.4,4.4,4.4,4.4,4.4l0,0c0,0,0.9,0.9,1.9,1.9s1.9,1.9,1.9,1.9S34.9,41.8,38.4,38.3z
		 M30,20.3c1-1,1.9-1.9,1.9-1.9s0.9,0.9,1.9,1.9l1.9,1.9l2.5-2.5c1.4-1.4,2.5-2.5,2.5-2.5s-2-2-4.4-4.4L32,8.4l-4.4,4.4l-4.4,4.4
		l2.5,2.5c1.4,1.4,2.5,2.5,2.5,2.5C28.1,22.2,29,21.3,30,20.3z"/>
	<path class="st2" d="M28.6,35.4L25.2,32l3.4-3.4l3.4-3.4l3.4,3.4l3.4,3.4l-3.4,3.4c-1.9,1.9-3.4,3.4-3.4,3.4
		C32,38.8,30.5,37.3,28.6,35.4z"/>
</g>
</svg>
