<?xml version="1.0" encoding="utf-8"?>
<!-- Generator: Adobe Illustrator 23.0.5, SVG Export Plug-In . SVG Version: 6.00 Build 0)  -->
<svg version="1.1" id="Layer_1" xmlns:v="https://vecta.io/nano"
	 xmlns="http://www.w3.org/2000/svg" xmlns:xlink="http://www.w3.org/1999/xlink" x="0px" y="0px" viewBox="0 0 193 230"
	 style="enable-background:new 0 0 193 230;" xml:space="preserve">
<style type="text/css">
	.st0{clip-path:url(#SVGID_2_);}
	.st1{opacity:0.1;}
	.st2{fill:#B9BFC9;}
	.st3{fill:#D7D9E2;}
	.st4{fill:#F3BA2F;}
	.st5{fill:url(#SVGID_3_);}
	.st6{fill:url(#SVGID_4_);}
	.st7{fill:#FFC31A;}
	.st8{fill:#FFD538;}
	.st9{fill:#FCCD35;}
</style>
<g>
	<g>
		<defs>
			<rect id="SVGID_1_" width="192.2" height="230"/>
		</defs>
		<clipPath id="SVGID_2_">
			<use xlink:href="#SVGID_1_"  style="overflow:visible;"/>
		</clipPath>
		<g class="st0">
			<g class="st1">
				<g>
					<path class="st2" d="M130.6,151.5c-19.7-0.8-38.3-7.9-53.5-20.4c-4.2-3.4-9-8.3-12.4-12.4c-9.6-11.7-16.1-25.6-18.9-40.4
						c-2.1-11-2.1-22.5,0-33.5C48.6,30,55.1,16.2,64.7,4.4C68.1,0.3,73-4.6,77.1-8c11.7-9.6,25.6-16.1,40.4-18.9
						c11-2.1,22.5-2.1,33.5,0c14.8,2.8,28.6,9.3,40.4,18.9c4.2,3.4,9,8.3,12.4,12.4c9.6,11.7,16.1,25.6,18.9,40.4
						c2.1,11,2.1,22.5,0,33.5c-2.8,14.8-9.3,28.6-18.9,40.4c-3.4,4.2-8.3,9-12.4,12.4C174.2,145.1,152.7,152.4,130.6,151.5z"/>
				</g>
				<g>
					<path class="st3" d="M130.6,151.5c-19.7-0.8-38.3-7.9-53.5-20.4c-4.2-3.4-9-8.3-12.4-12.4c-9.6-11.7-16.1-25.6-18.9-40.4
						c-2.1-11-2.1-22.5,0-33.5C48.6,30,55.1,16.2,64.7,4.4C68.1,0.3,73-4.6,77.1-8c11.7-9.6,25.6-16.1,40.4-18.9
						c11-2.1,22.5-2.1,33.5,0c14.8,2.8,28.6,9.3,40.4,18.9c4.2,3.4,9,8.3,12.4,12.4c9.6,11.7,16.1,25.6,18.9,40.4
						c2.1,11,2.1,22.5,0,33.5c-2.8,14.8-9.3,28.6-18.9,40.4c-3.4,4.2-8.3,9-12.4,12.4C174.2,145.1,152.7,152.4,130.6,151.5z
						 M173.2,100.4l38.9-38.9l-38.9-38.9l-38.9-38.9L95.3,22.6L56.4,61.5l38.9,38.9c21.4,21.4,38.9,38.9,38.9,38.9
						S151.8,121.8,173.2,100.4z"/>
					<path class="st3" d="M113.9,81.8L93.6,61.5l20.3-20.3l20.3-20.3l20.3,20.3l20.3,20.3l-20.3,20.3
						c-11.2,11.2-20.3,20.3-20.3,20.3S125.1,93,113.9,81.8z"/>
				</g>
				<g>
					<path class="st4" d="M130.6,151.5c-19.7-0.8-38.3-7.9-53.5-20.4c-4.2-3.4-9-8.3-12.4-12.4c-9.6-11.7-16.1-25.6-18.9-40.4
						c-2.1-11-2.1-22.5,0-33.5C48.6,30,55.1,16.2,64.7,4.4C68.1,0.3,73-4.6,77.1-8c11.7-9.6,25.6-16.1,40.4-18.9
						c11-2.1,22.5-2.1,33.5,0c14.8,2.8,28.6,9.3,40.4,18.9c4.2,3.4,9,8.3,12.4,12.4c9.6,11.7,16.1,25.6,18.9,40.4
						c2.1,11,2.1,22.5,0,33.5c-2.8,14.8-9.3,28.6-18.9,40.4c-3.4,4.2-8.3,9-12.4,12.4C174.2,145.1,152.7,152.4,130.6,151.5z
						 M140.3,142.3c3.8-0.3,7-0.7,10.4-1.4c19.3-4,36.5-14.9,48.4-30.8c8.9-11.8,14.3-25.7,15.8-40.4c0.3-2.9,0.4-4.4,0.4-8.1
						c0-5.2-0.3-8.8-1.1-13.5c-3.4-20.4-14.7-38.8-31.3-51.3c-11.8-8.9-25.7-14.3-40.5-15.8c-2.9-0.3-4.4-0.4-8.1-0.4
						c-5.2,0-8.9,0.3-13.5,1.1C100.3-14.9,81.9-3.7,69.4,13c-8.9,11.8-14.3,25.7-15.8,40.4c-0.3,2.9-0.4,4.4-0.4,8.1
						c0,5.2,0.3,8.8,1.1,13.5c3.4,20.4,14.6,38.8,31.3,51.3c11.8,8.9,25.6,14.3,40.5,15.8c1.1,0.1,2.4,0.2,5,0.4
						C132.3,142.6,138.7,142.5,140.3,142.3z"/>
				</g>
				<g>
					
						<linearGradient id="SVGID_3_" gradientUnits="userSpaceOnUse" x1="134.2487" y1="137.3933" x2="134.2487" y2="93.1896" gradientTransform="matrix(1 0 0 -1 0 230)">
						<stop  offset="0" style="stop-color:#9CB84C"/>
						<stop  offset="1" style="stop-color:#2AB572"/>
					</linearGradient>
					<path class="st5" d="M120.1,122.7c-7.7-7.7-14.1-14.1-14.1-14.2c0-0.1,15.9-16,16-16c0,0,2.8,2.7,6.1,6l6.1,6.1l6.1-6.1
						c3.3-3.3,6.1-6,6.1-6c0.1,0,16,15.9,16,16c0,0.1-28.1,28.2-28.2,28.2C134.2,136.8,127.9,130.5,120.1,122.7z"/>
					
						<linearGradient id="SVGID_4_" gradientUnits="userSpaceOnUse" x1="134.2938" y1="199.4224" x2="134.2938" y2="243.7611" gradientTransform="matrix(1 0 0 -1 0 230)">
						<stop  offset="0" style="stop-color:#9CB84C"/>
						<stop  offset="1" style="stop-color:#2AB572"/>
					</linearGradient>
					<path class="st6" d="M114.1,22.6c-4.4-4.4-8-8-8-8.1c0-0.1,6.3-6.4,14.1-14.2l14.1-14.1l14.1,14.1l14.1,14.1l-8,8l-8,8
						l-6.1-6.1l-6.1-6.1l-6.1,6.1l-6.1,6.1L114.1,22.6L114.1,22.6z"/>
				</g>
				<g>
					<path class="st7" d="M136.3,61.9c-2.4,0.1-5.2,0-7.9-0.3c-8.2-1-14.1-3.7-15.6-7.3c-0.1-0.3-0.2-0.4-0.3-0.3
						c-0.1,0.2-0.5,4.1-0.7,5.7c-0.1,1.5-0.1,4.8,0,5.9c0.4,3.1,1.4,5.2,3.3,7.1c3.2,3.2,8.8,5.2,16.4,5.7c2.4,0.2,8.1,0.1,9-0.1
						l0.2,0v-9.3c0.3-2.5,0.6-4.9,1-7.4C140.8,61.6,138,61.8,136.3,61.9"/>
					<path class="st8" d="M156.6,57.3c-0.1-1-0.4-2.6-0.4-2.6c0,0-4.3,0-9.5,0l-9.4,0l2.3,3.4c1.3,1.9,2.3,3.4,2.2,3.4
						c-0.3,2.5-0.7,4.9-1,7.4h7.5c6.1,0,7.7,0,7.7-0.1c0.1-0.2,0.4-2.7,0.5-4.3C156.8,62.6,156.8,58.8,156.6,57.3 M146.6,66.6
						c-0.2,0.1-0.5,0.2-0.7,0.2c-1.7,0-2.4-2.4-0.9-3.3c0.6-0.4,1.4-0.3,1.9,0.2c0.3,0.2,0.7,1,0.7,1.3
						C147.6,65.7,147.2,66.3,146.6,66.6 M151,61.5c-0.3,0.1-0.5,0.2-0.9,0.2c-2.1,0-3-2.6-1.5-4c1.1-1,2.8-0.6,3.5,0.7
						c0.1,0.3,0.2,0.5,0.2,1C152.3,60.4,151.9,61,151,61.5 M153.5,65.8c-0.6,0.3-1.3,0.2-1.6-0.4c-0.2-0.3-0.2-1,0-1.3
						c0.4-0.6,1.5-0.6,1.9,0C154.2,64.7,154,65.4,153.5,65.8"/>
					<path class="st9" d="M131.2,60.4c-8.3-0.5-15.4-3.2-17-6.6c-0.2-0.5-0.3-0.7-0.3-1.3c0-0.6,0-0.7,0.3-1.3
						c1.4-2.9,6.8-5.4,14-6.3c3.1-0.4,7.5-0.5,10.1-0.2c6.1,0.7,11.5,2.4,14.8,4.6c1,0.7,2.2,2,2.5,2.7c0.1,0.3,0.3,0.7,0.3,0.8
						l0.1,0.2l-10.6,0l-10.6,0l2.4,3.5c1.3,1.9,2.4,3.5,2.4,3.5C139.3,60.4,133,60.5,131.2,60.4 M134.2,58.2c0.7-0.3,0.7-0.7-0.1-1
						c-0.9-0.4-2.5-0.1-2.5,0.4c0,0.3,0.2,0.5,0.6,0.6C132.6,58.4,133.8,58.4,134.2,58.2 M123.3,56c0.3-0.1,0.7-0.3,0.8-0.5
						c0.4-0.4,0.4-0.8,0-1.2c-0.9-1-3.6-1-4.6-0.1c-0.7,0.7-0.1,1.6,1.4,2C121.5,56.3,122.7,56.2,123.3,56 M135.9,50.6
						c0.4-0.2,0.5-0.5,0-0.8c-0.4-0.3-1.9-0.3-2.4-0.1c-0.4,0.2-0.5,0.4-0.3,0.7C133.6,50.8,135.2,51,135.9,50.6 M143.1,50.6
						c0.6-0.2,1.1-0.6,1.1-1.1c0-0.4-0.3-0.7-0.9-1c-0.6-0.3-1.9-0.3-2.6-0.1c-0.6,0.2-1.2,0.7-1.2,1.1c0,0.3,0.6,0.9,1.1,1.1
						C141.2,50.8,142.5,50.8,143.1,50.6 M128.1,49.2c0.5-0.2,1.1-0.6,1.1-0.9c0-0.1-0.1-0.3-0.3-0.5c-0.8-0.8-3.1-0.9-4.1-0.1
						c-0.3,0.2-0.4,0.3-0.4,0.6c0,0.5,0.7,1,1.8,1.2C126.6,49.5,127.6,49.4,128.1,49.2"/>
				</g>
			</g>
		</g>
	</g>
</g>
</svg>
