<?xml version="1.0" encoding="utf-8"?>
<!-- Generator: Adobe Illustrator 23.0.5, SVG Export Plug-In . SVG Version: 6.00 Build 0)  -->
<svg version="1.1" id="Layer_1" xmlns:v="https://vecta.io/nano"
	 xmlns="http://www.w3.org/2000/svg" xmlns:xlink="http://www.w3.org/1999/xlink" x="0px" y="0px" viewBox="0 0 64 64"
	 style="enable-background:new 0 0 64 64;" xml:space="preserve">
<style type="text/css">
	.st0{fill:#B9BFC9;}
	.st1{fill:#D7D9E2;}
	.st2{fill:#F3BA2F;}
	.st3{fill:url(#SVGID_1_);}
	.st4{fill:url(#SVGID_2_);}
	.st5{fill:#FFC31A;}
	.st6{fill:#FFD538;}
	.st7{fill:#FCCD35;}
</style>
<g>
	<path class="st0" d="M30.7,64c-7-0.3-13.6-2.8-19-7.2c-1.5-1.2-3.2-2.9-4.4-4.4C3.8,48.1,1.5,43.2,0.6,38c-0.7-3.9-0.7-8,0-11.9
		c1-5.3,3.3-10.2,6.7-14.4c1.2-1.5,2.9-3.2,4.4-4.4c4.2-3.4,9.1-5.7,14.4-6.7c3.9-0.7,8-0.7,11.9,0c5.3,1,10.2,3.3,14.4,6.7
		c1.5,1.2,3.2,2.9,4.4,4.4c3.4,4.2,5.7,9.1,6.7,14.4c0.7,3.9,0.7,8,0,11.9c-1,5.3-3.3,10.2-6.7,14.4c-1.2,1.5-2.9,3.2-4.4,4.4
		C46.2,61.7,38.6,64.3,30.7,64z"/>
</g>
<g>
	<path class="st1" d="M30.7,64c-7-0.3-13.6-2.8-19-7.2c-1.5-1.2-3.2-2.9-4.4-4.4C3.8,48.1,1.5,43.2,0.6,38c-0.7-3.9-0.7-8,0-11.9
		c1-5.3,3.3-10.2,6.7-14.4c1.2-1.5,2.9-3.2,4.4-4.4c4.2-3.4,9.1-5.7,14.4-6.7c3.9-0.7,8-0.7,11.9,0c5.3,1,10.2,3.3,14.4,6.7
		c1.5,1.2,3.2,2.9,4.4,4.4c3.4,4.2,5.7,9.1,6.7,14.4c0.7,3.9,0.7,8,0,11.9c-1,5.3-3.3,10.2-6.7,14.4c-1.2,1.5-2.9,3.2-4.4,4.4
		C46.2,61.7,38.6,64.3,30.7,64z M45.8,45.8L59.7,32L45.8,18.2L32,4.3L18.2,18.2L4.3,32l13.8,13.8C25.8,53.4,32,59.7,32,59.7
		C32,59.7,38.2,53.4,45.8,45.8z"/>
	<path class="st1" d="M24.8,39.2L17.5,32l7.2-7.2l7.2-7.2l7.2,7.2l7.2,7.2l-7.2,7.2c-4,4-7.2,7.2-7.2,7.2
		C32,46.4,28.7,43.2,24.8,39.2z"/>
</g>
<g>
	<path class="st2" d="M30.7,64c-7-0.3-13.6-2.8-19-7.2c-1.5-1.2-3.2-2.9-4.4-4.4C3.8,48.1,1.5,43.2,0.6,38c-0.7-3.9-0.7-8,0-11.9
		c1-5.3,3.3-10.2,6.7-14.4c1.2-1.5,2.9-3.2,4.4-4.4c4.2-3.4,9.1-5.7,14.4-6.7c3.9-0.7,8-0.7,11.9,0c5.3,1,10.2,3.3,14.4,6.7
		c1.5,1.2,3.2,2.9,4.4,4.4c3.4,4.2,5.7,9.1,6.7,14.4c0.7,3.9,0.7,8,0,11.9c-1,5.3-3.3,10.2-6.7,14.4c-1.2,1.5-2.9,3.2-4.4,4.4
		C46.2,61.7,38.6,64.3,30.7,64z M34.1,60.7c1.3-0.1,2.5-0.3,3.7-0.5c6.9-1.4,13-5.3,17.2-10.9c3.2-4.2,5.1-9.1,5.6-14.4
		c0.1-1,0.1-1.6,0.1-2.9c0-1.8-0.1-3.1-0.4-4.8C59.2,19.9,55.2,13.4,49.3,9c-4.2-3.2-9.1-5.1-14.4-5.6c-1-0.1-1.6-0.1-2.9-0.1
		c-1.8,0-3.1,0.1-4.8,0.4C19.9,4.8,13.4,8.8,9,14.7c-3.2,4.2-5.1,9.1-5.6,14.4c-0.1,1-0.1,1.6-0.1,2.9c0,1.8,0.1,3.1,0.4,4.8
		C4.8,44.1,8.8,50.6,14.7,55c4.2,3.2,9.1,5.1,14.4,5.6c0.4,0,0.9,0.1,1.8,0.1C31.3,60.8,33.6,60.8,34.1,60.7z"/>
</g>
<g>
	
		<linearGradient id="SVGID_1_" gradientUnits="userSpaceOnUse" x1="32" y1="22.9579" x2="32" y2="7.2411" gradientTransform="matrix(1 0 0 -1 0 66)">
		<stop  offset="0" style="stop-color:#9CB84C"/>
		<stop  offset="1" style="stop-color:#2AB572"/>
	</linearGradient>
	<path class="st3" d="M27,53.8c-2.7-2.7-5-5-5-5c0,0,5.6-5.7,5.7-5.7c0,0,1,1,2.2,2.2l2.2,2.2l2.2-2.2c1.2-1.2,2.2-2.2,2.2-2.2
		c0,0,5.7,5.6,5.7,5.7c0,0-10,10-10,10C32,58.8,29.7,56.5,27,53.8z"/>
	
		<linearGradient id="SVGID_2_" gradientUnits="userSpaceOnUse" x1="32.016" y1="45.0127" x2="32.016" y2="60.7776" gradientTransform="matrix(1 0 0 -1 0 66)">
		<stop  offset="0" style="stop-color:#9CB84C"/>
		<stop  offset="1" style="stop-color:#2AB572"/>
	</linearGradient>
	<path class="st4" d="M24.8,18.1c-1.6-1.6-2.8-2.9-2.8-2.9c0,0,2.3-2.3,5-5l5-5l5,5l5,5l-2.9,2.9L36.3,21l-2.2-2.2L32,16.6l-2.2,2.2
		L27.7,21L24.8,18.1L24.8,18.1z"/>
</g>
<g>
	<path class="st5" d="M32.7,32.1c-0.9,0-1.9,0-2.8-0.1c-2.9-0.3-5-1.3-5.6-2.6c0-0.1-0.1-0.2-0.1-0.1c0,0.1-0.2,1.5-0.2,2
		C24,31.8,24,33,24,33.4c0.1,1.1,0.5,1.9,1.2,2.5c1.1,1.2,3.1,1.8,5.8,2c0.8,0.1,2.9,0,3.2,0l0.1,0v-3.3c0.1-0.9,0.2-1.7,0.3-2.6
		C34.3,32,33.3,32.1,32.7,32.1"/>
	<path class="st6" d="M40,30.5c0-0.4-0.1-0.9-0.1-0.9c0,0-1.5,0-3.4,0l-3.4,0l0.8,1.2c0.5,0.7,0.8,1.2,0.8,1.2
		c-0.1,0.9-0.2,1.8-0.3,2.6H37c2.2,0,2.7,0,2.7,0c0-0.1,0.1-1,0.2-1.5C40,32.4,40,31,40,30.5 M36.4,33.8c-0.1,0-0.2,0.1-0.3,0.1
		c-0.6,0-0.8-0.8-0.3-1.2c0.2-0.1,0.5-0.1,0.7,0.1c0.1,0.1,0.2,0.3,0.2,0.5C36.8,33.5,36.6,33.7,36.4,33.8 M38,32
		c-0.1,0-0.2,0.1-0.3,0.1c-0.7,0-1.1-0.9-0.5-1.4c0.4-0.4,1-0.2,1.2,0.2c0.1,0.1,0.1,0.2,0.1,0.4C38.4,31.6,38.3,31.8,38,32
		 M38.9,33.5c-0.2,0.1-0.5,0.1-0.6-0.1c-0.1-0.1-0.1-0.4,0-0.4c0.2-0.2,0.5-0.2,0.7,0C39.1,33.1,39,33.4,38.9,33.5"/>
	<path class="st7" d="M30.9,31.6c-3-0.2-5.5-1.1-6-2.3c-0.1-0.2-0.1-0.3-0.1-0.5c0-0.2,0-0.3,0.1-0.5c0.5-1,2.4-1.9,5-2.2
		c1.1-0.1,2.7-0.2,3.6-0.1c2.2,0.2,4.1,0.8,5.2,1.6c0.4,0.2,0.8,0.7,0.9,1c0.1,0.1,0.1,0.2,0.1,0.3l0,0.1l-3.8,0l-3.8,0l0.9,1.2
		c0.5,0.7,0.8,1.2,0.8,1.3C33.8,31.6,31.6,31.6,30.9,31.6 M32,30.8c0.2-0.1,0.2-0.3,0-0.4c-0.3-0.1-0.9,0-0.9,0.2
		c0,0.1,0.1,0.2,0.2,0.2C31.4,30.9,31.8,30.9,32,30.8 M28.1,30c0.1,0,0.2-0.1,0.3-0.2c0.1-0.2,0.1-0.3,0-0.4c-0.3-0.3-1.3-0.4-1.6,0
		c-0.3,0.3,0,0.6,0.5,0.7C27.5,30.1,27.9,30.1,28.1,30 M32.6,28.1c0.2-0.1,0.2-0.2,0-0.3c-0.2-0.1-0.7-0.1-0.8,0
		c-0.2,0.1-0.2,0.2-0.1,0.2C31.8,28.2,32.3,28.2,32.6,28.1 M35.2,28.1c0.2-0.1,0.4-0.2,0.4-0.4c0-0.1-0.1-0.3-0.3-0.4
		c-0.2-0.1-0.7-0.1-0.9,0c-0.2,0.1-0.4,0.2-0.4,0.4c0,0.1,0.2,0.3,0.4,0.4C34.5,28.2,35,28.2,35.2,28.1 M29.8,27.6
		c0.2-0.1,0.4-0.2,0.4-0.3c0,0,0-0.1-0.1-0.2c-0.3-0.3-1.1-0.3-1.5,0c-0.1,0.1-0.1,0.1-0.1,0.2c0,0.2,0.3,0.4,0.6,0.4
		C29.3,27.7,29.6,27.7,29.8,27.6"/>
</g>
</svg>
