<?xml version="1.0" encoding="utf-8"?>
<!-- Generator: Adobe Illustrator 23.0.5, SVG Export Plug-In . SVG Version: 6.00 Build 0)  -->
<svg version="1.1" id="Layer_1" xmlns="http://www.w3.org/2000/svg" xmlns:xlink="http://www.w3.org/1999/xlink" x="0px" y="0px"
	 viewBox="0 0 384.2 423.1" style="enable-background:new 0 0 384.2 423.1;" xml:space="preserve">
<style type="text/css">
	.st0{fill:#DD890E;}
	.st1{fill:#EDA024;}
	.st2{fill:#B76800;}
	.st3{fill:#222226;}
	.st4{fill:#EAAE28;}
	.st5{fill:#F3BA2F;}
	.st6{fill:#FFB03E;}
	.st7{fill:#353638;}
	.st8{fill:#424549;}
	.st9{fill:#4C4845;}
	.st10{fill:#FAE0B2;}
	.st11{fill:#F7CE72;}
	.st12{fill:#FDF0DA;}
	.st13{fill:#FFFFFF;}
</style>
<g>
	<g>
		<g>
			<g>
				<g>
					<g>
						<path class="st0" d="M223.1,335.2c0.6,1.7,49.9-0.6,49.9-2.8c0-7.2-10.6-47.5-10.6-47.5l-21.8,7.2l10.6,24.6
							c0,0-23.4,11-25.6,12.1c-0.8,0.4-1.5,1.3-1.9,2.1C222.9,332.2,222.7,334.1,223.1,335.2z"/>
						<path class="st1" d="M223.7,330.7c1.1,1.1,2.3,1.7,3.4,1.5c3-0.6,33.2-4.4,34.4-8.1c1.3-3.6-10.4-7.4-10.4-7.4
							s-23.4,11-25.6,12.1C224.8,329,224.1,329.9,223.7,330.7z"/>
					</g>
				</g>
				<g>
					<g>
						<path class="st0" d="M289.2,347.7c0,0,50.7,1.5,51.1-1.7c0.4-3-14.8-55.9-15.2-57.2l-21.5,8.9l12.5,30.1
							c0,0-20.5,11.2-24.3,12.9c-0.8,0.4-1.5,0.8-1.7,1.5C288.6,344.5,289.2,347.7,289.2,347.7z"/>
						<path class="st1" d="M290,342.4c3.4,0.8,6.5,0,11.8-1.3c6.1-1.5,18.8-2.3,22.2-5.1c3.4-2.8-3.4-6.8-7.8-8.1
							c0,0-20.5,11.2-24.3,12.9C291.1,341.1,290.5,341.7,290,342.4z"/>
					</g>
				</g>
				<g>
					<path class="st2" d="M320.3,116.1c0,0-24.7,29.2-62.5,36.7s-60.6-1.5-60.6-1.5s22.4-21,60.8-29.7
						C296.4,112.9,320.3,116.1,320.3,116.1z"/>
					<path class="st3" d="M291.3,315.3c15-2.5,28.3-12.1,38.4-27.5c2.7-4.2,5.9-10.2,8-15c5.9-14,9.1-30.1,9.3-47
						c0.2-12.5-1.3-25.4-4.2-37.7c-4-16.3-10.8-31.4-19.4-43.6c-3.2-4.4-7.4-9.3-11-12.9c-10.1-9.7-21.5-15.9-33.2-17.8
						c-8.7-1.5-17.5-0.4-25.6,3c-11,4.4-20.7,12.9-28.5,24.8c-2.7,4.2-5.9,10.2-8,15c-5.9,14-9.1,30.1-9.3,47
						c-0.2,12.5,1.3,25.4,4.2,37.7c4,16.3,10.8,31.4,19.4,43.6c3.2,4.4,7.4,9.3,11,12.9C257.3,311.9,274.6,318.2,291.3,315.3z"/>
					<g>
						<path class="st4" d="M291.3,315.3c15-2.5,28.3-12.1,38.4-27.5c2.7-4.2,5.9-10.2,8-15c5.9-14,9.1-30.1,9.3-47
							c0.2-12.5-1.3-25.4-4.2-37.7c-4-16.3-10.8-31.4-19.4-43.6c-3.2-4.4-7.4-9.3-11-12.9c-10.1-9.7-21.5-15.9-33.2-17.8
							c-8.7-1.5-17.5-0.4-25.6,3c-11,4.4-20.7,12.9-28.5,24.8c-2.7,4.2-5.9,10.2-8,15c-5.9,14-9.1,30.1-9.3,47
							c-0.2,12.5,1.3,25.4,4.2,37.7c4,16.3,10.8,31.4,19.4,43.6c3.2,4.4,7.4,9.3,11,12.9C257.3,311.9,274.6,318.2,291.3,315.3z
							 M283.1,305.9c-5.7,0-10.6-0.8-15.6-2.8c-5.5-1.9-10.8-5.1-16.1-8.9c-14.2-11.2-25.6-29.2-31.7-50.8c-1.1-4-2.1-8.5-3-12.3
							c-0.6-3.6-0.8-4.7-1.3-9.3c-0.6-5.7-0.8-8.3-0.8-13.1c-0.2-11.9,1.3-23.7,4.4-34.5c5.1-18.2,14.6-33.1,26.6-41.7
							c5.7-4.2,11.8-6.8,18.6-8.1c1.7-0.2,6.1-0.8,7.6-0.8c10.4,0,19.4,3.2,28.7,9.5c12.9,8.9,24.1,24.2,31.1,42.4
							c3.2,8.1,5.3,16.3,7,25.8c0.4,2.1,1.3,10.6,1.5,12.7c0.4,8.5,0.2,15.3-0.6,22.9c-0.8,7.8-2.5,15.5-4.9,22.5
							c-4.9,15-12.9,27.5-22.8,35.6c-5.9,4.9-12.9,8.5-19.9,10c-0.6,0.2-1.3,0.2-1.5,0.2C289.6,305.3,283.9,305.9,283.1,305.9z"/>
						<path class="st4" d="M308,250.2l22-41.5l-30.6-35.6l-30.6-35.6l-22,41.5l-22,41.5l30.6,35.6c16.9,19.7,30.6,35.6,30.6,35.6
							S296,273.1,308,250.2z M266,236.2l-15.8-18.4l11.4-21.6l11.4-21.6l15.8,18.4l15.8,18.4l-11.4,21.6
							c-6.3,11.9-11.4,21.6-11.4,21.6S274.6,246.4,266,236.2z"/>
					</g>
					<g>
						<path class="st5" d="M291.3,315.3c15-2.5,28.3-12.1,38.4-27.5c2.7-4.2,5.9-10.2,8-15c5.9-14,9.1-30.1,9.3-47
							c0.2-12.5-1.3-25.4-4.2-37.7c-4-16.3-10.8-31.4-19.4-43.6c-3.2-4.4-7.4-9.3-11-12.9c-10.1-9.7-21.5-15.9-33.2-17.8
							c-8.7-1.5-17.5-0.4-25.6,3c-11,4.4-20.7,12.9-28.5,24.8c-2.7,4.2-5.9,10.2-8,15c-5.9,14-9.1,30.1-9.3,47
							c-0.2,12.5,1.3,25.4,4.2,37.7c4,16.3,10.8,31.4,19.4,43.6c3.2,4.4,7.4,9.3,11,12.9C257.3,311.9,274.6,318.2,291.3,315.3z
							 M284.1,305.9c-15.6,0.4-30.8-7.4-43.5-22c-11.2-13.1-19.4-30.7-23.4-50.4c-1.9-9.1-2.7-18.6-2.7-28
							c0.2-16.1,3.4-31.8,9.1-44.7c0.2-0.6,0.4-1.3,0.4-1.3s0.2-0.2,0.2-0.4c0.2-0.2,0.2-0.4,0.2-0.6c0,0,0.2-0.4,0.4-0.6
							c0.2-0.4,0.4-0.6,0.4-0.6s0.4-0.8,0.8-1.7c0.4-0.8,0.8-1.7,0.8-1.7c0-0.2,0.2-0.6,0.2-0.4c0,0,0.6-1.1,0.6-1.3l0,0l0.6-0.8
							l0,0c0,0,0.4-0.6,0.8-1.3c2.7-4.2,5.9-8.3,9.1-11.4c1.1-1.1,3-2.8,3.8-3.4c0.2-0.2,0.4-0.4,0.6-0.6c0,0,0-0.2,0,0
							c0,0,0.4-0.2,1.1-0.6c2.5-1.9,6.1-4.2,8.7-5.5c0.2-0.2,0.4-0.2,0.4-0.4l0,0c0,0,2.5-0.8,2.5-1.1c0,0,0.2,0,0.4-0.2
							c0.2,0,0.4,0,0.4-0.2c0,0,0,0,0.2,0s0.2,0,0.2,0s0,0,0.2,0c0.2,0,0.2,0,0.2,0s0,0,0.2,0s0.2,0,0.2,0s0.2-0.2,0.4-0.2
							c0.2,0,0.4,0,0.4-0.2c0,0,0.2-0.2,0.6-0.2c0.2,0,0.4-0.2,0.4-0.2h0.2c0.2,0,0.2,0,0.4-0.2l0,0c0,0.2,0.6,0,0.6-0.2l0,0
							c0,0.2,0.6,0,0.6-0.2l0,0c0,0.2,0.8,0,0.8-0.2l0,0c0,0,0.4,0,0.8,0c1.1-0.2,5.3-0.6,6.3-0.6c0.4,0,0.8,0,0.8-0.2
							s0.2-0.2,0.2,0s0.8,0.2,0.8,0l0,0h0.2h0.2c0.2,0,0.2,0,0.2,0l0,0h0.2h0.2c0.2,0,0.2,0,0.2,0l0,0h0.2h0.2c0.2,0,0.2,0,0.4,0
							c0,0,0.2,0,0.6,0c0.2,0,0.6,0,0.6,0s0.2,0,0.4,0s0.4,0,0.4,0h0.2c0.2,0,0.2,0,0.2,0s0,0,0.2,0s0.2,0,0.2,0s0,0,0.2,0
							s0.2,0,0.2,0s0.2,0.2,0.4,0c0.2,0,0.4,0,0.4,0c0,0.2,2.5,0.4,2.5,0.4h0.2c0,0,0.6,0.2,1.3,0.4c3,0.8,5.9,1.9,8.9,3.2
							c0.6,0.2,1.1,0.4,1.3,0.4h0.2c0,0,0.2,0.2,0.4,0.4c0.8,0.4,3.4,1.9,4.4,2.5c4,2.5,7.8,5.5,11.4,9.1c0.8,0.8,1.3,1.1,1.3,1.1
							s0.2,0,0,0c-0.2,0.2,0.6,0.8,0.6,0.8s0.2,0,0,0c0,0,0,0.2,0.4,0.6c0.2,0.2,0.4,0.4,0.6,0.4c0.2,0,0.4,0.2,0.4,0.4
							c0,0,2.1,2.5,2.3,2.5c0,0,0.2,0,0.2,0.2c0,0.2,0.2,0.2,0,0.2c0,0.2,0.8,1.1,0.8,1.1c0.2,0,0.2,0,0,0c0,0,0,0.2,0.2,0.4
							c0.2,0.2,0.4,0.4,0.4,0.4s0.2,0,0,0c0,0,0,0.4,0.6,1.1c5.5,7.4,10.4,16.3,13.9,25.8c5.1,13.6,8,28.6,8.4,43.9
							c0.4,17.4-2.5,33.9-8.9,48.1c-0.4,0.8-0.6,1.7-0.6,1.7l0,0c0,0-0.4,0.8-0.4,1.1l0,0l-0.6,1.3l-0.2,0.4c0,0-0.4,0.8-0.8,1.7
							c-0.4,0.8-0.8,1.7-0.8,1.7s-0.2,0.2-0.4,0.6s-0.4,0.6-0.4,0.6s-0.2,0.2-0.2,0.4c-0.2,0.2-0.2,0.4-0.2,0.4s-0.4,0.4-0.6,1.1
							c-8.9,14-20.9,23.1-34.4,25.8C289.6,305.3,285.6,305.7,284.1,305.9L284.1,305.9z"/>
						<path class="st5" d="M308,250.2l22-41.5l-30.6-35.6l-30.6-35.6l-22,41.5l-22,41.5l30.6,35.6c16.9,19.7,30.6,35.6,30.6,35.6
							S296,273.1,308,250.2z M274.6,276.1l-11-12.7l4.4-8.5c2.5-4.7,4.4-8.5,4.4-8.5s2.1,2.5,4.9,5.5c2.5,3,4.6,5.5,4.9,5.5
							s1.7-3,3.4-6.4c1.9-3.6,3.4-6.4,3.4-6.4s2.7,3.2,6.3,7.2l6.1,7.2l-7.8,14.8c-4.2,8.3-7.8,14.8-7.8,14.8
							C285.6,288.8,280.8,283.1,274.6,276.1z M266,236.2l-15.8-18.4l11.4-21.6l11.4-21.6l15.8,18.4l15.8,18.4l-8,15
							c-4.4,8.3-8,15-7.8,15l0,0c0,0-1.7,3-3.6,6.4c-1.9,3.6-3.4,6.4-3.4,6.4S274.6,246.4,266,236.2z M277.4,177.1
							c-2.5-3-4.9-5.5-4.9-5.5s-1.7,3-3.6,6.4l-3.4,6.4l-6.1-7.2c-3.4-4-6.1-7.2-6.1-7.2s3.6-6.8,7.8-15l7.8-14.8l11,12.7l11,12.7
							l-4.4,8.5c-2.5,4.7-4.4,8.5-4.4,8.5C282.2,182.6,279.9,180.1,277.4,177.1z"/>
						<path class="st5" d="M285.8,224.6l6.1-11.7l-8.7-10l-8.4-10l-6.1,11.7l-6.1,11.7l8.4,10c4.6,5.5,8.4,10,8.7,10
							C279.9,236.2,282.4,230.9,285.8,224.6z"/>
					</g>
					<g>
						<path class="st6" d="M280.8,114.6c0,0-9.1-8.9-16.1-17.2c-7.2-8.1-15.6,6.8-20.1,8.3s-13.9-1.9-16.5,1.1
							c-2.5,3,0.2,22.5,0.2,22.5S263.4,111,280.8,114.6z"/>
						<path class="st1" d="M320.3,116.1c0,0-42.5,2.5-69.7,9.7c-27.2,7.4-53.4,25.2-53.4,25.2s22.4-27.8,62.3-35.2
							S320.3,116.1,320.3,116.1z"/>
					</g>
				</g>
			</g>
			<rect x="62.7" y="242.1" class="st7" width="259.9" height="138.1"/>
			<path class="st8" d="M336.9,242.1H48.5l0,0c0-7.2,5.8-13,13-13H324C331.1,229.1,336.9,234.9,336.9,242.1L336.9,242.1z"/>
			<rect x="69.2" y="70" class="st9" width="6.5" height="159.1"/>
			<rect x="309.7" y="70" class="st9" width="6.5" height="159.1"/>
			<g>
				<g>
					<path class="st10" d="M217.7,75.3L217.7,75.3c-6.9,0-12.5-5.6-12.5-12.5V46.1h25v16.6C230.2,69.7,224.6,75.3,217.7,75.3z"/>
					<path class="st5" d="M192.7,75.3L192.7,75.3c-6.9,0-12.5-5.6-12.5-12.5V46.1h25v16.6C205.2,69.7,199.6,75.3,192.7,75.3z"/>
					<path class="st10" d="M167.8,75.3L167.8,75.3c-6.9,0-12.5-5.6-12.5-12.5V46.1h25v16.6C180.2,69.7,174.6,75.3,167.8,75.3z"/>
					<path class="st5" d="M142.8,75.3L142.8,75.3c-6.9,0-12.5-5.6-12.5-12.5V46.1h25v16.6C155.3,69.7,149.7,75.3,142.8,75.3z"/>
					<path class="st10" d="M117.8,75.3L117.8,75.3c-6.9,0-12.5-5.6-12.5-12.5V46.1h25v16.6C130.3,69.7,124.7,75.3,117.8,75.3z"/>
					<path class="st5" d="M342.6,75.3L342.6,75.3c-6.9,0-12.5-5.6-12.5-12.5V46.1h25v16.6C355,69.7,349.5,75.3,342.6,75.3z"/>
					<path class="st10" d="M317.6,75.3L317.6,75.3c-6.9,0-12.5-5.6-12.5-12.5V46.1h25v16.6C330.1,69.7,324.5,75.3,317.6,75.3z"/>
					<path class="st5" d="M292.6,75.3L292.6,75.3c-6.9,0-12.5-5.6-12.5-12.5V46.1h25v16.6C305.1,69.7,299.5,75.3,292.6,75.3z"/>
					<path class="st10" d="M267.6,75.3L267.6,75.3c-6.9,0-12.5-5.6-12.5-12.5V46.1h25v16.6C280.1,69.7,274.5,75.3,267.6,75.3z"/>
					<path class="st5" d="M242.7,75.3L242.7,75.3c-6.9,0-12.5-5.6-12.5-12.5V46.1h25v16.6C255.2,69.7,249.6,75.3,242.7,75.3z"/>
					<path class="st5" d="M92.8,75.3L92.8,75.3c-6.9,0-12.5-5.6-12.5-12.5V46.1h25v16.6C105.3,69.7,99.7,75.3,92.8,75.3z"/>
					<path class="st10" d="M67.8,75.3L67.8,75.3c-6.9,0-12.5-5.6-12.5-12.5V46.1h25v16.6C80.3,69.7,74.7,75.3,67.8,75.3z"/>
					<path class="st5" d="M42.8,75.3L42.8,75.3c-6.9,0-12.5-5.6-12.5-12.5V46.1h25v16.6C55.3,69.7,49.7,75.3,42.8,75.3z"/>
				</g>
				<g>
					<polygon class="st11" points="201.6,30.2 183.9,30.2 180.2,46.1 205.2,46.1 					"/>
					<polygon class="st12" points="183.9,30.2 166.1,30.2 155.3,46.1 180.2,46.1 					"/>
					<polygon class="st11" points="166.1,30.2 148.3,30.2 130.3,46.1 155.3,46.1 					"/>
					<polygon class="st12" points="148.3,30.2 130.6,30.2 105.3,46.1 130.3,46.1 					"/>
					<polygon class="st11" points="130.6,30.2 112.8,30.2 80.3,46.1 105.3,46.1 					"/>
					<polygon class="st12" points="112.8,30.2 95,30.2 55.3,46.1 80.3,46.1 					"/>
					<polygon class="st11" points="95,30.2 77.3,30.2 30.4,46.1 55.3,46.1 					"/>
					<polygon class="st11" points="272.5,30.2 254.8,30.2 280.1,46.1 305.1,46.1 					"/>
					<polygon class="st12" points="254.9,30.2 237.1,30.2 255.1,46.1 280.1,46.1 					"/>
					<polygon class="st11" points="308.1,30.2 290.3,30.2 330.1,46.1 355,46.1 					"/>
					<polygon class="st12" points="290.3,30.2 272.5,30.2 305.1,46.1 330.1,46.1 					"/>
					<polygon class="st11" points="237.1,30.2 219.3,30.2 230.2,46.1 255.2,46.1 					"/>
					<polygon class="st12" points="219.3,30.2 201.6,30.2 205.2,46.1 230.2,46.1 					"/>
				</g>
			</g>
		</g>
	</g>
</g>
<g>
	<g>
		<g>
			<path class="st3" d="M128,228.8c-10.1-0.4-19.6-4-27.4-10.4c-2.2-1.7-4.6-4.2-6.3-6.3c-5-6.2-8.4-13.2-9.6-20.7
				c-1-5.6-1-11.5,0-17.1c1.4-7.6,4.8-14.7,9.6-20.7c1.7-2.2,4.2-4.6,6.3-6.3c6-4.9,13.1-8.2,20.7-9.6c5.6-1,11.5-1,17.1,0
				c7.6,1.4,14.7,4.8,20.7,9.6c2.2,1.7,4.6,4.2,6.3,6.3c4.9,6,8.2,13.1,9.6,20.7c1,5.6,1,11.5,0,17.1c-1.4,7.6-4.8,14.7-9.6,20.7
				c-1.7,2.2-4.2,4.6-6.3,6.3C150.3,225.5,139.4,229.3,128,228.8z"/>
		</g>
		<path class="st4" d="M128,228.8c-10.1-0.4-19.6-4-27.4-10.4c-2.2-1.7-4.6-4.2-6.3-6.3c-5-6.2-8.4-13.2-9.6-20.7
			c-1-5.6-1-11.5,0-17.1c1.4-7.6,4.8-14.7,9.6-20.7c1.7-2.2,4.2-4.6,6.3-6.3c6-4.9,13.1-8.2,20.7-9.6c5.6-1,11.5-1,17.1,0
			c7.6,1.4,14.7,4.8,20.7,9.6c2.2,1.7,4.6,4.2,6.3,6.3c4.9,6,8.2,13.1,9.6,20.7c1,5.6,1,11.5,0,17.1c-1.4,7.6-4.8,14.7-9.6,20.7
			c-1.7,2.2-4.2,4.6-6.3,6.3C150.3,225.5,139.4,229.3,128,228.8z M132.9,224.1c3.7-0.3,6.9-1,10.2-2c3.5-1.2,6.8-2.7,9.9-4.9
			c8.6-5.8,14.7-14.5,17.3-24.5c0.4-1.9,0.9-3.9,1-5.8c0.1-1.6,0.1-2.2,0.1-4.3c0-2.6-0.1-3.7-0.4-5.9c-0.7-5.3-2.6-10.5-5.5-15.3
			c-4.8-7.9-12.1-14.1-20.7-17.4c-4-1.6-8.4-2.4-12.8-2.7c-1.2,0-4,0-5,0c-6.8,0.6-12.7,2.4-18.3,5.8c-7.9,4.8-14.1,12.1-17.4,20.7
			c-1.4,3.9-2.3,7.6-2.7,12c-0.1,1-0.1,4.9,0,5.8c0.3,3.7,0.9,6.9,2,10.2c1.2,3.7,2.7,7.1,4.8,10.1c4.3,6.5,10.5,11.7,17.7,15
			c4.3,1.9,9.2,3.2,14,3.5c0.4,0,0.9,0,1,0C128.5,224.2,132.3,224.2,132.9,224.1z"/>
		<path class="st4" d="M112.3,200.3l-17.7-17.6l17.6-17.6l17.7-17.7l17.6,17.6l17.7,17.7l-17.7,17.6c-9.6,9.8-17.6,17.7-17.6,17.7
			S122,210.1,112.3,200.3z M139.1,191.8l9.1-9.1l-9.1-9.1l-9.2-9.2l-9.1,9.1l-9.2,9.2l9.1,9.1c5,5,9.1,9.1,9.2,9.1
			S134.1,196.9,139.1,191.8z"/>
	</g>
	<path class="st5" d="M112.3,200.3l-17.7-17.6l17.6-17.6l17.7-17.7l17.6,17.6l17.7,17.7l-17.7,17.6c-9.6,9.8-17.6,17.7-17.6,17.7
		S122,210.1,112.3,200.3z M136.2,210.3l6.3-6.3l-3.6-3.6c-2-2-3.6-3.6-3.6-3.6s-1.3,1.2-2.7,2.7c-1.4,1.4-2.7,2.7-2.7,2.7
		s-1.3-1.2-2.7-2.7c-1.4-1.4-2.7-2.7-2.7-2.7s-1.6,1.6-3.6,3.6l-3.6,3.6l6.3,6.3c3.5,3.5,6.3,6.3,6.3,6.3S132.8,213.7,136.2,210.3z
		 M139.1,191.8l9.1-9.1l-9.1-9.1l-9.2-9.2l-9.1,9.1l-9.2,9.2l6.3,6.3c3.5,3.5,6.3,6.3,6.3,6.3l0,0c0,0,1.3,1.3,2.7,2.7
		c1.4,1.4,2.7,2.7,2.7,2.7S134.1,196.9,139.1,191.8z M127,165.9c1.4-1.4,2.7-2.7,2.7-2.7s1.3,1.3,2.7,2.7l2.7,2.7l3.6-3.6
		c2-2,3.6-3.6,3.6-3.6s-2.9-2.9-6.3-6.3l-6.2-6.3l-6.3,6.3l-6.3,6.3l3.6,3.6c2,2,3.6,3.6,3.6,3.6C124.3,168.6,125.6,167.4,127,165.9
		z"/>
	<path class="st5" d="M125,187.7l-4.9-4.9l4.9-4.9l4.9-4.9l4.9,4.9l4.9,4.9l-4.9,4.9c-2.7,2.7-4.9,4.9-4.9,4.9
		S127.7,190.4,125,187.7z"/>
</g>
<title>bscindex-logo-128px</title>
<g>
	<g>
		<path class="st3" d="M113.7,332.6c-4.7-0.2-9.2-1.9-12.8-4.9c-1.1-0.9-2.1-1.9-3-3c-6.5-7.9-6.5-19.4,0-27.3c0.9-1.1,1.9-2.1,3-3
			c2.8-2.3,6.1-3.9,9.7-4.5c2.7-0.5,5.3-0.5,8,0c3.6,0.7,6.8,2.2,9.6,4.5c1.1,0.9,2.1,1.9,3,3c2.3,2.8,3.8,6.1,4.5,9.6
			c0.5,2.7,0.5,5.3,0,8c-0.7,3.5-2.2,6.8-4.5,9.6c-0.9,1.1-1.9,2.1-3,3C124.1,331.1,119,332.8,113.7,332.6z"/>
		<path class="st5" d="M113.7,332.6c-4.7-0.2-9.2-1.9-12.8-4.9c-1.1-0.9-2.1-1.9-3-3c-6.5-7.9-6.5-19.4,0-27.3c0.9-1.1,1.9-2.1,3-3
			c2.8-2.3,6.1-3.9,9.7-4.5c2.7-0.5,5.3-0.5,8,0c3.6,0.7,6.8,2.2,9.6,4.5c1.1,0.9,2.1,1.9,3,3c2.3,2.8,3.8,6.1,4.5,9.6
			c0.5,2.7,0.5,5.3,0,8c-0.7,3.5-2.2,6.8-4.5,9.6c-0.9,1.1-1.9,2.1-3,3C124.1,331.1,119,332.8,113.7,332.6z M115.9,330.4
			c1.6-0.1,3.2-0.4,4.7-0.9c6.3-2.1,11-7.2,12.6-13.7c0.2-0.9,0.4-1.8,0.5-2.7c0.1-0.7,0.1-1.3,0.1-2c0-0.9,0-1.8-0.2-2.8
			c-1.3-9.2-8.9-16.1-18.2-16.5c-0.5,0-1.9,0-2.3,0c-7.5,0.5-14,5.3-16.7,12.3c-0.7,1.8-1.1,3.7-1.2,5.6c0,0.4,0,2.2,0,2.7
			c0.1,1.6,0.4,3.2,0.9,4.8c0.5,1.6,1.3,3.2,2.3,4.6c3.3,5,8.8,8.2,14.7,8.6h0.4C113.9,330.5,115.7,330.5,115.9,330.4L115.9,330.4z"
			/>
		<path class="st4" d="M106.3,319.3l-8.2-8.2l8.2-8.2l8.2-8.2l8.2,8.2l8.2,8.2l-8.2,8.2c-4.5,4.5-8.2,8.2-8.2,8.2
			S110.9,323.9,106.3,319.3z M118.8,315.4l4.3-4.3l-4.3-4.3l-4.3-4.3l-4.3,4.3l-4.2,4.3l4.2,4.3c2.3,2.3,4.3,4.3,4.3,4.3
			S116.5,317.8,118.8,315.4z"/>
	</g>
	<path class="st5" d="M106.3,319.3l-8.2-8.2l8.2-8.2l8.2-8.2l8.2,8.2l8.2,8.2l-8.2,8.2c-4.5,4.5-8.2,8.2-8.2,8.2
		S110.9,323.9,106.3,319.3z M117.5,324l3-3l-1.6-1.6c-0.9-0.9-1.7-1.6-1.7-1.6s-0.6,0.6-1.3,1.2c-0.7,0.7-1.3,1.3-1.3,1.3
		s-0.6-0.6-1.3-1.3c-0.7-0.7-1.3-1.2-1.3-1.2s-0.8,0.7-1.7,1.6l-1.6,1.6l3,3c1.6,1.6,3,3,3,3S115.9,325.6,117.5,324z M118.8,315.4
		l4.3-4.3l-4.3-4.3l-4.3-4.3l-4.3,4.3l-4.2,4.3l3,3c1.6,1.6,3,3,3,3l0,0c0,0,0.6,0.6,1.3,1.3c0.7,0.7,1.3,1.3,1.3,1.3
		S116.5,317.8,118.8,315.4L118.8,315.4z M113.2,303.3c0.7-0.7,1.3-1.3,1.3-1.3s0.6,0.6,1.3,1.3l1.3,1.3l1.6-1.6
		c0.9-0.9,1.6-1.6,1.6-1.7c0,0-1.3-1.3-3-3l-3-3l-3,3l-3,3l1.6,1.7c0.9,0.9,1.7,1.7,1.7,1.7S112.5,304,113.2,303.3z"/>
	<path class="st5" d="M112.3,313.4l-2.3-2.3l2.3-2.3l2.3-2.3l2.3,2.3l2.3,2.3l-2.3,2.3c-1.3,1.3-2.3,2.3-2.3,2.3
		S113.5,314.7,112.3,313.4z"/>
</g>
<g>
	<path class="st13" d="M145.7,300.1c1.4-0.3,4.2-0.5,6.9-0.5c3.3,0,5.2,0.3,6.9,1.3c1.7,0.9,2.9,2.7,2.8,4.6c0,2.1-1.2,4.1-3.9,5
		v0.1c2.7,0.7,4.7,2.8,4.7,5.8c0,1.9-0.9,3.8-2.4,5c-1.7,1.4-4.6,2.1-9.3,2.1c-1.9,0-3.9-0.1-5.8-0.3L145.7,300.1z M151,309.1h1.7
		c2.8,0,4.3-1.1,4.3-2.9s-1.4-2.7-3.8-2.7c-0.8,0-1.5,0-2.3,0.1v5.5H151z M151,319.6c0.7,0.1,1.4,0.1,2,0.1c2.4,0,4.5-0.9,4.5-3.4
		c0-2.4-2.1-3.3-4.8-3.3H151V319.6L151,319.6z"/>
	<path class="st13" d="M167.9,317.9c1.8,0.9,3.9,1.4,5.9,1.5c2.4,0,3.7-1,3.7-2.5s-1.1-2.3-4-3.3c-3.9-1.3-6.4-3.5-6.4-6.9
		c0-4,3.4-7.1,8.9-7.1c2,0,4.1,0.4,6,1.2l-1.2,4.3c-1.5-0.7-3.2-1.1-4.9-1.1c-2.3,0-3.4,1-3.4,2.3c0,1.5,1.3,2.2,4.4,3.3
		c4.2,1.5,6.1,3.7,6.1,7c0,4-3,7.3-9.5,7.3c-2.7,0-5.3-0.7-6.7-1.5L167.9,317.9z"/>
	<path class="st13" d="M204.7,322.7c-1,0.5-3.2,1-6,1c-8.1,0-12.3-5.1-12.3-11.8c0-8,5.7-12.5,12.8-12.5c2.8,0,4.9,0.6,5.8,1
		l-1.1,4.2c-1.4-0.6-3-0.9-4.5-0.9c-4.2,0-7.5,2.5-7.5,7.8c0,4.7,2.8,7.7,7.5,7.7c1.5,0,3-0.3,4.4-0.8L204.7,322.7z"/>
	<path class="st13" d="M214.4,299.8v23.5H209v-23.5H214.4z"/>
	<path class="st13" d="M219.8,311.7c0-2.1-0.1-4-0.1-5.4h4.6l0.2,2.3h0.1c1.2-1.7,3.2-2.8,5.3-2.7c3.5,0,6.1,2.3,6.1,7.3v10.1h-5.3
		v-9.5c0-2.2-0.8-3.7-2.7-3.7c-1.2,0-2.3,0.8-2.7,2c-0.1,0.4-0.2,0.9-0.2,1.3v9.8h-5.3L219.8,311.7L219.8,311.7z"/>
	<path class="st13" d="M257.6,298.6v19.7c0,1.9,0.1,4,0.1,5.1H253l-0.2-2.5h-0.1c-1.1,1.9-3.2,2.9-5.3,2.9c-4.1,0-7.3-3.5-7.3-8.8
		c0-5.8,3.6-9.1,7.6-9.1c2.1,0,3.7,0.7,4.5,1.9h0.1v-9.3L257.6,298.6L257.6,298.6z M252.3,313.5c0-0.3,0-0.6-0.1-0.9
		c-0.3-1.5-1.6-2.6-3.1-2.6c-2.4,0-3.7,2.2-3.7,4.9c0,2.9,1.4,4.7,3.6,4.7c1.5,0,2.8-1.1,3.1-2.5c0.1-0.4,0.1-0.8,0.1-1.2
		L252.3,313.5L252.3,313.5z"/>
	<path class="st13" d="M266.9,316.5c0.2,2.2,2.3,3.3,4.8,3.3c1.6,0,3.2-0.2,4.7-0.7l0.7,3.6c-2,0.7-4.1,1.1-6.2,1.1
		c-5.8,0-9.1-3.4-9.1-8.7c0-4.3,2.7-9.1,8.6-9.1c5.5,0,7.6,4.3,7.6,8.5c0,0.7-0.1,1.4-0.2,2.1L266.9,316.5L266.9,316.5z
		 M273.1,312.9c0-1.3-0.6-3.5-3-3.5c-2.2,0-3.2,2-3.3,3.5H273.1z"/>
	<path class="st13" d="M285.7,306.3l1.7,2.8c0.5,0.9,0.9,1.7,1.4,2.5h0.1c0.4-0.9,0.9-1.8,1.3-2.6l1.5-2.8h5.8l-5.6,8.1l5.7,8.9h-6
		l-1.7-3.1c-0.5-0.8-0.9-1.7-1.3-2.6h-0.1c-0.4,0.9-0.9,1.7-1.3,2.6l-1.6,3.1h-5.9l5.8-8.7l-5.6-8.4L285.7,306.3z"/>
</g>
</svg>
