<?xml version="1.0" encoding="utf-8"?>
<!-- Generator: Adobe Illustrator 23.0.5, SVG Export Plug-In . SVG Version: 6.00 Build 0)  -->
<svg version="1.1" id="Layer_1" xmlns="http://www.w3.org/2000/svg" xmlns:xlink="http://www.w3.org/1999/xlink" x="0px" y="0px"
	 viewBox="0 0 483 345" style="enable-background:new 0 0 483 345;" xml:space="preserve">
<style type="text/css">
	.st0{fill:#DD890E;}
	.st1{fill:#EDA024;}
	.st2{fill:#B76800;}
	.st3{fill:#222226;}
	.st4{fill:#EAAE28;}
	.st5{fill:#F3BA2F;}
	.st6{fill:#FFB03E;}
	.st7{fill:#DD7957;}
	.st8{fill:#F08D63;}
	.st9{fill:#D8DEE8;}
	.st10{fill:url(#SVGID_1_);}
	.st11{fill:#424549;}
	.st12{fill:#353638;}
	.st13{opacity:0.15;fill:#62626D;enable-background:new    ;}
	.st14{fill:url(#SVGID_2_);}
	.st15{fill:url(#SVGID_3_);}
	.st16{fill:url(#SVGID_4_);}
	.st17{fill:url(#SVGID_5_);}
	.st18{fill:url(#SVGID_6_);}
	.st19{fill:url(#SVGID_7_);}
	.st20{fill:url(#SVGID_8_);}
	.st21{opacity:0.25;fill:#6D6E89;enable-background:new    ;}
	.st22{fill:url(#SVGID_9_);}
</style>
<g>
	<g>
		<path class="st0" d="M425.1,207.4c0,0,11-0.6,17.2,2.3c0,0-14.3,13.3-32.1,1.9C410.1,211.8,414.7,208,425.1,207.4z"/>
		<path class="st1" d="M450.1,267.6c0,0-22.1,4.2-28.4,4.4c-6.5,0.2-15.9,0.2-15.9,0.2s-1-2.1,0.5-4.2c0.8-1.3,2.6-2.6,6-3.4
			c5.8-1.5,10.9-7.1,13.6-10.9c1.5-1.9,2.3-3.2,2.3-3.2l-0.2-0.5l-17.7-38.3c0.5,0.2,11,3.2,22.2,1.3c3.4-0.6,6.8-1.6,9.9-3.4
			c0,0,5.8,44.2,6,45.6C448.5,256.7,450.1,267.6,450.1,267.6z"/>
		<path class="st0" d="M450.1,267.6c0,0-22.1,4.2-28.4,4.4c-6.5,0.2-15.9,0.2-15.9,0.2s-1-2.1,0.5-4.2c8.1-2.3,29.1-3.4,30-8
			c1-4.2-8.6-6-10.4-6.3c1.5-1.9,2.3-3.2,2.3-3.2l-0.2-0.5c2.9-0.6,9.9-2.9,11.5-8.3c1.5-4.9-3.9-20.1-7.1-28.7
			c3.4-0.6,6.8-1.6,9.9-3.4c0,0,5.8,44.2,6,45.6C448.5,256.7,450.1,267.6,450.1,267.6z"/>
	</g>
	<path class="st1" d="M402.3,272.3c-0.2,0.6-46.9,0-46.9,0s-0.6-1.6-0.2-3.4c0.5-1.6,1.9-3.4,5.8-4.2c5.2-1.1,11.5-5.5,15.4-8.6
		c2.1-1.6,3.6-2.9,3.7-3.1l0,0l-6.5-43.7c0,0,3.7,4.9,13.3,5.8c0.5,0,1,0.2,1.3,0.2c10.7,0.8,16.6-3.4,16.6-3.4s-3.2,37.8-3.4,40.8
		C401.5,255.8,402.6,271.7,402.3,272.3z"/>
	<path class="st0" d="M402.3,272.3c-0.2,0.6-46.9,0-46.9,0s-0.6-1.6-0.2-3.4c10.4-0.3,32-1.5,30.7-5.8c-1.1-3.9-6.3-6-9.4-7
		c2.1-1.6,3.6-2.9,3.7-3.1l0,0c0,0,10.9,6.3,10.6-10.2c-0.2-11-2.3-21.6-3.7-27.4c0.5,0,1,0.2,1.3,0.2c10.7,0.8,16.6-3.4,16.6-3.4
		s-3.2,37.8-3.4,40.8C401.5,255.8,402.6,271.7,402.3,272.3z"/>
</g>
<g>
	<path class="st2" d="M449.1,29.3c0,0-24.7,28.1-61.2,34.3c-36.7,6.2-58.3-3.2-58.3-3.2s22.2-20,59.4-27.4S449.1,29.3,449.1,29.3z"
		/>
	<path class="st3" d="M415.3,224.1c14.5-2.1,27.6-11,37.8-26c2.8-4.1,6-9.9,8.1-14.6c6.2-13.6,9.6-29.4,10.4-46
		c0.6-12.3-0.5-25-2.9-37.2c-3.4-16.1-9.4-31.2-17.4-43.5c-2.9-4.4-6.8-9.4-10.2-13c-9.4-9.9-20.3-16.2-31.3-18.5
		c-8.3-1.8-16.9-1-24.7,2.1c-10.7,4.1-20.3,12.2-28.3,23.5c-2.8,4.1-6,9.9-8.1,14.6c-6.2,13.6-9.6,29.4-10.4,46
		c-0.6,12.3,0.5,25,2.9,37.2c3.4,16.1,9.4,31.2,17.4,43.5c2.9,4.4,6.8,9.4,10.2,13C382.7,219.9,399.3,226.5,415.3,224.1z"/>
	<g>
		<path class="st4" d="M415.3,224.1c14.5-2.1,27.6-11,37.8-26c2.8-4.1,6-9.9,8.1-14.6c6.2-13.6,9.6-29.4,10.4-46
			c0.6-12.3-0.5-25-2.9-37.2c-3.4-16.1-9.4-31.2-17.4-43.5c-2.9-4.4-6.8-9.4-10.2-13c-9.4-9.9-20.3-16.2-31.3-18.5
			c-8.3-1.8-16.9-1-24.7,2.1c-10.7,4.1-20.3,12.2-28.3,23.5c-2.8,4.1-6,9.9-8.1,14.6c-6.2,13.6-9.6,29.4-10.4,46
			c-0.6,12.3,0.5,25,2.9,37.2c3.4,16.1,9.4,31.2,17.4,43.5c2.9,4.4,6.8,9.4,10.2,13C382.7,219.9,399.3,226.5,415.3,224.1z
			 M407.7,214.7c-5.5-0.2-10.1-1.1-14.9-3.1c-5.2-2.1-10.2-5.4-15.3-9.3c-13.3-11.4-23.7-29.6-29.1-50.8c-1-4.1-1.8-8.4-2.4-12.2
			c-0.5-3.6-0.6-4.5-1-9.3c-0.5-5.7-0.6-8.1-0.5-13c0.2-11.7,1.9-23.2,5.4-33.8c5.4-17.7,14.9-32,26.8-40.3
			c5.7-4.1,11.5-6.3,18.2-7.3c1.6-0.2,5.8-0.6,7.3-0.6c9.9,0.3,18.7,3.7,27.4,10.2c12.2,9.1,22.4,24.4,28.6,42.5
			c2.8,8,4.5,16.2,6,25.7c0.3,2.1,1,10.4,1,12.5c0.2,8.3-0.3,14.9-1.3,22.4c-1,7.6-2.9,15.1-5.4,21.9c-5.2,14.6-13.2,26.6-23.1,34.3
			c-5.8,4.5-12.7,8-19.5,9.3c-0.6,0.2-1.3,0.2-1.5,0.2C414,214.4,408.5,214.9,407.7,214.7z"/>
		<path class="st4" d="M433.4,160.8l22.4-40.1l-28.4-35.9l-28.4-35.9L376.5,89l-22.4,40.1l28.4,35.9c15.7,19.8,28.4,35.9,28.4,35.9
			S421,182.9,433.4,160.8z M393.3,145.7l-14.6-18.5l11.7-20.9L402,85.3l14.8,18.5l14.8,18.5l-12,21.1c-6.5,11.5-11.7,20.9-11.7,20.9
			S401.4,156.1,393.3,145.7z"/>
	</g>
	<g>
		<path class="st5" d="M415.3,224.1c14.5-2.1,27.6-11,37.8-26c2.8-4.1,6-9.9,8.1-14.6c6.2-13.6,9.6-29.4,10.4-46
			c0.6-12.3-0.5-25-2.9-37.2c-3.4-16.1-9.4-31.2-17.4-43.5c-2.9-4.4-6.8-9.4-10.2-13c-9.4-9.9-20.3-16.2-31.3-18.5
			c-8.3-1.8-16.9-1-24.7,2.1c-10.7,4.1-20.3,12.2-28.3,23.5c-2.8,4.1-6,9.9-8.1,14.6c-6.2,13.6-9.6,29.4-10.4,46
			c-0.6,12.3,0.5,25,2.9,37.2c3.4,16.1,9.4,31.2,17.4,43.5c2.9,4.4,6.8,9.4,10.2,13C382.7,219.9,399.3,226.5,415.3,224.1z
			 M408.7,214.9c-15.1,0-29.6-8.1-41.2-22.9c-10.4-13.3-17.9-30.7-21.1-50.2c-1.6-8.9-2.1-18.3-1.8-27.6
			c0.6-15.7,4.2-31.2,10.1-43.7c0.2-0.6,0.5-1.3,0.5-1.3s0.2-0.2,0.2-0.5c0.2-0.2,0.2-0.5,0.2-0.6c0,0,0.2-0.5,0.5-0.6
			c0.2-0.5,0.5-0.6,0.5-0.6s0.5-0.8,0.8-1.6c0.5-0.8,0.8-1.6,0.8-1.6c0-0.2,0.2-0.6,0.2-0.5c0,0,0.6-1,0.6-1.3l0,0l0.6-0.8l0,0
			c0,0,0.5-0.6,0.8-1.3c2.8-4.1,6-8,9.1-11c1-1,2.9-2.6,3.7-3.2c0.2-0.2,0.5-0.3,0.6-0.6c0,0,0-0.2,0,0c0,0,0.5-0.2,1-0.6
			c2.4-1.8,6-4.1,8.4-5.2c0.2-0.2,0.5-0.2,0.5-0.3l0,0c0,0,2.4-0.8,2.4-1c0,0,0.2,0,0.5-0.2c0.2,0,0.5,0,0.5-0.2c0,0,0,0,0.2,0
			c0.2,0,0.2,0,0.2,0s0,0,0.2,0s0.2,0,0.2,0s0,0,0.2,0s0.2,0,0.2,0s0.2-0.2,0.5-0.2c0.2,0,0.5,0,0.5-0.2c0,0,0.2-0.2,0.6-0.2
			c0.2,0,0.5-0.2,0.5-0.2h0.2c0.2,0,0.2,0,0.5-0.2l0,0c0,0.2,0.6,0,0.6-0.2l0,0c0,0.2,0.6,0,0.6-0.2l0,0c0,0.2,0.8,0,0.8-0.2l0,0
			c0,0,0.5,0,0.8,0c1-0.2,5-0.5,6.2-0.5c0.5,0,0.8,0,0.8-0.2s0.2-0.2,0.2,0s0.8,0.2,0.8,0l0,0h0.2h0.2c0.2,0,0.2,0,0.2,0l0,0h0.2
			h0.2c0.2,0,0.2,0,0.2,0l0,0h0.2h0.2c0.2,0,0.2,0,0.5,0c0,0,0.2,0,0.6,0c0.2,0,0.6,0,0.6,0s0.2,0,0.5,0c0.2,0,0.5,0,0.5,0h0.2
			c0.2,0,0.2,0,0.2,0s0,0,0.2,0s0.2,0,0.2,0s0,0,0.2,0c0.2,0,0.2,0,0.2,0s0.2,0.2,0.5,0c0.2,0,0.5,0,0.5,0c0,0.2,2.4,0.5,2.4,0.5
			h0.2c0,0,0.6,0.2,1.1,0.5c2.8,1,5.7,2.1,8.4,3.4c0.6,0.2,1,0.5,1.1,0.5h0.2c0,0,0.2,0.2,0.3,0.5c0.8,0.5,3.2,1.9,4.2,2.6
			c3.7,2.6,7.3,5.7,10.7,9.3c0.8,0.8,1.1,1.1,1.1,1.1s0.2,0,0,0c-0.2,0.2,0.6,0.8,0.6,0.8s0.2,0,0,0c0,0,0,0.2,0.3,0.6
			c0.2,0.2,0.3,0.5,0.6,0.5c0.2,0,0.3,0.2,0.3,0.5c0,0,1.9,2.6,2.1,2.6c0,0,0.2,0,0.2,0.2c0,0.2,0.2,0.2,0,0.2
			c0,0.2,0.8,1.1,0.8,1.1c0.2,0,0.2,0,0,0c0,0,0,0.2,0.2,0.5c0.2,0.2,0.3,0.5,0.3,0.5s0.2,0,0,0c0,0,0,0.5,0.6,1.1
			c5,7.5,9.4,16.4,12.7,25.8c4.5,13.5,6.8,28.4,6.8,43.4c-0.2,17-3.4,33.3-9.9,47.1c-0.5,0.8-0.6,1.6-0.6,1.6l0,0c0,0-0.5,0.8-0.5,1
			l0,0l-0.6,1.3l-0.2,0.5c0,0-0.5,0.8-0.8,1.6c-0.5,0.8-0.8,1.6-0.8,1.6s-0.2,0.2-0.5,0.6c-0.2,0.5-0.5,0.6-0.5,0.6
			s-0.2,0.2-0.2,0.5c-0.2,0.2-0.2,0.5-0.2,0.5s-0.5,0.3-0.6,1c-8.9,13.5-20.8,22.1-33.9,24.4C414,214.4,410.1,214.7,408.7,214.9
			L408.7,214.9z"/>
		<path class="st5" d="M433.4,160.8l22.4-40.1l-28.4-35.9l-28.4-35.9L376.5,89l-22.4,40.1l28.4,35.9c15.7,19.8,28.4,35.9,28.4,35.9
			S421,182.9,433.4,160.8z M400.4,185.1l-10.2-12.8l4.5-8.3c2.6-4.5,4.5-8.3,4.5-8.3s1.9,2.6,4.5,5.5c2.3,2.9,4.4,5.5,4.5,5.5
			c0.2,0,1.8-2.9,3.4-6.2c1.9-3.4,3.4-6.2,3.4-6.2s2.6,3.2,5.8,7.3l5.7,7.3l-8,14.3c-4.4,8-8,14.3-8,14.3
			C410.6,198,406.1,192.1,400.4,185.1z M393.3,145.7l-14.6-18.5l11.7-20.9L402,85.3l14.8,18.5l14.8,18.5l-8.1,14.6
			c-4.5,8-8.1,14.6-8,14.6l0,0c0,0-1.8,2.9-3.6,6.2c-1.9,3.4-3.4,6.2-3.4,6.2S401.4,156.1,393.3,145.7z M406.1,88
			c-2.3-2.9-4.5-5.5-4.5-5.5s-1.8,2.9-3.6,6.2l-3.4,6.2l-5.7-7.3c-3.1-4.1-5.7-7.3-5.7-7.3s3.7-6.5,8-14.6l8-14.3l10.2,12.8
			l10.1,12.7l-4.5,8.3c-2.6,4.5-4.5,8.3-4.5,8.3C410.5,93.6,408.4,91,406.1,88z"/>
		<path class="st5" d="M412.7,134.8l6.2-11.2l-8.1-10.1l-7.8-10.1l-6.2,11.2l-6.2,11.2l7.8,10.1c4.4,5.5,7.8,10.1,8.1,10.1
			S409.3,141,412.7,134.8z"/>
	</g>
	<g>
		<path class="st6" d="M411.1,26.7c0,0-8.4-8.9-14.9-17.4c-6.7-8.1-15.3,6.2-19.5,7.5c-4.2,1.3-13.3-2.3-15.9,0.5
			s-0.5,22.2-0.5,22.2S394.6,22.6,411.1,26.7z"/>
		<path class="st1" d="M449.1,29.3c0,0-40.9,1.3-67.4,7.6c-26.5,6.5-52.1,23.2-52.1,23.2s22.4-26.6,61.1-32.8S449.1,29.3,449.1,29.3
			z"/>
	</g>
</g>
<g>
	<g>
		<path class="st7" d="M365.5,133.7c-4.5,0.5-6.5,7.1-7.3,14.3c-0.6,7.1,6.8,8,9.9,8.4c3.1,0.5,6.8-3.7,6.2-6.8
			c-0.6-3.1,2.6-9.3-2.4-14.6C368.9,131.7,365.5,133.7,365.5,133.7z"/>
	</g>
</g>
<g>
	<path class="st8" d="M437.4,143.1c0,0,0,1.6-0.6,3.6l0,0c0,0.2-0.2,0.5-0.2,0.6c-0.5,1.9-1.5,4.2-2.9,6c-1.1,1.3-2.1,1.6-3.1,1.5
		c-0.6,0.6-1.8,1.3-2.9,1.6c-1.9,0.5-2.1,0-2.1,0s-1.6,1.8-3.6,2.4s-3.2-0.3-3.2-0.3s-3.2,1.9-5.4,0.8c-2.1-1-4.4-8.8-4.5-10.2
		c0-0.3,0-1,0.3-1.8c0.8-3.1,3.4-8.8,5.7-9.9c2.8-1.3,13.5-2.9,13.5-2.9C433.9,133.3,437.1,136.8,437.4,143.1z"/>
	<path class="st7" d="M436.6,147.5c-0.5,1.9-1.5,4.2-2.9,6c-1.1,1.3-2.1,1.6-3.1,1.5c-0.6,0.6-1.8,1.3-2.9,1.6c-1.9,0.5-2.1,0-2.1,0
		s-1.6,1.8-3.6,2.4s-3.2-0.3-3.2-0.3s-3.2,1.9-5.4,0.8c-2.1-1-4.4-8.8-4.5-10.2c0-0.3,0-1,0.3-1.8c0.2,0.3,0.5,0.6,0.8,1
		c2.6,2.1,1.3-2.4,4.7-3.4c3.4-1.1,5,4.2,4.5,6.5c-0.6,2.3-4.2,4.1-3.6,5.2c0.6,1.3,3.4,0,3.9-0.8c0.5-0.6,1.6-5.5,1.8-6.2
		c0,0.6-0.6,5.5,0.3,6.3c1,0.8,3.6-0.3,4.7-4.5c1.1-4.4,1-1.6,1,1.5c0,3.1,2.6,2.3,3.9-2.1c1.5-4.4,1.1-1.8,0.8,1.5
		C431.7,154.9,434.8,151.4,436.6,147.5z"/>
	<path class="st8" d="M437.4,143.1c0,1.3-0.2,2.4-0.6,3.6C437.3,144.5,437.4,143.1,437.4,143.1z"/>
</g>
<title>bscindex-logo-128px</title>
<g>
	<g>
		<path class="st9" d="M392.8,300.3c-0.4,0-0.7,0-0.9-0.1l-82.5-26c-1.8-0.6-2.7-2.4-2.1-4.1L347.5,141c0.5-1.4,1.8-2.4,3.2-2.4
			s2.7,1.1,3.1,2.5l42.1,155.1c0.4,1.2,0,2.4-0.9,3.2C394.6,299.9,393.7,300.3,392.8,300.3z M314.5,268.9l73.6,23.1l-37.6-138.2
			L314.5,268.9z"/>
		<g>
			<ellipse class="st9" cx="350.5" cy="142.4" rx="14.9" ry="21.5"/>
			
				<linearGradient id="SVGID_1_" gradientUnits="userSpaceOnUse" x1="320.6117" y1="165.3213" x2="368.542" y2="138.877" gradientTransform="matrix(1 0 0 -1 0 294)">
				<stop  offset="0" style="stop-color:#D8DEE8"/>
				<stop  offset="0.9964" style="stop-color:#FFFFFF"/>
			</linearGradient>
			<ellipse class="st10" cx="345.5" cy="142.4" rx="14.9" ry="21.5"/>
		</g>
	</g>
	<g>
		<path class="st11" d="M336.8,51.8c9.1,2.5,27.5,8.8,43.3,25.5c22.6,23.9,24.4,52.8,25.1,65.1c0.6,10,3.9,61.6-33.1,88.7
			c-14.5,10.6-29.5,13.6-38.4,14.7c7.2,0.6,14.3,1.1,21.6,1.7c8.5-1.3,20.7-4.4,32.6-12.6c40.9-28.3,35.7-88.4,34.9-96.6
			c-1.3-12.3-4.6-45.2-31.5-68.2c-13.2-11.3-27.1-16-35.9-18.3C349.2,51.8,343,51.8,336.8,51.8z"/>
		<path class="st12" d="M355.3,52c-37.6-0.2-67.2,42.3-67.2,95c0,52.8,29.6,97.7,67.2,100.5c38.5,3,70.5-39.5,70.5-94.8
			C426,97.2,394,52.2,355.3,52z M359.1,242.5L359.1,242.5c-1.1,0-2.3,0-3.3-0.1c-16.5-1.3-32.1-11.6-43.9-29.3
			c-12.1-18.1-18.7-41.6-18.7-66.1c0-24.4,6.5-47.3,18.5-64.3C323.3,66.2,338.7,57,355,57h0.2c8.5,0,16.8,2.5,24.7,7.3
			c7.8,4.7,14.8,11.5,21,20.2c6.2,8.8,11.1,19.1,14.5,30.5c3.6,12,5.3,24.5,5.3,37.6c0,24.8-6.6,47.7-18.6,64.6
			C390.6,233.4,375.4,242.5,359.1,242.5z"/>
		<g>
			<path class="st11" d="M288.1,146.9c0-49,25.6-89.1,59.4-94.4c-2.4-0.4-4.7-0.6-7.2-0.6c-37.6-0.2-67.2,42.3-67.2,95
				c0,52.8,29.6,97.7,67.2,100.5c3.8,0.2,7.6,0.1,11.3-0.5C315.8,241.5,288.1,197.8,288.1,146.9z"/>
		</g>
		<path class="st12" d="M338,51.7c-37.1-0.2-66.5,42.1-66.5,94.6s29.4,97.3,66.5,100.1c38.2,2.8,69.8-39.4,69.8-94.5
			S376.2,52,338,51.7z M341.7,241.5L341.7,241.5c-1.1,0-2.3,0-3.3-0.1c-16.4-1.2-31.8-11.6-43.4-29.2c-12-18-18.5-41.4-18.5-65.9
			c0-24.3,6.5-47.1,18.4-64c11.5-16.5,26.7-25.5,42.8-25.5h0.2c8.4,0,16.6,2.5,24.4,7.2c7.7,4.7,14.7,11.5,20.7,20.2
			c6.2,8.8,11,19,14.3,30.3c3.6,11.9,5.3,24.4,5.3,37.5c0,24.7-6.5,47.5-18.5,64.4C372.9,232.5,357.8,241.5,341.7,241.5z"/>
	</g>
	<ellipse class="st13" cx="343.5" cy="149" rx="57" ry="86.5"/>
	<g>
		
			<linearGradient id="SVGID_2_" gradientUnits="userSpaceOnUse" x1="157.2207" y1="121.6091" x2="266.9778" y2="121.6091" gradientTransform="matrix(1 0 0 -1 0 294)">
			<stop  offset="2.849544e-04" style="stop-color:#F2D188"/>
			<stop  offset="1" style="stop-color:#EAB132"/>
		</linearGradient>
		<path class="st14" d="M263.4,162.6l-75.6-23.7c-1.9-0.6-4,0-5.3,1.5l-24.1,28.2c-2.3,2.6-1.2,6.6,2,7.9l74.3,29.3
			c2.1,0.8,4.5,0.1,5.9-1.7l25.2-33.9C268.1,167.5,266.8,163.6,263.4,162.6z"/>
		
			<linearGradient id="SVGID_3_" gradientUnits="userSpaceOnUse" x1="160.279" y1="81.2302" x2="266.9911" y2="81.2302" gradientTransform="matrix(1 0 0 -1 0 294)">
			<stop  offset="2.849544e-04" style="stop-color:#F2D188"/>
			<stop  offset="1" style="stop-color:#EAB132"/>
		</linearGradient>
		<path class="st15" d="M262.5,192.5l-78.8-7.9c-2-0.2-3.9,0.8-5,2.6l-17.8,32.6c-1.7,3.1,0.1,6.8,3.6,7.3l78.7,13.8
			c2.3,0.4,4.5-0.8,5.5-2.8l17.9-38.4C268,196.6,265.9,192.9,262.5,192.5z"/>
		
			<linearGradient id="SVGID_4_" gradientUnits="userSpaceOnUse" x1="109.4952" y1="87.5616" x2="218.6237" y2="87.5616" gradientTransform="matrix(1 0 0 -1 0 294)">
			<stop  offset="2.849544e-04" style="stop-color:#F2D188"/>
			<stop  offset="1" style="stop-color:#EAB132"/>
		</linearGradient>
		<path class="st16" d="M215.8,205L145,169.4c-1.8-0.9-4-0.6-5.6,0.7l-28.3,23.9c-2.6,2.3-2.3,6.4,0.7,8.2l68.6,41
			c1.9,1.2,4.5,0.8,6-0.7l30.5-29.4C219.6,210.7,219,206.5,215.8,205z"/>
		
			<linearGradient id="SVGID_5_" gradientUnits="userSpaceOnUse" x1="88.52" y1="74.6415" x2="181.4427" y2="74.6415" gradientTransform="matrix(1 0 0 -1 0 294)">
			<stop  offset="2.849544e-04" style="stop-color:#F2D188"/>
			<stop  offset="1" style="stop-color:#EAB132"/>
		</linearGradient>
		<path class="st17" d="M175.3,186.7l-76.9,18.8c-2,0.5-3.4,2.1-3.8,4l-5.9,36.6c-0.6,3.4,2.4,6.4,5.8,5.8l78.8-13.4
			c2.3-0.4,3.9-2.3,4.1-4.5l4-42.1C181.8,188.7,178.6,185.9,175.3,186.7z"/>
		
			<linearGradient id="SVGID_6_" gradientUnits="userSpaceOnUse" x1="217.1725" y1="95.4095" x2="316.766" y2="95.4095" gradientTransform="matrix(1 0 0 -1 0 294)">
			<stop  offset="2.849544e-04" style="stop-color:#F2D188"/>
			<stop  offset="1" style="stop-color:#EAB132"/>
		</linearGradient>
		<path class="st18" d="M315.4,214.8l-54.8-57.1c-1.4-1.4-3.6-1.9-5.5-1.2l-34.7,13.2c-3.2,1.2-4.3,5.2-2.1,7.9l51,61.5
			c1.4,1.8,3.9,2.4,5.9,1.4l38.5-17.5C317,221.5,317.7,217.3,315.4,214.8z"/>
		
			<linearGradient id="SVGID_7_" gradientUnits="userSpaceOnUse" x1="283.139" y1="101.0286" x2="369.0382" y2="101.0286" gradientTransform="matrix(1 0 0 -1 0 294)">
			<stop  offset="2.849544e-04" style="stop-color:#F2D188"/>
			<stop  offset="1" style="stop-color:#EAB132"/>
		</linearGradient>
		<path class="st19" d="M368.4,221.2l-38.9-69c-0.9-1.8-3-2.7-5-2.5l-36.9,4.1c-3.4,0.4-5.5,4-4,7.1l34.1,72.3
			c0.9,2,3.2,3.2,5.5,2.8l41.6-7.5C368.2,228.1,370.1,224.3,368.4,221.2z"/>
		
			<linearGradient id="SVGID_8_" gradientUnits="userSpaceOnUse" x1="247.8599" y1="102.2833" x2="357.6672" y2="102.2833" gradientTransform="matrix(1 0 0 -1 0 294)">
			<stop  offset="2.849544e-04" style="stop-color:#F2D188"/>
			<stop  offset="1" style="stop-color:#EAB132"/>
		</linearGradient>
		<path class="st20" d="M354.4,184.1L279.9,157c-1.9-0.7-4-0.2-5.5,1.3l-25.2,27.1c-2.4,2.5-1.5,6.6,1.7,8.1l72.9,32.8
			c2.1,0.9,4.5,0.4,5.9-1.4l26.8-32.7C358.8,189.5,357.6,185.3,354.4,184.1z"/>
	</g>
	<g>
		<path class="st12" d="M86.7,39.6c10.6,2.8,31.8,10.2,50,29.4c26.2,27.6,28.2,61,29.2,75.3c0.7,11.6,4.5,71.2-38.3,102.7
			c-16.7,12.2-34.1,15.8-44.5,17.1c8.3,0.6,16.6,1.3,24.9,1.9c9.8-1.4,23.9-5,37.7-14.6C193,218.6,187,149,186,139.6
			c-1.4-14.3-5.3-52.2-36.5-78.8c-15.3-13-31.4-18.6-41.5-21.1C100.9,39.7,93.8,39.6,86.7,39.6z"/>
		<path class="st12" d="M108.2,39.7c-43.4-0.2-77.8,49-77.8,109.9s34.4,113,77.8,116.3c44.6,3.4,81.7-45.8,81.7-109.8
			S152.7,40.1,108.2,39.7z M112.4,260.2L112.4,260.2c-1.3,0-2.6,0-3.9-0.1c-19.1-1.4-37.1-13.5-50.7-33.9
			c-14-21-21.6-48.1-21.6-76.5s7.6-54.6,21.5-74.3c13.4-19.1,31.2-29.6,50.1-29.6h0.4c9.8,0.1,19.4,3,28.6,8.4
			c9,5.5,17.2,13.4,24.2,23.4c7.2,10.2,12.8,22,16.8,35.3c4.1,13.8,6.3,28.5,6.3,43.5c0,28.6-7.7,55.1-21.6,74.8
			C148.9,249.9,131.3,260.2,112.4,260.2z"/>
		<g>
			<path class="st11" d="M30.4,149.6C30.4,93,60.1,46.4,99.1,40.3c-2.7-0.5-5.6-0.6-8.3-0.7c-43.4-0.2-77.8,49-77.8,109.9
				s34.4,113,77.8,116.3c4.4,0.4,8.8,0.1,13-0.5C62.4,259.2,30.4,208.5,30.4,149.6z"/>
		</g>
		<path class="st12" d="M88,39.5C45,39.3,10.9,88.2,10.9,149c0,60.7,34,112.6,77.1,115.8c44.2,3.3,80.8-45.5,80.8-109.3
			S132.2,39.9,88,39.5z M92.4,259.2L92.4,259.2c-1.3,0-2.6,0-3.8-0.1c-18.8-1.4-36.7-13.4-50.1-33.8C24.7,204.4,17,177.4,17,149
			c0-28.2,7.6-54.5,21.2-74.1C51.4,55.9,69,45.4,87.6,45.4H88c9.7,0.1,19.2,2.8,28.2,8.4c8.9,5.5,17,13.3,23.9,23.2
			c7.1,10.2,12.7,21.9,16.6,35.1c4.1,13.8,6.2,28.3,6.2,43.3c0,28.5-7.6,55-21.3,74.4C128.4,248.7,110.9,259.2,92.4,259.2z"/>
	</g>
	<path class="st21" d="M397.5,114.5c-3.4-11.4-8.2-21.6-14.3-30.3c-6-8.7-13-15.4-20.7-20.2c-7.8-4.7-16-7.2-24.4-7.2h-0.2
		c-1.2,0-252.1-11.4-253.1-11.3L82,45.4l0,0c-16.6,1.9-31.9,12.4-43.9,29.5C24.5,94.5,16.9,120.8,16.9,149
		c0,28.3,7.6,55.4,21.5,76.2c13.5,20.3,31.3,32.4,50.1,33.8c1.3,0.1,2.6,0.1,3.8,0.1l0,0c5.8,0,248.3-17.7,249.4-17.7l0,0
		c16,0,31.2-8.9,42.6-25.1c11.9-16.8,18.5-39.7,18.5-64.4C402.9,139,401.1,126.4,397.5,114.5z"/>
	<g>
		<path class="st11" d="M186.2,139.7c-1.4-14.3-5.3-52.2-36.5-78.8c-15.3-13-31.4-18.6-41.5-21.1c-7.1,0-14.3-0.1-21.5-0.1
			c10.6,2.8,31.8,10.2,50,29.4c26.2,27.6,28.2,61,29.2,75.3c0.7,11.6,4.5,71.2-38.3,102.7c-13,9.6-26.6,13.9-36.7,15.9
			c-0.2,0.4-0.5,0.7-0.7,1.1c-0.1,0.2-0.4,0.5-0.5,0.7c6.2,0.5,12.3,0.9,18.5,1.4c9.8-1.4,23.9-5,37.7-14.6
			C193.2,218.6,187.1,149,186.2,139.7z"/>
		<path class="st12" d="M108.2,39.7c-7.1,0-14.1,1.3-20.6,3.7c1.4,1.5,3.7-0.7,5.1,0.8c5.2-1.7,9.7,1.3,15.2,1.3h0.4
			c9.8,0.1,19.4,3,28.6,8.4c9,5.5,17.2,13.4,24.2,23.4c7.2,10.2,12.8,22,16.8,35.3c4.1,13.8,6.3,28.5,6.3,43.5
			c0,28.6-7.7,55.1-21.6,74.8c-13.4,18.8-31.1,29.3-49.9,29.3l0,0c-1.3,0-2.6,0-3.9-0.1c-4.5-0.4-8.2,1.3-12.4-0.1
			c-1.3,1.5-3.4,0.6-4.7,2.3c5.3,2,11,3.3,16.7,3.8c44.6,3.4,81.7-45.8,81.7-109.8S152.7,40.1,108.2,39.7z"/>
		<path class="st12" d="M88,39.5c-1.3,0-2.6,0-4,0.1c1.8,1.9,3.4,3.9,5.2,5.8c9.2,0.2,18.4,3.1,26.9,8.4c8.9,5.5,17,13.3,23.9,23.2
			c7.1,10.2,12.7,21.9,16.6,35.1c4.1,13.8,6.2,28.3,6.2,43.3c0,28.5-7.6,55-21.3,74.4c-12.9,18.3-29.8,28.6-47.8,29
			c-1.3,1.5-2.5,3.1-3.7,4.7c-0.2,0.4-0.5,0.7-0.7,1.1c43.5,2.3,79.5-46.4,79.5-109.4C168.8,91.8,132.2,39.9,88,39.5z"/>
	</g>
	<ellipse class="st13" cx="94.6" cy="153.4" rx="69.3" ry="100.5"/>
	<g>
		<path class="st9" d="M138.9,336.8c-0.4,0-0.8-0.1-1.2-0.2l-97.8-30.7c-2-0.6-3.2-2.8-2.6-4.9l47.9-153c0.5-1.7,2-2.7,3.8-2.7
			s3.2,1.2,3.7,2.8L142.5,332c0.4,1.4,0,2.8-1.1,3.9C140.9,336.5,139.9,336.8,138.9,336.8z M45.9,299.6l87.2,27.4L88.7,163
			L45.9,299.6z"/>
		<g>
			<ellipse class="st9" cx="88.7" cy="149.7" rx="17.7" ry="25.5"/>
			
				<linearGradient id="SVGID_9_" gradientUnits="userSpaceOnUse" x1="53.2138" y1="160.5675" x2="110.0523" y2="129.2083" gradientTransform="matrix(1 0 0 -1 0 294)">
				<stop  offset="0" style="stop-color:#D8DEE8"/>
				<stop  offset="0.9964" style="stop-color:#FFFFFF"/>
			</linearGradient>
			<ellipse class="st22" cx="82.8" cy="149.7" rx="17.7" ry="25.5"/>
		</g>
	</g>
</g>
</svg>
