<?xml version="1.0" encoding="utf-8"?>
<!-- Generator: Adobe Illustrator 23.0.5, SVG Export Plug-In . SVG Version: 6.00 Build 0)  -->
<svg version="1.1" id="Layer_1" xmlns:v="https://vecta.io/nano"
	 xmlns="http://www.w3.org/2000/svg" xmlns:xlink="http://www.w3.org/1999/xlink" x="0px" y="0px" viewBox="0 0 135 135"
	 style="enable-background:new 0 0 135 135;" xml:space="preserve">
<style type="text/css">
	.st0{fill:#DDAC3E;}
	.st1{fill:#FFFFFF;}
</style>
<path class="st0" d="M45.3,23L112,89.7V135L0,23H45.3z"/>
<g>
	<path class="st1" d="M46.9,41.5l4.7,4.7l-1.4,1.4l-2.9-2.9l-1.7,1.7l2.7,2.7l-1.4,1.4l-2.7-2.7L41,50.9l-1.7-1.7L46.9,41.5z"/>
	<path class="st1" d="M45.8,55.7l5.5-5.5l1.7,1.7l-5.5,5.5L45.8,55.7z M54.6,50.4c-0.5,0.5-1.2,0.5-1.8-0.1c-0.5-0.5-0.5-1.3,0-1.8
		c0.5-0.5,1.2-0.5,1.8,0C55.1,49.1,55.1,49.9,54.6,50.4z"/>
	<path class="st1" d="M53.5,55.8c0.7-0.7,1.3-1.3,1.7-1.8l1.5,1.5L56,56.4l0,0c0.6-0.1,1.7-0.1,2.6,0.8c1.1,1.1,1.2,2.7-0.4,4.4
		L55,64.9l-1.7-1.7l3.1-3.1c0.7-0.7,1-1.4,0.3-2.1c-0.5-0.5-1.1-0.4-1.5-0.2c-0.2,0.1-0.3,0.2-0.5,0.4l-3.2,3.2l-1.7-1.7L53.5,55.8z
		"/>
	<path class="st1" d="M57.2,67.1l5.5-5.5l1.7,1.7l-5.5,5.5L57.2,67.1z M66.1,61.8c-0.5,0.5-1.2,0.5-1.8-0.1c-0.5-0.5-0.5-1.3,0-1.8
		c0.5-0.5,1.2-0.5,1.8,0C66.6,60.6,66.5,61.3,66.1,61.8z"/>
	<path class="st1" d="M62.7,69.5c0.1,0.5,0.6,1.4,1.1,1.9c0.5,0.5,0.9,0.6,1.2,0.3c0.3-0.3,0.2-0.6-0.2-1.4
		c-0.8-1.5-0.6-2.6,0.1-3.2c1-1,2.7-0.9,4.1,0.4c0.6,0.6,1.1,1.4,1.2,1.9l-1.5,0.9c-0.1-0.4-0.4-1-0.9-1.5c-0.4-0.4-0.8-0.5-1.1-0.2
		c-0.3,0.3-0.2,0.6,0.3,1.5c0.7,1.4,0.6,2.4-0.2,3.2c-1,1-2.6,1-4.2-0.6c-0.7-0.7-1.2-1.5-1.4-2.2L62.7,69.5z"/>
	<path class="st1" d="M75,68.8l1.7,1.7l-3.2,3.2l0,0c0.4-0.1,0.8,0,1.2,0.1c0.4,0.1,0.8,0.4,1.1,0.7c1.1,1.1,1.2,2.7-0.5,4.4
		L72.2,82l-1.7-1.7l3-3c0.7-0.7,1-1.5,0.3-2.1c-0.5-0.5-1-0.4-1.5-0.3c-0.2,0.1-0.3,0.2-0.4,0.3l-3.3,3.3l-1.7-1.7L75,68.8z"/>
	<path class="st1" d="M77.9,83.4c-0.7,0.8-0.3,1.8,0.5,2.6c0.6,0.6,1.1,1,1.8,1.3l-0.9,1.4c-0.8-0.3-1.6-0.9-2.4-1.7
		C75,85.2,75,83,76.8,81.3c1.4-1.4,3.8-2.1,5.7-0.2c1.8,1.8,1.1,3.9-0.3,5.2c-0.3,0.3-0.6,0.5-0.7,0.6L77.9,83.4z M81.1,84.2
		c0.4-0.4,0.9-1.3,0.1-2.1c-0.7-0.7-1.7-0.4-2.2,0.1L81.1,84.2z"/>
	<path class="st1" d="M94.6,88.4l-6.4,6.4c-0.6,0.6-1.3,1.3-1.6,1.7L85.1,95l0.7-0.9l0,0c-1,0.3-2-0.1-2.7-0.8
		c-1.3-1.3-1.2-3.5,0.5-5.2c1.9-1.9,4.1-1.8,5.4-0.5c0.7,0.7,1,1.4,0.8,2.1l0,0l3-3L94.6,88.4z M88,91.6c0.1-0.1,0.2-0.2,0.3-0.3
		c0.4-0.6,0.4-1.3-0.2-1.9c-0.8-0.8-1.9-0.5-2.8,0.4c-0.9,0.9-1.1,2-0.4,2.7c0.5,0.5,1.2,0.6,1.8,0.2c0.2-0.1,0.3-0.2,0.4-0.3
		L88,91.6z"/>
</g>
</svg>
