<?xml version="1.0" encoding="utf-8"?>
<!-- Generator: Adobe Illustrator 23.0.5, SVG Export Plug-In . SVG Version: 6.00 Build 0)  -->
<svg version="1.1" id="Layer_1" xmlns:v="https://vecta.io/nano" opacity="0.5"
	 xmlns="http://www.w3.org/2000/svg" xmlns:xlink="http://www.w3.org/1999/xlink" x="0px" y="0px" viewBox="0 0 64 64"
	 style="enable-background:new 0 0 64 64;" xml:space="preserve">
<style type="text/css">
	.st0{opacity:0.7;}
	.st1{fill-rule:evenodd;clip-rule:evenodd;fill:#F3BB30;}
	.st2{fill:#F3BB30;}
</style>
<g class="st0">
	<g>
		<path class="st1" d="M26.4,18.7c-0.4-0.7-1.4-0.7-1.8,0c-0.3,0.5-0.1,1.2,0.4,1.5l3.5,1.9l-0.2-0.3C28.4,21.9,26.4,18.7,26.4,18.7
			z M21.4,16.8c1.8-3.2,6.3-3.3,8.2-0.1l2,3.2l4,6.9h-6.3c-0.3,0-0.7-0.1-1-0.3l-5.1-2.8C20.9,22.3,20,19.2,21.4,16.8L21.4,16.8z"/>
		<path class="st1" d="M38.1,18.7c0.4-0.7,1.4-0.7,1.8,0c0.3,0.5,0.1,1.2-0.4,1.5L36,22.2l0.2-0.3L38.1,18.7z M43.2,16.8
			c-1.8-3.2-6.3-3.3-8.2-0.1l-2,3.2l-4,6.9h6.3c0.3,0,0.7-0.1,1-0.3l5.1-2.8C43.6,22.3,44.5,19.2,43.2,16.8L43.2,16.8z M19.1,34.3
			h26.3v10.1c0,1.4-1.1,2.6-2.6,2.6c0,0,0,0,0,0H21.6c-1.4,0-2.6-1.1-2.6-2.6l0,0C19.1,44.4,19.1,34.3,19.1,34.3z M47.9,31.8v12.6
			c0,2.8-2.3,5.1-5.1,5.1H21.6c-2.8,0-5.1-2.3-5.1-5.1V31.8C16.5,31.8,47.9,31.8,47.9,31.8z"/>
	</g>
	<path class="st2" d="M34.9,33.9h-5.2v15.6h5.2V33.9z"/>
	<path class="st2" d="M16.5,36.9v5.5h31.4v-5.5H16.5z"/>
	<path class="st1" d="M18.3,26.9h27.9c0.7,0,1.3,0.6,1.3,1.3V30c0,0.7-0.6,1.3-1.3,1.3H18.3c-0.7,0-1.3-0.6-1.3-1.3c0,0,0,0,0,0
		v-1.9C17,27.5,17.6,26.9,18.3,26.9C18.3,26.9,18.3,26.9,18.3,26.9z M46.2,24.3c2.1,0,3.8,1.7,3.8,3.8l0,0V30c0,2.1-1.7,3.8-3.8,3.8
		l0,0H18.3c-2.1,0-3.8-1.7-3.8-3.8l0,0v-1.9c0-2.1,1.7-3.8,3.8-3.8l0,0H46.2z"/>
	<path class="st2" d="M34.9,24.4h-5.2v9.6h5.2V24.4z"/>
</g>
<path class="st1" d="M51.9,12.1l-1.3-1.2c-11.1-9.8-27.9-9.4-38.5,1.2s-11,27.5-1.2,38.5c0.4,0.4,0.8,0.9,1.2,1.3
	c0.4,0.4,0.8,0.8,1.3,1.2c11.1,9.8,27.9,9.4,38.5-1.2s11-27.5,1.2-38.5C52.7,12.9,52.3,12.5,51.9,12.1L51.9,12.1z M48.1,13.4
	c-9.7-8.4-24.3-8-33.5,1.2S5,38.4,13.4,48.1C13.4,48.1,48.1,13.4,48.1,13.4z M15.9,50.6l34.7-34.7c8.4,9.7,8,24.3-1.2,33.5
	S25.5,59,15.9,50.6z"/>
</svg>
