<?xml version="1.0" encoding="utf-8"?>
<!-- Generator: Adobe Illustrator 23.0.5, SVG Export Plug-In . SVG Version: 6.00 Build 0)  -->
<svg version="1.1" id="Layer_1" xmlns:v="https://vecta.io/nano" opacity="0.5"
	 xmlns="http://www.w3.org/2000/svg" xmlns:xlink="http://www.w3.org/1999/xlink" x="0px" y="0px" viewBox="0 0 64 64"
	 style="enable-background:new 0 0 64 64;" xml:space="preserve">
<style type="text/css">
	.st0{fill-rule:evenodd;clip-rule:evenodd;fill:#F3BB30;}
	.st1{fill:#F3BB30;}
	.st2{fill:#EACFA2;}
</style>
<g>
	<path class="st0" d="M26,20.6c-0.6-1-1.9-1-2.4,0c-0.4,0.8-0.1,1.7,0.6,2.1l4.5,2.7L28,24.1C28,24.1,26,20.6,26,20.6z M20.4,18.4
		c1.8-3.6,6.6-3.5,8.7,0.1l2,3.6l4.1,7.6h-6.3c-0.3,0-0.7-0.1-1-0.3l-5.4-3.3C20,24.6,19,21.1,20.4,18.4z"/>
	<path class="st0" d="M38,20.6c0.6-1,1.9-1,2.4,0c0.4,0.8,0.1,1.7-0.6,2.1l-4.5,2.7l0.7-1.3C36,24.1,38,20.6,38,20.6z M43.6,18.4
		c-1.8-3.6-6.6-3.5-8.7,0.1l-2,3.6l-4.1,7.6h6.3c0.3,0,0.7-0.1,1-0.3l5.4-3.3C44,24.6,45,21.1,43.6,18.4z M17.6,38.4h28.8v13.1
		c0,1.4-1.1,2.6-2.6,2.6c0,0,0,0,0,0H20.1c-1.4,0-2.6-1.1-2.6-2.6l0,0C17.6,51.5,17.6,38.4,17.6,38.4z M48.9,35.8v15.7
		c0,2.8-2.3,5.1-5.1,5.1H20.1c-2.8,0-5.1-2.3-5.1-5.1V35.8C15,35.8,48.9,35.8,48.9,35.8z"/>
</g>
<path class="st1" d="M34.8,38.4h-5.6v18.2h5.6V38.4z"/>
<path class="st1" d="M15.1,41.9v6.4h33.9v-6.4H15.1z"/>
<path class="st0" d="M16.6,29.7h30.7c0.7,0,1.3,0.6,1.3,1.3v3.5c0,0.7-0.6,1.3-1.3,1.3H16.6c-0.7,0-1.3-0.6-1.3-1.3V31
	C15.4,30.3,15.9,29.7,16.6,29.7C16.6,29.7,16.6,29.7,16.6,29.7z M47.4,27.1c2.1,0,3.8,1.7,3.8,3.8l0,0v3.5c0,2.1-1.7,3.8-3.8,3.8
	l0,0H16.6c-2.1,0-3.8-1.7-3.8-3.8l0,0V31c0-2.1,1.7-3.8,3.8-3.8l0,0C16.6,27.1,47.4,27.1,47.4,27.1z"/>
<path class="st1" d="M34.8,27.2h-5.6v11.2h5.6V27.2z"/>
<path class="st2" d="M51.9,19.3L52,19c0.1-0.5,0.4-0.9,0.7-1.2c0.3-0.3,0.7-0.6,1.1-0.8c0.4-0.2,0.8-0.4,1.2-0.6
	c0.4-0.1,0.7-0.3,1-0.5s0.5-0.5,0.6-0.8c0.1-0.5,0-0.9-0.3-1.2c-0.3-0.3-0.8-0.6-1.7-0.8c-0.5-0.1-1.1-0.2-1.7-0.2
	c-0.6,0-1.1,0-1.5,0.1l0.7-2.6c0.5-0.1,1.1-0.1,1.8-0.1c0.7,0,1.5,0.2,2.2,0.4c1.5,0.4,2.5,1,3.1,1.9c0.6,0.9,0.8,1.8,0.5,3
	c-0.2,0.7-0.5,1.3-0.9,1.6c-0.4,0.4-1,0.7-1.7,1l-1.5,0.7c-0.4,0.2-0.7,0.5-0.8,1l-0.1,0.2L51.9,19.3L51.9,19.3z M50.8,22.7l0.6-2.2
	l3.3,0.9l-0.6,2.2L50.8,22.7L50.8,22.7z M7,44l-0.1-0.2c-0.1-0.3-0.1-0.6,0-0.9c0.1-0.3,0.2-0.5,0.4-0.8c0.2-0.3,0.3-0.5,0.5-0.7
	S8,41,8.1,40.8c0.1-0.2,0.1-0.4,0-0.6c-0.1-0.3-0.3-0.5-0.5-0.6c-0.3-0.1-0.6,0-1.2,0.1c-0.3,0.1-0.7,0.2-1,0.4
	c-0.3,0.1-0.5,0.3-0.8,0.5L4.3,39c0.3-0.2,0.6-0.4,1-0.6c0.4-0.2,0.8-0.4,1.3-0.5c0.9-0.3,1.7-0.2,2.3,0c0.6,0.3,1,0.8,1.2,1.5
	c0.1,0.5,0.1,0.8,0,1.2c-0.1,0.3-0.3,0.7-0.6,1.1l-0.6,0.9c-0.2,0.2-0.2,0.5-0.1,0.8l0,0.2L7,44L7,44z M7.5,46.2l-0.4-1.4l2.1-0.6
	l0.4,1.4C9.5,45.6,7.5,46.2,7.5,46.2z M11.8,18.8l-0.1-0.3c-0.1-0.4-0.1-0.8,0-1.2c0.1-0.4,0.3-0.7,0.5-1.1c0.2-0.3,0.4-0.6,0.6-0.9
	c0.2-0.3,0.4-0.5,0.5-0.8c0.1-0.3,0.1-0.6,0.1-0.8c-0.1-0.4-0.3-0.7-0.7-0.8c-0.3-0.1-0.9-0.1-1.6,0.1c-0.5,0.1-0.9,0.3-1.3,0.5
	c-0.4,0.2-0.8,0.5-1,0.7l-0.6-2.2c0.3-0.3,0.8-0.6,1.3-0.9c0.5-0.3,1.1-0.5,1.8-0.7c1.3-0.3,2.3-0.3,3.1,0.1c0.8,0.4,1.3,1,1.6,2
	c0.2,0.6,0.2,1.1,0,1.6c-0.2,0.4-0.4,0.9-0.8,1.4l-0.8,1.1c-0.2,0.3-0.3,0.7-0.1,1.1l0.1,0.2L11.8,18.8L11.8,18.8z M12.4,21.7
	l-0.5-1.9l2.8-0.7l0.5,1.9L12.4,21.7z"/>
</svg>
