<?xml version="1.0" encoding="utf-8"?>
<!-- Generator: Adobe Illustrator 23.0.5, SVG Export Plug-In . SVG Version: 6.00 Build 0)  -->
<svg version="1.1" id="Layer_1" xmlns:v="https://vecta.io/nano"
	 xmlns="http://www.w3.org/2000/svg" xmlns:xlink="http://www.w3.org/1999/xlink" x="0px" y="0px" viewBox="0 0 64 64"
	 style="enable-background:new 0 0 64 64;" xml:space="preserve">
<style type="text/css">
	.st0{clip-path:url(#SVGID_2_);}
	.st1{fill-rule:evenodd;clip-rule:evenodd;fill:#45424C;}
	.st2{opacity:0.6;fill:#F3BB30;enable-background:new    ;}
	.st3{fill:#F3BB30;}
	.st4{opacity:0.8;fill:#F3BB30;enable-background:new    ;}
	.st5{fill:url(#SVGID_3_);}
	.st6{fill:#45424C;}
	.st7{fill-rule:evenodd;clip-rule:evenodd;fill:#3E3B47;}
	.st8{fill:url(#SVGID_4_);}
</style>
<g>
	<defs>
		<rect id="SVGID_1_" width="64" height="64"/>
	</defs>
	<clipPath id="SVGID_2_">
		<use xlink:href="#SVGID_1_"  style="overflow:visible;"/>
	</clipPath>
	<g class="st0">
		<g>
			<path class="st1" d="M43.2,10.7c0.6-0.6,1.6-0.5,2.2,0.1c0.6,0.6,0.5,1.6-0.1,2.2c-0.2,0.2-0.4,0.3-0.6,0.3l-6.1,1.6L43.2,10.7
				L43.2,10.7z M49.1,10.5c-0.7-2.7-3.5-4.3-6.2-3.6c-0.8,0.2-1.5,0.6-2.1,1.1L31,16.9c-1.5,1.3-0.2,3.7,1.7,3.2l12.8-3.4
				C48.2,16,49.8,13.2,49.1,10.5L49.1,10.5z"/>
			<path class="st1" d="M30.2,8.1C29.9,7.2,29,6.7,28.1,7S26.7,8.2,27,9.1c0.1,0.3,0.2,0.5,0.4,0.7l4.9,4.9
				C32.3,14.6,30.2,8.1,30.2,8.1z M24.7,4.7c2.9-2.9,7.9-1.7,9.1,2.2l4.4,13.7c0.7,2-1.9,3.6-3.4,2.1L24.7,12.5
				C22.6,10.3,22.6,6.9,24.7,4.7z"/>
		</g>
		<g>
			<path class="st2" d="M7.3,34c-0.2,0.5-0.7,0.9-1.3,0.7c-0.3-0.1-0.6-0.4-0.7-0.7l-0.8-3c-0.1-0.4-0.4-0.6-0.7-0.7l-3-0.8
				c-0.5-0.2-0.9-0.7-0.7-1.3c0.1-0.3,0.4-0.6,0.7-0.7l3-0.8c0.4-0.1,0.6-0.4,0.7-0.7l0.8-3c0.2-0.5,0.7-0.9,1.3-0.7
				c0.3,0.1,0.6,0.4,0.7,0.7l0.8,3c0.1,0.4,0.4,0.6,0.7,0.7l3,0.8c0.5,0.2,0.9,0.7,0.7,1.3c-0.1,0.3-0.4,0.6-0.7,0.7l-3,0.8
				c-0.4,0.1-0.6,0.4-0.7,0.7C8.1,31,7.3,34,7.3,34z"/>
			<path class="st3" d="M9.6,11.7c0,0.3-0.3,0.6-0.6,0.6c-0.2,0-0.4-0.1-0.5-0.3l-0.9-1.6c-0.1-0.2-0.3-0.3-0.5-0.3l-1.8,0
				c-0.3,0-0.6-0.3-0.6-0.6c0-0.2,0.1-0.4,0.3-0.5l1.6-0.9c0.2-0.1,0.3-0.3,0.3-0.5l0-1.8c0-0.3,0.3-0.6,0.6-0.6
				c0.2,0,0.4,0.1,0.5,0.3L8.9,7C9,7.2,9.2,7.3,9.4,7.3l1.8,0c0.3,0,0.6,0.3,0.6,0.6c0,0.2-0.1,0.4-0.3,0.5L9.9,9.3
				C9.7,9.4,9.6,9.6,9.6,9.8C9.6,9.8,9.6,11.7,9.6,11.7z"/>
			<path class="st4" d="M53.9,15.8c-0.3-0.1-0.5-0.4-0.4-0.7c0.1-0.2,0.2-0.3,0.4-0.4l3.1-0.8c0.2-0.1,0.4-0.2,0.4-0.4l0.8-3.1
				c0.1-0.3,0.4-0.5,0.7-0.4c0.2,0.1,0.3,0.2,0.4,0.4l0.8,3.1c0.1,0.2,0.2,0.4,0.4,0.4l3.1,0.8c0.3,0.1,0.5,0.4,0.4,0.7
				c-0.1,0.2-0.2,0.3-0.4,0.4l-3.1,0.8c-0.2,0.1-0.4,0.2-0.4,0.4l-0.8,3.1c-0.1,0.3-0.4,0.5-0.7,0.4c-0.2-0.1-0.3-0.2-0.4-0.4
				L57.4,17c-0.1-0.2-0.2-0.4-0.4-0.4C57,16.6,53.9,15.8,53.9,15.8z"/>
		</g>
		
			<linearGradient id="SVGID_3_" gradientUnits="userSpaceOnUse" x1="31.2125" y1="36.0704" x2="38.4175" y2="9.1786" gradientTransform="matrix(1 0 0 -1 0 66)">
			<stop  offset="0" style="stop-color:#F3BB30"/>
			<stop  offset="1" style="stop-color:#E5AB28"/>
		</linearGradient>
		<path class="st5" d="M51.1,29.9c-0.7-2.7-3.5-4.4-6.3-3.6c0,0,0,0,0,0l-27.2,7.3c-2.7,0.7-4.4,3.5-3.6,6.3c0,0,0,0,0,0l4.6,17
			c0.7,2.7,3.5,4.4,6.3,3.6c0,0,0,0,0,0L52,53.2c2.7-0.7,4.4-3.5,3.6-6.3c0,0,0,0,0,0C55.6,46.9,51.1,29.9,51.1,29.9z"/>
		<g>
			<path class="st1" d="M18.3,36l27.2-7.3c1.4-0.4,2.8,0.4,3.1,1.8l4.6,17c0.4,1.4-0.4,2.8-1.8,3.1L24.2,58
				c-1.4,0.4-2.8-0.4-3.1-1.8l-4.6-17C16.1,37.8,16.9,36.4,18.3,36L18.3,36z M44.8,26.3c2.7-0.7,5.5,0.9,6.3,3.6c0,0,0,0,0,0l4.6,17
				c0.7,2.7-0.9,5.5-3.6,6.3c0,0,0,0,0,0l-27.2,7.3c-2.7,0.7-5.5-0.9-6.3-3.6c0,0,0,0,0,0l-4.6-17c-0.7-2.7,0.9-5.5,3.6-6.3
				c0,0,0,0,0,0C17.6,33.6,44.8,26.3,44.8,26.3z"/>
			<path class="st6" d="M35.2,28.9l-8,2.2l7.2,26.9l8-2.2C42.4,55.7,35.2,28.9,35.2,28.9z"/>
			<path class="st6" d="M54.5,42.4l-2.2-8l-37.3,10l2.2,8L54.5,42.4z"/>
		</g>
		<g>
			<path class="st7" d="M39.9,46.3l-8.1,2.2l0.3,1.2l8.1-2.2L39.9,46.3z M29.7,40.4l8.1-2.2L37.4,37l-8.1,2.2
				C29.4,39.2,29.7,40.4,29.7,40.4z"/>
		</g>
		<linearGradient id="SVGID_4_" gradientUnits="userSpaceOnUse" x1="11.7512" y1="21.013" x2="54.9628" y2="21.013">
			<stop  offset="0" style="stop-color:#F3BB30"/>
			<stop  offset="1" style="stop-color:#E5AB28"/>
		</linearGradient>
		<path class="st8" d="M54.8,24.9c0.5-2-0.7-4.2-2.7-4.7L17.5,11c-2-0.5-4.2,0.7-4.7,2.7l-0.9,3.4c-0.5,2,0.7,4.2,2.7,4.7l34.6,9.3
			c2,0.5,4.2-0.7,4.7-2.7C53.9,28.3,54.8,24.9,54.8,24.9z"/>
		<g>
			<path class="st1" d="M16.8,13.4l34.6,9.3c0.7,0.2,1.1,0.9,0.9,1.6c0,0,0,0,0,0l-0.9,3.4c-0.2,0.7-0.9,1.1-1.6,0.9c0,0,0,0,0,0
				l-34.6-9.3c-0.7-0.2-1.1-0.9-0.9-1.6c0,0,0,0,0,0l0.9-3.4C15.4,13.7,16.2,13.3,16.8,13.4C16.8,13.4,16.8,13.4,16.8,13.4z
				 M52.1,20.2c2,0.5,3.3,2.7,2.7,4.7l-0.9,3.4c-0.5,2-2.7,3.3-4.7,2.7l-34.6-9.3c-2-0.5-3.3-2.7-2.7-4.7l0.9-3.4
				c0.5-2,2.7-3.3,4.7-2.7C17.5,11,52.1,20.2,52.1,20.2z"/>
			<path class="st6" d="M38.8,16.7l-8-2.2l-2.9,10.8l8,2.2L38.8,16.7L38.8,16.7z"/>
		</g>
		<g>
			<path class="st1" d="M38.4,18.1l-8-2.2l0.3-1.4l8.1,2.3C38.9,16.7,38.4,18.1,38.4,18.1z"/>
		</g>
	</g>
</g>
</svg>
