<?xml version="1.0" encoding="utf-8"?>
<!-- Generator: Adobe Illustrator 23.0.5, SVG Export Plug-In . SVG Version: 6.00 Build 0)  -->
<svg version="1.1" id="Layer_1" xmlns:v="https://vecta.io/nano"
	 xmlns="http://www.w3.org/2000/svg" xmlns:xlink="http://www.w3.org/1999/xlink" x="0px" y="0px" viewBox="0 0 64 64"
	 style="enable-background:new 0 0 64 64;" xml:space="preserve">
<style type="text/css">
	.st0{fill:#222226;}
	.st1{fill:#35353A;}
	.st2{fill-rule:evenodd;clip-rule:evenodd;fill:#F3BA2F;}
	.st3{fill:#EAAE28;}
	.st4{fill:#F3BA2F;}
</style>
<path class="st0" d="M61.6,22.7c0.6,0.6,0.7,1.7,0.2,2.4c-9.7,13.7-21.6,25.7-35.3,35.4l-1.1,0.8c-0.8,0.6-1.9,0.5-2.5-0.2l-4.9-4.9
	c2.9-3,2.8-7.7-0.2-10.7c-2.9-2.8-7.6-2.8-10.6,0l-4.5-4.4c-0.8-0.8-0.7-2.2,0.2-2.9L4,37.4c13.4-9.5,25-21.1,34.4-34.5
	C39,2,40.1,1.8,41,2.5c0.1,0.1,0.2,0.1,0.2,0.2l4.6,4.5c-2.9,3-2.8,7.7,0.2,10.7c2.9,2.8,7.6,2.8,10.5,0L61.6,22.7L61.6,22.7z"/>
<path class="st1" d="M63.2,24.3L46,46L23.7,62.9l-4.3-4.3l-1.5-1.9l1.5-2.2l0.5-2.2l-0.3-2.4l-0.9-2.2l-1.5-1.8l-1.8-1.2L13.6,44
	h-2.4l-2.5,0.9l-1.5,1.3L3.6,42l5.8-0.9c18-2.7,35.1-10,49.5-21.1L63.2,24.3L63.2,24.3z"/>
<g>
	<path class="st2" d="M62.8,21.4L58,16.6c-1-1-2.5-0.9-3.4,0c-2,1.9-5.1,1.9-7.1,0c-2.1-2-2.2-5.2-0.2-7.3c0.9-1,0.9-2.5,0-3.4
		l-4.5-4.5c-0.2-0.2-0.4-0.4-0.6-0.5c-1.9-1.4-4.6-0.9-5.9,1c-9.1,13-20.4,24.4-33.4,33.7c-0.3,0.2-0.6,0.4-0.8,0.6
		c-0.3,0.2-0.6,0.4-0.9,0.5c-1.7,1.7-1.7,4.4,0,6.1l4.6,4.6c1,0.9,2.5,0.9,3.4,0c2-1.9,5.1-1.9,7.1,0c2.1,2,2.2,5.2,0.2,7.3
		c-0.4,0.5-0.7,1.1-0.7,1.7c0,0.7,0.3,1.3,0.8,1.8l4.6,4.6c1.5,1.5,3.9,1.7,5.6,0.5l1.1-0.8c13.7-9.8,25.7-21.9,35.4-35.7
		C64.5,25.2,64.3,22.9,62.8,21.4z M61.3,25.3c-9.6,13.6-21.3,25.5-35,34.9L25.2,61c-0.7,0.6-1.8,0.5-2.5-0.2l-4.6-4.6
		c2.9-2.9,2.9-7.7,0-10.6c-2.9-2.9-7.7-2.9-10.6,0L2.9,41c-0.9-0.8-0.8-2.2,0.2-2.9l1.1-0.8c5.6-3.9,12-9,18.6-15.5
		c6.6-6.6,11.7-13.1,15.6-18.7c0.1,0,0.1-0.1,0.2-0.2c0.7-0.7,1.9-0.7,2.6,0l4.5,4.5l-0.1,0.1c-2.9,3-2.9,7.7,0,10.6
		c2.9,3,7.6,3,10.6,0.1l0.1-0.1l4.8,4.8C61.7,23.5,61.8,24.6,61.3,25.3z"/>
	<g>
		<path id="A" class="st2" d="M32,11.2l1.1,1.1c0.5,0.5,0.5,1.2,0,1.7s-1.2,0.5-1.7,0l-1.1-1.1c-0.5-0.5-0.5-1.2,0-1.7
			C30.8,10.8,31.5,10.8,32,11.2z"/>
	</g>
	<g>
		<path class="st2" d="M36.4,15.7l1.1,1.1c0.5,0.5,0.5,1.2,0,1.7s-1.2,0.5-1.7,0l-1.1-1.1c-0.5-0.5-0.5-1.2,0-1.7
			C35.2,15.2,36,15.2,36.4,15.7z"/>
	</g>
	<g>
		<path id="B" class="st2" d="M41.9,22.8c-0.5,0.5-1.2,0.5-1.7,0l0,0L39,21.6c-0.5-0.5-0.5-1.2,0-1.7s1.2-0.5,1.7,0l1.3,1.3
			C42.4,21.6,42.4,22.4,41.9,22.8L41.9,22.8z"/>
	</g>
	<g>
		<path class="st2" d="M46.3,27.3c-0.5,0.5-1.2,0.5-1.7,0l0,0L43.4,26c-0.5-0.5-0.5-1.2,0-1.7s1.2-0.5,1.7,0l1.3,1.3
			C46.8,26,46.8,26.8,46.3,27.3C46.3,27.2,46.3,27.2,46.3,27.3z"/>
	</g>
	<path class="st2" d="M49.5,28.7l1.1,1.1c0.5,0.5,0.5,1.2,0,1.7c-0.5,0.5-1.2,0.5-1.7,0l-1.1-1.1c-0.5-0.5-0.5-1.2,0-1.7
		C48.3,28.3,49,28.3,49.5,28.7L49.5,28.7z"/>
	<g>
		<path class="st2" d="M53.9,33.1l1.1,1.1c0.5,0.5,0.5,1.2,0,1.7s-1.2,0.5-1.7,0l-1.1-1.1c-0.5-0.5-0.5-1.2,0-1.7
			C52.7,32.7,53.4,32.7,53.9,33.1z"/>
	</g>
</g>
<g>
	<g>
		<g>
			<path class="st0" d="M39.1,44.8c-1.9,1.8-4.3,2.9-6.9,3.1c-0.7,0.1-1.6,0.1-2.3,0c-2.1-0.2-4-0.9-5.6-2c-1.2-0.8-2.3-1.9-3.2-3.2
				c-1.1-1.7-1.8-3.6-2-5.6c-0.1-0.7-0.1-1.6,0-2.3c0.2-2,0.9-3.9,2-5.6c0.8-1.2,1.9-2.3,3.2-3.2c1.7-1.1,3.6-1.8,5.6-2
				c0.7-0.1,1.6-0.1,2.3,0c2,0.2,3.9,0.9,5.6,2c1.2,0.8,2.3,1.9,3.2,3.2c1.1,1.7,1.8,3.6,2,5.6c0.1,0.7,0.1,1.6,0,2.3
				C42.6,40.1,41.3,42.8,39.1,44.8z"/>
		</g>
		<path class="st3" d="M39.1,44.8c-1.9,1.8-4.3,2.9-6.9,3.1c-0.7,0.1-1.6,0.1-2.3,0c-2.1-0.2-4-0.9-5.6-2c-1.2-0.8-2.3-1.9-3.2-3.2
			c-1.1-1.7-1.8-3.6-2-5.6c-0.1-0.7-0.1-1.6,0-2.3c0.2-2,0.9-3.9,2-5.6c0.8-1.2,1.9-2.3,3.2-3.2c1.7-1.1,3.6-1.8,5.6-2
			c0.7-0.1,1.6-0.1,2.3,0c2,0.2,3.9,0.9,5.6,2c1.2,0.8,2.3,1.9,3.2,3.2c1.1,1.7,1.8,3.6,2,5.6c0.1,0.7,0.1,1.6,0,2.3
			C42.6,40.1,41.3,42.8,39.1,44.8z M39.1,43c0.6-0.7,1.1-1.5,1.5-2.3c0.4-0.8,0.7-1.7,0.9-2.7c0.5-2.6,0-5.4-1.3-7.7
			c-0.3-0.4-0.6-0.9-0.9-1.2c-0.3-0.3-0.4-0.4-0.8-0.8c-0.5-0.5-0.7-0.7-1.2-1c-1.1-0.8-2.4-1.5-3.8-1.8c-2.3-0.6-4.8-0.4-7,0.6
			c-1,0.5-2,1.1-2.9,1.9c-0.2,0.2-0.7,0.7-0.9,0.9c-1.1,1.4-1.9,2.8-2.3,4.4c-0.6,2.3-0.4,4.8,0.6,7c0.5,1,1,1.8,1.7,2.7
			c0.2,0.2,0.9,0.9,1.1,1.1c0.7,0.6,1.4,1.1,2.3,1.5c0.9,0.5,1.8,0.8,2.7,1c2,0.4,4.1,0.2,6-0.5c1.1-0.5,2.3-1.1,3.2-1.9
			c0.1-0.1,0.2-0.2,0.2-0.2C38.3,43.9,39,43.2,39.1,43z"/>
		<path class="st3" d="M31,42.5l-6.5,0l0-6.5l0-6.5l6.5,0l6.5,0l0,6.5c0,3.6,0,6.5,0,6.5S34.5,42.5,31,42.5z M34.3,36v-3.3l-3.3,0
			h-3.4l0,3.3l0,3.4h3.3c1.9,0,3.3,0,3.4,0C34.3,39.3,34.3,37.8,34.3,36z"/>
	</g>
	<path class="st4" d="M31,42.5l-6.5,0l0-6.5l0-6.5l6.5,0l6.5,0l0,6.5c0,3.6,0,6.5,0,6.5S34.5,42.5,31,42.5z M37.2,39.9v-2.3h-1.3
		c-0.7,0-1.3,0-1.3,0s0,0.5,0,1c0,0.5,0,1,0,1s-0.5,0-1,0c-0.5,0-1,0-1,0s0,0.6,0,1.3v1.3h2.3c1.3,0,2.3,0,2.3,0
		S37.2,41.2,37.2,39.9z M34.3,36v-3.3l-3.3,0h-3.4l0,3.3l0,3.4h2.3c1.3,0,2.3,0,2.3,0l0,0c0,0,0.5,0,1,0c0.5,0,1,0,1,0
		S34.3,37.8,34.3,36z M27.3,33.4c0-0.5,0-1,0-1s0.5,0,1,0h1v-1.3c0-0.7,0-1.3,0-1.3s-1.1,0-2.3,0l-2.3,0v2.3l0,2.3H26
		c0.7,0,1.3,0,1.3,0C27.3,34.4,27.3,34,27.3,33.4z"/>
	<path class="st4" d="M31,37.8h-1.8V36l0-1.8H31h1.8V36c0,1,0,1.8,0,1.8S32,37.8,31,37.8z"/>
</g>
</svg>
