<?xml version="1.0" encoding="utf-8"?>
<!-- Generator: Adobe Illustrator 23.0.5, SVG Export Plug-In . SVG Version: 6.00 Build 0)  -->
<svg version="1.1" id="Layer_1" xmlns:v="https://vecta.io/nano" opacity="0.1"
	 xmlns="http://www.w3.org/2000/svg" xmlns:xlink="http://www.w3.org/1999/xlink" x="0px" y="0px" viewBox="0 0 193 230"
	 style="enable-background:new 0 0 193 230;" xml:space="preserve">
<style type="text/css">
	.st0{fill:#2C2C30;}
	.st1{fill:#35353A;}
	.st2{fill-rule:evenodd;clip-rule:evenodd;fill:#F3BA2F;}
	.st3{fill:#222226;}
	.st4{fill:#EAAE28;}
	.st5{fill:#F3BA2F;}
</style>
<path class="st0" d="M227.4,21.1c1.7,1.7,2,4.8,0.6,6.8c-27.3,38.5-60.5,72.2-99.1,99.6l-3.1,2.3c-2.3,1.7-5.4,1.4-7.1-0.6
	L105,115.3c8.2-8.5,8-21.8-0.6-30c-8.2-7.9-21.3-7.9-29.8,0L62.1,72.9c-2.3-2.3-2-6.2,0.6-8.2l3.1-2.3C103.3,35.8,136,3,162.4-34.6
	c1.7-2.3,4.8-2.8,7.4-1.1c0.3,0.3,0.6,0.3,0.6,0.6l12.8,12.7c-8.2,8.5-8,21.8,0.6,30c8.2,7.9,21.3,7.9,29.5,0L227.4,21.1L227.4,21.1
	z"/>
<path class="st1" d="M232,25.7l-48.2,61.1l-62.6,47.5l-12.1-12.1l-4.2-5.3l4.2-6.2l1.4-6.2l-0.8-6.8l-2.5-6.2l-4.2-5.1l-5-3.4l-5-2
	h-6.7l-7,2.5l-4.2,3.7L64.8,75.5L81.1,73c50.5-7.6,98.5-28.1,138.9-59.4L232,25.7L232,25.7z"/>
<g>
	<path class="st2" d="M230.8,17.5L217.4,4c-2.8-2.8-7-2.5-9.5,0c-5.6,5.3-14.3,5.3-19.9,0c-5.9-5.6-6.2-14.6-0.6-20.5
		c2.5-2.8,2.5-7,0-9.6l-12.6-12.7c-0.6-0.6-1.1-1.1-1.7-1.4c-5.3-3.9-12.9-2.5-16.6,2.8C131-0.8,99.3,31.3,62.9,57.4
		c-0.1,0.1-1.1,0.7-2.3,1.6c-1.2,0.9-2.1,1.8-2.8,2.5c-0.7,0.7-2.3,2.3-3,5c-0.6,2.3-0.2,4.2,0,5.1c0.5,2.2,1.6,4.3,3.3,6L71,90.7
		c2.8,2.5,7,2.5,9.5,0c5.6-5.3,14.3-5.3,19.9,0c5.9,5.6,6.2,14.6,0.6,20.5c-1.1,1.4-2,3.1-2,4.8c0,2,0.8,3.7,2.2,5.1l12.9,12.9
		c4.2,4.2,10.9,4.8,15.7,1.4l3.1-2.3c38.4-27.6,72.1-61.6,99.3-100.4C235.6,28.2,235.1,21.7,230.8,17.5z M226.6,28.5
		c-26.9,38.3-59.7,71.7-98.2,98.2l-3.1,2.3c-2,1.7-5,1.4-7-0.6l-12.9-12.9c8.1-8.2,8.1-21.7,0-29.8c-8.1-8.2-21.6-8.2-29.7,0
		L62.8,72.7c-2.5-2.3-2.2-6.2,0.6-8.2l3-2.2c15.7-10.9,33.7-25.2,52.2-43.7c18.6-18.6,32.9-36.8,43.8-52.6c0.3,0,0.3-0.3,0.6-0.6
		c2-2,5.3-2,7.3,0l12.6,12.7l-0.3,0.3c-8.1,8.4-8.1,21.7,0,29.8c8.1,8.4,21.3,8.4,29.7,0.3l0.3-0.3l13.5,13.5
		C227.8,23.4,228,26.5,226.6,28.5z"/>
	<g>
		<path id="A_1_" class="st2" d="M144.5-11.2l3.1,3.1c1.4,1.4,1.4,3.4,0,4.8c-1.4,1.4-3.4,1.4-4.8,0l-3.1-3.1
			c-1.4-1.4-1.4-3.4,0-4.8C141.1-12.3,143-12.3,144.5-11.2z"/>
	</g>
	<g>
		<path class="st2" d="M156.8,1.5l3.1,3.1c1.4,1.4,1.4,3.4,0,4.8c-1.4,1.4-3.4,1.4-4.8,0L152,6.3c-1.4-1.4-1.4-3.4,0-4.8
			C153.4,0.1,155.7,0.1,156.8,1.5z"/>
	</g>
	<g>
		<path id="B_1_" class="st2" d="M172.2,21.5c-1.4,1.4-3.4,1.4-4.8,0l0,0l-3.4-3.4c-1.4-1.4-1.4-3.4,0-4.8s3.4-1.4,4.8,0l3.6,3.7
			C173.6,18.1,173.6,20.3,172.2,21.5L172.2,21.5z"/>
	</g>
	<g>
		<path class="st2" d="M184.6,34.1c-1.4,1.4-3.4,1.4-4.8,0l0,0l-3.4-3.7c-1.4-1.4-1.4-3.4,0-4.8s3.4-1.4,4.8,0l3.6,3.7
			C186,30.5,186,32.7,184.6,34.1C184.6,33.8,184.6,33.8,184.6,34.1z"/>
	</g>
	<path class="st2" d="M193.5,38.1l3.1,3.1c1.4,1.4,1.4,3.4,0,4.8c-1.4,1.4-3.4,1.4-4.8,0l-3.1-3.1c-1.4-1.4-1.4-3.4,0-4.8
		C190.2,36.9,192.1,36.9,193.5,38.1L193.5,38.1z"/>
	<g>
		<path class="st2" d="M205.9,50.4l3.1,3.1c1.4,1.4,1.4,3.4,0,4.8c-1.4,1.4-3.4,1.4-4.8,0l-3.1-3.1c-1.4-1.4-1.4-3.4,0-4.8
			C202.5,49.3,204.5,49.3,205.9,50.4z"/>
	</g>
</g>
<g>
	<g>
		<g>
			<path class="st3" d="M164.4,83.4c-5.4,5-12.2,8-19.5,8.8c-2,0.2-4.5,0.2-6.5,0c-5.8-0.6-11.1-2.5-15.7-5.7
				c-3.4-2.4-6.5-5.4-8.8-8.9c-3.2-4.7-5.1-10.1-5.7-15.7c-0.2-2-0.2-4.5,0-6.6c0.6-5.7,2.5-11,5.7-15.7c2.4-3.4,5.4-6.5,8.8-8.9
				c4.7-3.2,10-5.1,15.7-5.7c2-0.2,4.5-0.2,6.5,0c5.6,0.6,11,2.5,15.7,5.7c3.4,2.4,6.5,5.4,8.8,8.9c3.2,4.7,5.1,10.1,5.7,15.7
				c0.2,2,0.2,4.5,0,6.6C174.2,70.1,170.5,77.7,164.4,83.4z"/>
		</g>
		<path class="st4" d="M164.4,83.4c-5.4,5-12.2,8-19.5,8.8c-2,0.2-4.5,0.2-6.5,0c-5.8-0.6-11.1-2.5-15.7-5.7
			c-3.4-2.4-6.5-5.4-8.8-8.9c-3.2-4.7-5.1-10.1-5.7-15.7c-0.2-2-0.2-4.5,0-6.6c0.6-5.7,2.5-11,5.7-15.7c2.4-3.4,5.4-6.5,8.8-8.9
			c4.7-3.2,10-5.1,15.7-5.7c2-0.2,4.5-0.2,6.5,0c5.6,0.6,11,2.5,15.7,5.7c3.4,2.4,6.5,5.4,8.8,8.9c3.2,4.7,5.1,10.1,5.7,15.7
			c0.2,2,0.2,4.5,0,6.6C174.2,70.1,170.5,77.7,164.4,83.4z M164.4,78.4c1.8-2.1,3-4.1,4.2-6.3c1.2-2.4,2.1-4.9,2.6-7.7
			c1.5-7.4,0.1-15.1-3.7-21.6c-0.7-1.2-1.6-2.5-2.5-3.5c-0.7-0.9-1-1.2-2.2-2.3c-1.3-1.3-2-1.9-3.3-2.8c-3.1-2.4-6.8-4.1-10.7-5.1
			c-6.5-1.6-13.5-1-19.7,1.7c-2.9,1.3-5.6,3.1-8,5.2c-0.6,0.6-2.1,2.1-2.6,2.6c-3.2,3.8-5.3,7.8-6.5,12.4c-1.6,6.6-1,13.6,1.7,19.7
			c1.3,2.8,2.7,5.1,4.8,7.6c0.4,0.6,2.5,2.6,3,3c2.1,1.8,4,3.1,6.3,4.2c2.5,1.3,5.1,2.2,7.6,2.8c5.6,1.1,11.4,0.6,16.9-1.4
			c3.2-1.3,6.4-3.1,9-5.4c0.2-0.2,0.4-0.4,0.5-0.5C162.2,80.8,164.2,78.8,164.4,78.4z"/>
		<path class="st4" d="M141.6,76.8l-18.2,0.1l0-18.2l0-18.3l18.1,0l18.3,0l-0.1,18.2c0.1,10.1,0.1,18.2,0.1,18.2
			S151.6,76.9,141.6,76.8z M151,58.5v-9.4l-9.4,0l-9.5,0l0,9.4v9.5l9.4,0c5.2,0,9.4,0,9.4-0.1S151,63.7,151,58.5z"/>
	</g>
	<path class="st5" d="M141.6,76.8l-18.2,0.1l0-18.2l0-18.3l18.1,0l18.3,0l-0.1,18.2c0.1,10.1,0.1,18.2,0.1,18.2
		S151.6,76.9,141.6,76.8z M159,69.6V63l-3.7,0c-2.1,0-3.7,0-3.7,0s-0.1,1.3,0,2.8c0,1.5,0,2.8,0,2.8s-1.3,0.1-2.8,0
		c-1.5,0-2.8,0-2.8,0s0,1.6,0,3.7v3.7h6.5c3.6,0,6.5,0,6.5,0S159,73.1,159,69.6z M151,58.5v-9.4l-9.4,0l-9.5,0l0,9.4v9.5l6.5,0
		c3.6,0,6.5,0,6.5,0l0,0c0,0,1.3,0,2.8,0s2.8,0,2.8,0S151,63.7,151,58.5z M131.4,51.4c0-1.5,0-2.8,0-2.8s1.3,0,2.8,0h2.8v-3.7
		c0-2.1,0-3.7,0-3.7s-3,0-6.5,0L124,41l0,6.6v6.6l3.7,0c2.1,0,3.7,0,3.7,0C131.4,54.2,131.4,52.9,131.4,51.4z"/>
	<path class="st5" d="M141.6,63.7l-5.1,0v-5.1v-5.1l5.1,0h5.1v5.1c0,2.8,0,5.1,0,5.1C146.6,63.7,144.4,63.7,141.6,63.7z"/>
</g>
</svg>
